G04 #@! TF.GenerationSoftware,KiCad,Pcbnew,5.1.5+dfsg1-2build2*
G04 #@! TF.CreationDate,2020-12-30T20:24:05+01:00*
G04 #@! TF.ProjectId,stm32f0can,73746d33-3266-4306-9361-6e2e6b696361,rev?*
G04 #@! TF.SameCoordinates,Original*
G04 #@! TF.FileFunction,Copper,L4,Bot*
G04 #@! TF.FilePolarity,Positive*
%FSLAX46Y46*%
G04 Gerber Fmt 4.6, Leading zero omitted, Abs format (unit mm)*
G04 Created by KiCad (PCBNEW 5.1.5+dfsg1-2build2) date 2020-12-30 20:24:05*
%MOMM*%
%LPD*%
G04 APERTURE LIST*
%ADD10C,1.600000*%
%ADD11R,1.600000X1.600000*%
%ADD12R,1.800000X1.800000*%
%ADD13C,1.800000*%
%ADD14R,3.000000X3.000000*%
%ADD15C,3.000000*%
%ADD16O,1.700000X1.700000*%
%ADD17R,1.700000X1.700000*%
%ADD18C,2.000000*%
%ADD19C,1.400000*%
%ADD20O,1.400000X1.400000*%
%ADD21C,0.800000*%
%ADD22C,1.000000*%
%ADD23C,0.250000*%
G04 APERTURE END LIST*
D10*
X123150000Y-105410000D03*
D11*
X120650000Y-105410000D03*
X128270000Y-112990000D03*
D10*
X128270000Y-115490000D03*
X139700000Y-130810000D03*
D11*
X137200000Y-130810000D03*
X129580000Y-129540000D03*
D10*
X132080000Y-129540000D03*
X130810000Y-121920000D03*
D11*
X128310000Y-121920000D03*
X151130000Y-113030000D03*
D10*
X151130000Y-115530000D03*
D11*
X114300000Y-124460000D03*
D10*
X111800000Y-124460000D03*
X111800000Y-116840000D03*
D11*
X114300000Y-116840000D03*
D12*
X101600000Y-100330000D03*
D13*
X104140000Y-100330000D03*
X104140000Y-105410000D03*
D12*
X101600000Y-105410000D03*
X101600000Y-110490000D03*
D13*
X104140000Y-110490000D03*
D14*
X157480000Y-100330000D03*
D15*
X157480000Y-105410000D03*
D16*
X119380000Y-99060000D03*
X121920000Y-99060000D03*
X124460000Y-99060000D03*
D17*
X127000000Y-99060000D03*
X143510000Y-99060000D03*
D16*
X143510000Y-101600000D03*
X140970000Y-99060000D03*
X140970000Y-101600000D03*
X138430000Y-99060000D03*
X138430000Y-101600000D03*
X135890000Y-99060000D03*
X135890000Y-101600000D03*
X133350000Y-99060000D03*
X133350000Y-101600000D03*
X116840000Y-132080000D03*
X119380000Y-132080000D03*
X121920000Y-132080000D03*
D17*
X124460000Y-132080000D03*
X161290000Y-124460000D03*
D16*
X161290000Y-127000000D03*
X161290000Y-129540000D03*
X161290000Y-132080000D03*
D17*
X101600000Y-115570000D03*
D16*
X101600000Y-118110000D03*
X101600000Y-120650000D03*
X101600000Y-123190000D03*
D17*
X113030000Y-132080000D03*
D16*
X110490000Y-132080000D03*
X107950000Y-132080000D03*
X105410000Y-132080000D03*
X134620000Y-109220000D03*
X134620000Y-111760000D03*
X134620000Y-114300000D03*
D17*
X134620000Y-116840000D03*
D18*
X114300000Y-106680000D03*
X114300000Y-111760000D03*
X149860000Y-130810000D03*
X144780000Y-130810000D03*
X143510000Y-121920000D03*
X148590000Y-121920000D03*
X139738100Y-122047000D03*
X134658100Y-122047000D03*
X157480000Y-115570000D03*
X157480000Y-120650000D03*
D19*
X149860000Y-100330000D03*
D20*
X149860000Y-105410000D03*
X152400000Y-132080000D03*
D19*
X157480000Y-132080000D03*
X157480000Y-129540000D03*
D20*
X152400000Y-129540000D03*
D19*
X157480000Y-127000000D03*
D20*
X152400000Y-127000000D03*
X152400000Y-124460000D03*
D19*
X157480000Y-124460000D03*
D20*
X107950000Y-99060000D03*
D19*
X113030000Y-99060000D03*
X113030000Y-101600000D03*
D20*
X107950000Y-101600000D03*
X107950000Y-104140000D03*
D19*
X113030000Y-104140000D03*
D21*
X141833600Y-113093500D03*
X125996837Y-116662644D03*
X146240500Y-115557300D03*
X125107700Y-116205000D03*
X137160000Y-112776000D03*
X125984000Y-111859998D03*
X126930856Y-110234448D03*
X124968000Y-111859998D03*
X125730000Y-110409998D03*
D22*
X114300000Y-116840000D02*
X114300000Y-111760000D01*
X114300000Y-124460000D02*
X114300000Y-116840000D01*
D23*
X102750000Y-100330000D02*
X101600000Y-100330000D01*
X102825001Y-115444999D02*
X102825001Y-100405001D01*
X102700000Y-115570000D02*
X102825001Y-115444999D01*
X102825001Y-100405001D02*
X102750000Y-100330000D01*
X101600000Y-115570000D02*
X102700000Y-115570000D01*
X100450000Y-105410000D02*
X101600000Y-105410000D01*
X100374999Y-105485001D02*
X100450000Y-105410000D01*
X100374999Y-116884999D02*
X100374999Y-105485001D01*
X101600000Y-118110000D02*
X100374999Y-116884999D01*
X107950000Y-106680000D02*
X107950000Y-104140000D01*
X104140000Y-110490000D02*
X107950000Y-106680000D01*
D22*
X137160000Y-111760000D02*
X134620000Y-109220000D01*
X137160000Y-112776000D02*
X137160000Y-111760000D01*
D23*
X133417919Y-109220000D02*
X134620000Y-109220000D01*
D22*
X124460000Y-100262081D02*
X133417919Y-109220000D01*
D23*
X124460000Y-99060000D02*
X124460000Y-100262081D01*
X125984000Y-111294313D02*
X125984000Y-111859998D01*
X126746000Y-110419303D02*
X126746000Y-110532313D01*
X126746000Y-110532313D02*
X125984000Y-111294313D01*
X126755305Y-110409998D02*
X126746000Y-110419303D01*
X127000000Y-110236000D02*
X126755305Y-110409998D01*
X126998448Y-110234448D02*
X127000000Y-110236000D01*
X126930856Y-110234448D02*
X126998448Y-110234448D01*
X124968000Y-111171998D02*
X125730000Y-110409998D01*
X124968000Y-111859998D02*
X124968000Y-111171998D01*
X157480000Y-124460000D02*
X160020000Y-124460000D01*
X161290000Y-124460000D02*
X160020000Y-124460000D01*
X157480000Y-127000000D02*
X160020000Y-127000000D01*
X161290000Y-127000000D02*
X160020000Y-127000000D01*
X158817919Y-129540000D02*
X157480000Y-129540000D01*
X160020000Y-129540000D02*
X158817919Y-129540000D01*
X159893000Y-132080000D02*
X157480000Y-132080000D01*
X161290000Y-132080000D02*
X159893000Y-132080000D01*
M02*
