G04 #@! TF.GenerationSoftware,KiCad,Pcbnew,5.1.5+dfsg1-2build2*
G04 #@! TF.CreationDate,2020-12-30T20:24:05+01:00*
G04 #@! TF.ProjectId,stm32f0can,73746d33-3266-4306-9361-6e2e6b696361,rev?*
G04 #@! TF.SameCoordinates,Original*
G04 #@! TF.FileFunction,Copper,L3,Inr*
G04 #@! TF.FilePolarity,Positive*
%FSLAX46Y46*%
G04 Gerber Fmt 4.6, Leading zero omitted, Abs format (unit mm)*
G04 Created by KiCad (PCBNEW 5.1.5+dfsg1-2build2) date 2020-12-30 20:24:05*
%MOMM*%
%LPD*%
G04 APERTURE LIST*
%ADD10C,1.600000*%
%ADD11R,1.600000X1.600000*%
%ADD12R,1.800000X1.800000*%
%ADD13C,1.800000*%
%ADD14R,3.000000X3.000000*%
%ADD15C,3.000000*%
%ADD16O,1.700000X1.700000*%
%ADD17R,1.700000X1.700000*%
%ADD18C,2.000000*%
%ADD19C,1.400000*%
%ADD20O,1.400000X1.400000*%
%ADD21C,0.800000*%
%ADD22C,0.254000*%
G04 APERTURE END LIST*
D10*
X123150000Y-105410000D03*
D11*
X120650000Y-105410000D03*
X128270000Y-112990000D03*
D10*
X128270000Y-115490000D03*
X139700000Y-130810000D03*
D11*
X137200000Y-130810000D03*
X129580000Y-129540000D03*
D10*
X132080000Y-129540000D03*
X130810000Y-121920000D03*
D11*
X128310000Y-121920000D03*
X151130000Y-113030000D03*
D10*
X151130000Y-115530000D03*
D11*
X114300000Y-124460000D03*
D10*
X111800000Y-124460000D03*
X111800000Y-116840000D03*
D11*
X114300000Y-116840000D03*
D12*
X101600000Y-100330000D03*
D13*
X104140000Y-100330000D03*
X104140000Y-105410000D03*
D12*
X101600000Y-105410000D03*
X101600000Y-110490000D03*
D13*
X104140000Y-110490000D03*
D14*
X157480000Y-100330000D03*
D15*
X157480000Y-105410000D03*
D16*
X119380000Y-99060000D03*
X121920000Y-99060000D03*
X124460000Y-99060000D03*
D17*
X127000000Y-99060000D03*
X143510000Y-99060000D03*
D16*
X143510000Y-101600000D03*
X140970000Y-99060000D03*
X140970000Y-101600000D03*
X138430000Y-99060000D03*
X138430000Y-101600000D03*
X135890000Y-99060000D03*
X135890000Y-101600000D03*
X133350000Y-99060000D03*
X133350000Y-101600000D03*
X116840000Y-132080000D03*
X119380000Y-132080000D03*
X121920000Y-132080000D03*
D17*
X124460000Y-132080000D03*
X161290000Y-124460000D03*
D16*
X161290000Y-127000000D03*
X161290000Y-129540000D03*
X161290000Y-132080000D03*
D17*
X101600000Y-115570000D03*
D16*
X101600000Y-118110000D03*
X101600000Y-120650000D03*
X101600000Y-123190000D03*
D17*
X113030000Y-132080000D03*
D16*
X110490000Y-132080000D03*
X107950000Y-132080000D03*
X105410000Y-132080000D03*
X134620000Y-109220000D03*
X134620000Y-111760000D03*
X134620000Y-114300000D03*
D17*
X134620000Y-116840000D03*
D18*
X114300000Y-106680000D03*
X114300000Y-111760000D03*
X149860000Y-130810000D03*
X144780000Y-130810000D03*
X143510000Y-121920000D03*
X148590000Y-121920000D03*
X139738100Y-122047000D03*
X134658100Y-122047000D03*
X157480000Y-115570000D03*
X157480000Y-120650000D03*
D19*
X149860000Y-100330000D03*
D20*
X149860000Y-105410000D03*
X152400000Y-132080000D03*
D19*
X157480000Y-132080000D03*
X157480000Y-129540000D03*
D20*
X152400000Y-129540000D03*
D19*
X157480000Y-127000000D03*
D20*
X152400000Y-127000000D03*
X152400000Y-124460000D03*
D19*
X157480000Y-124460000D03*
D20*
X107950000Y-99060000D03*
D19*
X113030000Y-99060000D03*
X113030000Y-101600000D03*
D20*
X107950000Y-101600000D03*
X107950000Y-104140000D03*
D19*
X113030000Y-104140000D03*
D21*
X141833600Y-113093500D03*
X125996837Y-116662644D03*
X146240500Y-115557300D03*
X125107700Y-116205000D03*
X137160000Y-112776000D03*
X125984000Y-111859998D03*
X126930856Y-110234448D03*
X124968000Y-111859998D03*
X125730000Y-110409998D03*
D22*
G36*
X107098987Y-98023038D02*
G01*
X106913038Y-98208987D01*
X106766939Y-98427641D01*
X106666304Y-98670595D01*
X106615000Y-98928514D01*
X106615000Y-99191486D01*
X106666304Y-99449405D01*
X106766939Y-99692359D01*
X106913038Y-99911013D01*
X107098987Y-100096962D01*
X107317641Y-100243061D01*
X107527530Y-100330000D01*
X107317641Y-100416939D01*
X107098987Y-100563038D01*
X106913038Y-100748987D01*
X106766939Y-100967641D01*
X106666304Y-101210595D01*
X106615000Y-101468514D01*
X106615000Y-101731486D01*
X106666304Y-101989405D01*
X106766939Y-102232359D01*
X106913038Y-102451013D01*
X107098987Y-102636962D01*
X107317641Y-102783061D01*
X107527530Y-102870000D01*
X107317641Y-102956939D01*
X107098987Y-103103038D01*
X106913038Y-103288987D01*
X106766939Y-103507641D01*
X106666304Y-103750595D01*
X106615000Y-104008514D01*
X106615000Y-104271486D01*
X106666304Y-104529405D01*
X106766939Y-104772359D01*
X106913038Y-104991013D01*
X107098987Y-105176962D01*
X107317641Y-105323061D01*
X107560595Y-105423696D01*
X107818514Y-105475000D01*
X108081486Y-105475000D01*
X108339405Y-105423696D01*
X108582359Y-105323061D01*
X108801013Y-105176962D01*
X108916706Y-105061269D01*
X112288336Y-105061269D01*
X112347797Y-105295037D01*
X112586242Y-105405934D01*
X112841740Y-105468183D01*
X113104473Y-105479390D01*
X113364344Y-105439125D01*
X113385140Y-105431532D01*
X113344192Y-105544587D01*
X114300000Y-106500395D01*
X115255808Y-105544587D01*
X115160044Y-105280186D01*
X114870429Y-105139296D01*
X114558892Y-105057616D01*
X114237405Y-105038282D01*
X113994673Y-105071569D01*
X114067925Y-104998317D01*
X113951271Y-104881663D01*
X114185037Y-104822203D01*
X114283729Y-104610000D01*
X119211928Y-104610000D01*
X119215000Y-105124250D01*
X119373750Y-105283000D01*
X120523000Y-105283000D01*
X120523000Y-104133750D01*
X120777000Y-104133750D01*
X120777000Y-105283000D01*
X120797000Y-105283000D01*
X120797000Y-105537000D01*
X120777000Y-105537000D01*
X120777000Y-106686250D01*
X120935750Y-106845000D01*
X121450000Y-106848072D01*
X121574482Y-106835812D01*
X121694180Y-106799502D01*
X121804494Y-106740537D01*
X121901185Y-106661185D01*
X121980537Y-106564494D01*
X122039502Y-106454180D01*
X122068661Y-106358057D01*
X122235241Y-106524637D01*
X122470273Y-106681680D01*
X122731426Y-106789853D01*
X123008665Y-106845000D01*
X123291335Y-106845000D01*
X123568574Y-106789853D01*
X123829727Y-106681680D01*
X124064759Y-106524637D01*
X124264637Y-106324759D01*
X124421680Y-106089727D01*
X124529853Y-105828574D01*
X124585000Y-105551335D01*
X124585000Y-105278514D01*
X148525000Y-105278514D01*
X148525000Y-105541486D01*
X148576304Y-105799405D01*
X148676939Y-106042359D01*
X148823038Y-106261013D01*
X149008987Y-106446962D01*
X149227641Y-106593061D01*
X149470595Y-106693696D01*
X149728514Y-106745000D01*
X149991486Y-106745000D01*
X150249405Y-106693696D01*
X150492359Y-106593061D01*
X150711013Y-106446962D01*
X150896962Y-106261013D01*
X151043061Y-106042359D01*
X151143696Y-105799405D01*
X151195000Y-105541486D01*
X151195000Y-105278514D01*
X151179327Y-105199721D01*
X155345000Y-105199721D01*
X155345000Y-105620279D01*
X155427047Y-106032756D01*
X155587988Y-106421302D01*
X155821637Y-106770983D01*
X156119017Y-107068363D01*
X156468698Y-107302012D01*
X156857244Y-107462953D01*
X157269721Y-107545000D01*
X157690279Y-107545000D01*
X158102756Y-107462953D01*
X158491302Y-107302012D01*
X158840983Y-107068363D01*
X159138363Y-106770983D01*
X159372012Y-106421302D01*
X159532953Y-106032756D01*
X159615000Y-105620279D01*
X159615000Y-105199721D01*
X159532953Y-104787244D01*
X159372012Y-104398698D01*
X159138363Y-104049017D01*
X158840983Y-103751637D01*
X158491302Y-103517988D01*
X158102756Y-103357047D01*
X157690279Y-103275000D01*
X157269721Y-103275000D01*
X156857244Y-103357047D01*
X156468698Y-103517988D01*
X156119017Y-103751637D01*
X155821637Y-104049017D01*
X155587988Y-104398698D01*
X155427047Y-104787244D01*
X155345000Y-105199721D01*
X151179327Y-105199721D01*
X151143696Y-105020595D01*
X151043061Y-104777641D01*
X150896962Y-104558987D01*
X150711013Y-104373038D01*
X150492359Y-104226939D01*
X150249405Y-104126304D01*
X149991486Y-104075000D01*
X149728514Y-104075000D01*
X149470595Y-104126304D01*
X149227641Y-104226939D01*
X149008987Y-104373038D01*
X148823038Y-104558987D01*
X148676939Y-104777641D01*
X148576304Y-105020595D01*
X148525000Y-105278514D01*
X124585000Y-105278514D01*
X124585000Y-105268665D01*
X124529853Y-104991426D01*
X124421680Y-104730273D01*
X124264637Y-104495241D01*
X124064759Y-104295363D01*
X123829727Y-104138320D01*
X123568574Y-104030147D01*
X123291335Y-103975000D01*
X123008665Y-103975000D01*
X122731426Y-104030147D01*
X122470273Y-104138320D01*
X122235241Y-104295363D01*
X122068661Y-104461943D01*
X122039502Y-104365820D01*
X121980537Y-104255506D01*
X121901185Y-104158815D01*
X121804494Y-104079463D01*
X121694180Y-104020498D01*
X121574482Y-103984188D01*
X121450000Y-103971928D01*
X120935750Y-103975000D01*
X120777000Y-104133750D01*
X120523000Y-104133750D01*
X120364250Y-103975000D01*
X119850000Y-103971928D01*
X119725518Y-103984188D01*
X119605820Y-104020498D01*
X119495506Y-104079463D01*
X119398815Y-104158815D01*
X119319463Y-104255506D01*
X119260498Y-104365820D01*
X119224188Y-104485518D01*
X119211928Y-104610000D01*
X114283729Y-104610000D01*
X114295934Y-104583758D01*
X114358183Y-104328260D01*
X114369390Y-104065527D01*
X114329125Y-103805656D01*
X114238935Y-103558634D01*
X114185037Y-103457797D01*
X113951269Y-103398336D01*
X113209605Y-104140000D01*
X113223748Y-104154143D01*
X113044143Y-104333748D01*
X113030000Y-104319605D01*
X112288336Y-105061269D01*
X108916706Y-105061269D01*
X108986962Y-104991013D01*
X109133061Y-104772359D01*
X109233696Y-104529405D01*
X109285000Y-104271486D01*
X109285000Y-104214473D01*
X111690610Y-104214473D01*
X111730875Y-104474344D01*
X111821065Y-104721366D01*
X111874963Y-104822203D01*
X112108731Y-104881664D01*
X112850395Y-104140000D01*
X112108731Y-103398336D01*
X111874963Y-103457797D01*
X111764066Y-103696242D01*
X111701817Y-103951740D01*
X111690610Y-104214473D01*
X109285000Y-104214473D01*
X109285000Y-104008514D01*
X109233696Y-103750595D01*
X109133061Y-103507641D01*
X108986962Y-103288987D01*
X108801013Y-103103038D01*
X108582359Y-102956939D01*
X108372470Y-102870000D01*
X108582359Y-102783061D01*
X108801013Y-102636962D01*
X108916706Y-102521269D01*
X112288336Y-102521269D01*
X112347797Y-102755037D01*
X112586242Y-102865934D01*
X112610701Y-102871893D01*
X112448634Y-102931065D01*
X112347797Y-102984963D01*
X112288336Y-103218731D01*
X113030000Y-103960395D01*
X113771664Y-103218731D01*
X113712203Y-102984963D01*
X113473758Y-102874066D01*
X113449299Y-102868107D01*
X113611366Y-102808935D01*
X113712203Y-102755037D01*
X113771664Y-102521269D01*
X113030000Y-101779605D01*
X112288336Y-102521269D01*
X108916706Y-102521269D01*
X108986962Y-102451013D01*
X109133061Y-102232359D01*
X109233696Y-101989405D01*
X109285000Y-101731486D01*
X109285000Y-101674473D01*
X111690610Y-101674473D01*
X111730875Y-101934344D01*
X111821065Y-102181366D01*
X111874963Y-102282203D01*
X112108731Y-102341664D01*
X112850395Y-101600000D01*
X113209605Y-101600000D01*
X113951269Y-102341664D01*
X114185037Y-102282203D01*
X114295934Y-102043758D01*
X114358183Y-101788260D01*
X114369390Y-101525527D01*
X114329125Y-101265656D01*
X114238935Y-101018634D01*
X114185037Y-100917797D01*
X113951269Y-100858336D01*
X113209605Y-101600000D01*
X112850395Y-101600000D01*
X112108731Y-100858336D01*
X111874963Y-100917797D01*
X111764066Y-101156242D01*
X111701817Y-101411740D01*
X111690610Y-101674473D01*
X109285000Y-101674473D01*
X109285000Y-101468514D01*
X109233696Y-101210595D01*
X109133061Y-100967641D01*
X108986962Y-100748987D01*
X108801013Y-100563038D01*
X108582359Y-100416939D01*
X108372470Y-100330000D01*
X108582359Y-100243061D01*
X108801013Y-100096962D01*
X108916706Y-99981269D01*
X112288336Y-99981269D01*
X112347797Y-100215037D01*
X112586242Y-100325934D01*
X112610701Y-100331893D01*
X112448634Y-100391065D01*
X112347797Y-100444963D01*
X112288336Y-100678731D01*
X113030000Y-101420395D01*
X113771664Y-100678731D01*
X113712203Y-100444963D01*
X113473758Y-100334066D01*
X113449299Y-100328107D01*
X113611366Y-100268935D01*
X113712203Y-100215037D01*
X113771664Y-99981269D01*
X113030000Y-99239605D01*
X112288336Y-99981269D01*
X108916706Y-99981269D01*
X108986962Y-99911013D01*
X109133061Y-99692359D01*
X109233696Y-99449405D01*
X109285000Y-99191486D01*
X109285000Y-99134473D01*
X111690610Y-99134473D01*
X111730875Y-99394344D01*
X111821065Y-99641366D01*
X111874963Y-99742203D01*
X112108731Y-99801664D01*
X112850395Y-99060000D01*
X113209605Y-99060000D01*
X113951269Y-99801664D01*
X114185037Y-99742203D01*
X114295934Y-99503758D01*
X114317098Y-99416891D01*
X117938519Y-99416891D01*
X118035843Y-99691252D01*
X118184822Y-99941355D01*
X118379731Y-100157588D01*
X118613080Y-100331641D01*
X118875901Y-100456825D01*
X119023110Y-100501476D01*
X119253000Y-100380155D01*
X119253000Y-99187000D01*
X118059186Y-99187000D01*
X117938519Y-99416891D01*
X114317098Y-99416891D01*
X114358183Y-99248260D01*
X114369390Y-98985527D01*
X114329125Y-98725656D01*
X114238935Y-98478634D01*
X114185037Y-98377797D01*
X113951269Y-98318336D01*
X113209605Y-99060000D01*
X112850395Y-99060000D01*
X112108731Y-98318336D01*
X111874963Y-98377797D01*
X111764066Y-98616242D01*
X111701817Y-98871740D01*
X111690610Y-99134473D01*
X109285000Y-99134473D01*
X109285000Y-98928514D01*
X109233696Y-98670595D01*
X109133061Y-98427641D01*
X108986962Y-98208987D01*
X108801013Y-98023038D01*
X108642315Y-97917000D01*
X112344735Y-97917000D01*
X112288336Y-98138731D01*
X113030000Y-98880395D01*
X113771664Y-98138731D01*
X113715265Y-97917000D01*
X118440614Y-97917000D01*
X118379731Y-97962412D01*
X118184822Y-98178645D01*
X118035843Y-98428748D01*
X117938519Y-98703109D01*
X118059186Y-98933000D01*
X119253000Y-98933000D01*
X119253000Y-98913000D01*
X119507000Y-98913000D01*
X119507000Y-98933000D01*
X119527000Y-98933000D01*
X119527000Y-99187000D01*
X119507000Y-99187000D01*
X119507000Y-100380155D01*
X119736890Y-100501476D01*
X119884099Y-100456825D01*
X120146920Y-100331641D01*
X120380269Y-100157588D01*
X120575178Y-99941355D01*
X120644805Y-99824466D01*
X120766525Y-100006632D01*
X120973368Y-100213475D01*
X121216589Y-100375990D01*
X121486842Y-100487932D01*
X121773740Y-100545000D01*
X122066260Y-100545000D01*
X122353158Y-100487932D01*
X122623411Y-100375990D01*
X122866632Y-100213475D01*
X123073475Y-100006632D01*
X123190000Y-99832240D01*
X123306525Y-100006632D01*
X123513368Y-100213475D01*
X123756589Y-100375990D01*
X124026842Y-100487932D01*
X124313740Y-100545000D01*
X124606260Y-100545000D01*
X124893158Y-100487932D01*
X125163411Y-100375990D01*
X125406632Y-100213475D01*
X125538487Y-100081620D01*
X125560498Y-100154180D01*
X125619463Y-100264494D01*
X125698815Y-100361185D01*
X125795506Y-100440537D01*
X125905820Y-100499502D01*
X126025518Y-100535812D01*
X126150000Y-100548072D01*
X127850000Y-100548072D01*
X127974482Y-100535812D01*
X128094180Y-100499502D01*
X128204494Y-100440537D01*
X128301185Y-100361185D01*
X128380537Y-100264494D01*
X128439502Y-100154180D01*
X128475812Y-100034482D01*
X128488072Y-99910000D01*
X128488072Y-98210000D01*
X128475812Y-98085518D01*
X128439502Y-97965820D01*
X128413407Y-97917000D01*
X132392893Y-97917000D01*
X132196525Y-98113368D01*
X132034010Y-98356589D01*
X131922068Y-98626842D01*
X131865000Y-98913740D01*
X131865000Y-99206260D01*
X131922068Y-99493158D01*
X132034010Y-99763411D01*
X132196525Y-100006632D01*
X132403368Y-100213475D01*
X132577760Y-100330000D01*
X132403368Y-100446525D01*
X132196525Y-100653368D01*
X132034010Y-100896589D01*
X131922068Y-101166842D01*
X131865000Y-101453740D01*
X131865000Y-101746260D01*
X131922068Y-102033158D01*
X132034010Y-102303411D01*
X132196525Y-102546632D01*
X132403368Y-102753475D01*
X132646589Y-102915990D01*
X132916842Y-103027932D01*
X133203740Y-103085000D01*
X133496260Y-103085000D01*
X133783158Y-103027932D01*
X134053411Y-102915990D01*
X134296632Y-102753475D01*
X134503475Y-102546632D01*
X134620000Y-102372240D01*
X134736525Y-102546632D01*
X134943368Y-102753475D01*
X135186589Y-102915990D01*
X135456842Y-103027932D01*
X135743740Y-103085000D01*
X136036260Y-103085000D01*
X136323158Y-103027932D01*
X136593411Y-102915990D01*
X136836632Y-102753475D01*
X137043475Y-102546632D01*
X137160000Y-102372240D01*
X137276525Y-102546632D01*
X137483368Y-102753475D01*
X137726589Y-102915990D01*
X137996842Y-103027932D01*
X138283740Y-103085000D01*
X138576260Y-103085000D01*
X138863158Y-103027932D01*
X139133411Y-102915990D01*
X139376632Y-102753475D01*
X139583475Y-102546632D01*
X139700000Y-102372240D01*
X139816525Y-102546632D01*
X140023368Y-102753475D01*
X140266589Y-102915990D01*
X140536842Y-103027932D01*
X140823740Y-103085000D01*
X141116260Y-103085000D01*
X141403158Y-103027932D01*
X141673411Y-102915990D01*
X141916632Y-102753475D01*
X142123475Y-102546632D01*
X142240000Y-102372240D01*
X142356525Y-102546632D01*
X142563368Y-102753475D01*
X142806589Y-102915990D01*
X143076842Y-103027932D01*
X143363740Y-103085000D01*
X143656260Y-103085000D01*
X143943158Y-103027932D01*
X144213411Y-102915990D01*
X144456632Y-102753475D01*
X144663475Y-102546632D01*
X144825990Y-102303411D01*
X144937932Y-102033158D01*
X144995000Y-101746260D01*
X144995000Y-101453740D01*
X144937932Y-101166842D01*
X144825990Y-100896589D01*
X144663475Y-100653368D01*
X144531620Y-100521513D01*
X144604180Y-100499502D01*
X144714494Y-100440537D01*
X144811185Y-100361185D01*
X144890537Y-100264494D01*
X144925804Y-100198514D01*
X148525000Y-100198514D01*
X148525000Y-100461486D01*
X148576304Y-100719405D01*
X148676939Y-100962359D01*
X148823038Y-101181013D01*
X149008987Y-101366962D01*
X149227641Y-101513061D01*
X149470595Y-101613696D01*
X149728514Y-101665000D01*
X149991486Y-101665000D01*
X150249405Y-101613696D01*
X150492359Y-101513061D01*
X150711013Y-101366962D01*
X150896962Y-101181013D01*
X151043061Y-100962359D01*
X151143696Y-100719405D01*
X151195000Y-100461486D01*
X151195000Y-100198514D01*
X151143696Y-99940595D01*
X151043061Y-99697641D01*
X150896962Y-99478987D01*
X150711013Y-99293038D01*
X150492359Y-99146939D01*
X150249405Y-99046304D01*
X149991486Y-98995000D01*
X149728514Y-98995000D01*
X149470595Y-99046304D01*
X149227641Y-99146939D01*
X149008987Y-99293038D01*
X148823038Y-99478987D01*
X148676939Y-99697641D01*
X148576304Y-99940595D01*
X148525000Y-100198514D01*
X144925804Y-100198514D01*
X144949502Y-100154180D01*
X144985812Y-100034482D01*
X144998072Y-99910000D01*
X144995000Y-99345750D01*
X144836250Y-99187000D01*
X143637000Y-99187000D01*
X143637000Y-99207000D01*
X143383000Y-99207000D01*
X143383000Y-99187000D01*
X143363000Y-99187000D01*
X143363000Y-98933000D01*
X143383000Y-98933000D01*
X143383000Y-98913000D01*
X143637000Y-98913000D01*
X143637000Y-98933000D01*
X144836250Y-98933000D01*
X144939250Y-98830000D01*
X155341928Y-98830000D01*
X155341928Y-101830000D01*
X155354188Y-101954482D01*
X155390498Y-102074180D01*
X155449463Y-102184494D01*
X155528815Y-102281185D01*
X155625506Y-102360537D01*
X155735820Y-102419502D01*
X155855518Y-102455812D01*
X155980000Y-102468072D01*
X158980000Y-102468072D01*
X159104482Y-102455812D01*
X159224180Y-102419502D01*
X159334494Y-102360537D01*
X159431185Y-102281185D01*
X159510537Y-102184494D01*
X159569502Y-102074180D01*
X159605812Y-101954482D01*
X159618072Y-101830000D01*
X159618072Y-98830000D01*
X159605812Y-98705518D01*
X159569502Y-98585820D01*
X159510537Y-98475506D01*
X159431185Y-98378815D01*
X159334494Y-98299463D01*
X159224180Y-98240498D01*
X159104482Y-98204188D01*
X158980000Y-98191928D01*
X155980000Y-98191928D01*
X155855518Y-98204188D01*
X155735820Y-98240498D01*
X155625506Y-98299463D01*
X155528815Y-98378815D01*
X155449463Y-98475506D01*
X155390498Y-98585820D01*
X155354188Y-98705518D01*
X155341928Y-98830000D01*
X144939250Y-98830000D01*
X144995000Y-98774250D01*
X144998072Y-98210000D01*
X144985812Y-98085518D01*
X144949502Y-97965820D01*
X144923407Y-97917000D01*
X161163000Y-97917000D01*
X161163000Y-122971928D01*
X160440000Y-122971928D01*
X160315518Y-122984188D01*
X160195820Y-123020498D01*
X160085506Y-123079463D01*
X159988815Y-123158815D01*
X159909463Y-123255506D01*
X159850498Y-123365820D01*
X159814188Y-123485518D01*
X159801928Y-123610000D01*
X159801928Y-125310000D01*
X159814188Y-125434482D01*
X159850498Y-125554180D01*
X159909463Y-125664494D01*
X159988815Y-125761185D01*
X160085506Y-125840537D01*
X160195820Y-125899502D01*
X160268380Y-125921513D01*
X160136525Y-126053368D01*
X159974010Y-126296589D01*
X159862068Y-126566842D01*
X159805000Y-126853740D01*
X159805000Y-127146260D01*
X159862068Y-127433158D01*
X159974010Y-127703411D01*
X160136525Y-127946632D01*
X160343368Y-128153475D01*
X160517760Y-128270000D01*
X160343368Y-128386525D01*
X160136525Y-128593368D01*
X159974010Y-128836589D01*
X159862068Y-129106842D01*
X159805000Y-129393740D01*
X159805000Y-129686260D01*
X159862068Y-129973158D01*
X159974010Y-130243411D01*
X160136525Y-130486632D01*
X160343368Y-130693475D01*
X160517760Y-130810000D01*
X160343368Y-130926525D01*
X160136525Y-131133368D01*
X159974010Y-131376589D01*
X159862068Y-131646842D01*
X159805000Y-131933740D01*
X159805000Y-132226260D01*
X159862068Y-132513158D01*
X159974010Y-132783411D01*
X160136525Y-133026632D01*
X160332893Y-133223000D01*
X158172315Y-133223000D01*
X158331013Y-133116962D01*
X158516962Y-132931013D01*
X158663061Y-132712359D01*
X158763696Y-132469405D01*
X158815000Y-132211486D01*
X158815000Y-131948514D01*
X158763696Y-131690595D01*
X158663061Y-131447641D01*
X158516962Y-131228987D01*
X158331013Y-131043038D01*
X158112359Y-130896939D01*
X157902470Y-130810000D01*
X158112359Y-130723061D01*
X158331013Y-130576962D01*
X158516962Y-130391013D01*
X158663061Y-130172359D01*
X158763696Y-129929405D01*
X158815000Y-129671486D01*
X158815000Y-129408514D01*
X158763696Y-129150595D01*
X158663061Y-128907641D01*
X158516962Y-128688987D01*
X158331013Y-128503038D01*
X158112359Y-128356939D01*
X157902470Y-128270000D01*
X158112359Y-128183061D01*
X158331013Y-128036962D01*
X158516962Y-127851013D01*
X158663061Y-127632359D01*
X158763696Y-127389405D01*
X158815000Y-127131486D01*
X158815000Y-126868514D01*
X158763696Y-126610595D01*
X158663061Y-126367641D01*
X158516962Y-126148987D01*
X158331013Y-125963038D01*
X158112359Y-125816939D01*
X157902470Y-125730000D01*
X158112359Y-125643061D01*
X158331013Y-125496962D01*
X158516962Y-125311013D01*
X158663061Y-125092359D01*
X158763696Y-124849405D01*
X158815000Y-124591486D01*
X158815000Y-124328514D01*
X158763696Y-124070595D01*
X158663061Y-123827641D01*
X158516962Y-123608987D01*
X158331013Y-123423038D01*
X158112359Y-123276939D01*
X157869405Y-123176304D01*
X157611486Y-123125000D01*
X157348514Y-123125000D01*
X157090595Y-123176304D01*
X156847641Y-123276939D01*
X156628987Y-123423038D01*
X156443038Y-123608987D01*
X156296939Y-123827641D01*
X156196304Y-124070595D01*
X156145000Y-124328514D01*
X156145000Y-124591486D01*
X156196304Y-124849405D01*
X156296939Y-125092359D01*
X156443038Y-125311013D01*
X156628987Y-125496962D01*
X156847641Y-125643061D01*
X157057530Y-125730000D01*
X156847641Y-125816939D01*
X156628987Y-125963038D01*
X156443038Y-126148987D01*
X156296939Y-126367641D01*
X156196304Y-126610595D01*
X156145000Y-126868514D01*
X156145000Y-127131486D01*
X156196304Y-127389405D01*
X156296939Y-127632359D01*
X156443038Y-127851013D01*
X156628987Y-128036962D01*
X156847641Y-128183061D01*
X157057530Y-128270000D01*
X156847641Y-128356939D01*
X156628987Y-128503038D01*
X156443038Y-128688987D01*
X156296939Y-128907641D01*
X156196304Y-129150595D01*
X156145000Y-129408514D01*
X156145000Y-129671486D01*
X156196304Y-129929405D01*
X156296939Y-130172359D01*
X156443038Y-130391013D01*
X156628987Y-130576962D01*
X156847641Y-130723061D01*
X157057530Y-130810000D01*
X156847641Y-130896939D01*
X156628987Y-131043038D01*
X156443038Y-131228987D01*
X156296939Y-131447641D01*
X156196304Y-131690595D01*
X156145000Y-131948514D01*
X156145000Y-132211486D01*
X156196304Y-132469405D01*
X156296939Y-132712359D01*
X156443038Y-132931013D01*
X156628987Y-133116962D01*
X156787685Y-133223000D01*
X153092315Y-133223000D01*
X153251013Y-133116962D01*
X153436962Y-132931013D01*
X153583061Y-132712359D01*
X153683696Y-132469405D01*
X153735000Y-132211486D01*
X153735000Y-131948514D01*
X153683696Y-131690595D01*
X153583061Y-131447641D01*
X153436962Y-131228987D01*
X153251013Y-131043038D01*
X153032359Y-130896939D01*
X152822470Y-130810000D01*
X153032359Y-130723061D01*
X153251013Y-130576962D01*
X153436962Y-130391013D01*
X153583061Y-130172359D01*
X153683696Y-129929405D01*
X153735000Y-129671486D01*
X153735000Y-129408514D01*
X153683696Y-129150595D01*
X153583061Y-128907641D01*
X153436962Y-128688987D01*
X153251013Y-128503038D01*
X153032359Y-128356939D01*
X152822470Y-128270000D01*
X153032359Y-128183061D01*
X153251013Y-128036962D01*
X153436962Y-127851013D01*
X153583061Y-127632359D01*
X153683696Y-127389405D01*
X153735000Y-127131486D01*
X153735000Y-126868514D01*
X153683696Y-126610595D01*
X153583061Y-126367641D01*
X153436962Y-126148987D01*
X153251013Y-125963038D01*
X153032359Y-125816939D01*
X152822470Y-125730000D01*
X153032359Y-125643061D01*
X153251013Y-125496962D01*
X153436962Y-125311013D01*
X153583061Y-125092359D01*
X153683696Y-124849405D01*
X153735000Y-124591486D01*
X153735000Y-124328514D01*
X153683696Y-124070595D01*
X153583061Y-123827641D01*
X153436962Y-123608987D01*
X153251013Y-123423038D01*
X153032359Y-123276939D01*
X152789405Y-123176304D01*
X152531486Y-123125000D01*
X152268514Y-123125000D01*
X152010595Y-123176304D01*
X151767641Y-123276939D01*
X151548987Y-123423038D01*
X151363038Y-123608987D01*
X151216939Y-123827641D01*
X151116304Y-124070595D01*
X151065000Y-124328514D01*
X151065000Y-124591486D01*
X151116304Y-124849405D01*
X151216939Y-125092359D01*
X151363038Y-125311013D01*
X151548987Y-125496962D01*
X151767641Y-125643061D01*
X151977530Y-125730000D01*
X151767641Y-125816939D01*
X151548987Y-125963038D01*
X151363038Y-126148987D01*
X151216939Y-126367641D01*
X151116304Y-126610595D01*
X151065000Y-126868514D01*
X151065000Y-127131486D01*
X151116304Y-127389405D01*
X151216939Y-127632359D01*
X151363038Y-127851013D01*
X151548987Y-128036962D01*
X151767641Y-128183061D01*
X151977530Y-128270000D01*
X151767641Y-128356939D01*
X151548987Y-128503038D01*
X151363038Y-128688987D01*
X151216939Y-128907641D01*
X151116304Y-129150595D01*
X151065000Y-129408514D01*
X151065000Y-129671486D01*
X151072766Y-129710527D01*
X150902252Y-129540013D01*
X150634463Y-129361082D01*
X150336912Y-129237832D01*
X150021033Y-129175000D01*
X149698967Y-129175000D01*
X149383088Y-129237832D01*
X149085537Y-129361082D01*
X148817748Y-129540013D01*
X148590013Y-129767748D01*
X148411082Y-130035537D01*
X148287832Y-130333088D01*
X148225000Y-130648967D01*
X148225000Y-130971033D01*
X148287832Y-131286912D01*
X148411082Y-131584463D01*
X148590013Y-131852252D01*
X148817748Y-132079987D01*
X149085537Y-132258918D01*
X149383088Y-132382168D01*
X149698967Y-132445000D01*
X150021033Y-132445000D01*
X150336912Y-132382168D01*
X150634463Y-132258918D01*
X150902252Y-132079987D01*
X151072766Y-131909473D01*
X151065000Y-131948514D01*
X151065000Y-132211486D01*
X151116304Y-132469405D01*
X151216939Y-132712359D01*
X151363038Y-132931013D01*
X151548987Y-133116962D01*
X151707685Y-133223000D01*
X125873407Y-133223000D01*
X125899502Y-133174180D01*
X125935812Y-133054482D01*
X125948072Y-132930000D01*
X125948072Y-131230000D01*
X125935812Y-131105518D01*
X125899502Y-130985820D01*
X125840537Y-130875506D01*
X125761185Y-130778815D01*
X125664494Y-130699463D01*
X125554180Y-130640498D01*
X125434482Y-130604188D01*
X125310000Y-130591928D01*
X123610000Y-130591928D01*
X123485518Y-130604188D01*
X123365820Y-130640498D01*
X123255506Y-130699463D01*
X123158815Y-130778815D01*
X123079463Y-130875506D01*
X123020498Y-130985820D01*
X122998487Y-131058380D01*
X122866632Y-130926525D01*
X122623411Y-130764010D01*
X122353158Y-130652068D01*
X122066260Y-130595000D01*
X121773740Y-130595000D01*
X121486842Y-130652068D01*
X121216589Y-130764010D01*
X120973368Y-130926525D01*
X120766525Y-131133368D01*
X120650000Y-131307760D01*
X120533475Y-131133368D01*
X120326632Y-130926525D01*
X120083411Y-130764010D01*
X119813158Y-130652068D01*
X119526260Y-130595000D01*
X119233740Y-130595000D01*
X118946842Y-130652068D01*
X118676589Y-130764010D01*
X118433368Y-130926525D01*
X118226525Y-131133368D01*
X118110000Y-131307760D01*
X117993475Y-131133368D01*
X117786632Y-130926525D01*
X117543411Y-130764010D01*
X117273158Y-130652068D01*
X116986260Y-130595000D01*
X116693740Y-130595000D01*
X116406842Y-130652068D01*
X116136589Y-130764010D01*
X115893368Y-130926525D01*
X115686525Y-131133368D01*
X115524010Y-131376589D01*
X115412068Y-131646842D01*
X115355000Y-131933740D01*
X115355000Y-132226260D01*
X115412068Y-132513158D01*
X115524010Y-132783411D01*
X115686525Y-133026632D01*
X115882893Y-133223000D01*
X114443407Y-133223000D01*
X114469502Y-133174180D01*
X114505812Y-133054482D01*
X114518072Y-132930000D01*
X114518072Y-131230000D01*
X114505812Y-131105518D01*
X114469502Y-130985820D01*
X114410537Y-130875506D01*
X114331185Y-130778815D01*
X114234494Y-130699463D01*
X114124180Y-130640498D01*
X114004482Y-130604188D01*
X113880000Y-130591928D01*
X112180000Y-130591928D01*
X112055518Y-130604188D01*
X111935820Y-130640498D01*
X111825506Y-130699463D01*
X111728815Y-130778815D01*
X111649463Y-130875506D01*
X111590498Y-130985820D01*
X111568487Y-131058380D01*
X111436632Y-130926525D01*
X111193411Y-130764010D01*
X110923158Y-130652068D01*
X110636260Y-130595000D01*
X110343740Y-130595000D01*
X110056842Y-130652068D01*
X109786589Y-130764010D01*
X109543368Y-130926525D01*
X109336525Y-131133368D01*
X109220000Y-131307760D01*
X109103475Y-131133368D01*
X108896632Y-130926525D01*
X108653411Y-130764010D01*
X108383158Y-130652068D01*
X108096260Y-130595000D01*
X107803740Y-130595000D01*
X107516842Y-130652068D01*
X107246589Y-130764010D01*
X107003368Y-130926525D01*
X106796525Y-131133368D01*
X106680000Y-131307760D01*
X106563475Y-131133368D01*
X106356632Y-130926525D01*
X106113411Y-130764010D01*
X105843158Y-130652068D01*
X105556260Y-130595000D01*
X105263740Y-130595000D01*
X104976842Y-130652068D01*
X104706589Y-130764010D01*
X104463368Y-130926525D01*
X104256525Y-131133368D01*
X104094010Y-131376589D01*
X103982068Y-131646842D01*
X103925000Y-131933740D01*
X103925000Y-132226260D01*
X103982068Y-132513158D01*
X104094010Y-132783411D01*
X104256525Y-133026632D01*
X104452893Y-133223000D01*
X104178452Y-133223000D01*
X100457000Y-130742032D01*
X100457000Y-128740000D01*
X128141928Y-128740000D01*
X128141928Y-130340000D01*
X128154188Y-130464482D01*
X128190498Y-130584180D01*
X128249463Y-130694494D01*
X128328815Y-130791185D01*
X128425506Y-130870537D01*
X128535820Y-130929502D01*
X128655518Y-130965812D01*
X128780000Y-130978072D01*
X130380000Y-130978072D01*
X130504482Y-130965812D01*
X130624180Y-130929502D01*
X130734494Y-130870537D01*
X130831185Y-130791185D01*
X130910537Y-130694494D01*
X130969502Y-130584180D01*
X130998661Y-130488057D01*
X131165241Y-130654637D01*
X131400273Y-130811680D01*
X131661426Y-130919853D01*
X131938665Y-130975000D01*
X132221335Y-130975000D01*
X132498574Y-130919853D01*
X132759727Y-130811680D01*
X132994759Y-130654637D01*
X133194637Y-130454759D01*
X133351680Y-130219727D01*
X133438551Y-130010000D01*
X135761928Y-130010000D01*
X135761928Y-131610000D01*
X135774188Y-131734482D01*
X135810498Y-131854180D01*
X135869463Y-131964494D01*
X135948815Y-132061185D01*
X136045506Y-132140537D01*
X136155820Y-132199502D01*
X136275518Y-132235812D01*
X136400000Y-132248072D01*
X138000000Y-132248072D01*
X138124482Y-132235812D01*
X138244180Y-132199502D01*
X138354494Y-132140537D01*
X138451185Y-132061185D01*
X138530537Y-131964494D01*
X138589502Y-131854180D01*
X138618661Y-131758057D01*
X138785241Y-131924637D01*
X139020273Y-132081680D01*
X139281426Y-132189853D01*
X139558665Y-132245000D01*
X139841335Y-132245000D01*
X140118574Y-132189853D01*
X140379727Y-132081680D01*
X140614759Y-131924637D01*
X140814637Y-131724759D01*
X140971680Y-131489727D01*
X141079853Y-131228574D01*
X141135000Y-130951335D01*
X141135000Y-130668665D01*
X141131082Y-130648967D01*
X143145000Y-130648967D01*
X143145000Y-130971033D01*
X143207832Y-131286912D01*
X143331082Y-131584463D01*
X143510013Y-131852252D01*
X143737748Y-132079987D01*
X144005537Y-132258918D01*
X144303088Y-132382168D01*
X144618967Y-132445000D01*
X144941033Y-132445000D01*
X145256912Y-132382168D01*
X145554463Y-132258918D01*
X145822252Y-132079987D01*
X146049987Y-131852252D01*
X146228918Y-131584463D01*
X146352168Y-131286912D01*
X146415000Y-130971033D01*
X146415000Y-130648967D01*
X146352168Y-130333088D01*
X146228918Y-130035537D01*
X146049987Y-129767748D01*
X145822252Y-129540013D01*
X145554463Y-129361082D01*
X145256912Y-129237832D01*
X144941033Y-129175000D01*
X144618967Y-129175000D01*
X144303088Y-129237832D01*
X144005537Y-129361082D01*
X143737748Y-129540013D01*
X143510013Y-129767748D01*
X143331082Y-130035537D01*
X143207832Y-130333088D01*
X143145000Y-130648967D01*
X141131082Y-130648967D01*
X141079853Y-130391426D01*
X140971680Y-130130273D01*
X140814637Y-129895241D01*
X140614759Y-129695363D01*
X140379727Y-129538320D01*
X140118574Y-129430147D01*
X139841335Y-129375000D01*
X139558665Y-129375000D01*
X139281426Y-129430147D01*
X139020273Y-129538320D01*
X138785241Y-129695363D01*
X138618661Y-129861943D01*
X138589502Y-129765820D01*
X138530537Y-129655506D01*
X138451185Y-129558815D01*
X138354494Y-129479463D01*
X138244180Y-129420498D01*
X138124482Y-129384188D01*
X138000000Y-129371928D01*
X136400000Y-129371928D01*
X136275518Y-129384188D01*
X136155820Y-129420498D01*
X136045506Y-129479463D01*
X135948815Y-129558815D01*
X135869463Y-129655506D01*
X135810498Y-129765820D01*
X135774188Y-129885518D01*
X135761928Y-130010000D01*
X133438551Y-130010000D01*
X133459853Y-129958574D01*
X133515000Y-129681335D01*
X133515000Y-129398665D01*
X133459853Y-129121426D01*
X133351680Y-128860273D01*
X133194637Y-128625241D01*
X132994759Y-128425363D01*
X132759727Y-128268320D01*
X132498574Y-128160147D01*
X132221335Y-128105000D01*
X131938665Y-128105000D01*
X131661426Y-128160147D01*
X131400273Y-128268320D01*
X131165241Y-128425363D01*
X130998661Y-128591943D01*
X130969502Y-128495820D01*
X130910537Y-128385506D01*
X130831185Y-128288815D01*
X130734494Y-128209463D01*
X130624180Y-128150498D01*
X130504482Y-128114188D01*
X130380000Y-128101928D01*
X128780000Y-128101928D01*
X128655518Y-128114188D01*
X128535820Y-128150498D01*
X128425506Y-128209463D01*
X128328815Y-128288815D01*
X128249463Y-128385506D01*
X128190498Y-128495820D01*
X128154188Y-128615518D01*
X128141928Y-128740000D01*
X100457000Y-128740000D01*
X100457000Y-124147107D01*
X100653368Y-124343475D01*
X100896589Y-124505990D01*
X101166842Y-124617932D01*
X101453740Y-124675000D01*
X101746260Y-124675000D01*
X102033158Y-124617932D01*
X102303411Y-124505990D01*
X102546632Y-124343475D01*
X102571442Y-124318665D01*
X110365000Y-124318665D01*
X110365000Y-124601335D01*
X110420147Y-124878574D01*
X110528320Y-125139727D01*
X110685363Y-125374759D01*
X110885241Y-125574637D01*
X111120273Y-125731680D01*
X111381426Y-125839853D01*
X111658665Y-125895000D01*
X111941335Y-125895000D01*
X112218574Y-125839853D01*
X112479727Y-125731680D01*
X112714759Y-125574637D01*
X112881339Y-125408057D01*
X112910498Y-125504180D01*
X112969463Y-125614494D01*
X113048815Y-125711185D01*
X113145506Y-125790537D01*
X113255820Y-125849502D01*
X113375518Y-125885812D01*
X113500000Y-125898072D01*
X115100000Y-125898072D01*
X115224482Y-125885812D01*
X115344180Y-125849502D01*
X115454494Y-125790537D01*
X115551185Y-125711185D01*
X115630537Y-125614494D01*
X115689502Y-125504180D01*
X115725812Y-125384482D01*
X115738072Y-125260000D01*
X115738072Y-123660000D01*
X115725812Y-123535518D01*
X115689502Y-123415820D01*
X115630537Y-123305506D01*
X115551185Y-123208815D01*
X115454494Y-123129463D01*
X115344180Y-123070498D01*
X115224482Y-123034188D01*
X115100000Y-123021928D01*
X113500000Y-123021928D01*
X113375518Y-123034188D01*
X113255820Y-123070498D01*
X113145506Y-123129463D01*
X113048815Y-123208815D01*
X112969463Y-123305506D01*
X112910498Y-123415820D01*
X112881339Y-123511943D01*
X112714759Y-123345363D01*
X112479727Y-123188320D01*
X112218574Y-123080147D01*
X111941335Y-123025000D01*
X111658665Y-123025000D01*
X111381426Y-123080147D01*
X111120273Y-123188320D01*
X110885241Y-123345363D01*
X110685363Y-123545241D01*
X110528320Y-123780273D01*
X110420147Y-124041426D01*
X110365000Y-124318665D01*
X102571442Y-124318665D01*
X102753475Y-124136632D01*
X102915990Y-123893411D01*
X103027932Y-123623158D01*
X103085000Y-123336260D01*
X103085000Y-123043740D01*
X103027932Y-122756842D01*
X102915990Y-122486589D01*
X102753475Y-122243368D01*
X102546632Y-122036525D01*
X102372240Y-121920000D01*
X102546632Y-121803475D01*
X102753475Y-121596632D01*
X102915990Y-121353411D01*
X103012671Y-121120000D01*
X126871928Y-121120000D01*
X126871928Y-122720000D01*
X126884188Y-122844482D01*
X126920498Y-122964180D01*
X126979463Y-123074494D01*
X127058815Y-123171185D01*
X127155506Y-123250537D01*
X127265820Y-123309502D01*
X127385518Y-123345812D01*
X127510000Y-123358072D01*
X129110000Y-123358072D01*
X129234482Y-123345812D01*
X129354180Y-123309502D01*
X129464494Y-123250537D01*
X129561185Y-123171185D01*
X129640537Y-123074494D01*
X129699502Y-122964180D01*
X129728661Y-122868057D01*
X129895241Y-123034637D01*
X130130273Y-123191680D01*
X130391426Y-123299853D01*
X130668665Y-123355000D01*
X130951335Y-123355000D01*
X131228574Y-123299853D01*
X131489727Y-123191680D01*
X131724759Y-123034637D01*
X131924637Y-122834759D01*
X132081680Y-122599727D01*
X132189853Y-122338574D01*
X132245000Y-122061335D01*
X132245000Y-121885967D01*
X133023100Y-121885967D01*
X133023100Y-122208033D01*
X133085932Y-122523912D01*
X133209182Y-122821463D01*
X133388113Y-123089252D01*
X133615848Y-123316987D01*
X133883637Y-123495918D01*
X134181188Y-123619168D01*
X134497067Y-123682000D01*
X134819133Y-123682000D01*
X135135012Y-123619168D01*
X135432563Y-123495918D01*
X135700352Y-123316987D01*
X135928087Y-123089252D01*
X136107018Y-122821463D01*
X136230268Y-122523912D01*
X136293100Y-122208033D01*
X136293100Y-121885967D01*
X138103100Y-121885967D01*
X138103100Y-122208033D01*
X138165932Y-122523912D01*
X138289182Y-122821463D01*
X138468113Y-123089252D01*
X138695848Y-123316987D01*
X138963637Y-123495918D01*
X139261188Y-123619168D01*
X139577067Y-123682000D01*
X139899133Y-123682000D01*
X140215012Y-123619168D01*
X140512563Y-123495918D01*
X140780352Y-123316987D01*
X141008087Y-123089252D01*
X141187018Y-122821463D01*
X141310268Y-122523912D01*
X141373100Y-122208033D01*
X141373100Y-121885967D01*
X141347839Y-121758967D01*
X141875000Y-121758967D01*
X141875000Y-122081033D01*
X141937832Y-122396912D01*
X142061082Y-122694463D01*
X142240013Y-122962252D01*
X142467748Y-123189987D01*
X142735537Y-123368918D01*
X143033088Y-123492168D01*
X143348967Y-123555000D01*
X143671033Y-123555000D01*
X143986912Y-123492168D01*
X144284463Y-123368918D01*
X144552252Y-123189987D01*
X144779987Y-122962252D01*
X144958918Y-122694463D01*
X145082168Y-122396912D01*
X145145000Y-122081033D01*
X145145000Y-121758967D01*
X146955000Y-121758967D01*
X146955000Y-122081033D01*
X147017832Y-122396912D01*
X147141082Y-122694463D01*
X147320013Y-122962252D01*
X147547748Y-123189987D01*
X147815537Y-123368918D01*
X148113088Y-123492168D01*
X148428967Y-123555000D01*
X148751033Y-123555000D01*
X149066912Y-123492168D01*
X149364463Y-123368918D01*
X149632252Y-123189987D01*
X149859987Y-122962252D01*
X150038918Y-122694463D01*
X150162168Y-122396912D01*
X150225000Y-122081033D01*
X150225000Y-121758967D01*
X150162168Y-121443088D01*
X150038918Y-121145537D01*
X149859987Y-120877748D01*
X149632252Y-120650013D01*
X149391230Y-120488967D01*
X155845000Y-120488967D01*
X155845000Y-120811033D01*
X155907832Y-121126912D01*
X156031082Y-121424463D01*
X156210013Y-121692252D01*
X156437748Y-121919987D01*
X156705537Y-122098918D01*
X157003088Y-122222168D01*
X157318967Y-122285000D01*
X157641033Y-122285000D01*
X157956912Y-122222168D01*
X158254463Y-122098918D01*
X158522252Y-121919987D01*
X158749987Y-121692252D01*
X158928918Y-121424463D01*
X159052168Y-121126912D01*
X159115000Y-120811033D01*
X159115000Y-120488967D01*
X159052168Y-120173088D01*
X158928918Y-119875537D01*
X158749987Y-119607748D01*
X158522252Y-119380013D01*
X158254463Y-119201082D01*
X157956912Y-119077832D01*
X157641033Y-119015000D01*
X157318967Y-119015000D01*
X157003088Y-119077832D01*
X156705537Y-119201082D01*
X156437748Y-119380013D01*
X156210013Y-119607748D01*
X156031082Y-119875537D01*
X155907832Y-120173088D01*
X155845000Y-120488967D01*
X149391230Y-120488967D01*
X149364463Y-120471082D01*
X149066912Y-120347832D01*
X148751033Y-120285000D01*
X148428967Y-120285000D01*
X148113088Y-120347832D01*
X147815537Y-120471082D01*
X147547748Y-120650013D01*
X147320013Y-120877748D01*
X147141082Y-121145537D01*
X147017832Y-121443088D01*
X146955000Y-121758967D01*
X145145000Y-121758967D01*
X145082168Y-121443088D01*
X144958918Y-121145537D01*
X144779987Y-120877748D01*
X144552252Y-120650013D01*
X144284463Y-120471082D01*
X143986912Y-120347832D01*
X143671033Y-120285000D01*
X143348967Y-120285000D01*
X143033088Y-120347832D01*
X142735537Y-120471082D01*
X142467748Y-120650013D01*
X142240013Y-120877748D01*
X142061082Y-121145537D01*
X141937832Y-121443088D01*
X141875000Y-121758967D01*
X141347839Y-121758967D01*
X141310268Y-121570088D01*
X141187018Y-121272537D01*
X141008087Y-121004748D01*
X140780352Y-120777013D01*
X140512563Y-120598082D01*
X140215012Y-120474832D01*
X139899133Y-120412000D01*
X139577067Y-120412000D01*
X139261188Y-120474832D01*
X138963637Y-120598082D01*
X138695848Y-120777013D01*
X138468113Y-121004748D01*
X138289182Y-121272537D01*
X138165932Y-121570088D01*
X138103100Y-121885967D01*
X136293100Y-121885967D01*
X136230268Y-121570088D01*
X136107018Y-121272537D01*
X135928087Y-121004748D01*
X135700352Y-120777013D01*
X135432563Y-120598082D01*
X135135012Y-120474832D01*
X134819133Y-120412000D01*
X134497067Y-120412000D01*
X134181188Y-120474832D01*
X133883637Y-120598082D01*
X133615848Y-120777013D01*
X133388113Y-121004748D01*
X133209182Y-121272537D01*
X133085932Y-121570088D01*
X133023100Y-121885967D01*
X132245000Y-121885967D01*
X132245000Y-121778665D01*
X132189853Y-121501426D01*
X132081680Y-121240273D01*
X131924637Y-121005241D01*
X131724759Y-120805363D01*
X131489727Y-120648320D01*
X131228574Y-120540147D01*
X130951335Y-120485000D01*
X130668665Y-120485000D01*
X130391426Y-120540147D01*
X130130273Y-120648320D01*
X129895241Y-120805363D01*
X129728661Y-120971943D01*
X129699502Y-120875820D01*
X129640537Y-120765506D01*
X129561185Y-120668815D01*
X129464494Y-120589463D01*
X129354180Y-120530498D01*
X129234482Y-120494188D01*
X129110000Y-120481928D01*
X127510000Y-120481928D01*
X127385518Y-120494188D01*
X127265820Y-120530498D01*
X127155506Y-120589463D01*
X127058815Y-120668815D01*
X126979463Y-120765506D01*
X126920498Y-120875820D01*
X126884188Y-120995518D01*
X126871928Y-121120000D01*
X103012671Y-121120000D01*
X103027932Y-121083158D01*
X103085000Y-120796260D01*
X103085000Y-120503740D01*
X103027932Y-120216842D01*
X102915990Y-119946589D01*
X102753475Y-119703368D01*
X102546632Y-119496525D01*
X102372240Y-119380000D01*
X102546632Y-119263475D01*
X102753475Y-119056632D01*
X102915990Y-118813411D01*
X103027932Y-118543158D01*
X103085000Y-118256260D01*
X103085000Y-117963740D01*
X103027932Y-117676842D01*
X102915990Y-117406589D01*
X102753475Y-117163368D01*
X102621620Y-117031513D01*
X102694180Y-117009502D01*
X102804494Y-116950537D01*
X102901185Y-116871185D01*
X102980537Y-116774494D01*
X103021069Y-116698665D01*
X110365000Y-116698665D01*
X110365000Y-116981335D01*
X110420147Y-117258574D01*
X110528320Y-117519727D01*
X110685363Y-117754759D01*
X110885241Y-117954637D01*
X111120273Y-118111680D01*
X111381426Y-118219853D01*
X111658665Y-118275000D01*
X111941335Y-118275000D01*
X112218574Y-118219853D01*
X112479727Y-118111680D01*
X112714759Y-117954637D01*
X112881339Y-117788057D01*
X112910498Y-117884180D01*
X112969463Y-117994494D01*
X113048815Y-118091185D01*
X113145506Y-118170537D01*
X113255820Y-118229502D01*
X113375518Y-118265812D01*
X113500000Y-118278072D01*
X115100000Y-118278072D01*
X115224482Y-118265812D01*
X115344180Y-118229502D01*
X115454494Y-118170537D01*
X115551185Y-118091185D01*
X115630537Y-117994494D01*
X115689502Y-117884180D01*
X115725812Y-117764482D01*
X115738072Y-117640000D01*
X115738072Y-116560705D01*
X124961837Y-116560705D01*
X124961837Y-116764583D01*
X125001611Y-116964542D01*
X125079632Y-117152900D01*
X125192900Y-117322418D01*
X125337063Y-117466581D01*
X125506581Y-117579849D01*
X125694939Y-117657870D01*
X125894898Y-117697644D01*
X126098776Y-117697644D01*
X126298735Y-117657870D01*
X126487093Y-117579849D01*
X126656611Y-117466581D01*
X126800774Y-117322418D01*
X126914042Y-117152900D01*
X126992063Y-116964542D01*
X127031837Y-116764583D01*
X127031837Y-116560705D01*
X126992063Y-116360746D01*
X126914042Y-116172388D01*
X126800774Y-116002870D01*
X126656611Y-115858707D01*
X126487093Y-115745439D01*
X126298735Y-115667418D01*
X126098776Y-115627644D01*
X125894898Y-115627644D01*
X125694939Y-115667418D01*
X125506581Y-115745439D01*
X125337063Y-115858707D01*
X125192900Y-116002870D01*
X125079632Y-116172388D01*
X125001611Y-116360746D01*
X124961837Y-116560705D01*
X115738072Y-116560705D01*
X115738072Y-116040000D01*
X115725812Y-115915518D01*
X115689502Y-115795820D01*
X115630537Y-115685506D01*
X115551185Y-115588815D01*
X115454494Y-115509463D01*
X115344180Y-115450498D01*
X115224482Y-115414188D01*
X115100000Y-115401928D01*
X113500000Y-115401928D01*
X113375518Y-115414188D01*
X113255820Y-115450498D01*
X113145506Y-115509463D01*
X113048815Y-115588815D01*
X112969463Y-115685506D01*
X112910498Y-115795820D01*
X112881339Y-115891943D01*
X112714759Y-115725363D01*
X112479727Y-115568320D01*
X112218574Y-115460147D01*
X111941335Y-115405000D01*
X111658665Y-115405000D01*
X111381426Y-115460147D01*
X111120273Y-115568320D01*
X110885241Y-115725363D01*
X110685363Y-115925241D01*
X110528320Y-116160273D01*
X110420147Y-116421426D01*
X110365000Y-116698665D01*
X103021069Y-116698665D01*
X103039502Y-116664180D01*
X103075812Y-116544482D01*
X103088072Y-116420000D01*
X103088072Y-114720000D01*
X103075812Y-114595518D01*
X103039502Y-114475820D01*
X102980537Y-114365506D01*
X102901185Y-114268815D01*
X102804494Y-114189463D01*
X102694180Y-114130498D01*
X102574482Y-114094188D01*
X102450000Y-114081928D01*
X100750000Y-114081928D01*
X100625518Y-114094188D01*
X100505820Y-114130498D01*
X100457000Y-114156593D01*
X100457000Y-113790000D01*
X126831928Y-113790000D01*
X126844188Y-113914482D01*
X126880498Y-114034180D01*
X126939463Y-114144494D01*
X127018815Y-114241185D01*
X127115506Y-114320537D01*
X127225820Y-114379502D01*
X127321943Y-114408661D01*
X127155363Y-114575241D01*
X126998320Y-114810273D01*
X126890147Y-115071426D01*
X126835000Y-115348665D01*
X126835000Y-115631335D01*
X126890147Y-115908574D01*
X126998320Y-116169727D01*
X127155363Y-116404759D01*
X127355241Y-116604637D01*
X127590273Y-116761680D01*
X127851426Y-116869853D01*
X128128665Y-116925000D01*
X128411335Y-116925000D01*
X128688574Y-116869853D01*
X128949727Y-116761680D01*
X129184759Y-116604637D01*
X129384637Y-116404759D01*
X129541680Y-116169727D01*
X129616125Y-115990000D01*
X133131928Y-115990000D01*
X133131928Y-117690000D01*
X133144188Y-117814482D01*
X133180498Y-117934180D01*
X133239463Y-118044494D01*
X133318815Y-118141185D01*
X133415506Y-118220537D01*
X133525820Y-118279502D01*
X133645518Y-118315812D01*
X133770000Y-118328072D01*
X135470000Y-118328072D01*
X135594482Y-118315812D01*
X135714180Y-118279502D01*
X135824494Y-118220537D01*
X135921185Y-118141185D01*
X136000537Y-118044494D01*
X136059502Y-117934180D01*
X136095812Y-117814482D01*
X136108072Y-117690000D01*
X136108072Y-115990000D01*
X136095812Y-115865518D01*
X136059502Y-115745820D01*
X136000537Y-115635506D01*
X135921185Y-115538815D01*
X135824494Y-115459463D01*
X135714180Y-115400498D01*
X135641620Y-115378487D01*
X135773475Y-115246632D01*
X135935990Y-115003411D01*
X136047932Y-114733158D01*
X136105000Y-114446260D01*
X136105000Y-114153740D01*
X136047932Y-113866842D01*
X135935990Y-113596589D01*
X135773475Y-113353368D01*
X135566632Y-113146525D01*
X135392240Y-113030000D01*
X135566632Y-112913475D01*
X135773475Y-112706632D01*
X135795238Y-112674061D01*
X136125000Y-112674061D01*
X136125000Y-112877939D01*
X136164774Y-113077898D01*
X136242795Y-113266256D01*
X136356063Y-113435774D01*
X136500226Y-113579937D01*
X136669744Y-113693205D01*
X136858102Y-113771226D01*
X137058061Y-113811000D01*
X137261939Y-113811000D01*
X137461898Y-113771226D01*
X137650256Y-113693205D01*
X137819774Y-113579937D01*
X137963937Y-113435774D01*
X138077205Y-113266256D01*
X138155226Y-113077898D01*
X138172399Y-112991561D01*
X140798600Y-112991561D01*
X140798600Y-113195439D01*
X140838374Y-113395398D01*
X140916395Y-113583756D01*
X141029663Y-113753274D01*
X141173826Y-113897437D01*
X141343344Y-114010705D01*
X141531702Y-114088726D01*
X141731661Y-114128500D01*
X141935539Y-114128500D01*
X142135498Y-114088726D01*
X142323856Y-114010705D01*
X142493374Y-113897437D01*
X142637537Y-113753274D01*
X142750805Y-113583756D01*
X142828826Y-113395398D01*
X142868600Y-113195439D01*
X142868600Y-112991561D01*
X142828826Y-112791602D01*
X142750805Y-112603244D01*
X142637537Y-112433726D01*
X142493374Y-112289563D01*
X142404232Y-112230000D01*
X149691928Y-112230000D01*
X149691928Y-113830000D01*
X149704188Y-113954482D01*
X149740498Y-114074180D01*
X149799463Y-114184494D01*
X149878815Y-114281185D01*
X149975506Y-114360537D01*
X150085820Y-114419502D01*
X150181943Y-114448661D01*
X150015363Y-114615241D01*
X149858320Y-114850273D01*
X149750147Y-115111426D01*
X149695000Y-115388665D01*
X149695000Y-115671335D01*
X149750147Y-115948574D01*
X149858320Y-116209727D01*
X150015363Y-116444759D01*
X150215241Y-116644637D01*
X150450273Y-116801680D01*
X150711426Y-116909853D01*
X150988665Y-116965000D01*
X151271335Y-116965000D01*
X151548574Y-116909853D01*
X151809727Y-116801680D01*
X152044759Y-116644637D01*
X152244637Y-116444759D01*
X152401680Y-116209727D01*
X152509853Y-115948574D01*
X152565000Y-115671335D01*
X152565000Y-115408967D01*
X155845000Y-115408967D01*
X155845000Y-115731033D01*
X155907832Y-116046912D01*
X156031082Y-116344463D01*
X156210013Y-116612252D01*
X156437748Y-116839987D01*
X156705537Y-117018918D01*
X157003088Y-117142168D01*
X157318967Y-117205000D01*
X157641033Y-117205000D01*
X157956912Y-117142168D01*
X158254463Y-117018918D01*
X158522252Y-116839987D01*
X158749987Y-116612252D01*
X158928918Y-116344463D01*
X159052168Y-116046912D01*
X159115000Y-115731033D01*
X159115000Y-115408967D01*
X159052168Y-115093088D01*
X158928918Y-114795537D01*
X158749987Y-114527748D01*
X158522252Y-114300013D01*
X158254463Y-114121082D01*
X157956912Y-113997832D01*
X157641033Y-113935000D01*
X157318967Y-113935000D01*
X157003088Y-113997832D01*
X156705537Y-114121082D01*
X156437748Y-114300013D01*
X156210013Y-114527748D01*
X156031082Y-114795537D01*
X155907832Y-115093088D01*
X155845000Y-115408967D01*
X152565000Y-115408967D01*
X152565000Y-115388665D01*
X152509853Y-115111426D01*
X152401680Y-114850273D01*
X152244637Y-114615241D01*
X152078057Y-114448661D01*
X152174180Y-114419502D01*
X152284494Y-114360537D01*
X152381185Y-114281185D01*
X152460537Y-114184494D01*
X152519502Y-114074180D01*
X152555812Y-113954482D01*
X152568072Y-113830000D01*
X152568072Y-112230000D01*
X152555812Y-112105518D01*
X152519502Y-111985820D01*
X152460537Y-111875506D01*
X152381185Y-111778815D01*
X152284494Y-111699463D01*
X152174180Y-111640498D01*
X152054482Y-111604188D01*
X151930000Y-111591928D01*
X150330000Y-111591928D01*
X150205518Y-111604188D01*
X150085820Y-111640498D01*
X149975506Y-111699463D01*
X149878815Y-111778815D01*
X149799463Y-111875506D01*
X149740498Y-111985820D01*
X149704188Y-112105518D01*
X149691928Y-112230000D01*
X142404232Y-112230000D01*
X142323856Y-112176295D01*
X142135498Y-112098274D01*
X141935539Y-112058500D01*
X141731661Y-112058500D01*
X141531702Y-112098274D01*
X141343344Y-112176295D01*
X141173826Y-112289563D01*
X141029663Y-112433726D01*
X140916395Y-112603244D01*
X140838374Y-112791602D01*
X140798600Y-112991561D01*
X138172399Y-112991561D01*
X138195000Y-112877939D01*
X138195000Y-112674061D01*
X138155226Y-112474102D01*
X138077205Y-112285744D01*
X137963937Y-112116226D01*
X137819774Y-111972063D01*
X137650256Y-111858795D01*
X137461898Y-111780774D01*
X137261939Y-111741000D01*
X137058061Y-111741000D01*
X136858102Y-111780774D01*
X136669744Y-111858795D01*
X136500226Y-111972063D01*
X136356063Y-112116226D01*
X136242795Y-112285744D01*
X136164774Y-112474102D01*
X136125000Y-112674061D01*
X135795238Y-112674061D01*
X135935990Y-112463411D01*
X136047932Y-112193158D01*
X136105000Y-111906260D01*
X136105000Y-111613740D01*
X136047932Y-111326842D01*
X135935990Y-111056589D01*
X135773475Y-110813368D01*
X135566632Y-110606525D01*
X135392240Y-110490000D01*
X135566632Y-110373475D01*
X135773475Y-110166632D01*
X135935990Y-109923411D01*
X136047932Y-109653158D01*
X136105000Y-109366260D01*
X136105000Y-109073740D01*
X136047932Y-108786842D01*
X135935990Y-108516589D01*
X135773475Y-108273368D01*
X135566632Y-108066525D01*
X135323411Y-107904010D01*
X135053158Y-107792068D01*
X134766260Y-107735000D01*
X134473740Y-107735000D01*
X134186842Y-107792068D01*
X133916589Y-107904010D01*
X133673368Y-108066525D01*
X133466525Y-108273368D01*
X133304010Y-108516589D01*
X133192068Y-108786842D01*
X133135000Y-109073740D01*
X133135000Y-109366260D01*
X133192068Y-109653158D01*
X133304010Y-109923411D01*
X133466525Y-110166632D01*
X133673368Y-110373475D01*
X133847760Y-110490000D01*
X133673368Y-110606525D01*
X133466525Y-110813368D01*
X133304010Y-111056589D01*
X133192068Y-111326842D01*
X133135000Y-111613740D01*
X133135000Y-111906260D01*
X133192068Y-112193158D01*
X133304010Y-112463411D01*
X133466525Y-112706632D01*
X133673368Y-112913475D01*
X133847760Y-113030000D01*
X133673368Y-113146525D01*
X133466525Y-113353368D01*
X133304010Y-113596589D01*
X133192068Y-113866842D01*
X133135000Y-114153740D01*
X133135000Y-114446260D01*
X133192068Y-114733158D01*
X133304010Y-115003411D01*
X133466525Y-115246632D01*
X133598380Y-115378487D01*
X133525820Y-115400498D01*
X133415506Y-115459463D01*
X133318815Y-115538815D01*
X133239463Y-115635506D01*
X133180498Y-115745820D01*
X133144188Y-115865518D01*
X133131928Y-115990000D01*
X129616125Y-115990000D01*
X129649853Y-115908574D01*
X129705000Y-115631335D01*
X129705000Y-115348665D01*
X129649853Y-115071426D01*
X129541680Y-114810273D01*
X129384637Y-114575241D01*
X129218057Y-114408661D01*
X129314180Y-114379502D01*
X129424494Y-114320537D01*
X129521185Y-114241185D01*
X129600537Y-114144494D01*
X129659502Y-114034180D01*
X129695812Y-113914482D01*
X129708072Y-113790000D01*
X129705000Y-113275750D01*
X129546250Y-113117000D01*
X128397000Y-113117000D01*
X128397000Y-113137000D01*
X128143000Y-113137000D01*
X128143000Y-113117000D01*
X126993750Y-113117000D01*
X126835000Y-113275750D01*
X126831928Y-113790000D01*
X100457000Y-113790000D01*
X100457000Y-111979860D01*
X100575518Y-112015812D01*
X100700000Y-112028072D01*
X102500000Y-112028072D01*
X102624482Y-112015812D01*
X102744180Y-111979502D01*
X102854494Y-111920537D01*
X102951185Y-111841185D01*
X103030537Y-111744494D01*
X103089502Y-111634180D01*
X103095056Y-111615873D01*
X103161495Y-111682312D01*
X103412905Y-111850299D01*
X103692257Y-111966011D01*
X103988816Y-112025000D01*
X104291184Y-112025000D01*
X104587743Y-111966011D01*
X104867095Y-111850299D01*
X105118505Y-111682312D01*
X105201850Y-111598967D01*
X112665000Y-111598967D01*
X112665000Y-111921033D01*
X112727832Y-112236912D01*
X112851082Y-112534463D01*
X113030013Y-112802252D01*
X113257748Y-113029987D01*
X113525537Y-113208918D01*
X113823088Y-113332168D01*
X114138967Y-113395000D01*
X114461033Y-113395000D01*
X114776912Y-113332168D01*
X115074463Y-113208918D01*
X115342252Y-113029987D01*
X115569987Y-112802252D01*
X115748918Y-112534463D01*
X115872168Y-112236912D01*
X115935000Y-111921033D01*
X115935000Y-111758059D01*
X123933000Y-111758059D01*
X123933000Y-111961937D01*
X123972774Y-112161896D01*
X124050795Y-112350254D01*
X124164063Y-112519772D01*
X124308226Y-112663935D01*
X124477744Y-112777203D01*
X124666102Y-112855224D01*
X124866061Y-112894998D01*
X125069939Y-112894998D01*
X125269898Y-112855224D01*
X125458256Y-112777203D01*
X125476000Y-112765347D01*
X125493744Y-112777203D01*
X125682102Y-112855224D01*
X125882061Y-112894998D01*
X126085939Y-112894998D01*
X126285898Y-112855224D01*
X126474256Y-112777203D01*
X126643774Y-112663935D01*
X126787937Y-112519772D01*
X126833491Y-112451596D01*
X126835000Y-112704250D01*
X126993750Y-112863000D01*
X128143000Y-112863000D01*
X128143000Y-111713750D01*
X128397000Y-111713750D01*
X128397000Y-112863000D01*
X129546250Y-112863000D01*
X129705000Y-112704250D01*
X129708072Y-112190000D01*
X129695812Y-112065518D01*
X129659502Y-111945820D01*
X129600537Y-111835506D01*
X129521185Y-111738815D01*
X129424494Y-111659463D01*
X129314180Y-111600498D01*
X129194482Y-111564188D01*
X129070000Y-111551928D01*
X128555750Y-111555000D01*
X128397000Y-111713750D01*
X128143000Y-111713750D01*
X127984250Y-111555000D01*
X127470000Y-111551928D01*
X127345518Y-111564188D01*
X127225820Y-111600498D01*
X127115506Y-111659463D01*
X127018815Y-111738815D01*
X127015883Y-111742388D01*
X126979226Y-111558100D01*
X126901205Y-111369742D01*
X126834191Y-111269448D01*
X127032795Y-111269448D01*
X127232754Y-111229674D01*
X127421112Y-111151653D01*
X127590630Y-111038385D01*
X127734793Y-110894222D01*
X127848061Y-110724704D01*
X127926082Y-110536346D01*
X127965856Y-110336387D01*
X127965856Y-110132509D01*
X127926082Y-109932550D01*
X127848061Y-109744192D01*
X127734793Y-109574674D01*
X127590630Y-109430511D01*
X127421112Y-109317243D01*
X127232754Y-109239222D01*
X127032795Y-109199448D01*
X126828917Y-109199448D01*
X126628958Y-109239222D01*
X126440600Y-109317243D01*
X126271082Y-109430511D01*
X126212155Y-109489438D01*
X126031898Y-109414772D01*
X125831939Y-109374998D01*
X125628061Y-109374998D01*
X125428102Y-109414772D01*
X125239744Y-109492793D01*
X125070226Y-109606061D01*
X124926063Y-109750224D01*
X124812795Y-109919742D01*
X124734774Y-110108100D01*
X124695000Y-110308059D01*
X124695000Y-110511937D01*
X124734774Y-110711896D01*
X124788050Y-110840515D01*
X124666102Y-110864772D01*
X124477744Y-110942793D01*
X124308226Y-111056061D01*
X124164063Y-111200224D01*
X124050795Y-111369742D01*
X123972774Y-111558100D01*
X123933000Y-111758059D01*
X115935000Y-111758059D01*
X115935000Y-111598967D01*
X115872168Y-111283088D01*
X115748918Y-110985537D01*
X115569987Y-110717748D01*
X115342252Y-110490013D01*
X115074463Y-110311082D01*
X114776912Y-110187832D01*
X114461033Y-110125000D01*
X114138967Y-110125000D01*
X113823088Y-110187832D01*
X113525537Y-110311082D01*
X113257748Y-110490013D01*
X113030013Y-110717748D01*
X112851082Y-110985537D01*
X112727832Y-111283088D01*
X112665000Y-111598967D01*
X105201850Y-111598967D01*
X105332312Y-111468505D01*
X105500299Y-111217095D01*
X105616011Y-110937743D01*
X105675000Y-110641184D01*
X105675000Y-110338816D01*
X105616011Y-110042257D01*
X105500299Y-109762905D01*
X105332312Y-109511495D01*
X105118505Y-109297688D01*
X104867095Y-109129701D01*
X104587743Y-109013989D01*
X104291184Y-108955000D01*
X103988816Y-108955000D01*
X103692257Y-109013989D01*
X103412905Y-109129701D01*
X103161495Y-109297688D01*
X103095056Y-109364127D01*
X103089502Y-109345820D01*
X103030537Y-109235506D01*
X102951185Y-109138815D01*
X102854494Y-109059463D01*
X102744180Y-109000498D01*
X102624482Y-108964188D01*
X102500000Y-108951928D01*
X100700000Y-108951928D01*
X100575518Y-108964188D01*
X100457000Y-109000140D01*
X100457000Y-107815413D01*
X113344192Y-107815413D01*
X113439956Y-108079814D01*
X113729571Y-108220704D01*
X114041108Y-108302384D01*
X114362595Y-108321718D01*
X114681675Y-108277961D01*
X114986088Y-108172795D01*
X115160044Y-108079814D01*
X115255808Y-107815413D01*
X114300000Y-106859605D01*
X113344192Y-107815413D01*
X100457000Y-107815413D01*
X100457000Y-106899860D01*
X100575518Y-106935812D01*
X100700000Y-106948072D01*
X102500000Y-106948072D01*
X102624482Y-106935812D01*
X102744180Y-106899502D01*
X102854494Y-106840537D01*
X102951185Y-106761185D01*
X103030537Y-106664494D01*
X103089502Y-106554180D01*
X103095056Y-106535873D01*
X103161495Y-106602312D01*
X103412905Y-106770299D01*
X103692257Y-106886011D01*
X103988816Y-106945000D01*
X104291184Y-106945000D01*
X104587743Y-106886011D01*
X104867095Y-106770299D01*
X104908556Y-106742595D01*
X112658282Y-106742595D01*
X112702039Y-107061675D01*
X112807205Y-107366088D01*
X112900186Y-107540044D01*
X113164587Y-107635808D01*
X114120395Y-106680000D01*
X114479605Y-106680000D01*
X115435413Y-107635808D01*
X115699814Y-107540044D01*
X115840704Y-107250429D01*
X115922384Y-106938892D01*
X115941718Y-106617405D01*
X115897961Y-106298325D01*
X115867448Y-106210000D01*
X119211928Y-106210000D01*
X119224188Y-106334482D01*
X119260498Y-106454180D01*
X119319463Y-106564494D01*
X119398815Y-106661185D01*
X119495506Y-106740537D01*
X119605820Y-106799502D01*
X119725518Y-106835812D01*
X119850000Y-106848072D01*
X120364250Y-106845000D01*
X120523000Y-106686250D01*
X120523000Y-105537000D01*
X119373750Y-105537000D01*
X119215000Y-105695750D01*
X119211928Y-106210000D01*
X115867448Y-106210000D01*
X115792795Y-105993912D01*
X115699814Y-105819956D01*
X115435413Y-105724192D01*
X114479605Y-106680000D01*
X114120395Y-106680000D01*
X113164587Y-105724192D01*
X112900186Y-105819956D01*
X112759296Y-106109571D01*
X112677616Y-106421108D01*
X112658282Y-106742595D01*
X104908556Y-106742595D01*
X105118505Y-106602312D01*
X105332312Y-106388505D01*
X105500299Y-106137095D01*
X105616011Y-105857743D01*
X105675000Y-105561184D01*
X105675000Y-105258816D01*
X105616011Y-104962257D01*
X105500299Y-104682905D01*
X105332312Y-104431495D01*
X105118505Y-104217688D01*
X104867095Y-104049701D01*
X104587743Y-103933989D01*
X104291184Y-103875000D01*
X103988816Y-103875000D01*
X103692257Y-103933989D01*
X103412905Y-104049701D01*
X103161495Y-104217688D01*
X103095056Y-104284127D01*
X103089502Y-104265820D01*
X103030537Y-104155506D01*
X102951185Y-104058815D01*
X102854494Y-103979463D01*
X102744180Y-103920498D01*
X102624482Y-103884188D01*
X102500000Y-103871928D01*
X100700000Y-103871928D01*
X100575518Y-103884188D01*
X100457000Y-103920140D01*
X100457000Y-101819860D01*
X100575518Y-101855812D01*
X100700000Y-101868072D01*
X102500000Y-101868072D01*
X102624482Y-101855812D01*
X102744180Y-101819502D01*
X102854494Y-101760537D01*
X102951185Y-101681185D01*
X103030537Y-101584494D01*
X103089502Y-101474180D01*
X103095056Y-101455873D01*
X103161495Y-101522312D01*
X103412905Y-101690299D01*
X103692257Y-101806011D01*
X103988816Y-101865000D01*
X104291184Y-101865000D01*
X104587743Y-101806011D01*
X104867095Y-101690299D01*
X105118505Y-101522312D01*
X105332312Y-101308505D01*
X105500299Y-101057095D01*
X105616011Y-100777743D01*
X105675000Y-100481184D01*
X105675000Y-100178816D01*
X105616011Y-99882257D01*
X105500299Y-99602905D01*
X105332312Y-99351495D01*
X105118505Y-99137688D01*
X104867095Y-98969701D01*
X104587743Y-98853989D01*
X104291184Y-98795000D01*
X103988816Y-98795000D01*
X103692257Y-98853989D01*
X103412905Y-98969701D01*
X103161495Y-99137688D01*
X103095056Y-99204127D01*
X103089502Y-99185820D01*
X103030537Y-99075506D01*
X102951185Y-98978815D01*
X102854494Y-98899463D01*
X102744180Y-98840498D01*
X102624482Y-98804188D01*
X102500000Y-98791928D01*
X100700000Y-98791928D01*
X100575518Y-98804188D01*
X100457000Y-98840140D01*
X100457000Y-97917000D01*
X107257685Y-97917000D01*
X107098987Y-98023038D01*
G37*
X107098987Y-98023038D02*
X106913038Y-98208987D01*
X106766939Y-98427641D01*
X106666304Y-98670595D01*
X106615000Y-98928514D01*
X106615000Y-99191486D01*
X106666304Y-99449405D01*
X106766939Y-99692359D01*
X106913038Y-99911013D01*
X107098987Y-100096962D01*
X107317641Y-100243061D01*
X107527530Y-100330000D01*
X107317641Y-100416939D01*
X107098987Y-100563038D01*
X106913038Y-100748987D01*
X106766939Y-100967641D01*
X106666304Y-101210595D01*
X106615000Y-101468514D01*
X106615000Y-101731486D01*
X106666304Y-101989405D01*
X106766939Y-102232359D01*
X106913038Y-102451013D01*
X107098987Y-102636962D01*
X107317641Y-102783061D01*
X107527530Y-102870000D01*
X107317641Y-102956939D01*
X107098987Y-103103038D01*
X106913038Y-103288987D01*
X106766939Y-103507641D01*
X106666304Y-103750595D01*
X106615000Y-104008514D01*
X106615000Y-104271486D01*
X106666304Y-104529405D01*
X106766939Y-104772359D01*
X106913038Y-104991013D01*
X107098987Y-105176962D01*
X107317641Y-105323061D01*
X107560595Y-105423696D01*
X107818514Y-105475000D01*
X108081486Y-105475000D01*
X108339405Y-105423696D01*
X108582359Y-105323061D01*
X108801013Y-105176962D01*
X108916706Y-105061269D01*
X112288336Y-105061269D01*
X112347797Y-105295037D01*
X112586242Y-105405934D01*
X112841740Y-105468183D01*
X113104473Y-105479390D01*
X113364344Y-105439125D01*
X113385140Y-105431532D01*
X113344192Y-105544587D01*
X114300000Y-106500395D01*
X115255808Y-105544587D01*
X115160044Y-105280186D01*
X114870429Y-105139296D01*
X114558892Y-105057616D01*
X114237405Y-105038282D01*
X113994673Y-105071569D01*
X114067925Y-104998317D01*
X113951271Y-104881663D01*
X114185037Y-104822203D01*
X114283729Y-104610000D01*
X119211928Y-104610000D01*
X119215000Y-105124250D01*
X119373750Y-105283000D01*
X120523000Y-105283000D01*
X120523000Y-104133750D01*
X120777000Y-104133750D01*
X120777000Y-105283000D01*
X120797000Y-105283000D01*
X120797000Y-105537000D01*
X120777000Y-105537000D01*
X120777000Y-106686250D01*
X120935750Y-106845000D01*
X121450000Y-106848072D01*
X121574482Y-106835812D01*
X121694180Y-106799502D01*
X121804494Y-106740537D01*
X121901185Y-106661185D01*
X121980537Y-106564494D01*
X122039502Y-106454180D01*
X122068661Y-106358057D01*
X122235241Y-106524637D01*
X122470273Y-106681680D01*
X122731426Y-106789853D01*
X123008665Y-106845000D01*
X123291335Y-106845000D01*
X123568574Y-106789853D01*
X123829727Y-106681680D01*
X124064759Y-106524637D01*
X124264637Y-106324759D01*
X124421680Y-106089727D01*
X124529853Y-105828574D01*
X124585000Y-105551335D01*
X124585000Y-105278514D01*
X148525000Y-105278514D01*
X148525000Y-105541486D01*
X148576304Y-105799405D01*
X148676939Y-106042359D01*
X148823038Y-106261013D01*
X149008987Y-106446962D01*
X149227641Y-106593061D01*
X149470595Y-106693696D01*
X149728514Y-106745000D01*
X149991486Y-106745000D01*
X150249405Y-106693696D01*
X150492359Y-106593061D01*
X150711013Y-106446962D01*
X150896962Y-106261013D01*
X151043061Y-106042359D01*
X151143696Y-105799405D01*
X151195000Y-105541486D01*
X151195000Y-105278514D01*
X151179327Y-105199721D01*
X155345000Y-105199721D01*
X155345000Y-105620279D01*
X155427047Y-106032756D01*
X155587988Y-106421302D01*
X155821637Y-106770983D01*
X156119017Y-107068363D01*
X156468698Y-107302012D01*
X156857244Y-107462953D01*
X157269721Y-107545000D01*
X157690279Y-107545000D01*
X158102756Y-107462953D01*
X158491302Y-107302012D01*
X158840983Y-107068363D01*
X159138363Y-106770983D01*
X159372012Y-106421302D01*
X159532953Y-106032756D01*
X159615000Y-105620279D01*
X159615000Y-105199721D01*
X159532953Y-104787244D01*
X159372012Y-104398698D01*
X159138363Y-104049017D01*
X158840983Y-103751637D01*
X158491302Y-103517988D01*
X158102756Y-103357047D01*
X157690279Y-103275000D01*
X157269721Y-103275000D01*
X156857244Y-103357047D01*
X156468698Y-103517988D01*
X156119017Y-103751637D01*
X155821637Y-104049017D01*
X155587988Y-104398698D01*
X155427047Y-104787244D01*
X155345000Y-105199721D01*
X151179327Y-105199721D01*
X151143696Y-105020595D01*
X151043061Y-104777641D01*
X150896962Y-104558987D01*
X150711013Y-104373038D01*
X150492359Y-104226939D01*
X150249405Y-104126304D01*
X149991486Y-104075000D01*
X149728514Y-104075000D01*
X149470595Y-104126304D01*
X149227641Y-104226939D01*
X149008987Y-104373038D01*
X148823038Y-104558987D01*
X148676939Y-104777641D01*
X148576304Y-105020595D01*
X148525000Y-105278514D01*
X124585000Y-105278514D01*
X124585000Y-105268665D01*
X124529853Y-104991426D01*
X124421680Y-104730273D01*
X124264637Y-104495241D01*
X124064759Y-104295363D01*
X123829727Y-104138320D01*
X123568574Y-104030147D01*
X123291335Y-103975000D01*
X123008665Y-103975000D01*
X122731426Y-104030147D01*
X122470273Y-104138320D01*
X122235241Y-104295363D01*
X122068661Y-104461943D01*
X122039502Y-104365820D01*
X121980537Y-104255506D01*
X121901185Y-104158815D01*
X121804494Y-104079463D01*
X121694180Y-104020498D01*
X121574482Y-103984188D01*
X121450000Y-103971928D01*
X120935750Y-103975000D01*
X120777000Y-104133750D01*
X120523000Y-104133750D01*
X120364250Y-103975000D01*
X119850000Y-103971928D01*
X119725518Y-103984188D01*
X119605820Y-104020498D01*
X119495506Y-104079463D01*
X119398815Y-104158815D01*
X119319463Y-104255506D01*
X119260498Y-104365820D01*
X119224188Y-104485518D01*
X119211928Y-104610000D01*
X114283729Y-104610000D01*
X114295934Y-104583758D01*
X114358183Y-104328260D01*
X114369390Y-104065527D01*
X114329125Y-103805656D01*
X114238935Y-103558634D01*
X114185037Y-103457797D01*
X113951269Y-103398336D01*
X113209605Y-104140000D01*
X113223748Y-104154143D01*
X113044143Y-104333748D01*
X113030000Y-104319605D01*
X112288336Y-105061269D01*
X108916706Y-105061269D01*
X108986962Y-104991013D01*
X109133061Y-104772359D01*
X109233696Y-104529405D01*
X109285000Y-104271486D01*
X109285000Y-104214473D01*
X111690610Y-104214473D01*
X111730875Y-104474344D01*
X111821065Y-104721366D01*
X111874963Y-104822203D01*
X112108731Y-104881664D01*
X112850395Y-104140000D01*
X112108731Y-103398336D01*
X111874963Y-103457797D01*
X111764066Y-103696242D01*
X111701817Y-103951740D01*
X111690610Y-104214473D01*
X109285000Y-104214473D01*
X109285000Y-104008514D01*
X109233696Y-103750595D01*
X109133061Y-103507641D01*
X108986962Y-103288987D01*
X108801013Y-103103038D01*
X108582359Y-102956939D01*
X108372470Y-102870000D01*
X108582359Y-102783061D01*
X108801013Y-102636962D01*
X108916706Y-102521269D01*
X112288336Y-102521269D01*
X112347797Y-102755037D01*
X112586242Y-102865934D01*
X112610701Y-102871893D01*
X112448634Y-102931065D01*
X112347797Y-102984963D01*
X112288336Y-103218731D01*
X113030000Y-103960395D01*
X113771664Y-103218731D01*
X113712203Y-102984963D01*
X113473758Y-102874066D01*
X113449299Y-102868107D01*
X113611366Y-102808935D01*
X113712203Y-102755037D01*
X113771664Y-102521269D01*
X113030000Y-101779605D01*
X112288336Y-102521269D01*
X108916706Y-102521269D01*
X108986962Y-102451013D01*
X109133061Y-102232359D01*
X109233696Y-101989405D01*
X109285000Y-101731486D01*
X109285000Y-101674473D01*
X111690610Y-101674473D01*
X111730875Y-101934344D01*
X111821065Y-102181366D01*
X111874963Y-102282203D01*
X112108731Y-102341664D01*
X112850395Y-101600000D01*
X113209605Y-101600000D01*
X113951269Y-102341664D01*
X114185037Y-102282203D01*
X114295934Y-102043758D01*
X114358183Y-101788260D01*
X114369390Y-101525527D01*
X114329125Y-101265656D01*
X114238935Y-101018634D01*
X114185037Y-100917797D01*
X113951269Y-100858336D01*
X113209605Y-101600000D01*
X112850395Y-101600000D01*
X112108731Y-100858336D01*
X111874963Y-100917797D01*
X111764066Y-101156242D01*
X111701817Y-101411740D01*
X111690610Y-101674473D01*
X109285000Y-101674473D01*
X109285000Y-101468514D01*
X109233696Y-101210595D01*
X109133061Y-100967641D01*
X108986962Y-100748987D01*
X108801013Y-100563038D01*
X108582359Y-100416939D01*
X108372470Y-100330000D01*
X108582359Y-100243061D01*
X108801013Y-100096962D01*
X108916706Y-99981269D01*
X112288336Y-99981269D01*
X112347797Y-100215037D01*
X112586242Y-100325934D01*
X112610701Y-100331893D01*
X112448634Y-100391065D01*
X112347797Y-100444963D01*
X112288336Y-100678731D01*
X113030000Y-101420395D01*
X113771664Y-100678731D01*
X113712203Y-100444963D01*
X113473758Y-100334066D01*
X113449299Y-100328107D01*
X113611366Y-100268935D01*
X113712203Y-100215037D01*
X113771664Y-99981269D01*
X113030000Y-99239605D01*
X112288336Y-99981269D01*
X108916706Y-99981269D01*
X108986962Y-99911013D01*
X109133061Y-99692359D01*
X109233696Y-99449405D01*
X109285000Y-99191486D01*
X109285000Y-99134473D01*
X111690610Y-99134473D01*
X111730875Y-99394344D01*
X111821065Y-99641366D01*
X111874963Y-99742203D01*
X112108731Y-99801664D01*
X112850395Y-99060000D01*
X113209605Y-99060000D01*
X113951269Y-99801664D01*
X114185037Y-99742203D01*
X114295934Y-99503758D01*
X114317098Y-99416891D01*
X117938519Y-99416891D01*
X118035843Y-99691252D01*
X118184822Y-99941355D01*
X118379731Y-100157588D01*
X118613080Y-100331641D01*
X118875901Y-100456825D01*
X119023110Y-100501476D01*
X119253000Y-100380155D01*
X119253000Y-99187000D01*
X118059186Y-99187000D01*
X117938519Y-99416891D01*
X114317098Y-99416891D01*
X114358183Y-99248260D01*
X114369390Y-98985527D01*
X114329125Y-98725656D01*
X114238935Y-98478634D01*
X114185037Y-98377797D01*
X113951269Y-98318336D01*
X113209605Y-99060000D01*
X112850395Y-99060000D01*
X112108731Y-98318336D01*
X111874963Y-98377797D01*
X111764066Y-98616242D01*
X111701817Y-98871740D01*
X111690610Y-99134473D01*
X109285000Y-99134473D01*
X109285000Y-98928514D01*
X109233696Y-98670595D01*
X109133061Y-98427641D01*
X108986962Y-98208987D01*
X108801013Y-98023038D01*
X108642315Y-97917000D01*
X112344735Y-97917000D01*
X112288336Y-98138731D01*
X113030000Y-98880395D01*
X113771664Y-98138731D01*
X113715265Y-97917000D01*
X118440614Y-97917000D01*
X118379731Y-97962412D01*
X118184822Y-98178645D01*
X118035843Y-98428748D01*
X117938519Y-98703109D01*
X118059186Y-98933000D01*
X119253000Y-98933000D01*
X119253000Y-98913000D01*
X119507000Y-98913000D01*
X119507000Y-98933000D01*
X119527000Y-98933000D01*
X119527000Y-99187000D01*
X119507000Y-99187000D01*
X119507000Y-100380155D01*
X119736890Y-100501476D01*
X119884099Y-100456825D01*
X120146920Y-100331641D01*
X120380269Y-100157588D01*
X120575178Y-99941355D01*
X120644805Y-99824466D01*
X120766525Y-100006632D01*
X120973368Y-100213475D01*
X121216589Y-100375990D01*
X121486842Y-100487932D01*
X121773740Y-100545000D01*
X122066260Y-100545000D01*
X122353158Y-100487932D01*
X122623411Y-100375990D01*
X122866632Y-100213475D01*
X123073475Y-100006632D01*
X123190000Y-99832240D01*
X123306525Y-100006632D01*
X123513368Y-100213475D01*
X123756589Y-100375990D01*
X124026842Y-100487932D01*
X124313740Y-100545000D01*
X124606260Y-100545000D01*
X124893158Y-100487932D01*
X125163411Y-100375990D01*
X125406632Y-100213475D01*
X125538487Y-100081620D01*
X125560498Y-100154180D01*
X125619463Y-100264494D01*
X125698815Y-100361185D01*
X125795506Y-100440537D01*
X125905820Y-100499502D01*
X126025518Y-100535812D01*
X126150000Y-100548072D01*
X127850000Y-100548072D01*
X127974482Y-100535812D01*
X128094180Y-100499502D01*
X128204494Y-100440537D01*
X128301185Y-100361185D01*
X128380537Y-100264494D01*
X128439502Y-100154180D01*
X128475812Y-100034482D01*
X128488072Y-99910000D01*
X128488072Y-98210000D01*
X128475812Y-98085518D01*
X128439502Y-97965820D01*
X128413407Y-97917000D01*
X132392893Y-97917000D01*
X132196525Y-98113368D01*
X132034010Y-98356589D01*
X131922068Y-98626842D01*
X131865000Y-98913740D01*
X131865000Y-99206260D01*
X131922068Y-99493158D01*
X132034010Y-99763411D01*
X132196525Y-100006632D01*
X132403368Y-100213475D01*
X132577760Y-100330000D01*
X132403368Y-100446525D01*
X132196525Y-100653368D01*
X132034010Y-100896589D01*
X131922068Y-101166842D01*
X131865000Y-101453740D01*
X131865000Y-101746260D01*
X131922068Y-102033158D01*
X132034010Y-102303411D01*
X132196525Y-102546632D01*
X132403368Y-102753475D01*
X132646589Y-102915990D01*
X132916842Y-103027932D01*
X133203740Y-103085000D01*
X133496260Y-103085000D01*
X133783158Y-103027932D01*
X134053411Y-102915990D01*
X134296632Y-102753475D01*
X134503475Y-102546632D01*
X134620000Y-102372240D01*
X134736525Y-102546632D01*
X134943368Y-102753475D01*
X135186589Y-102915990D01*
X135456842Y-103027932D01*
X135743740Y-103085000D01*
X136036260Y-103085000D01*
X136323158Y-103027932D01*
X136593411Y-102915990D01*
X136836632Y-102753475D01*
X137043475Y-102546632D01*
X137160000Y-102372240D01*
X137276525Y-102546632D01*
X137483368Y-102753475D01*
X137726589Y-102915990D01*
X137996842Y-103027932D01*
X138283740Y-103085000D01*
X138576260Y-103085000D01*
X138863158Y-103027932D01*
X139133411Y-102915990D01*
X139376632Y-102753475D01*
X139583475Y-102546632D01*
X139700000Y-102372240D01*
X139816525Y-102546632D01*
X140023368Y-102753475D01*
X140266589Y-102915990D01*
X140536842Y-103027932D01*
X140823740Y-103085000D01*
X141116260Y-103085000D01*
X141403158Y-103027932D01*
X141673411Y-102915990D01*
X141916632Y-102753475D01*
X142123475Y-102546632D01*
X142240000Y-102372240D01*
X142356525Y-102546632D01*
X142563368Y-102753475D01*
X142806589Y-102915990D01*
X143076842Y-103027932D01*
X143363740Y-103085000D01*
X143656260Y-103085000D01*
X143943158Y-103027932D01*
X144213411Y-102915990D01*
X144456632Y-102753475D01*
X144663475Y-102546632D01*
X144825990Y-102303411D01*
X144937932Y-102033158D01*
X144995000Y-101746260D01*
X144995000Y-101453740D01*
X144937932Y-101166842D01*
X144825990Y-100896589D01*
X144663475Y-100653368D01*
X144531620Y-100521513D01*
X144604180Y-100499502D01*
X144714494Y-100440537D01*
X144811185Y-100361185D01*
X144890537Y-100264494D01*
X144925804Y-100198514D01*
X148525000Y-100198514D01*
X148525000Y-100461486D01*
X148576304Y-100719405D01*
X148676939Y-100962359D01*
X148823038Y-101181013D01*
X149008987Y-101366962D01*
X149227641Y-101513061D01*
X149470595Y-101613696D01*
X149728514Y-101665000D01*
X149991486Y-101665000D01*
X150249405Y-101613696D01*
X150492359Y-101513061D01*
X150711013Y-101366962D01*
X150896962Y-101181013D01*
X151043061Y-100962359D01*
X151143696Y-100719405D01*
X151195000Y-100461486D01*
X151195000Y-100198514D01*
X151143696Y-99940595D01*
X151043061Y-99697641D01*
X150896962Y-99478987D01*
X150711013Y-99293038D01*
X150492359Y-99146939D01*
X150249405Y-99046304D01*
X149991486Y-98995000D01*
X149728514Y-98995000D01*
X149470595Y-99046304D01*
X149227641Y-99146939D01*
X149008987Y-99293038D01*
X148823038Y-99478987D01*
X148676939Y-99697641D01*
X148576304Y-99940595D01*
X148525000Y-100198514D01*
X144925804Y-100198514D01*
X144949502Y-100154180D01*
X144985812Y-100034482D01*
X144998072Y-99910000D01*
X144995000Y-99345750D01*
X144836250Y-99187000D01*
X143637000Y-99187000D01*
X143637000Y-99207000D01*
X143383000Y-99207000D01*
X143383000Y-99187000D01*
X143363000Y-99187000D01*
X143363000Y-98933000D01*
X143383000Y-98933000D01*
X143383000Y-98913000D01*
X143637000Y-98913000D01*
X143637000Y-98933000D01*
X144836250Y-98933000D01*
X144939250Y-98830000D01*
X155341928Y-98830000D01*
X155341928Y-101830000D01*
X155354188Y-101954482D01*
X155390498Y-102074180D01*
X155449463Y-102184494D01*
X155528815Y-102281185D01*
X155625506Y-102360537D01*
X155735820Y-102419502D01*
X155855518Y-102455812D01*
X155980000Y-102468072D01*
X158980000Y-102468072D01*
X159104482Y-102455812D01*
X159224180Y-102419502D01*
X159334494Y-102360537D01*
X159431185Y-102281185D01*
X159510537Y-102184494D01*
X159569502Y-102074180D01*
X159605812Y-101954482D01*
X159618072Y-101830000D01*
X159618072Y-98830000D01*
X159605812Y-98705518D01*
X159569502Y-98585820D01*
X159510537Y-98475506D01*
X159431185Y-98378815D01*
X159334494Y-98299463D01*
X159224180Y-98240498D01*
X159104482Y-98204188D01*
X158980000Y-98191928D01*
X155980000Y-98191928D01*
X155855518Y-98204188D01*
X155735820Y-98240498D01*
X155625506Y-98299463D01*
X155528815Y-98378815D01*
X155449463Y-98475506D01*
X155390498Y-98585820D01*
X155354188Y-98705518D01*
X155341928Y-98830000D01*
X144939250Y-98830000D01*
X144995000Y-98774250D01*
X144998072Y-98210000D01*
X144985812Y-98085518D01*
X144949502Y-97965820D01*
X144923407Y-97917000D01*
X161163000Y-97917000D01*
X161163000Y-122971928D01*
X160440000Y-122971928D01*
X160315518Y-122984188D01*
X160195820Y-123020498D01*
X160085506Y-123079463D01*
X159988815Y-123158815D01*
X159909463Y-123255506D01*
X159850498Y-123365820D01*
X159814188Y-123485518D01*
X159801928Y-123610000D01*
X159801928Y-125310000D01*
X159814188Y-125434482D01*
X159850498Y-125554180D01*
X159909463Y-125664494D01*
X159988815Y-125761185D01*
X160085506Y-125840537D01*
X160195820Y-125899502D01*
X160268380Y-125921513D01*
X160136525Y-126053368D01*
X159974010Y-126296589D01*
X159862068Y-126566842D01*
X159805000Y-126853740D01*
X159805000Y-127146260D01*
X159862068Y-127433158D01*
X159974010Y-127703411D01*
X160136525Y-127946632D01*
X160343368Y-128153475D01*
X160517760Y-128270000D01*
X160343368Y-128386525D01*
X160136525Y-128593368D01*
X159974010Y-128836589D01*
X159862068Y-129106842D01*
X159805000Y-129393740D01*
X159805000Y-129686260D01*
X159862068Y-129973158D01*
X159974010Y-130243411D01*
X160136525Y-130486632D01*
X160343368Y-130693475D01*
X160517760Y-130810000D01*
X160343368Y-130926525D01*
X160136525Y-131133368D01*
X159974010Y-131376589D01*
X159862068Y-131646842D01*
X159805000Y-131933740D01*
X159805000Y-132226260D01*
X159862068Y-132513158D01*
X159974010Y-132783411D01*
X160136525Y-133026632D01*
X160332893Y-133223000D01*
X158172315Y-133223000D01*
X158331013Y-133116962D01*
X158516962Y-132931013D01*
X158663061Y-132712359D01*
X158763696Y-132469405D01*
X158815000Y-132211486D01*
X158815000Y-131948514D01*
X158763696Y-131690595D01*
X158663061Y-131447641D01*
X158516962Y-131228987D01*
X158331013Y-131043038D01*
X158112359Y-130896939D01*
X157902470Y-130810000D01*
X158112359Y-130723061D01*
X158331013Y-130576962D01*
X158516962Y-130391013D01*
X158663061Y-130172359D01*
X158763696Y-129929405D01*
X158815000Y-129671486D01*
X158815000Y-129408514D01*
X158763696Y-129150595D01*
X158663061Y-128907641D01*
X158516962Y-128688987D01*
X158331013Y-128503038D01*
X158112359Y-128356939D01*
X157902470Y-128270000D01*
X158112359Y-128183061D01*
X158331013Y-128036962D01*
X158516962Y-127851013D01*
X158663061Y-127632359D01*
X158763696Y-127389405D01*
X158815000Y-127131486D01*
X158815000Y-126868514D01*
X158763696Y-126610595D01*
X158663061Y-126367641D01*
X158516962Y-126148987D01*
X158331013Y-125963038D01*
X158112359Y-125816939D01*
X157902470Y-125730000D01*
X158112359Y-125643061D01*
X158331013Y-125496962D01*
X158516962Y-125311013D01*
X158663061Y-125092359D01*
X158763696Y-124849405D01*
X158815000Y-124591486D01*
X158815000Y-124328514D01*
X158763696Y-124070595D01*
X158663061Y-123827641D01*
X158516962Y-123608987D01*
X158331013Y-123423038D01*
X158112359Y-123276939D01*
X157869405Y-123176304D01*
X157611486Y-123125000D01*
X157348514Y-123125000D01*
X157090595Y-123176304D01*
X156847641Y-123276939D01*
X156628987Y-123423038D01*
X156443038Y-123608987D01*
X156296939Y-123827641D01*
X156196304Y-124070595D01*
X156145000Y-124328514D01*
X156145000Y-124591486D01*
X156196304Y-124849405D01*
X156296939Y-125092359D01*
X156443038Y-125311013D01*
X156628987Y-125496962D01*
X156847641Y-125643061D01*
X157057530Y-125730000D01*
X156847641Y-125816939D01*
X156628987Y-125963038D01*
X156443038Y-126148987D01*
X156296939Y-126367641D01*
X156196304Y-126610595D01*
X156145000Y-126868514D01*
X156145000Y-127131486D01*
X156196304Y-127389405D01*
X156296939Y-127632359D01*
X156443038Y-127851013D01*
X156628987Y-128036962D01*
X156847641Y-128183061D01*
X157057530Y-128270000D01*
X156847641Y-128356939D01*
X156628987Y-128503038D01*
X156443038Y-128688987D01*
X156296939Y-128907641D01*
X156196304Y-129150595D01*
X156145000Y-129408514D01*
X156145000Y-129671486D01*
X156196304Y-129929405D01*
X156296939Y-130172359D01*
X156443038Y-130391013D01*
X156628987Y-130576962D01*
X156847641Y-130723061D01*
X157057530Y-130810000D01*
X156847641Y-130896939D01*
X156628987Y-131043038D01*
X156443038Y-131228987D01*
X156296939Y-131447641D01*
X156196304Y-131690595D01*
X156145000Y-131948514D01*
X156145000Y-132211486D01*
X156196304Y-132469405D01*
X156296939Y-132712359D01*
X156443038Y-132931013D01*
X156628987Y-133116962D01*
X156787685Y-133223000D01*
X153092315Y-133223000D01*
X153251013Y-133116962D01*
X153436962Y-132931013D01*
X153583061Y-132712359D01*
X153683696Y-132469405D01*
X153735000Y-132211486D01*
X153735000Y-131948514D01*
X153683696Y-131690595D01*
X153583061Y-131447641D01*
X153436962Y-131228987D01*
X153251013Y-131043038D01*
X153032359Y-130896939D01*
X152822470Y-130810000D01*
X153032359Y-130723061D01*
X153251013Y-130576962D01*
X153436962Y-130391013D01*
X153583061Y-130172359D01*
X153683696Y-129929405D01*
X153735000Y-129671486D01*
X153735000Y-129408514D01*
X153683696Y-129150595D01*
X153583061Y-128907641D01*
X153436962Y-128688987D01*
X153251013Y-128503038D01*
X153032359Y-128356939D01*
X152822470Y-128270000D01*
X153032359Y-128183061D01*
X153251013Y-128036962D01*
X153436962Y-127851013D01*
X153583061Y-127632359D01*
X153683696Y-127389405D01*
X153735000Y-127131486D01*
X153735000Y-126868514D01*
X153683696Y-126610595D01*
X153583061Y-126367641D01*
X153436962Y-126148987D01*
X153251013Y-125963038D01*
X153032359Y-125816939D01*
X152822470Y-125730000D01*
X153032359Y-125643061D01*
X153251013Y-125496962D01*
X153436962Y-125311013D01*
X153583061Y-125092359D01*
X153683696Y-124849405D01*
X153735000Y-124591486D01*
X153735000Y-124328514D01*
X153683696Y-124070595D01*
X153583061Y-123827641D01*
X153436962Y-123608987D01*
X153251013Y-123423038D01*
X153032359Y-123276939D01*
X152789405Y-123176304D01*
X152531486Y-123125000D01*
X152268514Y-123125000D01*
X152010595Y-123176304D01*
X151767641Y-123276939D01*
X151548987Y-123423038D01*
X151363038Y-123608987D01*
X151216939Y-123827641D01*
X151116304Y-124070595D01*
X151065000Y-124328514D01*
X151065000Y-124591486D01*
X151116304Y-124849405D01*
X151216939Y-125092359D01*
X151363038Y-125311013D01*
X151548987Y-125496962D01*
X151767641Y-125643061D01*
X151977530Y-125730000D01*
X151767641Y-125816939D01*
X151548987Y-125963038D01*
X151363038Y-126148987D01*
X151216939Y-126367641D01*
X151116304Y-126610595D01*
X151065000Y-126868514D01*
X151065000Y-127131486D01*
X151116304Y-127389405D01*
X151216939Y-127632359D01*
X151363038Y-127851013D01*
X151548987Y-128036962D01*
X151767641Y-128183061D01*
X151977530Y-128270000D01*
X151767641Y-128356939D01*
X151548987Y-128503038D01*
X151363038Y-128688987D01*
X151216939Y-128907641D01*
X151116304Y-129150595D01*
X151065000Y-129408514D01*
X151065000Y-129671486D01*
X151072766Y-129710527D01*
X150902252Y-129540013D01*
X150634463Y-129361082D01*
X150336912Y-129237832D01*
X150021033Y-129175000D01*
X149698967Y-129175000D01*
X149383088Y-129237832D01*
X149085537Y-129361082D01*
X148817748Y-129540013D01*
X148590013Y-129767748D01*
X148411082Y-130035537D01*
X148287832Y-130333088D01*
X148225000Y-130648967D01*
X148225000Y-130971033D01*
X148287832Y-131286912D01*
X148411082Y-131584463D01*
X148590013Y-131852252D01*
X148817748Y-132079987D01*
X149085537Y-132258918D01*
X149383088Y-132382168D01*
X149698967Y-132445000D01*
X150021033Y-132445000D01*
X150336912Y-132382168D01*
X150634463Y-132258918D01*
X150902252Y-132079987D01*
X151072766Y-131909473D01*
X151065000Y-131948514D01*
X151065000Y-132211486D01*
X151116304Y-132469405D01*
X151216939Y-132712359D01*
X151363038Y-132931013D01*
X151548987Y-133116962D01*
X151707685Y-133223000D01*
X125873407Y-133223000D01*
X125899502Y-133174180D01*
X125935812Y-133054482D01*
X125948072Y-132930000D01*
X125948072Y-131230000D01*
X125935812Y-131105518D01*
X125899502Y-130985820D01*
X125840537Y-130875506D01*
X125761185Y-130778815D01*
X125664494Y-130699463D01*
X125554180Y-130640498D01*
X125434482Y-130604188D01*
X125310000Y-130591928D01*
X123610000Y-130591928D01*
X123485518Y-130604188D01*
X123365820Y-130640498D01*
X123255506Y-130699463D01*
X123158815Y-130778815D01*
X123079463Y-130875506D01*
X123020498Y-130985820D01*
X122998487Y-131058380D01*
X122866632Y-130926525D01*
X122623411Y-130764010D01*
X122353158Y-130652068D01*
X122066260Y-130595000D01*
X121773740Y-130595000D01*
X121486842Y-130652068D01*
X121216589Y-130764010D01*
X120973368Y-130926525D01*
X120766525Y-131133368D01*
X120650000Y-131307760D01*
X120533475Y-131133368D01*
X120326632Y-130926525D01*
X120083411Y-130764010D01*
X119813158Y-130652068D01*
X119526260Y-130595000D01*
X119233740Y-130595000D01*
X118946842Y-130652068D01*
X118676589Y-130764010D01*
X118433368Y-130926525D01*
X118226525Y-131133368D01*
X118110000Y-131307760D01*
X117993475Y-131133368D01*
X117786632Y-130926525D01*
X117543411Y-130764010D01*
X117273158Y-130652068D01*
X116986260Y-130595000D01*
X116693740Y-130595000D01*
X116406842Y-130652068D01*
X116136589Y-130764010D01*
X115893368Y-130926525D01*
X115686525Y-131133368D01*
X115524010Y-131376589D01*
X115412068Y-131646842D01*
X115355000Y-131933740D01*
X115355000Y-132226260D01*
X115412068Y-132513158D01*
X115524010Y-132783411D01*
X115686525Y-133026632D01*
X115882893Y-133223000D01*
X114443407Y-133223000D01*
X114469502Y-133174180D01*
X114505812Y-133054482D01*
X114518072Y-132930000D01*
X114518072Y-131230000D01*
X114505812Y-131105518D01*
X114469502Y-130985820D01*
X114410537Y-130875506D01*
X114331185Y-130778815D01*
X114234494Y-130699463D01*
X114124180Y-130640498D01*
X114004482Y-130604188D01*
X113880000Y-130591928D01*
X112180000Y-130591928D01*
X112055518Y-130604188D01*
X111935820Y-130640498D01*
X111825506Y-130699463D01*
X111728815Y-130778815D01*
X111649463Y-130875506D01*
X111590498Y-130985820D01*
X111568487Y-131058380D01*
X111436632Y-130926525D01*
X111193411Y-130764010D01*
X110923158Y-130652068D01*
X110636260Y-130595000D01*
X110343740Y-130595000D01*
X110056842Y-130652068D01*
X109786589Y-130764010D01*
X109543368Y-130926525D01*
X109336525Y-131133368D01*
X109220000Y-131307760D01*
X109103475Y-131133368D01*
X108896632Y-130926525D01*
X108653411Y-130764010D01*
X108383158Y-130652068D01*
X108096260Y-130595000D01*
X107803740Y-130595000D01*
X107516842Y-130652068D01*
X107246589Y-130764010D01*
X107003368Y-130926525D01*
X106796525Y-131133368D01*
X106680000Y-131307760D01*
X106563475Y-131133368D01*
X106356632Y-130926525D01*
X106113411Y-130764010D01*
X105843158Y-130652068D01*
X105556260Y-130595000D01*
X105263740Y-130595000D01*
X104976842Y-130652068D01*
X104706589Y-130764010D01*
X104463368Y-130926525D01*
X104256525Y-131133368D01*
X104094010Y-131376589D01*
X103982068Y-131646842D01*
X103925000Y-131933740D01*
X103925000Y-132226260D01*
X103982068Y-132513158D01*
X104094010Y-132783411D01*
X104256525Y-133026632D01*
X104452893Y-133223000D01*
X104178452Y-133223000D01*
X100457000Y-130742032D01*
X100457000Y-128740000D01*
X128141928Y-128740000D01*
X128141928Y-130340000D01*
X128154188Y-130464482D01*
X128190498Y-130584180D01*
X128249463Y-130694494D01*
X128328815Y-130791185D01*
X128425506Y-130870537D01*
X128535820Y-130929502D01*
X128655518Y-130965812D01*
X128780000Y-130978072D01*
X130380000Y-130978072D01*
X130504482Y-130965812D01*
X130624180Y-130929502D01*
X130734494Y-130870537D01*
X130831185Y-130791185D01*
X130910537Y-130694494D01*
X130969502Y-130584180D01*
X130998661Y-130488057D01*
X131165241Y-130654637D01*
X131400273Y-130811680D01*
X131661426Y-130919853D01*
X131938665Y-130975000D01*
X132221335Y-130975000D01*
X132498574Y-130919853D01*
X132759727Y-130811680D01*
X132994759Y-130654637D01*
X133194637Y-130454759D01*
X133351680Y-130219727D01*
X133438551Y-130010000D01*
X135761928Y-130010000D01*
X135761928Y-131610000D01*
X135774188Y-131734482D01*
X135810498Y-131854180D01*
X135869463Y-131964494D01*
X135948815Y-132061185D01*
X136045506Y-132140537D01*
X136155820Y-132199502D01*
X136275518Y-132235812D01*
X136400000Y-132248072D01*
X138000000Y-132248072D01*
X138124482Y-132235812D01*
X138244180Y-132199502D01*
X138354494Y-132140537D01*
X138451185Y-132061185D01*
X138530537Y-131964494D01*
X138589502Y-131854180D01*
X138618661Y-131758057D01*
X138785241Y-131924637D01*
X139020273Y-132081680D01*
X139281426Y-132189853D01*
X139558665Y-132245000D01*
X139841335Y-132245000D01*
X140118574Y-132189853D01*
X140379727Y-132081680D01*
X140614759Y-131924637D01*
X140814637Y-131724759D01*
X140971680Y-131489727D01*
X141079853Y-131228574D01*
X141135000Y-130951335D01*
X141135000Y-130668665D01*
X141131082Y-130648967D01*
X143145000Y-130648967D01*
X143145000Y-130971033D01*
X143207832Y-131286912D01*
X143331082Y-131584463D01*
X143510013Y-131852252D01*
X143737748Y-132079987D01*
X144005537Y-132258918D01*
X144303088Y-132382168D01*
X144618967Y-132445000D01*
X144941033Y-132445000D01*
X145256912Y-132382168D01*
X145554463Y-132258918D01*
X145822252Y-132079987D01*
X146049987Y-131852252D01*
X146228918Y-131584463D01*
X146352168Y-131286912D01*
X146415000Y-130971033D01*
X146415000Y-130648967D01*
X146352168Y-130333088D01*
X146228918Y-130035537D01*
X146049987Y-129767748D01*
X145822252Y-129540013D01*
X145554463Y-129361082D01*
X145256912Y-129237832D01*
X144941033Y-129175000D01*
X144618967Y-129175000D01*
X144303088Y-129237832D01*
X144005537Y-129361082D01*
X143737748Y-129540013D01*
X143510013Y-129767748D01*
X143331082Y-130035537D01*
X143207832Y-130333088D01*
X143145000Y-130648967D01*
X141131082Y-130648967D01*
X141079853Y-130391426D01*
X140971680Y-130130273D01*
X140814637Y-129895241D01*
X140614759Y-129695363D01*
X140379727Y-129538320D01*
X140118574Y-129430147D01*
X139841335Y-129375000D01*
X139558665Y-129375000D01*
X139281426Y-129430147D01*
X139020273Y-129538320D01*
X138785241Y-129695363D01*
X138618661Y-129861943D01*
X138589502Y-129765820D01*
X138530537Y-129655506D01*
X138451185Y-129558815D01*
X138354494Y-129479463D01*
X138244180Y-129420498D01*
X138124482Y-129384188D01*
X138000000Y-129371928D01*
X136400000Y-129371928D01*
X136275518Y-129384188D01*
X136155820Y-129420498D01*
X136045506Y-129479463D01*
X135948815Y-129558815D01*
X135869463Y-129655506D01*
X135810498Y-129765820D01*
X135774188Y-129885518D01*
X135761928Y-130010000D01*
X133438551Y-130010000D01*
X133459853Y-129958574D01*
X133515000Y-129681335D01*
X133515000Y-129398665D01*
X133459853Y-129121426D01*
X133351680Y-128860273D01*
X133194637Y-128625241D01*
X132994759Y-128425363D01*
X132759727Y-128268320D01*
X132498574Y-128160147D01*
X132221335Y-128105000D01*
X131938665Y-128105000D01*
X131661426Y-128160147D01*
X131400273Y-128268320D01*
X131165241Y-128425363D01*
X130998661Y-128591943D01*
X130969502Y-128495820D01*
X130910537Y-128385506D01*
X130831185Y-128288815D01*
X130734494Y-128209463D01*
X130624180Y-128150498D01*
X130504482Y-128114188D01*
X130380000Y-128101928D01*
X128780000Y-128101928D01*
X128655518Y-128114188D01*
X128535820Y-128150498D01*
X128425506Y-128209463D01*
X128328815Y-128288815D01*
X128249463Y-128385506D01*
X128190498Y-128495820D01*
X128154188Y-128615518D01*
X128141928Y-128740000D01*
X100457000Y-128740000D01*
X100457000Y-124147107D01*
X100653368Y-124343475D01*
X100896589Y-124505990D01*
X101166842Y-124617932D01*
X101453740Y-124675000D01*
X101746260Y-124675000D01*
X102033158Y-124617932D01*
X102303411Y-124505990D01*
X102546632Y-124343475D01*
X102571442Y-124318665D01*
X110365000Y-124318665D01*
X110365000Y-124601335D01*
X110420147Y-124878574D01*
X110528320Y-125139727D01*
X110685363Y-125374759D01*
X110885241Y-125574637D01*
X111120273Y-125731680D01*
X111381426Y-125839853D01*
X111658665Y-125895000D01*
X111941335Y-125895000D01*
X112218574Y-125839853D01*
X112479727Y-125731680D01*
X112714759Y-125574637D01*
X112881339Y-125408057D01*
X112910498Y-125504180D01*
X112969463Y-125614494D01*
X113048815Y-125711185D01*
X113145506Y-125790537D01*
X113255820Y-125849502D01*
X113375518Y-125885812D01*
X113500000Y-125898072D01*
X115100000Y-125898072D01*
X115224482Y-125885812D01*
X115344180Y-125849502D01*
X115454494Y-125790537D01*
X115551185Y-125711185D01*
X115630537Y-125614494D01*
X115689502Y-125504180D01*
X115725812Y-125384482D01*
X115738072Y-125260000D01*
X115738072Y-123660000D01*
X115725812Y-123535518D01*
X115689502Y-123415820D01*
X115630537Y-123305506D01*
X115551185Y-123208815D01*
X115454494Y-123129463D01*
X115344180Y-123070498D01*
X115224482Y-123034188D01*
X115100000Y-123021928D01*
X113500000Y-123021928D01*
X113375518Y-123034188D01*
X113255820Y-123070498D01*
X113145506Y-123129463D01*
X113048815Y-123208815D01*
X112969463Y-123305506D01*
X112910498Y-123415820D01*
X112881339Y-123511943D01*
X112714759Y-123345363D01*
X112479727Y-123188320D01*
X112218574Y-123080147D01*
X111941335Y-123025000D01*
X111658665Y-123025000D01*
X111381426Y-123080147D01*
X111120273Y-123188320D01*
X110885241Y-123345363D01*
X110685363Y-123545241D01*
X110528320Y-123780273D01*
X110420147Y-124041426D01*
X110365000Y-124318665D01*
X102571442Y-124318665D01*
X102753475Y-124136632D01*
X102915990Y-123893411D01*
X103027932Y-123623158D01*
X103085000Y-123336260D01*
X103085000Y-123043740D01*
X103027932Y-122756842D01*
X102915990Y-122486589D01*
X102753475Y-122243368D01*
X102546632Y-122036525D01*
X102372240Y-121920000D01*
X102546632Y-121803475D01*
X102753475Y-121596632D01*
X102915990Y-121353411D01*
X103012671Y-121120000D01*
X126871928Y-121120000D01*
X126871928Y-122720000D01*
X126884188Y-122844482D01*
X126920498Y-122964180D01*
X126979463Y-123074494D01*
X127058815Y-123171185D01*
X127155506Y-123250537D01*
X127265820Y-123309502D01*
X127385518Y-123345812D01*
X127510000Y-123358072D01*
X129110000Y-123358072D01*
X129234482Y-123345812D01*
X129354180Y-123309502D01*
X129464494Y-123250537D01*
X129561185Y-123171185D01*
X129640537Y-123074494D01*
X129699502Y-122964180D01*
X129728661Y-122868057D01*
X129895241Y-123034637D01*
X130130273Y-123191680D01*
X130391426Y-123299853D01*
X130668665Y-123355000D01*
X130951335Y-123355000D01*
X131228574Y-123299853D01*
X131489727Y-123191680D01*
X131724759Y-123034637D01*
X131924637Y-122834759D01*
X132081680Y-122599727D01*
X132189853Y-122338574D01*
X132245000Y-122061335D01*
X132245000Y-121885967D01*
X133023100Y-121885967D01*
X133023100Y-122208033D01*
X133085932Y-122523912D01*
X133209182Y-122821463D01*
X133388113Y-123089252D01*
X133615848Y-123316987D01*
X133883637Y-123495918D01*
X134181188Y-123619168D01*
X134497067Y-123682000D01*
X134819133Y-123682000D01*
X135135012Y-123619168D01*
X135432563Y-123495918D01*
X135700352Y-123316987D01*
X135928087Y-123089252D01*
X136107018Y-122821463D01*
X136230268Y-122523912D01*
X136293100Y-122208033D01*
X136293100Y-121885967D01*
X138103100Y-121885967D01*
X138103100Y-122208033D01*
X138165932Y-122523912D01*
X138289182Y-122821463D01*
X138468113Y-123089252D01*
X138695848Y-123316987D01*
X138963637Y-123495918D01*
X139261188Y-123619168D01*
X139577067Y-123682000D01*
X139899133Y-123682000D01*
X140215012Y-123619168D01*
X140512563Y-123495918D01*
X140780352Y-123316987D01*
X141008087Y-123089252D01*
X141187018Y-122821463D01*
X141310268Y-122523912D01*
X141373100Y-122208033D01*
X141373100Y-121885967D01*
X141347839Y-121758967D01*
X141875000Y-121758967D01*
X141875000Y-122081033D01*
X141937832Y-122396912D01*
X142061082Y-122694463D01*
X142240013Y-122962252D01*
X142467748Y-123189987D01*
X142735537Y-123368918D01*
X143033088Y-123492168D01*
X143348967Y-123555000D01*
X143671033Y-123555000D01*
X143986912Y-123492168D01*
X144284463Y-123368918D01*
X144552252Y-123189987D01*
X144779987Y-122962252D01*
X144958918Y-122694463D01*
X145082168Y-122396912D01*
X145145000Y-122081033D01*
X145145000Y-121758967D01*
X146955000Y-121758967D01*
X146955000Y-122081033D01*
X147017832Y-122396912D01*
X147141082Y-122694463D01*
X147320013Y-122962252D01*
X147547748Y-123189987D01*
X147815537Y-123368918D01*
X148113088Y-123492168D01*
X148428967Y-123555000D01*
X148751033Y-123555000D01*
X149066912Y-123492168D01*
X149364463Y-123368918D01*
X149632252Y-123189987D01*
X149859987Y-122962252D01*
X150038918Y-122694463D01*
X150162168Y-122396912D01*
X150225000Y-122081033D01*
X150225000Y-121758967D01*
X150162168Y-121443088D01*
X150038918Y-121145537D01*
X149859987Y-120877748D01*
X149632252Y-120650013D01*
X149391230Y-120488967D01*
X155845000Y-120488967D01*
X155845000Y-120811033D01*
X155907832Y-121126912D01*
X156031082Y-121424463D01*
X156210013Y-121692252D01*
X156437748Y-121919987D01*
X156705537Y-122098918D01*
X157003088Y-122222168D01*
X157318967Y-122285000D01*
X157641033Y-122285000D01*
X157956912Y-122222168D01*
X158254463Y-122098918D01*
X158522252Y-121919987D01*
X158749987Y-121692252D01*
X158928918Y-121424463D01*
X159052168Y-121126912D01*
X159115000Y-120811033D01*
X159115000Y-120488967D01*
X159052168Y-120173088D01*
X158928918Y-119875537D01*
X158749987Y-119607748D01*
X158522252Y-119380013D01*
X158254463Y-119201082D01*
X157956912Y-119077832D01*
X157641033Y-119015000D01*
X157318967Y-119015000D01*
X157003088Y-119077832D01*
X156705537Y-119201082D01*
X156437748Y-119380013D01*
X156210013Y-119607748D01*
X156031082Y-119875537D01*
X155907832Y-120173088D01*
X155845000Y-120488967D01*
X149391230Y-120488967D01*
X149364463Y-120471082D01*
X149066912Y-120347832D01*
X148751033Y-120285000D01*
X148428967Y-120285000D01*
X148113088Y-120347832D01*
X147815537Y-120471082D01*
X147547748Y-120650013D01*
X147320013Y-120877748D01*
X147141082Y-121145537D01*
X147017832Y-121443088D01*
X146955000Y-121758967D01*
X145145000Y-121758967D01*
X145082168Y-121443088D01*
X144958918Y-121145537D01*
X144779987Y-120877748D01*
X144552252Y-120650013D01*
X144284463Y-120471082D01*
X143986912Y-120347832D01*
X143671033Y-120285000D01*
X143348967Y-120285000D01*
X143033088Y-120347832D01*
X142735537Y-120471082D01*
X142467748Y-120650013D01*
X142240013Y-120877748D01*
X142061082Y-121145537D01*
X141937832Y-121443088D01*
X141875000Y-121758967D01*
X141347839Y-121758967D01*
X141310268Y-121570088D01*
X141187018Y-121272537D01*
X141008087Y-121004748D01*
X140780352Y-120777013D01*
X140512563Y-120598082D01*
X140215012Y-120474832D01*
X139899133Y-120412000D01*
X139577067Y-120412000D01*
X139261188Y-120474832D01*
X138963637Y-120598082D01*
X138695848Y-120777013D01*
X138468113Y-121004748D01*
X138289182Y-121272537D01*
X138165932Y-121570088D01*
X138103100Y-121885967D01*
X136293100Y-121885967D01*
X136230268Y-121570088D01*
X136107018Y-121272537D01*
X135928087Y-121004748D01*
X135700352Y-120777013D01*
X135432563Y-120598082D01*
X135135012Y-120474832D01*
X134819133Y-120412000D01*
X134497067Y-120412000D01*
X134181188Y-120474832D01*
X133883637Y-120598082D01*
X133615848Y-120777013D01*
X133388113Y-121004748D01*
X133209182Y-121272537D01*
X133085932Y-121570088D01*
X133023100Y-121885967D01*
X132245000Y-121885967D01*
X132245000Y-121778665D01*
X132189853Y-121501426D01*
X132081680Y-121240273D01*
X131924637Y-121005241D01*
X131724759Y-120805363D01*
X131489727Y-120648320D01*
X131228574Y-120540147D01*
X130951335Y-120485000D01*
X130668665Y-120485000D01*
X130391426Y-120540147D01*
X130130273Y-120648320D01*
X129895241Y-120805363D01*
X129728661Y-120971943D01*
X129699502Y-120875820D01*
X129640537Y-120765506D01*
X129561185Y-120668815D01*
X129464494Y-120589463D01*
X129354180Y-120530498D01*
X129234482Y-120494188D01*
X129110000Y-120481928D01*
X127510000Y-120481928D01*
X127385518Y-120494188D01*
X127265820Y-120530498D01*
X127155506Y-120589463D01*
X127058815Y-120668815D01*
X126979463Y-120765506D01*
X126920498Y-120875820D01*
X126884188Y-120995518D01*
X126871928Y-121120000D01*
X103012671Y-121120000D01*
X103027932Y-121083158D01*
X103085000Y-120796260D01*
X103085000Y-120503740D01*
X103027932Y-120216842D01*
X102915990Y-119946589D01*
X102753475Y-119703368D01*
X102546632Y-119496525D01*
X102372240Y-119380000D01*
X102546632Y-119263475D01*
X102753475Y-119056632D01*
X102915990Y-118813411D01*
X103027932Y-118543158D01*
X103085000Y-118256260D01*
X103085000Y-117963740D01*
X103027932Y-117676842D01*
X102915990Y-117406589D01*
X102753475Y-117163368D01*
X102621620Y-117031513D01*
X102694180Y-117009502D01*
X102804494Y-116950537D01*
X102901185Y-116871185D01*
X102980537Y-116774494D01*
X103021069Y-116698665D01*
X110365000Y-116698665D01*
X110365000Y-116981335D01*
X110420147Y-117258574D01*
X110528320Y-117519727D01*
X110685363Y-117754759D01*
X110885241Y-117954637D01*
X111120273Y-118111680D01*
X111381426Y-118219853D01*
X111658665Y-118275000D01*
X111941335Y-118275000D01*
X112218574Y-118219853D01*
X112479727Y-118111680D01*
X112714759Y-117954637D01*
X112881339Y-117788057D01*
X112910498Y-117884180D01*
X112969463Y-117994494D01*
X113048815Y-118091185D01*
X113145506Y-118170537D01*
X113255820Y-118229502D01*
X113375518Y-118265812D01*
X113500000Y-118278072D01*
X115100000Y-118278072D01*
X115224482Y-118265812D01*
X115344180Y-118229502D01*
X115454494Y-118170537D01*
X115551185Y-118091185D01*
X115630537Y-117994494D01*
X115689502Y-117884180D01*
X115725812Y-117764482D01*
X115738072Y-117640000D01*
X115738072Y-116560705D01*
X124961837Y-116560705D01*
X124961837Y-116764583D01*
X125001611Y-116964542D01*
X125079632Y-117152900D01*
X125192900Y-117322418D01*
X125337063Y-117466581D01*
X125506581Y-117579849D01*
X125694939Y-117657870D01*
X125894898Y-117697644D01*
X126098776Y-117697644D01*
X126298735Y-117657870D01*
X126487093Y-117579849D01*
X126656611Y-117466581D01*
X126800774Y-117322418D01*
X126914042Y-117152900D01*
X126992063Y-116964542D01*
X127031837Y-116764583D01*
X127031837Y-116560705D01*
X126992063Y-116360746D01*
X126914042Y-116172388D01*
X126800774Y-116002870D01*
X126656611Y-115858707D01*
X126487093Y-115745439D01*
X126298735Y-115667418D01*
X126098776Y-115627644D01*
X125894898Y-115627644D01*
X125694939Y-115667418D01*
X125506581Y-115745439D01*
X125337063Y-115858707D01*
X125192900Y-116002870D01*
X125079632Y-116172388D01*
X125001611Y-116360746D01*
X124961837Y-116560705D01*
X115738072Y-116560705D01*
X115738072Y-116040000D01*
X115725812Y-115915518D01*
X115689502Y-115795820D01*
X115630537Y-115685506D01*
X115551185Y-115588815D01*
X115454494Y-115509463D01*
X115344180Y-115450498D01*
X115224482Y-115414188D01*
X115100000Y-115401928D01*
X113500000Y-115401928D01*
X113375518Y-115414188D01*
X113255820Y-115450498D01*
X113145506Y-115509463D01*
X113048815Y-115588815D01*
X112969463Y-115685506D01*
X112910498Y-115795820D01*
X112881339Y-115891943D01*
X112714759Y-115725363D01*
X112479727Y-115568320D01*
X112218574Y-115460147D01*
X111941335Y-115405000D01*
X111658665Y-115405000D01*
X111381426Y-115460147D01*
X111120273Y-115568320D01*
X110885241Y-115725363D01*
X110685363Y-115925241D01*
X110528320Y-116160273D01*
X110420147Y-116421426D01*
X110365000Y-116698665D01*
X103021069Y-116698665D01*
X103039502Y-116664180D01*
X103075812Y-116544482D01*
X103088072Y-116420000D01*
X103088072Y-114720000D01*
X103075812Y-114595518D01*
X103039502Y-114475820D01*
X102980537Y-114365506D01*
X102901185Y-114268815D01*
X102804494Y-114189463D01*
X102694180Y-114130498D01*
X102574482Y-114094188D01*
X102450000Y-114081928D01*
X100750000Y-114081928D01*
X100625518Y-114094188D01*
X100505820Y-114130498D01*
X100457000Y-114156593D01*
X100457000Y-113790000D01*
X126831928Y-113790000D01*
X126844188Y-113914482D01*
X126880498Y-114034180D01*
X126939463Y-114144494D01*
X127018815Y-114241185D01*
X127115506Y-114320537D01*
X127225820Y-114379502D01*
X127321943Y-114408661D01*
X127155363Y-114575241D01*
X126998320Y-114810273D01*
X126890147Y-115071426D01*
X126835000Y-115348665D01*
X126835000Y-115631335D01*
X126890147Y-115908574D01*
X126998320Y-116169727D01*
X127155363Y-116404759D01*
X127355241Y-116604637D01*
X127590273Y-116761680D01*
X127851426Y-116869853D01*
X128128665Y-116925000D01*
X128411335Y-116925000D01*
X128688574Y-116869853D01*
X128949727Y-116761680D01*
X129184759Y-116604637D01*
X129384637Y-116404759D01*
X129541680Y-116169727D01*
X129616125Y-115990000D01*
X133131928Y-115990000D01*
X133131928Y-117690000D01*
X133144188Y-117814482D01*
X133180498Y-117934180D01*
X133239463Y-118044494D01*
X133318815Y-118141185D01*
X133415506Y-118220537D01*
X133525820Y-118279502D01*
X133645518Y-118315812D01*
X133770000Y-118328072D01*
X135470000Y-118328072D01*
X135594482Y-118315812D01*
X135714180Y-118279502D01*
X135824494Y-118220537D01*
X135921185Y-118141185D01*
X136000537Y-118044494D01*
X136059502Y-117934180D01*
X136095812Y-117814482D01*
X136108072Y-117690000D01*
X136108072Y-115990000D01*
X136095812Y-115865518D01*
X136059502Y-115745820D01*
X136000537Y-115635506D01*
X135921185Y-115538815D01*
X135824494Y-115459463D01*
X135714180Y-115400498D01*
X135641620Y-115378487D01*
X135773475Y-115246632D01*
X135935990Y-115003411D01*
X136047932Y-114733158D01*
X136105000Y-114446260D01*
X136105000Y-114153740D01*
X136047932Y-113866842D01*
X135935990Y-113596589D01*
X135773475Y-113353368D01*
X135566632Y-113146525D01*
X135392240Y-113030000D01*
X135566632Y-112913475D01*
X135773475Y-112706632D01*
X135795238Y-112674061D01*
X136125000Y-112674061D01*
X136125000Y-112877939D01*
X136164774Y-113077898D01*
X136242795Y-113266256D01*
X136356063Y-113435774D01*
X136500226Y-113579937D01*
X136669744Y-113693205D01*
X136858102Y-113771226D01*
X137058061Y-113811000D01*
X137261939Y-113811000D01*
X137461898Y-113771226D01*
X137650256Y-113693205D01*
X137819774Y-113579937D01*
X137963937Y-113435774D01*
X138077205Y-113266256D01*
X138155226Y-113077898D01*
X138172399Y-112991561D01*
X140798600Y-112991561D01*
X140798600Y-113195439D01*
X140838374Y-113395398D01*
X140916395Y-113583756D01*
X141029663Y-113753274D01*
X141173826Y-113897437D01*
X141343344Y-114010705D01*
X141531702Y-114088726D01*
X141731661Y-114128500D01*
X141935539Y-114128500D01*
X142135498Y-114088726D01*
X142323856Y-114010705D01*
X142493374Y-113897437D01*
X142637537Y-113753274D01*
X142750805Y-113583756D01*
X142828826Y-113395398D01*
X142868600Y-113195439D01*
X142868600Y-112991561D01*
X142828826Y-112791602D01*
X142750805Y-112603244D01*
X142637537Y-112433726D01*
X142493374Y-112289563D01*
X142404232Y-112230000D01*
X149691928Y-112230000D01*
X149691928Y-113830000D01*
X149704188Y-113954482D01*
X149740498Y-114074180D01*
X149799463Y-114184494D01*
X149878815Y-114281185D01*
X149975506Y-114360537D01*
X150085820Y-114419502D01*
X150181943Y-114448661D01*
X150015363Y-114615241D01*
X149858320Y-114850273D01*
X149750147Y-115111426D01*
X149695000Y-115388665D01*
X149695000Y-115671335D01*
X149750147Y-115948574D01*
X149858320Y-116209727D01*
X150015363Y-116444759D01*
X150215241Y-116644637D01*
X150450273Y-116801680D01*
X150711426Y-116909853D01*
X150988665Y-116965000D01*
X151271335Y-116965000D01*
X151548574Y-116909853D01*
X151809727Y-116801680D01*
X152044759Y-116644637D01*
X152244637Y-116444759D01*
X152401680Y-116209727D01*
X152509853Y-115948574D01*
X152565000Y-115671335D01*
X152565000Y-115408967D01*
X155845000Y-115408967D01*
X155845000Y-115731033D01*
X155907832Y-116046912D01*
X156031082Y-116344463D01*
X156210013Y-116612252D01*
X156437748Y-116839987D01*
X156705537Y-117018918D01*
X157003088Y-117142168D01*
X157318967Y-117205000D01*
X157641033Y-117205000D01*
X157956912Y-117142168D01*
X158254463Y-117018918D01*
X158522252Y-116839987D01*
X158749987Y-116612252D01*
X158928918Y-116344463D01*
X159052168Y-116046912D01*
X159115000Y-115731033D01*
X159115000Y-115408967D01*
X159052168Y-115093088D01*
X158928918Y-114795537D01*
X158749987Y-114527748D01*
X158522252Y-114300013D01*
X158254463Y-114121082D01*
X157956912Y-113997832D01*
X157641033Y-113935000D01*
X157318967Y-113935000D01*
X157003088Y-113997832D01*
X156705537Y-114121082D01*
X156437748Y-114300013D01*
X156210013Y-114527748D01*
X156031082Y-114795537D01*
X155907832Y-115093088D01*
X155845000Y-115408967D01*
X152565000Y-115408967D01*
X152565000Y-115388665D01*
X152509853Y-115111426D01*
X152401680Y-114850273D01*
X152244637Y-114615241D01*
X152078057Y-114448661D01*
X152174180Y-114419502D01*
X152284494Y-114360537D01*
X152381185Y-114281185D01*
X152460537Y-114184494D01*
X152519502Y-114074180D01*
X152555812Y-113954482D01*
X152568072Y-113830000D01*
X152568072Y-112230000D01*
X152555812Y-112105518D01*
X152519502Y-111985820D01*
X152460537Y-111875506D01*
X152381185Y-111778815D01*
X152284494Y-111699463D01*
X152174180Y-111640498D01*
X152054482Y-111604188D01*
X151930000Y-111591928D01*
X150330000Y-111591928D01*
X150205518Y-111604188D01*
X150085820Y-111640498D01*
X149975506Y-111699463D01*
X149878815Y-111778815D01*
X149799463Y-111875506D01*
X149740498Y-111985820D01*
X149704188Y-112105518D01*
X149691928Y-112230000D01*
X142404232Y-112230000D01*
X142323856Y-112176295D01*
X142135498Y-112098274D01*
X141935539Y-112058500D01*
X141731661Y-112058500D01*
X141531702Y-112098274D01*
X141343344Y-112176295D01*
X141173826Y-112289563D01*
X141029663Y-112433726D01*
X140916395Y-112603244D01*
X140838374Y-112791602D01*
X140798600Y-112991561D01*
X138172399Y-112991561D01*
X138195000Y-112877939D01*
X138195000Y-112674061D01*
X138155226Y-112474102D01*
X138077205Y-112285744D01*
X137963937Y-112116226D01*
X137819774Y-111972063D01*
X137650256Y-111858795D01*
X137461898Y-111780774D01*
X137261939Y-111741000D01*
X137058061Y-111741000D01*
X136858102Y-111780774D01*
X136669744Y-111858795D01*
X136500226Y-111972063D01*
X136356063Y-112116226D01*
X136242795Y-112285744D01*
X136164774Y-112474102D01*
X136125000Y-112674061D01*
X135795238Y-112674061D01*
X135935990Y-112463411D01*
X136047932Y-112193158D01*
X136105000Y-111906260D01*
X136105000Y-111613740D01*
X136047932Y-111326842D01*
X135935990Y-111056589D01*
X135773475Y-110813368D01*
X135566632Y-110606525D01*
X135392240Y-110490000D01*
X135566632Y-110373475D01*
X135773475Y-110166632D01*
X135935990Y-109923411D01*
X136047932Y-109653158D01*
X136105000Y-109366260D01*
X136105000Y-109073740D01*
X136047932Y-108786842D01*
X135935990Y-108516589D01*
X135773475Y-108273368D01*
X135566632Y-108066525D01*
X135323411Y-107904010D01*
X135053158Y-107792068D01*
X134766260Y-107735000D01*
X134473740Y-107735000D01*
X134186842Y-107792068D01*
X133916589Y-107904010D01*
X133673368Y-108066525D01*
X133466525Y-108273368D01*
X133304010Y-108516589D01*
X133192068Y-108786842D01*
X133135000Y-109073740D01*
X133135000Y-109366260D01*
X133192068Y-109653158D01*
X133304010Y-109923411D01*
X133466525Y-110166632D01*
X133673368Y-110373475D01*
X133847760Y-110490000D01*
X133673368Y-110606525D01*
X133466525Y-110813368D01*
X133304010Y-111056589D01*
X133192068Y-111326842D01*
X133135000Y-111613740D01*
X133135000Y-111906260D01*
X133192068Y-112193158D01*
X133304010Y-112463411D01*
X133466525Y-112706632D01*
X133673368Y-112913475D01*
X133847760Y-113030000D01*
X133673368Y-113146525D01*
X133466525Y-113353368D01*
X133304010Y-113596589D01*
X133192068Y-113866842D01*
X133135000Y-114153740D01*
X133135000Y-114446260D01*
X133192068Y-114733158D01*
X133304010Y-115003411D01*
X133466525Y-115246632D01*
X133598380Y-115378487D01*
X133525820Y-115400498D01*
X133415506Y-115459463D01*
X133318815Y-115538815D01*
X133239463Y-115635506D01*
X133180498Y-115745820D01*
X133144188Y-115865518D01*
X133131928Y-115990000D01*
X129616125Y-115990000D01*
X129649853Y-115908574D01*
X129705000Y-115631335D01*
X129705000Y-115348665D01*
X129649853Y-115071426D01*
X129541680Y-114810273D01*
X129384637Y-114575241D01*
X129218057Y-114408661D01*
X129314180Y-114379502D01*
X129424494Y-114320537D01*
X129521185Y-114241185D01*
X129600537Y-114144494D01*
X129659502Y-114034180D01*
X129695812Y-113914482D01*
X129708072Y-113790000D01*
X129705000Y-113275750D01*
X129546250Y-113117000D01*
X128397000Y-113117000D01*
X128397000Y-113137000D01*
X128143000Y-113137000D01*
X128143000Y-113117000D01*
X126993750Y-113117000D01*
X126835000Y-113275750D01*
X126831928Y-113790000D01*
X100457000Y-113790000D01*
X100457000Y-111979860D01*
X100575518Y-112015812D01*
X100700000Y-112028072D01*
X102500000Y-112028072D01*
X102624482Y-112015812D01*
X102744180Y-111979502D01*
X102854494Y-111920537D01*
X102951185Y-111841185D01*
X103030537Y-111744494D01*
X103089502Y-111634180D01*
X103095056Y-111615873D01*
X103161495Y-111682312D01*
X103412905Y-111850299D01*
X103692257Y-111966011D01*
X103988816Y-112025000D01*
X104291184Y-112025000D01*
X104587743Y-111966011D01*
X104867095Y-111850299D01*
X105118505Y-111682312D01*
X105201850Y-111598967D01*
X112665000Y-111598967D01*
X112665000Y-111921033D01*
X112727832Y-112236912D01*
X112851082Y-112534463D01*
X113030013Y-112802252D01*
X113257748Y-113029987D01*
X113525537Y-113208918D01*
X113823088Y-113332168D01*
X114138967Y-113395000D01*
X114461033Y-113395000D01*
X114776912Y-113332168D01*
X115074463Y-113208918D01*
X115342252Y-113029987D01*
X115569987Y-112802252D01*
X115748918Y-112534463D01*
X115872168Y-112236912D01*
X115935000Y-111921033D01*
X115935000Y-111758059D01*
X123933000Y-111758059D01*
X123933000Y-111961937D01*
X123972774Y-112161896D01*
X124050795Y-112350254D01*
X124164063Y-112519772D01*
X124308226Y-112663935D01*
X124477744Y-112777203D01*
X124666102Y-112855224D01*
X124866061Y-112894998D01*
X125069939Y-112894998D01*
X125269898Y-112855224D01*
X125458256Y-112777203D01*
X125476000Y-112765347D01*
X125493744Y-112777203D01*
X125682102Y-112855224D01*
X125882061Y-112894998D01*
X126085939Y-112894998D01*
X126285898Y-112855224D01*
X126474256Y-112777203D01*
X126643774Y-112663935D01*
X126787937Y-112519772D01*
X126833491Y-112451596D01*
X126835000Y-112704250D01*
X126993750Y-112863000D01*
X128143000Y-112863000D01*
X128143000Y-111713750D01*
X128397000Y-111713750D01*
X128397000Y-112863000D01*
X129546250Y-112863000D01*
X129705000Y-112704250D01*
X129708072Y-112190000D01*
X129695812Y-112065518D01*
X129659502Y-111945820D01*
X129600537Y-111835506D01*
X129521185Y-111738815D01*
X129424494Y-111659463D01*
X129314180Y-111600498D01*
X129194482Y-111564188D01*
X129070000Y-111551928D01*
X128555750Y-111555000D01*
X128397000Y-111713750D01*
X128143000Y-111713750D01*
X127984250Y-111555000D01*
X127470000Y-111551928D01*
X127345518Y-111564188D01*
X127225820Y-111600498D01*
X127115506Y-111659463D01*
X127018815Y-111738815D01*
X127015883Y-111742388D01*
X126979226Y-111558100D01*
X126901205Y-111369742D01*
X126834191Y-111269448D01*
X127032795Y-111269448D01*
X127232754Y-111229674D01*
X127421112Y-111151653D01*
X127590630Y-111038385D01*
X127734793Y-110894222D01*
X127848061Y-110724704D01*
X127926082Y-110536346D01*
X127965856Y-110336387D01*
X127965856Y-110132509D01*
X127926082Y-109932550D01*
X127848061Y-109744192D01*
X127734793Y-109574674D01*
X127590630Y-109430511D01*
X127421112Y-109317243D01*
X127232754Y-109239222D01*
X127032795Y-109199448D01*
X126828917Y-109199448D01*
X126628958Y-109239222D01*
X126440600Y-109317243D01*
X126271082Y-109430511D01*
X126212155Y-109489438D01*
X126031898Y-109414772D01*
X125831939Y-109374998D01*
X125628061Y-109374998D01*
X125428102Y-109414772D01*
X125239744Y-109492793D01*
X125070226Y-109606061D01*
X124926063Y-109750224D01*
X124812795Y-109919742D01*
X124734774Y-110108100D01*
X124695000Y-110308059D01*
X124695000Y-110511937D01*
X124734774Y-110711896D01*
X124788050Y-110840515D01*
X124666102Y-110864772D01*
X124477744Y-110942793D01*
X124308226Y-111056061D01*
X124164063Y-111200224D01*
X124050795Y-111369742D01*
X123972774Y-111558100D01*
X123933000Y-111758059D01*
X115935000Y-111758059D01*
X115935000Y-111598967D01*
X115872168Y-111283088D01*
X115748918Y-110985537D01*
X115569987Y-110717748D01*
X115342252Y-110490013D01*
X115074463Y-110311082D01*
X114776912Y-110187832D01*
X114461033Y-110125000D01*
X114138967Y-110125000D01*
X113823088Y-110187832D01*
X113525537Y-110311082D01*
X113257748Y-110490013D01*
X113030013Y-110717748D01*
X112851082Y-110985537D01*
X112727832Y-111283088D01*
X112665000Y-111598967D01*
X105201850Y-111598967D01*
X105332312Y-111468505D01*
X105500299Y-111217095D01*
X105616011Y-110937743D01*
X105675000Y-110641184D01*
X105675000Y-110338816D01*
X105616011Y-110042257D01*
X105500299Y-109762905D01*
X105332312Y-109511495D01*
X105118505Y-109297688D01*
X104867095Y-109129701D01*
X104587743Y-109013989D01*
X104291184Y-108955000D01*
X103988816Y-108955000D01*
X103692257Y-109013989D01*
X103412905Y-109129701D01*
X103161495Y-109297688D01*
X103095056Y-109364127D01*
X103089502Y-109345820D01*
X103030537Y-109235506D01*
X102951185Y-109138815D01*
X102854494Y-109059463D01*
X102744180Y-109000498D01*
X102624482Y-108964188D01*
X102500000Y-108951928D01*
X100700000Y-108951928D01*
X100575518Y-108964188D01*
X100457000Y-109000140D01*
X100457000Y-107815413D01*
X113344192Y-107815413D01*
X113439956Y-108079814D01*
X113729571Y-108220704D01*
X114041108Y-108302384D01*
X114362595Y-108321718D01*
X114681675Y-108277961D01*
X114986088Y-108172795D01*
X115160044Y-108079814D01*
X115255808Y-107815413D01*
X114300000Y-106859605D01*
X113344192Y-107815413D01*
X100457000Y-107815413D01*
X100457000Y-106899860D01*
X100575518Y-106935812D01*
X100700000Y-106948072D01*
X102500000Y-106948072D01*
X102624482Y-106935812D01*
X102744180Y-106899502D01*
X102854494Y-106840537D01*
X102951185Y-106761185D01*
X103030537Y-106664494D01*
X103089502Y-106554180D01*
X103095056Y-106535873D01*
X103161495Y-106602312D01*
X103412905Y-106770299D01*
X103692257Y-106886011D01*
X103988816Y-106945000D01*
X104291184Y-106945000D01*
X104587743Y-106886011D01*
X104867095Y-106770299D01*
X104908556Y-106742595D01*
X112658282Y-106742595D01*
X112702039Y-107061675D01*
X112807205Y-107366088D01*
X112900186Y-107540044D01*
X113164587Y-107635808D01*
X114120395Y-106680000D01*
X114479605Y-106680000D01*
X115435413Y-107635808D01*
X115699814Y-107540044D01*
X115840704Y-107250429D01*
X115922384Y-106938892D01*
X115941718Y-106617405D01*
X115897961Y-106298325D01*
X115867448Y-106210000D01*
X119211928Y-106210000D01*
X119224188Y-106334482D01*
X119260498Y-106454180D01*
X119319463Y-106564494D01*
X119398815Y-106661185D01*
X119495506Y-106740537D01*
X119605820Y-106799502D01*
X119725518Y-106835812D01*
X119850000Y-106848072D01*
X120364250Y-106845000D01*
X120523000Y-106686250D01*
X120523000Y-105537000D01*
X119373750Y-105537000D01*
X119215000Y-105695750D01*
X119211928Y-106210000D01*
X115867448Y-106210000D01*
X115792795Y-105993912D01*
X115699814Y-105819956D01*
X115435413Y-105724192D01*
X114479605Y-106680000D01*
X114120395Y-106680000D01*
X113164587Y-105724192D01*
X112900186Y-105819956D01*
X112759296Y-106109571D01*
X112677616Y-106421108D01*
X112658282Y-106742595D01*
X104908556Y-106742595D01*
X105118505Y-106602312D01*
X105332312Y-106388505D01*
X105500299Y-106137095D01*
X105616011Y-105857743D01*
X105675000Y-105561184D01*
X105675000Y-105258816D01*
X105616011Y-104962257D01*
X105500299Y-104682905D01*
X105332312Y-104431495D01*
X105118505Y-104217688D01*
X104867095Y-104049701D01*
X104587743Y-103933989D01*
X104291184Y-103875000D01*
X103988816Y-103875000D01*
X103692257Y-103933989D01*
X103412905Y-104049701D01*
X103161495Y-104217688D01*
X103095056Y-104284127D01*
X103089502Y-104265820D01*
X103030537Y-104155506D01*
X102951185Y-104058815D01*
X102854494Y-103979463D01*
X102744180Y-103920498D01*
X102624482Y-103884188D01*
X102500000Y-103871928D01*
X100700000Y-103871928D01*
X100575518Y-103884188D01*
X100457000Y-103920140D01*
X100457000Y-101819860D01*
X100575518Y-101855812D01*
X100700000Y-101868072D01*
X102500000Y-101868072D01*
X102624482Y-101855812D01*
X102744180Y-101819502D01*
X102854494Y-101760537D01*
X102951185Y-101681185D01*
X103030537Y-101584494D01*
X103089502Y-101474180D01*
X103095056Y-101455873D01*
X103161495Y-101522312D01*
X103412905Y-101690299D01*
X103692257Y-101806011D01*
X103988816Y-101865000D01*
X104291184Y-101865000D01*
X104587743Y-101806011D01*
X104867095Y-101690299D01*
X105118505Y-101522312D01*
X105332312Y-101308505D01*
X105500299Y-101057095D01*
X105616011Y-100777743D01*
X105675000Y-100481184D01*
X105675000Y-100178816D01*
X105616011Y-99882257D01*
X105500299Y-99602905D01*
X105332312Y-99351495D01*
X105118505Y-99137688D01*
X104867095Y-98969701D01*
X104587743Y-98853989D01*
X104291184Y-98795000D01*
X103988816Y-98795000D01*
X103692257Y-98853989D01*
X103412905Y-98969701D01*
X103161495Y-99137688D01*
X103095056Y-99204127D01*
X103089502Y-99185820D01*
X103030537Y-99075506D01*
X102951185Y-98978815D01*
X102854494Y-98899463D01*
X102744180Y-98840498D01*
X102624482Y-98804188D01*
X102500000Y-98791928D01*
X100700000Y-98791928D01*
X100575518Y-98804188D01*
X100457000Y-98840140D01*
X100457000Y-97917000D01*
X107257685Y-97917000D01*
X107098987Y-98023038D01*
M02*
