G04 #@! TF.GenerationSoftware,KiCad,Pcbnew,5.1.5+dfsg1-2build2*
G04 #@! TF.CreationDate,2020-12-30T20:24:06+01:00*
G04 #@! TF.ProjectId,stm32f0can,73746d33-3266-4306-9361-6e2e6b696361,rev?*
G04 #@! TF.SameCoordinates,Original*
G04 #@! TF.FileFunction,Soldermask,Top*
G04 #@! TF.FilePolarity,Negative*
%FSLAX46Y46*%
G04 Gerber Fmt 4.6, Leading zero omitted, Abs format (unit mm)*
G04 Created by KiCad (PCBNEW 5.1.5+dfsg1-2build2) date 2020-12-30 20:24:06*
%MOMM*%
%LPD*%
G04 APERTURE LIST*
%ADD10C,0.100000*%
G04 APERTURE END LIST*
D10*
G36*
X105523512Y-131183927D02*
G01*
X105672812Y-131213624D01*
X105836784Y-131281544D01*
X105984354Y-131380147D01*
X106109853Y-131505646D01*
X106208456Y-131653216D01*
X106276376Y-131817188D01*
X106311000Y-131991259D01*
X106311000Y-132168741D01*
X106276376Y-132342812D01*
X106208456Y-132506784D01*
X106109853Y-132654354D01*
X105984354Y-132779853D01*
X105836784Y-132878456D01*
X105672812Y-132946376D01*
X105523512Y-132976073D01*
X105498742Y-132981000D01*
X105321258Y-132981000D01*
X105296488Y-132976073D01*
X105147188Y-132946376D01*
X104983216Y-132878456D01*
X104835646Y-132779853D01*
X104710147Y-132654354D01*
X104611544Y-132506784D01*
X104543624Y-132342812D01*
X104509000Y-132168741D01*
X104509000Y-131991259D01*
X104543624Y-131817188D01*
X104611544Y-131653216D01*
X104710147Y-131505646D01*
X104835646Y-131380147D01*
X104983216Y-131281544D01*
X105147188Y-131213624D01*
X105296488Y-131183927D01*
X105321258Y-131179000D01*
X105498742Y-131179000D01*
X105523512Y-131183927D01*
G37*
G36*
X125361000Y-132981000D02*
G01*
X123559000Y-132981000D01*
X123559000Y-131179000D01*
X125361000Y-131179000D01*
X125361000Y-132981000D01*
G37*
G36*
X116953512Y-131183927D02*
G01*
X117102812Y-131213624D01*
X117266784Y-131281544D01*
X117414354Y-131380147D01*
X117539853Y-131505646D01*
X117638456Y-131653216D01*
X117706376Y-131817188D01*
X117741000Y-131991259D01*
X117741000Y-132168741D01*
X117706376Y-132342812D01*
X117638456Y-132506784D01*
X117539853Y-132654354D01*
X117414354Y-132779853D01*
X117266784Y-132878456D01*
X117102812Y-132946376D01*
X116953512Y-132976073D01*
X116928742Y-132981000D01*
X116751258Y-132981000D01*
X116726488Y-132976073D01*
X116577188Y-132946376D01*
X116413216Y-132878456D01*
X116265646Y-132779853D01*
X116140147Y-132654354D01*
X116041544Y-132506784D01*
X115973624Y-132342812D01*
X115939000Y-132168741D01*
X115939000Y-131991259D01*
X115973624Y-131817188D01*
X116041544Y-131653216D01*
X116140147Y-131505646D01*
X116265646Y-131380147D01*
X116413216Y-131281544D01*
X116577188Y-131213624D01*
X116726488Y-131183927D01*
X116751258Y-131179000D01*
X116928742Y-131179000D01*
X116953512Y-131183927D01*
G37*
G36*
X119493512Y-131183927D02*
G01*
X119642812Y-131213624D01*
X119806784Y-131281544D01*
X119954354Y-131380147D01*
X120079853Y-131505646D01*
X120178456Y-131653216D01*
X120246376Y-131817188D01*
X120281000Y-131991259D01*
X120281000Y-132168741D01*
X120246376Y-132342812D01*
X120178456Y-132506784D01*
X120079853Y-132654354D01*
X119954354Y-132779853D01*
X119806784Y-132878456D01*
X119642812Y-132946376D01*
X119493512Y-132976073D01*
X119468742Y-132981000D01*
X119291258Y-132981000D01*
X119266488Y-132976073D01*
X119117188Y-132946376D01*
X118953216Y-132878456D01*
X118805646Y-132779853D01*
X118680147Y-132654354D01*
X118581544Y-132506784D01*
X118513624Y-132342812D01*
X118479000Y-132168741D01*
X118479000Y-131991259D01*
X118513624Y-131817188D01*
X118581544Y-131653216D01*
X118680147Y-131505646D01*
X118805646Y-131380147D01*
X118953216Y-131281544D01*
X119117188Y-131213624D01*
X119266488Y-131183927D01*
X119291258Y-131179000D01*
X119468742Y-131179000D01*
X119493512Y-131183927D01*
G37*
G36*
X122033512Y-131183927D02*
G01*
X122182812Y-131213624D01*
X122346784Y-131281544D01*
X122494354Y-131380147D01*
X122619853Y-131505646D01*
X122718456Y-131653216D01*
X122786376Y-131817188D01*
X122821000Y-131991259D01*
X122821000Y-132168741D01*
X122786376Y-132342812D01*
X122718456Y-132506784D01*
X122619853Y-132654354D01*
X122494354Y-132779853D01*
X122346784Y-132878456D01*
X122182812Y-132946376D01*
X122033512Y-132976073D01*
X122008742Y-132981000D01*
X121831258Y-132981000D01*
X121806488Y-132976073D01*
X121657188Y-132946376D01*
X121493216Y-132878456D01*
X121345646Y-132779853D01*
X121220147Y-132654354D01*
X121121544Y-132506784D01*
X121053624Y-132342812D01*
X121019000Y-132168741D01*
X121019000Y-131991259D01*
X121053624Y-131817188D01*
X121121544Y-131653216D01*
X121220147Y-131505646D01*
X121345646Y-131380147D01*
X121493216Y-131281544D01*
X121657188Y-131213624D01*
X121806488Y-131183927D01*
X121831258Y-131179000D01*
X122008742Y-131179000D01*
X122033512Y-131183927D01*
G37*
G36*
X113931000Y-132981000D02*
G01*
X112129000Y-132981000D01*
X112129000Y-131179000D01*
X113931000Y-131179000D01*
X113931000Y-132981000D01*
G37*
G36*
X161403512Y-131183927D02*
G01*
X161552812Y-131213624D01*
X161716784Y-131281544D01*
X161864354Y-131380147D01*
X161989853Y-131505646D01*
X162088456Y-131653216D01*
X162156376Y-131817188D01*
X162191000Y-131991259D01*
X162191000Y-132168741D01*
X162156376Y-132342812D01*
X162088456Y-132506784D01*
X161989853Y-132654354D01*
X161864354Y-132779853D01*
X161716784Y-132878456D01*
X161552812Y-132946376D01*
X161403512Y-132976073D01*
X161378742Y-132981000D01*
X161201258Y-132981000D01*
X161176488Y-132976073D01*
X161027188Y-132946376D01*
X160863216Y-132878456D01*
X160715646Y-132779853D01*
X160590147Y-132654354D01*
X160491544Y-132506784D01*
X160423624Y-132342812D01*
X160389000Y-132168741D01*
X160389000Y-131991259D01*
X160423624Y-131817188D01*
X160491544Y-131653216D01*
X160590147Y-131505646D01*
X160715646Y-131380147D01*
X160863216Y-131281544D01*
X161027188Y-131213624D01*
X161176488Y-131183927D01*
X161201258Y-131179000D01*
X161378742Y-131179000D01*
X161403512Y-131183927D01*
G37*
G36*
X108063512Y-131183927D02*
G01*
X108212812Y-131213624D01*
X108376784Y-131281544D01*
X108524354Y-131380147D01*
X108649853Y-131505646D01*
X108748456Y-131653216D01*
X108816376Y-131817188D01*
X108851000Y-131991259D01*
X108851000Y-132168741D01*
X108816376Y-132342812D01*
X108748456Y-132506784D01*
X108649853Y-132654354D01*
X108524354Y-132779853D01*
X108376784Y-132878456D01*
X108212812Y-132946376D01*
X108063512Y-132976073D01*
X108038742Y-132981000D01*
X107861258Y-132981000D01*
X107836488Y-132976073D01*
X107687188Y-132946376D01*
X107523216Y-132878456D01*
X107375646Y-132779853D01*
X107250147Y-132654354D01*
X107151544Y-132506784D01*
X107083624Y-132342812D01*
X107049000Y-132168741D01*
X107049000Y-131991259D01*
X107083624Y-131817188D01*
X107151544Y-131653216D01*
X107250147Y-131505646D01*
X107375646Y-131380147D01*
X107523216Y-131281544D01*
X107687188Y-131213624D01*
X107836488Y-131183927D01*
X107861258Y-131179000D01*
X108038742Y-131179000D01*
X108063512Y-131183927D01*
G37*
G36*
X110603512Y-131183927D02*
G01*
X110752812Y-131213624D01*
X110916784Y-131281544D01*
X111064354Y-131380147D01*
X111189853Y-131505646D01*
X111288456Y-131653216D01*
X111356376Y-131817188D01*
X111391000Y-131991259D01*
X111391000Y-132168741D01*
X111356376Y-132342812D01*
X111288456Y-132506784D01*
X111189853Y-132654354D01*
X111064354Y-132779853D01*
X110916784Y-132878456D01*
X110752812Y-132946376D01*
X110603512Y-132976073D01*
X110578742Y-132981000D01*
X110401258Y-132981000D01*
X110376488Y-132976073D01*
X110227188Y-132946376D01*
X110063216Y-132878456D01*
X109915646Y-132779853D01*
X109790147Y-132654354D01*
X109691544Y-132506784D01*
X109623624Y-132342812D01*
X109589000Y-132168741D01*
X109589000Y-131991259D01*
X109623624Y-131817188D01*
X109691544Y-131653216D01*
X109790147Y-131505646D01*
X109915646Y-131380147D01*
X110063216Y-131281544D01*
X110227188Y-131213624D01*
X110376488Y-131183927D01*
X110401258Y-131179000D01*
X110578742Y-131179000D01*
X110603512Y-131183927D01*
G37*
G36*
X157699059Y-131357860D02*
G01*
X157752865Y-131380147D01*
X157835732Y-131414472D01*
X157958735Y-131496660D01*
X158063340Y-131601265D01*
X158145528Y-131724268D01*
X158145529Y-131724270D01*
X158202140Y-131860941D01*
X158231000Y-132006032D01*
X158231000Y-132153968D01*
X158228061Y-132168742D01*
X158202140Y-132299059D01*
X158145528Y-132435732D01*
X158063340Y-132558735D01*
X157958735Y-132663340D01*
X157835732Y-132745528D01*
X157835731Y-132745529D01*
X157835730Y-132745529D01*
X157699059Y-132802140D01*
X157553968Y-132831000D01*
X157406032Y-132831000D01*
X157260941Y-132802140D01*
X157124270Y-132745529D01*
X157124269Y-132745529D01*
X157124268Y-132745528D01*
X157001265Y-132663340D01*
X156896660Y-132558735D01*
X156814472Y-132435732D01*
X156757860Y-132299059D01*
X156731939Y-132168742D01*
X156729000Y-132153968D01*
X156729000Y-132006032D01*
X156757860Y-131860941D01*
X156814471Y-131724270D01*
X156814472Y-131724268D01*
X156896660Y-131601265D01*
X157001265Y-131496660D01*
X157124268Y-131414472D01*
X157207136Y-131380147D01*
X157260941Y-131357860D01*
X157406032Y-131329000D01*
X157553968Y-131329000D01*
X157699059Y-131357860D01*
G37*
G36*
X152619059Y-131357860D02*
G01*
X152672865Y-131380147D01*
X152755732Y-131414472D01*
X152878735Y-131496660D01*
X152983340Y-131601265D01*
X153065528Y-131724268D01*
X153065529Y-131724270D01*
X153122140Y-131860941D01*
X153151000Y-132006032D01*
X153151000Y-132153968D01*
X153148061Y-132168742D01*
X153122140Y-132299059D01*
X153065528Y-132435732D01*
X152983340Y-132558735D01*
X152878735Y-132663340D01*
X152755732Y-132745528D01*
X152755731Y-132745529D01*
X152755730Y-132745529D01*
X152619059Y-132802140D01*
X152473968Y-132831000D01*
X152326032Y-132831000D01*
X152180941Y-132802140D01*
X152044270Y-132745529D01*
X152044269Y-132745529D01*
X152044268Y-132745528D01*
X151921265Y-132663340D01*
X151816660Y-132558735D01*
X151734472Y-132435732D01*
X151677860Y-132299059D01*
X151651939Y-132168742D01*
X151649000Y-132153968D01*
X151649000Y-132006032D01*
X151677860Y-131860941D01*
X151734471Y-131724270D01*
X151734472Y-131724268D01*
X151816660Y-131601265D01*
X151921265Y-131496660D01*
X152044268Y-131414472D01*
X152127136Y-131380147D01*
X152180941Y-131357860D01*
X152326032Y-131329000D01*
X152473968Y-131329000D01*
X152619059Y-131357860D01*
G37*
G36*
X150166564Y-129799389D02*
G01*
X150357833Y-129878615D01*
X150357835Y-129878616D01*
X150529973Y-129993635D01*
X150676365Y-130140027D01*
X150779345Y-130294147D01*
X150791385Y-130312167D01*
X150870611Y-130503436D01*
X150911000Y-130706484D01*
X150911000Y-130913516D01*
X150870611Y-131116564D01*
X150830407Y-131213625D01*
X150791384Y-131307835D01*
X150676365Y-131479973D01*
X150529973Y-131626365D01*
X150357835Y-131741384D01*
X150357834Y-131741385D01*
X150357833Y-131741385D01*
X150166564Y-131820611D01*
X149963516Y-131861000D01*
X149756484Y-131861000D01*
X149553436Y-131820611D01*
X149362167Y-131741385D01*
X149362166Y-131741385D01*
X149362165Y-131741384D01*
X149190027Y-131626365D01*
X149043635Y-131479973D01*
X148928616Y-131307835D01*
X148889593Y-131213625D01*
X148849389Y-131116564D01*
X148809000Y-130913516D01*
X148809000Y-130706484D01*
X148849389Y-130503436D01*
X148928615Y-130312167D01*
X148940656Y-130294147D01*
X149043635Y-130140027D01*
X149190027Y-129993635D01*
X149362165Y-129878616D01*
X149362167Y-129878615D01*
X149553436Y-129799389D01*
X149756484Y-129759000D01*
X149963516Y-129759000D01*
X150166564Y-129799389D01*
G37*
G36*
X145086564Y-129799389D02*
G01*
X145277833Y-129878615D01*
X145277835Y-129878616D01*
X145449973Y-129993635D01*
X145596365Y-130140027D01*
X145699345Y-130294147D01*
X145711385Y-130312167D01*
X145790611Y-130503436D01*
X145831000Y-130706484D01*
X145831000Y-130913516D01*
X145790611Y-131116564D01*
X145750407Y-131213625D01*
X145711384Y-131307835D01*
X145596365Y-131479973D01*
X145449973Y-131626365D01*
X145277835Y-131741384D01*
X145277834Y-131741385D01*
X145277833Y-131741385D01*
X145086564Y-131820611D01*
X144883516Y-131861000D01*
X144676484Y-131861000D01*
X144473436Y-131820611D01*
X144282167Y-131741385D01*
X144282166Y-131741385D01*
X144282165Y-131741384D01*
X144110027Y-131626365D01*
X143963635Y-131479973D01*
X143848616Y-131307835D01*
X143809593Y-131213625D01*
X143769389Y-131116564D01*
X143729000Y-130913516D01*
X143729000Y-130706484D01*
X143769389Y-130503436D01*
X143848615Y-130312167D01*
X143860656Y-130294147D01*
X143963635Y-130140027D01*
X144110027Y-129993635D01*
X144282165Y-129878616D01*
X144282167Y-129878615D01*
X144473436Y-129799389D01*
X144676484Y-129759000D01*
X144883516Y-129759000D01*
X145086564Y-129799389D01*
G37*
G36*
X138051000Y-131661000D02*
G01*
X136349000Y-131661000D01*
X136349000Y-129959000D01*
X138051000Y-129959000D01*
X138051000Y-131661000D01*
G37*
G36*
X139948228Y-129991703D02*
G01*
X140103100Y-130055853D01*
X140242481Y-130148985D01*
X140361015Y-130267519D01*
X140454147Y-130406900D01*
X140518297Y-130561772D01*
X140551000Y-130726184D01*
X140551000Y-130893816D01*
X140518297Y-131058228D01*
X140454147Y-131213100D01*
X140361015Y-131352481D01*
X140242481Y-131471015D01*
X140103100Y-131564147D01*
X139948228Y-131628297D01*
X139783816Y-131661000D01*
X139616184Y-131661000D01*
X139451772Y-131628297D01*
X139296900Y-131564147D01*
X139157519Y-131471015D01*
X139038985Y-131352481D01*
X138945853Y-131213100D01*
X138881703Y-131058228D01*
X138849000Y-130893816D01*
X138849000Y-130726184D01*
X138881703Y-130561772D01*
X138945853Y-130406900D01*
X139038985Y-130267519D01*
X139157519Y-130148985D01*
X139296900Y-130055853D01*
X139451772Y-129991703D01*
X139616184Y-129959000D01*
X139783816Y-129959000D01*
X139948228Y-129991703D01*
G37*
G36*
X161403512Y-128643927D02*
G01*
X161552812Y-128673624D01*
X161716784Y-128741544D01*
X161864354Y-128840147D01*
X161989853Y-128965646D01*
X162088456Y-129113216D01*
X162156376Y-129277188D01*
X162191000Y-129451259D01*
X162191000Y-129628741D01*
X162156376Y-129802812D01*
X162088456Y-129966784D01*
X161989853Y-130114354D01*
X161864354Y-130239853D01*
X161716784Y-130338456D01*
X161552812Y-130406376D01*
X161403512Y-130436073D01*
X161378742Y-130441000D01*
X161201258Y-130441000D01*
X161176488Y-130436073D01*
X161027188Y-130406376D01*
X160863216Y-130338456D01*
X160715646Y-130239853D01*
X160590147Y-130114354D01*
X160491544Y-129966784D01*
X160423624Y-129802812D01*
X160389000Y-129628741D01*
X160389000Y-129451259D01*
X160423624Y-129277188D01*
X160491544Y-129113216D01*
X160590147Y-128965646D01*
X160715646Y-128840147D01*
X160863216Y-128741544D01*
X161027188Y-128673624D01*
X161176488Y-128643927D01*
X161201258Y-128639000D01*
X161378742Y-128639000D01*
X161403512Y-128643927D01*
G37*
G36*
X130431000Y-130391000D02*
G01*
X128729000Y-130391000D01*
X128729000Y-128689000D01*
X130431000Y-128689000D01*
X130431000Y-130391000D01*
G37*
G36*
X132328228Y-128721703D02*
G01*
X132483100Y-128785853D01*
X132622481Y-128878985D01*
X132741015Y-128997519D01*
X132834147Y-129136900D01*
X132898297Y-129291772D01*
X132931000Y-129456184D01*
X132931000Y-129623816D01*
X132898297Y-129788228D01*
X132834147Y-129943100D01*
X132741015Y-130082481D01*
X132622481Y-130201015D01*
X132483100Y-130294147D01*
X132328228Y-130358297D01*
X132163816Y-130391000D01*
X131996184Y-130391000D01*
X131831772Y-130358297D01*
X131676900Y-130294147D01*
X131537519Y-130201015D01*
X131418985Y-130082481D01*
X131325853Y-129943100D01*
X131261703Y-129788228D01*
X131229000Y-129623816D01*
X131229000Y-129456184D01*
X131261703Y-129291772D01*
X131325853Y-129136900D01*
X131418985Y-128997519D01*
X131537519Y-128878985D01*
X131676900Y-128785853D01*
X131831772Y-128721703D01*
X131996184Y-128689000D01*
X132163816Y-128689000D01*
X132328228Y-128721703D01*
G37*
G36*
X157699059Y-128817860D02*
G01*
X157752865Y-128840147D01*
X157835732Y-128874472D01*
X157958735Y-128956660D01*
X158063340Y-129061265D01*
X158145528Y-129184268D01*
X158145529Y-129184270D01*
X158202140Y-129320941D01*
X158231000Y-129466032D01*
X158231000Y-129613968D01*
X158228061Y-129628742D01*
X158202140Y-129759059D01*
X158145528Y-129895732D01*
X158063340Y-130018735D01*
X157958735Y-130123340D01*
X157835732Y-130205528D01*
X157835731Y-130205529D01*
X157835730Y-130205529D01*
X157699059Y-130262140D01*
X157553968Y-130291000D01*
X157406032Y-130291000D01*
X157260941Y-130262140D01*
X157124270Y-130205529D01*
X157124269Y-130205529D01*
X157124268Y-130205528D01*
X157001265Y-130123340D01*
X156896660Y-130018735D01*
X156814472Y-129895732D01*
X156757860Y-129759059D01*
X156731939Y-129628742D01*
X156729000Y-129613968D01*
X156729000Y-129466032D01*
X156757860Y-129320941D01*
X156814471Y-129184270D01*
X156814472Y-129184268D01*
X156896660Y-129061265D01*
X157001265Y-128956660D01*
X157124268Y-128874472D01*
X157207136Y-128840147D01*
X157260941Y-128817860D01*
X157406032Y-128789000D01*
X157553968Y-128789000D01*
X157699059Y-128817860D01*
G37*
G36*
X152619059Y-128817860D02*
G01*
X152672865Y-128840147D01*
X152755732Y-128874472D01*
X152878735Y-128956660D01*
X152983340Y-129061265D01*
X153065528Y-129184268D01*
X153065529Y-129184270D01*
X153122140Y-129320941D01*
X153151000Y-129466032D01*
X153151000Y-129613968D01*
X153148061Y-129628742D01*
X153122140Y-129759059D01*
X153065528Y-129895732D01*
X152983340Y-130018735D01*
X152878735Y-130123340D01*
X152755732Y-130205528D01*
X152755731Y-130205529D01*
X152755730Y-130205529D01*
X152619059Y-130262140D01*
X152473968Y-130291000D01*
X152326032Y-130291000D01*
X152180941Y-130262140D01*
X152044270Y-130205529D01*
X152044269Y-130205529D01*
X152044268Y-130205528D01*
X151921265Y-130123340D01*
X151816660Y-130018735D01*
X151734472Y-129895732D01*
X151677860Y-129759059D01*
X151651939Y-129628742D01*
X151649000Y-129613968D01*
X151649000Y-129466032D01*
X151677860Y-129320941D01*
X151734471Y-129184270D01*
X151734472Y-129184268D01*
X151816660Y-129061265D01*
X151921265Y-128956660D01*
X152044268Y-128874472D01*
X152127136Y-128840147D01*
X152180941Y-128817860D01*
X152326032Y-128789000D01*
X152473968Y-128789000D01*
X152619059Y-128817860D01*
G37*
G36*
X161403512Y-126103927D02*
G01*
X161552812Y-126133624D01*
X161716784Y-126201544D01*
X161864354Y-126300147D01*
X161989853Y-126425646D01*
X162088456Y-126573216D01*
X162156376Y-126737188D01*
X162191000Y-126911259D01*
X162191000Y-127088741D01*
X162156376Y-127262812D01*
X162088456Y-127426784D01*
X161989853Y-127574354D01*
X161864354Y-127699853D01*
X161716784Y-127798456D01*
X161552812Y-127866376D01*
X161403512Y-127896073D01*
X161378742Y-127901000D01*
X161201258Y-127901000D01*
X161176488Y-127896073D01*
X161027188Y-127866376D01*
X160863216Y-127798456D01*
X160715646Y-127699853D01*
X160590147Y-127574354D01*
X160491544Y-127426784D01*
X160423624Y-127262812D01*
X160389000Y-127088741D01*
X160389000Y-126911259D01*
X160423624Y-126737188D01*
X160491544Y-126573216D01*
X160590147Y-126425646D01*
X160715646Y-126300147D01*
X160863216Y-126201544D01*
X161027188Y-126133624D01*
X161176488Y-126103927D01*
X161201258Y-126099000D01*
X161378742Y-126099000D01*
X161403512Y-126103927D01*
G37*
G36*
X157699059Y-126277860D02*
G01*
X157752865Y-126300147D01*
X157835732Y-126334472D01*
X157958735Y-126416660D01*
X158063340Y-126521265D01*
X158098054Y-126573218D01*
X158145529Y-126644270D01*
X158202140Y-126780941D01*
X158231000Y-126926032D01*
X158231000Y-127073968D01*
X158228061Y-127088742D01*
X158202140Y-127219059D01*
X158145528Y-127355732D01*
X158063340Y-127478735D01*
X157958735Y-127583340D01*
X157835732Y-127665528D01*
X157835731Y-127665529D01*
X157835730Y-127665529D01*
X157699059Y-127722140D01*
X157553968Y-127751000D01*
X157406032Y-127751000D01*
X157260941Y-127722140D01*
X157124270Y-127665529D01*
X157124269Y-127665529D01*
X157124268Y-127665528D01*
X157001265Y-127583340D01*
X156896660Y-127478735D01*
X156814472Y-127355732D01*
X156757860Y-127219059D01*
X156731939Y-127088742D01*
X156729000Y-127073968D01*
X156729000Y-126926032D01*
X156757860Y-126780941D01*
X156814471Y-126644270D01*
X156861946Y-126573218D01*
X156896660Y-126521265D01*
X157001265Y-126416660D01*
X157124268Y-126334472D01*
X157207136Y-126300147D01*
X157260941Y-126277860D01*
X157406032Y-126249000D01*
X157553968Y-126249000D01*
X157699059Y-126277860D01*
G37*
G36*
X152619059Y-126277860D02*
G01*
X152672865Y-126300147D01*
X152755732Y-126334472D01*
X152878735Y-126416660D01*
X152983340Y-126521265D01*
X153018054Y-126573218D01*
X153065529Y-126644270D01*
X153122140Y-126780941D01*
X153151000Y-126926032D01*
X153151000Y-127073968D01*
X153148061Y-127088742D01*
X153122140Y-127219059D01*
X153065528Y-127355732D01*
X152983340Y-127478735D01*
X152878735Y-127583340D01*
X152755732Y-127665528D01*
X152755731Y-127665529D01*
X152755730Y-127665529D01*
X152619059Y-127722140D01*
X152473968Y-127751000D01*
X152326032Y-127751000D01*
X152180941Y-127722140D01*
X152044270Y-127665529D01*
X152044269Y-127665529D01*
X152044268Y-127665528D01*
X151921265Y-127583340D01*
X151816660Y-127478735D01*
X151734472Y-127355732D01*
X151677860Y-127219059D01*
X151651939Y-127088742D01*
X151649000Y-127073968D01*
X151649000Y-126926032D01*
X151677860Y-126780941D01*
X151734471Y-126644270D01*
X151781946Y-126573218D01*
X151816660Y-126521265D01*
X151921265Y-126416660D01*
X152044268Y-126334472D01*
X152127136Y-126300147D01*
X152180941Y-126277860D01*
X152326032Y-126249000D01*
X152473968Y-126249000D01*
X152619059Y-126277860D01*
G37*
G36*
X162191000Y-125361000D02*
G01*
X160389000Y-125361000D01*
X160389000Y-123559000D01*
X162191000Y-123559000D01*
X162191000Y-125361000D01*
G37*
G36*
X112048228Y-123641703D02*
G01*
X112203100Y-123705853D01*
X112342481Y-123798985D01*
X112461015Y-123917519D01*
X112554147Y-124056900D01*
X112618297Y-124211772D01*
X112651000Y-124376184D01*
X112651000Y-124543816D01*
X112618297Y-124708228D01*
X112554147Y-124863100D01*
X112461015Y-125002481D01*
X112342481Y-125121015D01*
X112203100Y-125214147D01*
X112048228Y-125278297D01*
X111883816Y-125311000D01*
X111716184Y-125311000D01*
X111551772Y-125278297D01*
X111396900Y-125214147D01*
X111257519Y-125121015D01*
X111138985Y-125002481D01*
X111045853Y-124863100D01*
X110981703Y-124708228D01*
X110949000Y-124543816D01*
X110949000Y-124376184D01*
X110981703Y-124211772D01*
X111045853Y-124056900D01*
X111138985Y-123917519D01*
X111257519Y-123798985D01*
X111396900Y-123705853D01*
X111551772Y-123641703D01*
X111716184Y-123609000D01*
X111883816Y-123609000D01*
X112048228Y-123641703D01*
G37*
G36*
X115151000Y-125311000D02*
G01*
X113449000Y-125311000D01*
X113449000Y-123609000D01*
X115151000Y-123609000D01*
X115151000Y-125311000D01*
G37*
G36*
X157699059Y-123737860D02*
G01*
X157835732Y-123794472D01*
X157958735Y-123876660D01*
X158063340Y-123981265D01*
X158145528Y-124104268D01*
X158202140Y-124240941D01*
X158231000Y-124386033D01*
X158231000Y-124533967D01*
X158202140Y-124679059D01*
X158145528Y-124815732D01*
X158063340Y-124938735D01*
X157958735Y-125043340D01*
X157835732Y-125125528D01*
X157835731Y-125125529D01*
X157835730Y-125125529D01*
X157699059Y-125182140D01*
X157553968Y-125211000D01*
X157406032Y-125211000D01*
X157260941Y-125182140D01*
X157124270Y-125125529D01*
X157124269Y-125125529D01*
X157124268Y-125125528D01*
X157001265Y-125043340D01*
X156896660Y-124938735D01*
X156814472Y-124815732D01*
X156757860Y-124679059D01*
X156729000Y-124533967D01*
X156729000Y-124386033D01*
X156757860Y-124240941D01*
X156814472Y-124104268D01*
X156896660Y-123981265D01*
X157001265Y-123876660D01*
X157124268Y-123794472D01*
X157260941Y-123737860D01*
X157406032Y-123709000D01*
X157553968Y-123709000D01*
X157699059Y-123737860D01*
G37*
G36*
X152619059Y-123737860D02*
G01*
X152755732Y-123794472D01*
X152878735Y-123876660D01*
X152983340Y-123981265D01*
X153065528Y-124104268D01*
X153122140Y-124240941D01*
X153151000Y-124386033D01*
X153151000Y-124533967D01*
X153122140Y-124679059D01*
X153065528Y-124815732D01*
X152983340Y-124938735D01*
X152878735Y-125043340D01*
X152755732Y-125125528D01*
X152755731Y-125125529D01*
X152755730Y-125125529D01*
X152619059Y-125182140D01*
X152473968Y-125211000D01*
X152326032Y-125211000D01*
X152180941Y-125182140D01*
X152044270Y-125125529D01*
X152044269Y-125125529D01*
X152044268Y-125125528D01*
X151921265Y-125043340D01*
X151816660Y-124938735D01*
X151734472Y-124815732D01*
X151677860Y-124679059D01*
X151649000Y-124533967D01*
X151649000Y-124386033D01*
X151677860Y-124240941D01*
X151734472Y-124104268D01*
X151816660Y-123981265D01*
X151921265Y-123876660D01*
X152044268Y-123794472D01*
X152180941Y-123737860D01*
X152326032Y-123709000D01*
X152473968Y-123709000D01*
X152619059Y-123737860D01*
G37*
G36*
X101713512Y-122293927D02*
G01*
X101862812Y-122323624D01*
X102026784Y-122391544D01*
X102174354Y-122490147D01*
X102299853Y-122615646D01*
X102398456Y-122763216D01*
X102466376Y-122927188D01*
X102501000Y-123101259D01*
X102501000Y-123278741D01*
X102466376Y-123452812D01*
X102398456Y-123616784D01*
X102299853Y-123764354D01*
X102174354Y-123889853D01*
X102026784Y-123988456D01*
X101862812Y-124056376D01*
X101713512Y-124086073D01*
X101688742Y-124091000D01*
X101511258Y-124091000D01*
X101486488Y-124086073D01*
X101337188Y-124056376D01*
X101173216Y-123988456D01*
X101025646Y-123889853D01*
X100900147Y-123764354D01*
X100801544Y-123616784D01*
X100733624Y-123452812D01*
X100699000Y-123278741D01*
X100699000Y-123101259D01*
X100733624Y-122927188D01*
X100801544Y-122763216D01*
X100900147Y-122615646D01*
X101025646Y-122490147D01*
X101173216Y-122391544D01*
X101337188Y-122323624D01*
X101486488Y-122293927D01*
X101511258Y-122289000D01*
X101688742Y-122289000D01*
X101713512Y-122293927D01*
G37*
G36*
X140044664Y-121036389D02*
G01*
X140235933Y-121115615D01*
X140235935Y-121115616D01*
X140284151Y-121147833D01*
X140408073Y-121230635D01*
X140554465Y-121377027D01*
X140669485Y-121549167D01*
X140748711Y-121740436D01*
X140789100Y-121943484D01*
X140789100Y-122150516D01*
X140748711Y-122353564D01*
X140692136Y-122490148D01*
X140669484Y-122544835D01*
X140554465Y-122716973D01*
X140408073Y-122863365D01*
X140235935Y-122978384D01*
X140235934Y-122978385D01*
X140235933Y-122978385D01*
X140044664Y-123057611D01*
X139841616Y-123098000D01*
X139634584Y-123098000D01*
X139431536Y-123057611D01*
X139240267Y-122978385D01*
X139240266Y-122978385D01*
X139240265Y-122978384D01*
X139068127Y-122863365D01*
X138921735Y-122716973D01*
X138806716Y-122544835D01*
X138784064Y-122490148D01*
X138727489Y-122353564D01*
X138687100Y-122150516D01*
X138687100Y-121943484D01*
X138727489Y-121740436D01*
X138806715Y-121549167D01*
X138921735Y-121377027D01*
X139068127Y-121230635D01*
X139192049Y-121147833D01*
X139240265Y-121115616D01*
X139240267Y-121115615D01*
X139431536Y-121036389D01*
X139634584Y-120996000D01*
X139841616Y-120996000D01*
X140044664Y-121036389D01*
G37*
G36*
X134964664Y-121036389D02*
G01*
X135155933Y-121115615D01*
X135155935Y-121115616D01*
X135204151Y-121147833D01*
X135328073Y-121230635D01*
X135474465Y-121377027D01*
X135589485Y-121549167D01*
X135668711Y-121740436D01*
X135709100Y-121943484D01*
X135709100Y-122150516D01*
X135668711Y-122353564D01*
X135612136Y-122490148D01*
X135589484Y-122544835D01*
X135474465Y-122716973D01*
X135328073Y-122863365D01*
X135155935Y-122978384D01*
X135155934Y-122978385D01*
X135155933Y-122978385D01*
X134964664Y-123057611D01*
X134761616Y-123098000D01*
X134554584Y-123098000D01*
X134351536Y-123057611D01*
X134160267Y-122978385D01*
X134160266Y-122978385D01*
X134160265Y-122978384D01*
X133988127Y-122863365D01*
X133841735Y-122716973D01*
X133726716Y-122544835D01*
X133704064Y-122490148D01*
X133647489Y-122353564D01*
X133607100Y-122150516D01*
X133607100Y-121943484D01*
X133647489Y-121740436D01*
X133726715Y-121549167D01*
X133841735Y-121377027D01*
X133988127Y-121230635D01*
X134112049Y-121147833D01*
X134160265Y-121115616D01*
X134160267Y-121115615D01*
X134351536Y-121036389D01*
X134554584Y-120996000D01*
X134761616Y-120996000D01*
X134964664Y-121036389D01*
G37*
G36*
X143816564Y-120909389D02*
G01*
X144007833Y-120988615D01*
X144007835Y-120988616D01*
X144179973Y-121103635D01*
X144326365Y-121250027D01*
X144411224Y-121377027D01*
X144441385Y-121422167D01*
X144520611Y-121613436D01*
X144561000Y-121816484D01*
X144561000Y-122023516D01*
X144520611Y-122226564D01*
X144452274Y-122391544D01*
X144441384Y-122417835D01*
X144326365Y-122589973D01*
X144179973Y-122736365D01*
X144007835Y-122851384D01*
X144007834Y-122851385D01*
X144007833Y-122851385D01*
X143816564Y-122930611D01*
X143613516Y-122971000D01*
X143406484Y-122971000D01*
X143203436Y-122930611D01*
X143012167Y-122851385D01*
X143012166Y-122851385D01*
X143012165Y-122851384D01*
X142840027Y-122736365D01*
X142693635Y-122589973D01*
X142578616Y-122417835D01*
X142567726Y-122391544D01*
X142499389Y-122226564D01*
X142459000Y-122023516D01*
X142459000Y-121816484D01*
X142499389Y-121613436D01*
X142578615Y-121422167D01*
X142608777Y-121377027D01*
X142693635Y-121250027D01*
X142840027Y-121103635D01*
X143012165Y-120988616D01*
X143012167Y-120988615D01*
X143203436Y-120909389D01*
X143406484Y-120869000D01*
X143613516Y-120869000D01*
X143816564Y-120909389D01*
G37*
G36*
X148896564Y-120909389D02*
G01*
X149087833Y-120988615D01*
X149087835Y-120988616D01*
X149259973Y-121103635D01*
X149406365Y-121250027D01*
X149491224Y-121377027D01*
X149521385Y-121422167D01*
X149600611Y-121613436D01*
X149641000Y-121816484D01*
X149641000Y-122023516D01*
X149600611Y-122226564D01*
X149532274Y-122391544D01*
X149521384Y-122417835D01*
X149406365Y-122589973D01*
X149259973Y-122736365D01*
X149087835Y-122851384D01*
X149087834Y-122851385D01*
X149087833Y-122851385D01*
X148896564Y-122930611D01*
X148693516Y-122971000D01*
X148486484Y-122971000D01*
X148283436Y-122930611D01*
X148092167Y-122851385D01*
X148092166Y-122851385D01*
X148092165Y-122851384D01*
X147920027Y-122736365D01*
X147773635Y-122589973D01*
X147658616Y-122417835D01*
X147647726Y-122391544D01*
X147579389Y-122226564D01*
X147539000Y-122023516D01*
X147539000Y-121816484D01*
X147579389Y-121613436D01*
X147658615Y-121422167D01*
X147688777Y-121377027D01*
X147773635Y-121250027D01*
X147920027Y-121103635D01*
X148092165Y-120988616D01*
X148092167Y-120988615D01*
X148283436Y-120909389D01*
X148486484Y-120869000D01*
X148693516Y-120869000D01*
X148896564Y-120909389D01*
G37*
G36*
X131058228Y-121101703D02*
G01*
X131213100Y-121165853D01*
X131352481Y-121258985D01*
X131471015Y-121377519D01*
X131564147Y-121516900D01*
X131628297Y-121671772D01*
X131661000Y-121836184D01*
X131661000Y-122003816D01*
X131628297Y-122168228D01*
X131564147Y-122323100D01*
X131471015Y-122462481D01*
X131352481Y-122581015D01*
X131213100Y-122674147D01*
X131058228Y-122738297D01*
X130893816Y-122771000D01*
X130726184Y-122771000D01*
X130561772Y-122738297D01*
X130406900Y-122674147D01*
X130267519Y-122581015D01*
X130148985Y-122462481D01*
X130055853Y-122323100D01*
X129991703Y-122168228D01*
X129959000Y-122003816D01*
X129959000Y-121836184D01*
X129991703Y-121671772D01*
X130055853Y-121516900D01*
X130148985Y-121377519D01*
X130267519Y-121258985D01*
X130406900Y-121165853D01*
X130561772Y-121101703D01*
X130726184Y-121069000D01*
X130893816Y-121069000D01*
X131058228Y-121101703D01*
G37*
G36*
X129161000Y-122771000D02*
G01*
X127459000Y-122771000D01*
X127459000Y-121069000D01*
X129161000Y-121069000D01*
X129161000Y-122771000D01*
G37*
G36*
X157786564Y-119639389D02*
G01*
X157977833Y-119718615D01*
X157977835Y-119718616D01*
X158149973Y-119833635D01*
X158296365Y-119980027D01*
X158360256Y-120075646D01*
X158411385Y-120152167D01*
X158490611Y-120343436D01*
X158531000Y-120546484D01*
X158531000Y-120753516D01*
X158490611Y-120956564D01*
X158411385Y-121147833D01*
X158411384Y-121147835D01*
X158296365Y-121319973D01*
X158149973Y-121466365D01*
X157977835Y-121581384D01*
X157977834Y-121581385D01*
X157977833Y-121581385D01*
X157786564Y-121660611D01*
X157583516Y-121701000D01*
X157376484Y-121701000D01*
X157173436Y-121660611D01*
X156982167Y-121581385D01*
X156982166Y-121581385D01*
X156982165Y-121581384D01*
X156810027Y-121466365D01*
X156663635Y-121319973D01*
X156548616Y-121147835D01*
X156548615Y-121147833D01*
X156469389Y-120956564D01*
X156429000Y-120753516D01*
X156429000Y-120546484D01*
X156469389Y-120343436D01*
X156548615Y-120152167D01*
X156599745Y-120075646D01*
X156663635Y-119980027D01*
X156810027Y-119833635D01*
X156982165Y-119718616D01*
X156982167Y-119718615D01*
X157173436Y-119639389D01*
X157376484Y-119599000D01*
X157583516Y-119599000D01*
X157786564Y-119639389D01*
G37*
G36*
X101713512Y-119753927D02*
G01*
X101862812Y-119783624D01*
X102026784Y-119851544D01*
X102174354Y-119950147D01*
X102299853Y-120075646D01*
X102398456Y-120223216D01*
X102466376Y-120387188D01*
X102501000Y-120561259D01*
X102501000Y-120738741D01*
X102466376Y-120912812D01*
X102398456Y-121076784D01*
X102299853Y-121224354D01*
X102174354Y-121349853D01*
X102026784Y-121448456D01*
X101862812Y-121516376D01*
X101713512Y-121546073D01*
X101688742Y-121551000D01*
X101511258Y-121551000D01*
X101486488Y-121546073D01*
X101337188Y-121516376D01*
X101173216Y-121448456D01*
X101025646Y-121349853D01*
X100900147Y-121224354D01*
X100801544Y-121076784D01*
X100733624Y-120912812D01*
X100699000Y-120738741D01*
X100699000Y-120561259D01*
X100733624Y-120387188D01*
X100801544Y-120223216D01*
X100900147Y-120075646D01*
X101025646Y-119950147D01*
X101173216Y-119851544D01*
X101337188Y-119783624D01*
X101486488Y-119753927D01*
X101511258Y-119749000D01*
X101688742Y-119749000D01*
X101713512Y-119753927D01*
G37*
G36*
X118476000Y-119656000D02*
G01*
X116924000Y-119656000D01*
X116924000Y-113254000D01*
X118476000Y-113254000D01*
X118476000Y-119656000D01*
G37*
G36*
X124376000Y-119656000D02*
G01*
X122824000Y-119656000D01*
X122824000Y-113254000D01*
X124376000Y-113254000D01*
X124376000Y-119656000D01*
G37*
G36*
X101713512Y-117213927D02*
G01*
X101862812Y-117243624D01*
X102026784Y-117311544D01*
X102174354Y-117410147D01*
X102299853Y-117535646D01*
X102398456Y-117683216D01*
X102466376Y-117847188D01*
X102501000Y-118021259D01*
X102501000Y-118198741D01*
X102466376Y-118372812D01*
X102398456Y-118536784D01*
X102299853Y-118684354D01*
X102174354Y-118809853D01*
X102026784Y-118908456D01*
X101862812Y-118976376D01*
X101713878Y-119006000D01*
X101688742Y-119011000D01*
X101511258Y-119011000D01*
X101486122Y-119006000D01*
X101337188Y-118976376D01*
X101173216Y-118908456D01*
X101025646Y-118809853D01*
X100900147Y-118684354D01*
X100801544Y-118536784D01*
X100733624Y-118372812D01*
X100699000Y-118198741D01*
X100699000Y-118021259D01*
X100733624Y-117847188D01*
X100801544Y-117683216D01*
X100900147Y-117535646D01*
X101025646Y-117410147D01*
X101173216Y-117311544D01*
X101337188Y-117243624D01*
X101486488Y-117213927D01*
X101511258Y-117209000D01*
X101688742Y-117209000D01*
X101713512Y-117213927D01*
G37*
G36*
X135521000Y-117741000D02*
G01*
X133719000Y-117741000D01*
X133719000Y-115939000D01*
X135521000Y-115939000D01*
X135521000Y-117741000D01*
G37*
G36*
X112048228Y-116021703D02*
G01*
X112203100Y-116085853D01*
X112342481Y-116178985D01*
X112461015Y-116297519D01*
X112554147Y-116436900D01*
X112618297Y-116591772D01*
X112651000Y-116756184D01*
X112651000Y-116923816D01*
X112618297Y-117088228D01*
X112554147Y-117243100D01*
X112461015Y-117382481D01*
X112342481Y-117501015D01*
X112203100Y-117594147D01*
X112048228Y-117658297D01*
X111883816Y-117691000D01*
X111716184Y-117691000D01*
X111551772Y-117658297D01*
X111396900Y-117594147D01*
X111257519Y-117501015D01*
X111138985Y-117382481D01*
X111045853Y-117243100D01*
X110981703Y-117088228D01*
X110949000Y-116923816D01*
X110949000Y-116756184D01*
X110981703Y-116591772D01*
X111045853Y-116436900D01*
X111138985Y-116297519D01*
X111257519Y-116178985D01*
X111396900Y-116085853D01*
X111551772Y-116021703D01*
X111716184Y-115989000D01*
X111883816Y-115989000D01*
X112048228Y-116021703D01*
G37*
G36*
X115151000Y-117691000D02*
G01*
X113449000Y-117691000D01*
X113449000Y-115989000D01*
X115151000Y-115989000D01*
X115151000Y-117691000D01*
G37*
G36*
X157786564Y-114559389D02*
G01*
X157977833Y-114638615D01*
X157977835Y-114638616D01*
X158149973Y-114753635D01*
X158296365Y-114900027D01*
X158363067Y-114999853D01*
X158411385Y-115072167D01*
X158490611Y-115263436D01*
X158531000Y-115466484D01*
X158531000Y-115673516D01*
X158490611Y-115876564D01*
X158426028Y-116032481D01*
X158411384Y-116067835D01*
X158296365Y-116239973D01*
X158149973Y-116386365D01*
X157977835Y-116501384D01*
X157977834Y-116501385D01*
X157977833Y-116501385D01*
X157786564Y-116580611D01*
X157583516Y-116621000D01*
X157376484Y-116621000D01*
X157173436Y-116580611D01*
X156982167Y-116501385D01*
X156982166Y-116501385D01*
X156982165Y-116501384D01*
X156810027Y-116386365D01*
X156663635Y-116239973D01*
X156548616Y-116067835D01*
X156533972Y-116032481D01*
X156469389Y-115876564D01*
X156429000Y-115673516D01*
X156429000Y-115466484D01*
X156469389Y-115263436D01*
X156548615Y-115072167D01*
X156596934Y-114999853D01*
X156663635Y-114900027D01*
X156810027Y-114753635D01*
X156982165Y-114638616D01*
X156982167Y-114638615D01*
X157173436Y-114559389D01*
X157376484Y-114519000D01*
X157583516Y-114519000D01*
X157786564Y-114559389D01*
G37*
G36*
X102501000Y-116471000D02*
G01*
X100699000Y-116471000D01*
X100699000Y-114669000D01*
X102501000Y-114669000D01*
X102501000Y-116471000D01*
G37*
G36*
X151378228Y-114711703D02*
G01*
X151533100Y-114775853D01*
X151672481Y-114868985D01*
X151791015Y-114987519D01*
X151884147Y-115126900D01*
X151948297Y-115281772D01*
X151981000Y-115446184D01*
X151981000Y-115613816D01*
X151948297Y-115778228D01*
X151884147Y-115933100D01*
X151791015Y-116072481D01*
X151672481Y-116191015D01*
X151533100Y-116284147D01*
X151378228Y-116348297D01*
X151213816Y-116381000D01*
X151046184Y-116381000D01*
X150881772Y-116348297D01*
X150726900Y-116284147D01*
X150587519Y-116191015D01*
X150468985Y-116072481D01*
X150375853Y-115933100D01*
X150311703Y-115778228D01*
X150279000Y-115613816D01*
X150279000Y-115446184D01*
X150311703Y-115281772D01*
X150375853Y-115126900D01*
X150468985Y-114987519D01*
X150587519Y-114868985D01*
X150726900Y-114775853D01*
X150881772Y-114711703D01*
X151046184Y-114679000D01*
X151213816Y-114679000D01*
X151378228Y-114711703D01*
G37*
G36*
X128518228Y-114671703D02*
G01*
X128673100Y-114735853D01*
X128812481Y-114828985D01*
X128931015Y-114947519D01*
X129024147Y-115086900D01*
X129088297Y-115241772D01*
X129121000Y-115406184D01*
X129121000Y-115573816D01*
X129088297Y-115738228D01*
X129024147Y-115893100D01*
X128931015Y-116032481D01*
X128812481Y-116151015D01*
X128673100Y-116244147D01*
X128518228Y-116308297D01*
X128353816Y-116341000D01*
X128186184Y-116341000D01*
X128021772Y-116308297D01*
X127866900Y-116244147D01*
X127727519Y-116151015D01*
X127608985Y-116032481D01*
X127515853Y-115893100D01*
X127451703Y-115738228D01*
X127419000Y-115573816D01*
X127419000Y-115406184D01*
X127451703Y-115241772D01*
X127515853Y-115086900D01*
X127608985Y-114947519D01*
X127727519Y-114828985D01*
X127866900Y-114735853D01*
X128021772Y-114671703D01*
X128186184Y-114639000D01*
X128353816Y-114639000D01*
X128518228Y-114671703D01*
G37*
G36*
X140701000Y-115921000D02*
G01*
X138699000Y-115921000D01*
X138699000Y-115219000D01*
X140701000Y-115219000D01*
X140701000Y-115921000D01*
G37*
G36*
X145611000Y-115921000D02*
G01*
X143609000Y-115921000D01*
X143609000Y-115219000D01*
X145611000Y-115219000D01*
X145611000Y-115921000D01*
G37*
G36*
X134733512Y-113403927D02*
G01*
X134882812Y-113433624D01*
X135046784Y-113501544D01*
X135194354Y-113600147D01*
X135319853Y-113725646D01*
X135418456Y-113873216D01*
X135486376Y-114037188D01*
X135521000Y-114211259D01*
X135521000Y-114388741D01*
X135486376Y-114562812D01*
X135418456Y-114726784D01*
X135319853Y-114874354D01*
X135194354Y-114999853D01*
X135046784Y-115098456D01*
X134882812Y-115166376D01*
X134733512Y-115196073D01*
X134708742Y-115201000D01*
X134531258Y-115201000D01*
X134506488Y-115196073D01*
X134357188Y-115166376D01*
X134193216Y-115098456D01*
X134045646Y-114999853D01*
X133920147Y-114874354D01*
X133821544Y-114726784D01*
X133753624Y-114562812D01*
X133719000Y-114388741D01*
X133719000Y-114211259D01*
X133753624Y-114037188D01*
X133821544Y-113873216D01*
X133920147Y-113725646D01*
X134045646Y-113600147D01*
X134193216Y-113501544D01*
X134357188Y-113433624D01*
X134506488Y-113403927D01*
X134531258Y-113399000D01*
X134708742Y-113399000D01*
X134733512Y-113403927D01*
G37*
G36*
X145611000Y-114651000D02*
G01*
X143609000Y-114651000D01*
X143609000Y-113949000D01*
X145611000Y-113949000D01*
X145611000Y-114651000D01*
G37*
G36*
X140701000Y-114651000D02*
G01*
X138699000Y-114651000D01*
X138699000Y-113949000D01*
X140701000Y-113949000D01*
X140701000Y-114651000D01*
G37*
G36*
X151981000Y-113881000D02*
G01*
X150279000Y-113881000D01*
X150279000Y-112179000D01*
X151981000Y-112179000D01*
X151981000Y-113881000D01*
G37*
G36*
X129121000Y-113841000D02*
G01*
X127419000Y-113841000D01*
X127419000Y-112139000D01*
X129121000Y-112139000D01*
X129121000Y-113841000D01*
G37*
G36*
X140701000Y-113381000D02*
G01*
X138699000Y-113381000D01*
X138699000Y-112679000D01*
X140701000Y-112679000D01*
X140701000Y-113381000D01*
G37*
G36*
X145611000Y-113381000D02*
G01*
X143609000Y-113381000D01*
X143609000Y-112679000D01*
X145611000Y-112679000D01*
X145611000Y-113381000D01*
G37*
G36*
X114606564Y-110749389D02*
G01*
X114797833Y-110828615D01*
X114797835Y-110828616D01*
X114969973Y-110943635D01*
X115116365Y-111090027D01*
X115209017Y-111228690D01*
X115231385Y-111262167D01*
X115310611Y-111453436D01*
X115351000Y-111656484D01*
X115351000Y-111863516D01*
X115310611Y-112066564D01*
X115260815Y-112186782D01*
X115231384Y-112257835D01*
X115116365Y-112429973D01*
X114969973Y-112576365D01*
X114797835Y-112691384D01*
X114797834Y-112691385D01*
X114797833Y-112691385D01*
X114606564Y-112770611D01*
X114403516Y-112811000D01*
X114196484Y-112811000D01*
X113993436Y-112770611D01*
X113802167Y-112691385D01*
X113802166Y-112691385D01*
X113802165Y-112691384D01*
X113630027Y-112576365D01*
X113483635Y-112429973D01*
X113368616Y-112257835D01*
X113339185Y-112186782D01*
X113289389Y-112066564D01*
X113249000Y-111863516D01*
X113249000Y-111656484D01*
X113289389Y-111453436D01*
X113368615Y-111262167D01*
X113390984Y-111228690D01*
X113483635Y-111090027D01*
X113630027Y-110943635D01*
X113802165Y-110828616D01*
X113802167Y-110828615D01*
X113993436Y-110749389D01*
X114196484Y-110709000D01*
X114403516Y-110709000D01*
X114606564Y-110749389D01*
G37*
G36*
X134733512Y-110863927D02*
G01*
X134882812Y-110893624D01*
X135046784Y-110961544D01*
X135194354Y-111060147D01*
X135319853Y-111185646D01*
X135418456Y-111333216D01*
X135486376Y-111497188D01*
X135521000Y-111671259D01*
X135521000Y-111848741D01*
X135486376Y-112022812D01*
X135418456Y-112186784D01*
X135319853Y-112334354D01*
X135194354Y-112459853D01*
X135046784Y-112558456D01*
X134882812Y-112626376D01*
X134733512Y-112656073D01*
X134708742Y-112661000D01*
X134531258Y-112661000D01*
X134506488Y-112656073D01*
X134357188Y-112626376D01*
X134193216Y-112558456D01*
X134045646Y-112459853D01*
X133920147Y-112334354D01*
X133821544Y-112186784D01*
X133753624Y-112022812D01*
X133719000Y-111848741D01*
X133719000Y-111671259D01*
X133753624Y-111497188D01*
X133821544Y-111333216D01*
X133920147Y-111185646D01*
X134045646Y-111060147D01*
X134193216Y-110961544D01*
X134357188Y-110893624D01*
X134506488Y-110863927D01*
X134531258Y-110859000D01*
X134708742Y-110859000D01*
X134733512Y-110863927D01*
G37*
G36*
X145611000Y-112111000D02*
G01*
X143609000Y-112111000D01*
X143609000Y-111409000D01*
X145611000Y-111409000D01*
X145611000Y-112111000D01*
G37*
G36*
X140701000Y-112111000D02*
G01*
X138699000Y-112111000D01*
X138699000Y-111409000D01*
X140701000Y-111409000D01*
X140701000Y-112111000D01*
G37*
G36*
X104417395Y-109575546D02*
G01*
X104590466Y-109647234D01*
X104590467Y-109647235D01*
X104746227Y-109751310D01*
X104878690Y-109883773D01*
X104878691Y-109883775D01*
X104982766Y-110039534D01*
X105054454Y-110212605D01*
X105091000Y-110396333D01*
X105091000Y-110583667D01*
X105054454Y-110767395D01*
X104982766Y-110940466D01*
X104968682Y-110961544D01*
X104878690Y-111096227D01*
X104746227Y-111228690D01*
X104696128Y-111262165D01*
X104590466Y-111332766D01*
X104417395Y-111404454D01*
X104233667Y-111441000D01*
X104046333Y-111441000D01*
X103862605Y-111404454D01*
X103689534Y-111332766D01*
X103583872Y-111262165D01*
X103533773Y-111228690D01*
X103401310Y-111096227D01*
X103311318Y-110961544D01*
X103297234Y-110940466D01*
X103225546Y-110767395D01*
X103189000Y-110583667D01*
X103189000Y-110396333D01*
X103225546Y-110212605D01*
X103297234Y-110039534D01*
X103401309Y-109883775D01*
X103401310Y-109883773D01*
X103533773Y-109751310D01*
X103689533Y-109647235D01*
X103689534Y-109647234D01*
X103862605Y-109575546D01*
X104046333Y-109539000D01*
X104233667Y-109539000D01*
X104417395Y-109575546D01*
G37*
G36*
X102551000Y-111441000D02*
G01*
X100649000Y-111441000D01*
X100649000Y-109539000D01*
X102551000Y-109539000D01*
X102551000Y-111441000D01*
G37*
G36*
X134733512Y-108323927D02*
G01*
X134882812Y-108353624D01*
X135046784Y-108421544D01*
X135194354Y-108520147D01*
X135319853Y-108645646D01*
X135418456Y-108793216D01*
X135486376Y-108957188D01*
X135521000Y-109131259D01*
X135521000Y-109308741D01*
X135486376Y-109482812D01*
X135418456Y-109646784D01*
X135319853Y-109794354D01*
X135194354Y-109919853D01*
X135046784Y-110018456D01*
X134882812Y-110086376D01*
X134733512Y-110116073D01*
X134708742Y-110121000D01*
X134531258Y-110121000D01*
X134506488Y-110116073D01*
X134357188Y-110086376D01*
X134193216Y-110018456D01*
X134045646Y-109919853D01*
X133920147Y-109794354D01*
X133821544Y-109646784D01*
X133753624Y-109482812D01*
X133719000Y-109308741D01*
X133719000Y-109131259D01*
X133753624Y-108957188D01*
X133821544Y-108793216D01*
X133920147Y-108645646D01*
X134045646Y-108520147D01*
X134193216Y-108421544D01*
X134357188Y-108353624D01*
X134506488Y-108323927D01*
X134531258Y-108319000D01*
X134708742Y-108319000D01*
X134733512Y-108323927D01*
G37*
G36*
X114606564Y-105669389D02*
G01*
X114797833Y-105748615D01*
X114797835Y-105748616D01*
X114969973Y-105863635D01*
X115116365Y-106010027D01*
X115219345Y-106164147D01*
X115231385Y-106182167D01*
X115310611Y-106373436D01*
X115351000Y-106576484D01*
X115351000Y-106783516D01*
X115310611Y-106986564D01*
X115231385Y-107177833D01*
X115231384Y-107177835D01*
X115116365Y-107349973D01*
X114969973Y-107496365D01*
X114797835Y-107611384D01*
X114797834Y-107611385D01*
X114797833Y-107611385D01*
X114606564Y-107690611D01*
X114403516Y-107731000D01*
X114196484Y-107731000D01*
X113993436Y-107690611D01*
X113802167Y-107611385D01*
X113802166Y-107611385D01*
X113802165Y-107611384D01*
X113630027Y-107496365D01*
X113483635Y-107349973D01*
X113368616Y-107177835D01*
X113368615Y-107177833D01*
X113289389Y-106986564D01*
X113249000Y-106783516D01*
X113249000Y-106576484D01*
X113289389Y-106373436D01*
X113368615Y-106182167D01*
X113380656Y-106164147D01*
X113483635Y-106010027D01*
X113630027Y-105863635D01*
X113802165Y-105748616D01*
X113802167Y-105748615D01*
X113993436Y-105669389D01*
X114196484Y-105629000D01*
X114403516Y-105629000D01*
X114606564Y-105669389D01*
G37*
G36*
X157782585Y-103888802D02*
G01*
X157932410Y-103918604D01*
X158214674Y-104035521D01*
X158468705Y-104205259D01*
X158684741Y-104421295D01*
X158854479Y-104675326D01*
X158971396Y-104957590D01*
X159031000Y-105257240D01*
X159031000Y-105562760D01*
X158971396Y-105862410D01*
X158854479Y-106144674D01*
X158684741Y-106398705D01*
X158468705Y-106614741D01*
X158214674Y-106784479D01*
X157932410Y-106901396D01*
X157782585Y-106931198D01*
X157632761Y-106961000D01*
X157327239Y-106961000D01*
X157177415Y-106931198D01*
X157027590Y-106901396D01*
X156745326Y-106784479D01*
X156491295Y-106614741D01*
X156275259Y-106398705D01*
X156105521Y-106144674D01*
X155988604Y-105862410D01*
X155929000Y-105562760D01*
X155929000Y-105257240D01*
X155988604Y-104957590D01*
X156105521Y-104675326D01*
X156275259Y-104421295D01*
X156491295Y-104205259D01*
X156745326Y-104035521D01*
X157027590Y-103918604D01*
X157177415Y-103888802D01*
X157327239Y-103859000D01*
X157632761Y-103859000D01*
X157782585Y-103888802D01*
G37*
G36*
X102551000Y-106361000D02*
G01*
X100649000Y-106361000D01*
X100649000Y-104459000D01*
X102551000Y-104459000D01*
X102551000Y-106361000D01*
G37*
G36*
X104417395Y-104495546D02*
G01*
X104590466Y-104567234D01*
X104590467Y-104567235D01*
X104746227Y-104671310D01*
X104878690Y-104803773D01*
X104921284Y-104867520D01*
X104982766Y-104959534D01*
X105054454Y-105132605D01*
X105091000Y-105316333D01*
X105091000Y-105503667D01*
X105054454Y-105687395D01*
X104982766Y-105860466D01*
X104963877Y-105888735D01*
X104878690Y-106016227D01*
X104746227Y-106148690D01*
X104723092Y-106164148D01*
X104590466Y-106252766D01*
X104417395Y-106324454D01*
X104233667Y-106361000D01*
X104046333Y-106361000D01*
X103862605Y-106324454D01*
X103689534Y-106252766D01*
X103556908Y-106164148D01*
X103533773Y-106148690D01*
X103401310Y-106016227D01*
X103316123Y-105888735D01*
X103297234Y-105860466D01*
X103225546Y-105687395D01*
X103189000Y-105503667D01*
X103189000Y-105316333D01*
X103225546Y-105132605D01*
X103297234Y-104959534D01*
X103358716Y-104867520D01*
X103401310Y-104803773D01*
X103533773Y-104671310D01*
X103689533Y-104567235D01*
X103689534Y-104567234D01*
X103862605Y-104495546D01*
X104046333Y-104459000D01*
X104233667Y-104459000D01*
X104417395Y-104495546D01*
G37*
G36*
X123398228Y-104591703D02*
G01*
X123553100Y-104655853D01*
X123692481Y-104748985D01*
X123811015Y-104867519D01*
X123904147Y-105006900D01*
X123968297Y-105161772D01*
X124001000Y-105326184D01*
X124001000Y-105493816D01*
X123968297Y-105658228D01*
X123904147Y-105813100D01*
X123811015Y-105952481D01*
X123692481Y-106071015D01*
X123553100Y-106164147D01*
X123398228Y-106228297D01*
X123233816Y-106261000D01*
X123066184Y-106261000D01*
X122901772Y-106228297D01*
X122746900Y-106164147D01*
X122607519Y-106071015D01*
X122488985Y-105952481D01*
X122395853Y-105813100D01*
X122331703Y-105658228D01*
X122299000Y-105493816D01*
X122299000Y-105326184D01*
X122331703Y-105161772D01*
X122395853Y-105006900D01*
X122488985Y-104867519D01*
X122607519Y-104748985D01*
X122746900Y-104655853D01*
X122901772Y-104591703D01*
X123066184Y-104559000D01*
X123233816Y-104559000D01*
X123398228Y-104591703D01*
G37*
G36*
X121501000Y-106261000D02*
G01*
X119799000Y-106261000D01*
X119799000Y-104559000D01*
X121501000Y-104559000D01*
X121501000Y-106261000D01*
G37*
G36*
X150079059Y-104687860D02*
G01*
X150164718Y-104723341D01*
X150215732Y-104744472D01*
X150338735Y-104826660D01*
X150443340Y-104931265D01*
X150525528Y-105054268D01*
X150525529Y-105054270D01*
X150582140Y-105190941D01*
X150611000Y-105336032D01*
X150611000Y-105483968D01*
X150595327Y-105562761D01*
X150582140Y-105629059D01*
X150525528Y-105765732D01*
X150443340Y-105888735D01*
X150338735Y-105993340D01*
X150215732Y-106075528D01*
X150215731Y-106075529D01*
X150215730Y-106075529D01*
X150079059Y-106132140D01*
X149933968Y-106161000D01*
X149786032Y-106161000D01*
X149640941Y-106132140D01*
X149504270Y-106075529D01*
X149504269Y-106075529D01*
X149504268Y-106075528D01*
X149381265Y-105993340D01*
X149276660Y-105888735D01*
X149194472Y-105765732D01*
X149137860Y-105629059D01*
X149124673Y-105562761D01*
X149109000Y-105483968D01*
X149109000Y-105336032D01*
X149137860Y-105190941D01*
X149194471Y-105054270D01*
X149194472Y-105054268D01*
X149276660Y-104931265D01*
X149381265Y-104826660D01*
X149504268Y-104744472D01*
X149555283Y-104723341D01*
X149640941Y-104687860D01*
X149786032Y-104659000D01*
X149933968Y-104659000D01*
X150079059Y-104687860D01*
G37*
G36*
X108169059Y-103417860D02*
G01*
X108305732Y-103474472D01*
X108428735Y-103556660D01*
X108533340Y-103661265D01*
X108615528Y-103784268D01*
X108672140Y-103920941D01*
X108701000Y-104066033D01*
X108701000Y-104213967D01*
X108672140Y-104359059D01*
X108615528Y-104495732D01*
X108533340Y-104618735D01*
X108428735Y-104723340D01*
X108305732Y-104805528D01*
X108305731Y-104805529D01*
X108305730Y-104805529D01*
X108169059Y-104862140D01*
X108023968Y-104891000D01*
X107876032Y-104891000D01*
X107730941Y-104862140D01*
X107594270Y-104805529D01*
X107594269Y-104805529D01*
X107594268Y-104805528D01*
X107471265Y-104723340D01*
X107366660Y-104618735D01*
X107284472Y-104495732D01*
X107227860Y-104359059D01*
X107199000Y-104213967D01*
X107199000Y-104066033D01*
X107227860Y-103920941D01*
X107284472Y-103784268D01*
X107366660Y-103661265D01*
X107471265Y-103556660D01*
X107594268Y-103474472D01*
X107730941Y-103417860D01*
X107876032Y-103389000D01*
X108023968Y-103389000D01*
X108169059Y-103417860D01*
G37*
G36*
X113249059Y-103417860D02*
G01*
X113385732Y-103474472D01*
X113508735Y-103556660D01*
X113613340Y-103661265D01*
X113695528Y-103784268D01*
X113752140Y-103920941D01*
X113781000Y-104066033D01*
X113781000Y-104213967D01*
X113752140Y-104359059D01*
X113695528Y-104495732D01*
X113613340Y-104618735D01*
X113508735Y-104723340D01*
X113385732Y-104805528D01*
X113385731Y-104805529D01*
X113385730Y-104805529D01*
X113249059Y-104862140D01*
X113103968Y-104891000D01*
X112956032Y-104891000D01*
X112810941Y-104862140D01*
X112674270Y-104805529D01*
X112674269Y-104805529D01*
X112674268Y-104805528D01*
X112551265Y-104723340D01*
X112446660Y-104618735D01*
X112364472Y-104495732D01*
X112307860Y-104359059D01*
X112279000Y-104213967D01*
X112279000Y-104066033D01*
X112307860Y-103920941D01*
X112364472Y-103784268D01*
X112446660Y-103661265D01*
X112551265Y-103556660D01*
X112674268Y-103474472D01*
X112810941Y-103417860D01*
X112956032Y-103389000D01*
X113103968Y-103389000D01*
X113249059Y-103417860D01*
G37*
G36*
X133463512Y-100703927D02*
G01*
X133612812Y-100733624D01*
X133776784Y-100801544D01*
X133924354Y-100900147D01*
X134049853Y-101025646D01*
X134148456Y-101173216D01*
X134216376Y-101337188D01*
X134251000Y-101511259D01*
X134251000Y-101688741D01*
X134216376Y-101862812D01*
X134148456Y-102026784D01*
X134049853Y-102174354D01*
X133924354Y-102299853D01*
X133776784Y-102398456D01*
X133612812Y-102466376D01*
X133463512Y-102496073D01*
X133438742Y-102501000D01*
X133261258Y-102501000D01*
X133236488Y-102496073D01*
X133087188Y-102466376D01*
X132923216Y-102398456D01*
X132775646Y-102299853D01*
X132650147Y-102174354D01*
X132551544Y-102026784D01*
X132483624Y-101862812D01*
X132449000Y-101688741D01*
X132449000Y-101511259D01*
X132483624Y-101337188D01*
X132551544Y-101173216D01*
X132650147Y-101025646D01*
X132775646Y-100900147D01*
X132923216Y-100801544D01*
X133087188Y-100733624D01*
X133236488Y-100703927D01*
X133261258Y-100699000D01*
X133438742Y-100699000D01*
X133463512Y-100703927D01*
G37*
G36*
X136003512Y-100703927D02*
G01*
X136152812Y-100733624D01*
X136316784Y-100801544D01*
X136464354Y-100900147D01*
X136589853Y-101025646D01*
X136688456Y-101173216D01*
X136756376Y-101337188D01*
X136791000Y-101511259D01*
X136791000Y-101688741D01*
X136756376Y-101862812D01*
X136688456Y-102026784D01*
X136589853Y-102174354D01*
X136464354Y-102299853D01*
X136316784Y-102398456D01*
X136152812Y-102466376D01*
X136003512Y-102496073D01*
X135978742Y-102501000D01*
X135801258Y-102501000D01*
X135776488Y-102496073D01*
X135627188Y-102466376D01*
X135463216Y-102398456D01*
X135315646Y-102299853D01*
X135190147Y-102174354D01*
X135091544Y-102026784D01*
X135023624Y-101862812D01*
X134989000Y-101688741D01*
X134989000Y-101511259D01*
X135023624Y-101337188D01*
X135091544Y-101173216D01*
X135190147Y-101025646D01*
X135315646Y-100900147D01*
X135463216Y-100801544D01*
X135627188Y-100733624D01*
X135776488Y-100703927D01*
X135801258Y-100699000D01*
X135978742Y-100699000D01*
X136003512Y-100703927D01*
G37*
G36*
X138543512Y-100703927D02*
G01*
X138692812Y-100733624D01*
X138856784Y-100801544D01*
X139004354Y-100900147D01*
X139129853Y-101025646D01*
X139228456Y-101173216D01*
X139296376Y-101337188D01*
X139331000Y-101511259D01*
X139331000Y-101688741D01*
X139296376Y-101862812D01*
X139228456Y-102026784D01*
X139129853Y-102174354D01*
X139004354Y-102299853D01*
X138856784Y-102398456D01*
X138692812Y-102466376D01*
X138543512Y-102496073D01*
X138518742Y-102501000D01*
X138341258Y-102501000D01*
X138316488Y-102496073D01*
X138167188Y-102466376D01*
X138003216Y-102398456D01*
X137855646Y-102299853D01*
X137730147Y-102174354D01*
X137631544Y-102026784D01*
X137563624Y-101862812D01*
X137529000Y-101688741D01*
X137529000Y-101511259D01*
X137563624Y-101337188D01*
X137631544Y-101173216D01*
X137730147Y-101025646D01*
X137855646Y-100900147D01*
X138003216Y-100801544D01*
X138167188Y-100733624D01*
X138316488Y-100703927D01*
X138341258Y-100699000D01*
X138518742Y-100699000D01*
X138543512Y-100703927D01*
G37*
G36*
X141083512Y-100703927D02*
G01*
X141232812Y-100733624D01*
X141396784Y-100801544D01*
X141544354Y-100900147D01*
X141669853Y-101025646D01*
X141768456Y-101173216D01*
X141836376Y-101337188D01*
X141871000Y-101511259D01*
X141871000Y-101688741D01*
X141836376Y-101862812D01*
X141768456Y-102026784D01*
X141669853Y-102174354D01*
X141544354Y-102299853D01*
X141396784Y-102398456D01*
X141232812Y-102466376D01*
X141083512Y-102496073D01*
X141058742Y-102501000D01*
X140881258Y-102501000D01*
X140856488Y-102496073D01*
X140707188Y-102466376D01*
X140543216Y-102398456D01*
X140395646Y-102299853D01*
X140270147Y-102174354D01*
X140171544Y-102026784D01*
X140103624Y-101862812D01*
X140069000Y-101688741D01*
X140069000Y-101511259D01*
X140103624Y-101337188D01*
X140171544Y-101173216D01*
X140270147Y-101025646D01*
X140395646Y-100900147D01*
X140543216Y-100801544D01*
X140707188Y-100733624D01*
X140856488Y-100703927D01*
X140881258Y-100699000D01*
X141058742Y-100699000D01*
X141083512Y-100703927D01*
G37*
G36*
X143623512Y-100703927D02*
G01*
X143772812Y-100733624D01*
X143936784Y-100801544D01*
X144084354Y-100900147D01*
X144209853Y-101025646D01*
X144308456Y-101173216D01*
X144376376Y-101337188D01*
X144411000Y-101511259D01*
X144411000Y-101688741D01*
X144376376Y-101862812D01*
X144308456Y-102026784D01*
X144209853Y-102174354D01*
X144084354Y-102299853D01*
X143936784Y-102398456D01*
X143772812Y-102466376D01*
X143623512Y-102496073D01*
X143598742Y-102501000D01*
X143421258Y-102501000D01*
X143396488Y-102496073D01*
X143247188Y-102466376D01*
X143083216Y-102398456D01*
X142935646Y-102299853D01*
X142810147Y-102174354D01*
X142711544Y-102026784D01*
X142643624Y-101862812D01*
X142609000Y-101688741D01*
X142609000Y-101511259D01*
X142643624Y-101337188D01*
X142711544Y-101173216D01*
X142810147Y-101025646D01*
X142935646Y-100900147D01*
X143083216Y-100801544D01*
X143247188Y-100733624D01*
X143396488Y-100703927D01*
X143421258Y-100699000D01*
X143598742Y-100699000D01*
X143623512Y-100703927D01*
G37*
G36*
X113249059Y-100877860D02*
G01*
X113334718Y-100913341D01*
X113385732Y-100934472D01*
X113508735Y-101016660D01*
X113613340Y-101121265D01*
X113648054Y-101173218D01*
X113695529Y-101244270D01*
X113752140Y-101380941D01*
X113781000Y-101526032D01*
X113781000Y-101673968D01*
X113778061Y-101688742D01*
X113752140Y-101819059D01*
X113695528Y-101955732D01*
X113613340Y-102078735D01*
X113508735Y-102183340D01*
X113385732Y-102265528D01*
X113385731Y-102265529D01*
X113385730Y-102265529D01*
X113249059Y-102322140D01*
X113103968Y-102351000D01*
X112956032Y-102351000D01*
X112810941Y-102322140D01*
X112674270Y-102265529D01*
X112674269Y-102265529D01*
X112674268Y-102265528D01*
X112551265Y-102183340D01*
X112446660Y-102078735D01*
X112364472Y-101955732D01*
X112307860Y-101819059D01*
X112281939Y-101688742D01*
X112279000Y-101673968D01*
X112279000Y-101526032D01*
X112307860Y-101380941D01*
X112364471Y-101244270D01*
X112411946Y-101173218D01*
X112446660Y-101121265D01*
X112551265Y-101016660D01*
X112674268Y-100934472D01*
X112725283Y-100913341D01*
X112810941Y-100877860D01*
X112956032Y-100849000D01*
X113103968Y-100849000D01*
X113249059Y-100877860D01*
G37*
G36*
X108169059Y-100877860D02*
G01*
X108254718Y-100913341D01*
X108305732Y-100934472D01*
X108428735Y-101016660D01*
X108533340Y-101121265D01*
X108568054Y-101173218D01*
X108615529Y-101244270D01*
X108672140Y-101380941D01*
X108701000Y-101526032D01*
X108701000Y-101673968D01*
X108698061Y-101688742D01*
X108672140Y-101819059D01*
X108615528Y-101955732D01*
X108533340Y-102078735D01*
X108428735Y-102183340D01*
X108305732Y-102265528D01*
X108305731Y-102265529D01*
X108305730Y-102265529D01*
X108169059Y-102322140D01*
X108023968Y-102351000D01*
X107876032Y-102351000D01*
X107730941Y-102322140D01*
X107594270Y-102265529D01*
X107594269Y-102265529D01*
X107594268Y-102265528D01*
X107471265Y-102183340D01*
X107366660Y-102078735D01*
X107284472Y-101955732D01*
X107227860Y-101819059D01*
X107201939Y-101688742D01*
X107199000Y-101673968D01*
X107199000Y-101526032D01*
X107227860Y-101380941D01*
X107284471Y-101244270D01*
X107331946Y-101173218D01*
X107366660Y-101121265D01*
X107471265Y-101016660D01*
X107594268Y-100934472D01*
X107645283Y-100913341D01*
X107730941Y-100877860D01*
X107876032Y-100849000D01*
X108023968Y-100849000D01*
X108169059Y-100877860D01*
G37*
G36*
X159031000Y-101881000D02*
G01*
X155929000Y-101881000D01*
X155929000Y-98779000D01*
X159031000Y-98779000D01*
X159031000Y-101881000D01*
G37*
G36*
X104417395Y-99415546D02*
G01*
X104590466Y-99487234D01*
X104590467Y-99487235D01*
X104746227Y-99591310D01*
X104878690Y-99723773D01*
X104902797Y-99759852D01*
X104982766Y-99879534D01*
X105054454Y-100052605D01*
X105091000Y-100236333D01*
X105091000Y-100423667D01*
X105054454Y-100607395D01*
X104982766Y-100780466D01*
X104963877Y-100808735D01*
X104878690Y-100936227D01*
X104746227Y-101068690D01*
X104667818Y-101121081D01*
X104590466Y-101172766D01*
X104417395Y-101244454D01*
X104233667Y-101281000D01*
X104046333Y-101281000D01*
X103862605Y-101244454D01*
X103689534Y-101172766D01*
X103612182Y-101121081D01*
X103533773Y-101068690D01*
X103401310Y-100936227D01*
X103316123Y-100808735D01*
X103297234Y-100780466D01*
X103225546Y-100607395D01*
X103189000Y-100423667D01*
X103189000Y-100236333D01*
X103225546Y-100052605D01*
X103297234Y-99879534D01*
X103377203Y-99759852D01*
X103401310Y-99723773D01*
X103533773Y-99591310D01*
X103689533Y-99487235D01*
X103689534Y-99487234D01*
X103862605Y-99415546D01*
X104046333Y-99379000D01*
X104233667Y-99379000D01*
X104417395Y-99415546D01*
G37*
G36*
X102551000Y-101281000D02*
G01*
X100649000Y-101281000D01*
X100649000Y-99379000D01*
X102551000Y-99379000D01*
X102551000Y-101281000D01*
G37*
G36*
X150079059Y-99607860D02*
G01*
X150164718Y-99643341D01*
X150215732Y-99664472D01*
X150338735Y-99746660D01*
X150443340Y-99851265D01*
X150525528Y-99974268D01*
X150582140Y-100110941D01*
X150611000Y-100256033D01*
X150611000Y-100403967D01*
X150582140Y-100549059D01*
X150525528Y-100685732D01*
X150443340Y-100808735D01*
X150338735Y-100913340D01*
X150215732Y-100995528D01*
X150215731Y-100995529D01*
X150215730Y-100995529D01*
X150079059Y-101052140D01*
X149933968Y-101081000D01*
X149786032Y-101081000D01*
X149640941Y-101052140D01*
X149504270Y-100995529D01*
X149504269Y-100995529D01*
X149504268Y-100995528D01*
X149381265Y-100913340D01*
X149276660Y-100808735D01*
X149194472Y-100685732D01*
X149137860Y-100549059D01*
X149109000Y-100403967D01*
X149109000Y-100256033D01*
X149137860Y-100110941D01*
X149194472Y-99974268D01*
X149276660Y-99851265D01*
X149381265Y-99746660D01*
X149504268Y-99664472D01*
X149555283Y-99643341D01*
X149640941Y-99607860D01*
X149786032Y-99579000D01*
X149933968Y-99579000D01*
X150079059Y-99607860D01*
G37*
G36*
X141083512Y-98163927D02*
G01*
X141232812Y-98193624D01*
X141396784Y-98261544D01*
X141544354Y-98360147D01*
X141669853Y-98485646D01*
X141768456Y-98633216D01*
X141836376Y-98797188D01*
X141871000Y-98971259D01*
X141871000Y-99148741D01*
X141836376Y-99322812D01*
X141768456Y-99486784D01*
X141669853Y-99634354D01*
X141544354Y-99759853D01*
X141396784Y-99858456D01*
X141232812Y-99926376D01*
X141083512Y-99956073D01*
X141058742Y-99961000D01*
X140881258Y-99961000D01*
X140856488Y-99956073D01*
X140707188Y-99926376D01*
X140543216Y-99858456D01*
X140395646Y-99759853D01*
X140270147Y-99634354D01*
X140171544Y-99486784D01*
X140103624Y-99322812D01*
X140069000Y-99148741D01*
X140069000Y-98971259D01*
X140103624Y-98797188D01*
X140171544Y-98633216D01*
X140270147Y-98485646D01*
X140395646Y-98360147D01*
X140543216Y-98261544D01*
X140707188Y-98193624D01*
X140856488Y-98163927D01*
X140881258Y-98159000D01*
X141058742Y-98159000D01*
X141083512Y-98163927D01*
G37*
G36*
X138543512Y-98163927D02*
G01*
X138692812Y-98193624D01*
X138856784Y-98261544D01*
X139004354Y-98360147D01*
X139129853Y-98485646D01*
X139228456Y-98633216D01*
X139296376Y-98797188D01*
X139331000Y-98971259D01*
X139331000Y-99148741D01*
X139296376Y-99322812D01*
X139228456Y-99486784D01*
X139129853Y-99634354D01*
X139004354Y-99759853D01*
X138856784Y-99858456D01*
X138692812Y-99926376D01*
X138543512Y-99956073D01*
X138518742Y-99961000D01*
X138341258Y-99961000D01*
X138316488Y-99956073D01*
X138167188Y-99926376D01*
X138003216Y-99858456D01*
X137855646Y-99759853D01*
X137730147Y-99634354D01*
X137631544Y-99486784D01*
X137563624Y-99322812D01*
X137529000Y-99148741D01*
X137529000Y-98971259D01*
X137563624Y-98797188D01*
X137631544Y-98633216D01*
X137730147Y-98485646D01*
X137855646Y-98360147D01*
X138003216Y-98261544D01*
X138167188Y-98193624D01*
X138316488Y-98163927D01*
X138341258Y-98159000D01*
X138518742Y-98159000D01*
X138543512Y-98163927D01*
G37*
G36*
X119493512Y-98163927D02*
G01*
X119642812Y-98193624D01*
X119806784Y-98261544D01*
X119954354Y-98360147D01*
X120079853Y-98485646D01*
X120178456Y-98633216D01*
X120246376Y-98797188D01*
X120281000Y-98971259D01*
X120281000Y-99148741D01*
X120246376Y-99322812D01*
X120178456Y-99486784D01*
X120079853Y-99634354D01*
X119954354Y-99759853D01*
X119806784Y-99858456D01*
X119642812Y-99926376D01*
X119493512Y-99956073D01*
X119468742Y-99961000D01*
X119291258Y-99961000D01*
X119266488Y-99956073D01*
X119117188Y-99926376D01*
X118953216Y-99858456D01*
X118805646Y-99759853D01*
X118680147Y-99634354D01*
X118581544Y-99486784D01*
X118513624Y-99322812D01*
X118479000Y-99148741D01*
X118479000Y-98971259D01*
X118513624Y-98797188D01*
X118581544Y-98633216D01*
X118680147Y-98485646D01*
X118805646Y-98360147D01*
X118953216Y-98261544D01*
X119117188Y-98193624D01*
X119266488Y-98163927D01*
X119291258Y-98159000D01*
X119468742Y-98159000D01*
X119493512Y-98163927D01*
G37*
G36*
X122033512Y-98163927D02*
G01*
X122182812Y-98193624D01*
X122346784Y-98261544D01*
X122494354Y-98360147D01*
X122619853Y-98485646D01*
X122718456Y-98633216D01*
X122786376Y-98797188D01*
X122821000Y-98971259D01*
X122821000Y-99148741D01*
X122786376Y-99322812D01*
X122718456Y-99486784D01*
X122619853Y-99634354D01*
X122494354Y-99759853D01*
X122346784Y-99858456D01*
X122182812Y-99926376D01*
X122033512Y-99956073D01*
X122008742Y-99961000D01*
X121831258Y-99961000D01*
X121806488Y-99956073D01*
X121657188Y-99926376D01*
X121493216Y-99858456D01*
X121345646Y-99759853D01*
X121220147Y-99634354D01*
X121121544Y-99486784D01*
X121053624Y-99322812D01*
X121019000Y-99148741D01*
X121019000Y-98971259D01*
X121053624Y-98797188D01*
X121121544Y-98633216D01*
X121220147Y-98485646D01*
X121345646Y-98360147D01*
X121493216Y-98261544D01*
X121657188Y-98193624D01*
X121806488Y-98163927D01*
X121831258Y-98159000D01*
X122008742Y-98159000D01*
X122033512Y-98163927D01*
G37*
G36*
X124573512Y-98163927D02*
G01*
X124722812Y-98193624D01*
X124886784Y-98261544D01*
X125034354Y-98360147D01*
X125159853Y-98485646D01*
X125258456Y-98633216D01*
X125326376Y-98797188D01*
X125361000Y-98971259D01*
X125361000Y-99148741D01*
X125326376Y-99322812D01*
X125258456Y-99486784D01*
X125159853Y-99634354D01*
X125034354Y-99759853D01*
X124886784Y-99858456D01*
X124722812Y-99926376D01*
X124573512Y-99956073D01*
X124548742Y-99961000D01*
X124371258Y-99961000D01*
X124346488Y-99956073D01*
X124197188Y-99926376D01*
X124033216Y-99858456D01*
X123885646Y-99759853D01*
X123760147Y-99634354D01*
X123661544Y-99486784D01*
X123593624Y-99322812D01*
X123559000Y-99148741D01*
X123559000Y-98971259D01*
X123593624Y-98797188D01*
X123661544Y-98633216D01*
X123760147Y-98485646D01*
X123885646Y-98360147D01*
X124033216Y-98261544D01*
X124197188Y-98193624D01*
X124346488Y-98163927D01*
X124371258Y-98159000D01*
X124548742Y-98159000D01*
X124573512Y-98163927D01*
G37*
G36*
X127901000Y-99961000D02*
G01*
X126099000Y-99961000D01*
X126099000Y-98159000D01*
X127901000Y-98159000D01*
X127901000Y-99961000D01*
G37*
G36*
X144411000Y-99961000D02*
G01*
X142609000Y-99961000D01*
X142609000Y-98159000D01*
X144411000Y-98159000D01*
X144411000Y-99961000D01*
G37*
G36*
X136003512Y-98163927D02*
G01*
X136152812Y-98193624D01*
X136316784Y-98261544D01*
X136464354Y-98360147D01*
X136589853Y-98485646D01*
X136688456Y-98633216D01*
X136756376Y-98797188D01*
X136791000Y-98971259D01*
X136791000Y-99148741D01*
X136756376Y-99322812D01*
X136688456Y-99486784D01*
X136589853Y-99634354D01*
X136464354Y-99759853D01*
X136316784Y-99858456D01*
X136152812Y-99926376D01*
X136003512Y-99956073D01*
X135978742Y-99961000D01*
X135801258Y-99961000D01*
X135776488Y-99956073D01*
X135627188Y-99926376D01*
X135463216Y-99858456D01*
X135315646Y-99759853D01*
X135190147Y-99634354D01*
X135091544Y-99486784D01*
X135023624Y-99322812D01*
X134989000Y-99148741D01*
X134989000Y-98971259D01*
X135023624Y-98797188D01*
X135091544Y-98633216D01*
X135190147Y-98485646D01*
X135315646Y-98360147D01*
X135463216Y-98261544D01*
X135627188Y-98193624D01*
X135776488Y-98163927D01*
X135801258Y-98159000D01*
X135978742Y-98159000D01*
X136003512Y-98163927D01*
G37*
G36*
X133463512Y-98163927D02*
G01*
X133612812Y-98193624D01*
X133776784Y-98261544D01*
X133924354Y-98360147D01*
X134049853Y-98485646D01*
X134148456Y-98633216D01*
X134216376Y-98797188D01*
X134251000Y-98971259D01*
X134251000Y-99148741D01*
X134216376Y-99322812D01*
X134148456Y-99486784D01*
X134049853Y-99634354D01*
X133924354Y-99759853D01*
X133776784Y-99858456D01*
X133612812Y-99926376D01*
X133463512Y-99956073D01*
X133438742Y-99961000D01*
X133261258Y-99961000D01*
X133236488Y-99956073D01*
X133087188Y-99926376D01*
X132923216Y-99858456D01*
X132775646Y-99759853D01*
X132650147Y-99634354D01*
X132551544Y-99486784D01*
X132483624Y-99322812D01*
X132449000Y-99148741D01*
X132449000Y-98971259D01*
X132483624Y-98797188D01*
X132551544Y-98633216D01*
X132650147Y-98485646D01*
X132775646Y-98360147D01*
X132923216Y-98261544D01*
X133087188Y-98193624D01*
X133236488Y-98163927D01*
X133261258Y-98159000D01*
X133438742Y-98159000D01*
X133463512Y-98163927D01*
G37*
G36*
X113249059Y-98337860D02*
G01*
X113302865Y-98360147D01*
X113385732Y-98394472D01*
X113508735Y-98476660D01*
X113613340Y-98581265D01*
X113648054Y-98633218D01*
X113695529Y-98704270D01*
X113752140Y-98840941D01*
X113781000Y-98986032D01*
X113781000Y-99133968D01*
X113778061Y-99148742D01*
X113752140Y-99279059D01*
X113695528Y-99415732D01*
X113613340Y-99538735D01*
X113508735Y-99643340D01*
X113385732Y-99725528D01*
X113385731Y-99725529D01*
X113385730Y-99725529D01*
X113249059Y-99782140D01*
X113103968Y-99811000D01*
X112956032Y-99811000D01*
X112810941Y-99782140D01*
X112674270Y-99725529D01*
X112674269Y-99725529D01*
X112674268Y-99725528D01*
X112551265Y-99643340D01*
X112446660Y-99538735D01*
X112364472Y-99415732D01*
X112307860Y-99279059D01*
X112281939Y-99148742D01*
X112279000Y-99133968D01*
X112279000Y-98986032D01*
X112307860Y-98840941D01*
X112364471Y-98704270D01*
X112411946Y-98633218D01*
X112446660Y-98581265D01*
X112551265Y-98476660D01*
X112674268Y-98394472D01*
X112757136Y-98360147D01*
X112810941Y-98337860D01*
X112956032Y-98309000D01*
X113103968Y-98309000D01*
X113249059Y-98337860D01*
G37*
G36*
X108169059Y-98337860D02*
G01*
X108222865Y-98360147D01*
X108305732Y-98394472D01*
X108428735Y-98476660D01*
X108533340Y-98581265D01*
X108568054Y-98633218D01*
X108615529Y-98704270D01*
X108672140Y-98840941D01*
X108701000Y-98986032D01*
X108701000Y-99133968D01*
X108698061Y-99148742D01*
X108672140Y-99279059D01*
X108615528Y-99415732D01*
X108533340Y-99538735D01*
X108428735Y-99643340D01*
X108305732Y-99725528D01*
X108305731Y-99725529D01*
X108305730Y-99725529D01*
X108169059Y-99782140D01*
X108023968Y-99811000D01*
X107876032Y-99811000D01*
X107730941Y-99782140D01*
X107594270Y-99725529D01*
X107594269Y-99725529D01*
X107594268Y-99725528D01*
X107471265Y-99643340D01*
X107366660Y-99538735D01*
X107284472Y-99415732D01*
X107227860Y-99279059D01*
X107201939Y-99148742D01*
X107199000Y-99133968D01*
X107199000Y-98986032D01*
X107227860Y-98840941D01*
X107284471Y-98704270D01*
X107331946Y-98633218D01*
X107366660Y-98581265D01*
X107471265Y-98476660D01*
X107594268Y-98394472D01*
X107677136Y-98360147D01*
X107730941Y-98337860D01*
X107876032Y-98309000D01*
X108023968Y-98309000D01*
X108169059Y-98337860D01*
G37*
M02*
