G04 #@! TF.GenerationSoftware,KiCad,Pcbnew,5.1.5+dfsg1-2build2*
G04 #@! TF.CreationDate,2020-12-30T20:24:06+01:00*
G04 #@! TF.ProjectId,stm32f0can,73746d33-3266-4306-9361-6e2e6b696361,rev?*
G04 #@! TF.SameCoordinates,Original*
G04 #@! TF.FileFunction,Legend,Top*
G04 #@! TF.FilePolarity,Positive*
%FSLAX46Y46*%
G04 Gerber Fmt 4.6, Leading zero omitted, Abs format (unit mm)*
G04 Created by KiCad (PCBNEW 5.1.5+dfsg1-2build2) date 2020-12-30 20:24:06*
%MOMM*%
%LPD*%
G04 APERTURE LIST*
%ADD10C,0.150000*%
%ADD11C,0.100000*%
%ADD12C,0.250000*%
%ADD13C,0.120000*%
%ADD14C,0.127000*%
%ADD15C,0.200000*%
G04 APERTURE END LIST*
D10*
X116103400Y-113437942D02*
X116151019Y-113485561D01*
X116103400Y-113533180D01*
X116055780Y-113485561D01*
X116103400Y-113437942D01*
X116103400Y-113533180D01*
X105440219Y-115146533D02*
X105964028Y-115146533D01*
X106059266Y-115098914D01*
X106106885Y-115003676D01*
X106106885Y-114813200D01*
X106059266Y-114717961D01*
X105487838Y-115146533D02*
X105440219Y-115051295D01*
X105440219Y-114813200D01*
X105487838Y-114717961D01*
X105583076Y-114670342D01*
X105678314Y-114670342D01*
X105773552Y-114717961D01*
X105821171Y-114813200D01*
X105821171Y-115051295D01*
X105868790Y-115146533D01*
X105487838Y-116051295D02*
X105440219Y-115956057D01*
X105440219Y-115765580D01*
X105487838Y-115670342D01*
X105535457Y-115622723D01*
X105630695Y-115575104D01*
X105916409Y-115575104D01*
X106011647Y-115622723D01*
X106059266Y-115670342D01*
X106106885Y-115765580D01*
X106106885Y-115956057D01*
X106059266Y-116051295D01*
X106106885Y-116337009D02*
X106106885Y-116717961D01*
X106440219Y-116479866D02*
X105583076Y-116479866D01*
X105487838Y-116527485D01*
X105440219Y-116622723D01*
X105440219Y-116717961D01*
X105440219Y-117051295D02*
X106106885Y-117051295D01*
X106440219Y-117051295D02*
X106392600Y-117003676D01*
X106344980Y-117051295D01*
X106392600Y-117098914D01*
X106440219Y-117051295D01*
X106344980Y-117051295D01*
X106106885Y-117432247D02*
X105440219Y-117670342D01*
X106106885Y-117908438D01*
X105487838Y-118670342D02*
X105440219Y-118575104D01*
X105440219Y-118384628D01*
X105487838Y-118289390D01*
X105583076Y-118241771D01*
X105964028Y-118241771D01*
X106059266Y-118289390D01*
X106106885Y-118384628D01*
X106106885Y-118575104D01*
X106059266Y-118670342D01*
X105964028Y-118717961D01*
X105868790Y-118717961D01*
X105773552Y-118241771D01*
X105440219Y-120051295D02*
X105487838Y-119956057D01*
X105583076Y-119908438D01*
X106440219Y-119908438D01*
X105440219Y-120575104D02*
X105487838Y-120479866D01*
X105535457Y-120432247D01*
X105630695Y-120384628D01*
X105916409Y-120384628D01*
X106011647Y-120432247D01*
X106059266Y-120479866D01*
X106106885Y-120575104D01*
X106106885Y-120717961D01*
X106059266Y-120813200D01*
X106011647Y-120860819D01*
X105916409Y-120908438D01*
X105630695Y-120908438D01*
X105535457Y-120860819D01*
X105487838Y-120813200D01*
X105440219Y-120717961D01*
X105440219Y-120575104D01*
X106106885Y-121241771D02*
X105440219Y-121432247D01*
X105916409Y-121622723D01*
X105440219Y-121813200D01*
X106106885Y-122003676D01*
X136930380Y-108421514D02*
X136930380Y-109421514D01*
X136930380Y-108469133D02*
X137025619Y-108421514D01*
X137216095Y-108421514D01*
X137311333Y-108469133D01*
X137358952Y-108516752D01*
X137406571Y-108611990D01*
X137406571Y-108897704D01*
X137358952Y-108992942D01*
X137311333Y-109040561D01*
X137216095Y-109088180D01*
X137025619Y-109088180D01*
X136930380Y-109040561D01*
X137978000Y-109088180D02*
X137882761Y-109040561D01*
X137835142Y-108992942D01*
X137787523Y-108897704D01*
X137787523Y-108611990D01*
X137835142Y-108516752D01*
X137882761Y-108469133D01*
X137978000Y-108421514D01*
X138120857Y-108421514D01*
X138216095Y-108469133D01*
X138263714Y-108516752D01*
X138311333Y-108611990D01*
X138311333Y-108897704D01*
X138263714Y-108992942D01*
X138216095Y-109040561D01*
X138120857Y-109088180D01*
X137978000Y-109088180D01*
X138692285Y-109040561D02*
X138787523Y-109088180D01*
X138978000Y-109088180D01*
X139073238Y-109040561D01*
X139120857Y-108945323D01*
X139120857Y-108897704D01*
X139073238Y-108802466D01*
X138978000Y-108754847D01*
X138835142Y-108754847D01*
X138739904Y-108707228D01*
X138692285Y-108611990D01*
X138692285Y-108564371D01*
X138739904Y-108469133D01*
X138835142Y-108421514D01*
X138978000Y-108421514D01*
X139073238Y-108469133D01*
X139501809Y-109040561D02*
X139597047Y-109088180D01*
X139787523Y-109088180D01*
X139882761Y-109040561D01*
X139930380Y-108945323D01*
X139930380Y-108897704D01*
X139882761Y-108802466D01*
X139787523Y-108754847D01*
X139644666Y-108754847D01*
X139549428Y-108707228D01*
X139501809Y-108611990D01*
X139501809Y-108564371D01*
X139549428Y-108469133D01*
X139644666Y-108421514D01*
X139787523Y-108421514D01*
X139882761Y-108469133D01*
X140358952Y-109088180D02*
X140358952Y-108421514D01*
X140358952Y-108088180D02*
X140311333Y-108135800D01*
X140358952Y-108183419D01*
X140406571Y-108135800D01*
X140358952Y-108088180D01*
X140358952Y-108183419D01*
X140835142Y-109088180D02*
X140835142Y-108088180D01*
X140835142Y-108469133D02*
X140930380Y-108421514D01*
X141120857Y-108421514D01*
X141216095Y-108469133D01*
X141263714Y-108516752D01*
X141311333Y-108611990D01*
X141311333Y-108897704D01*
X141263714Y-108992942D01*
X141216095Y-109040561D01*
X141120857Y-109088180D01*
X140930380Y-109088180D01*
X140835142Y-109040561D01*
X141882761Y-109088180D02*
X141787523Y-109040561D01*
X141739904Y-108945323D01*
X141739904Y-108088180D01*
X142644666Y-109040561D02*
X142549428Y-109088180D01*
X142358952Y-109088180D01*
X142263714Y-109040561D01*
X142216095Y-108945323D01*
X142216095Y-108564371D01*
X142263714Y-108469133D01*
X142358952Y-108421514D01*
X142549428Y-108421514D01*
X142644666Y-108469133D01*
X142692285Y-108564371D01*
X142692285Y-108659609D01*
X142216095Y-108754847D01*
X144311333Y-108421514D02*
X144311333Y-109088180D01*
X143882761Y-108421514D02*
X143882761Y-108945323D01*
X143930380Y-109040561D01*
X144025619Y-109088180D01*
X144168476Y-109088180D01*
X144263714Y-109040561D01*
X144311333Y-108992942D01*
X144739904Y-109040561D02*
X144835142Y-109088180D01*
X145025619Y-109088180D01*
X145120857Y-109040561D01*
X145168476Y-108945323D01*
X145168476Y-108897704D01*
X145120857Y-108802466D01*
X145025619Y-108754847D01*
X144882761Y-108754847D01*
X144787523Y-108707228D01*
X144739904Y-108611990D01*
X144739904Y-108564371D01*
X144787523Y-108469133D01*
X144882761Y-108421514D01*
X145025619Y-108421514D01*
X145120857Y-108469133D01*
X145597047Y-109088180D02*
X145597047Y-108088180D01*
X145597047Y-108469133D02*
X145692285Y-108421514D01*
X145882761Y-108421514D01*
X145978000Y-108469133D01*
X146025619Y-108516752D01*
X146073238Y-108611990D01*
X146073238Y-108897704D01*
X146025619Y-108992942D01*
X145978000Y-109040561D01*
X145882761Y-109088180D01*
X145692285Y-109088180D01*
X145597047Y-109040561D01*
X139765352Y-126455514D02*
X140146304Y-126455514D01*
X139908209Y-127122180D02*
X139908209Y-126265038D01*
X139955828Y-126169800D01*
X140051066Y-126122180D01*
X140146304Y-126122180D01*
X140479638Y-127122180D02*
X140479638Y-126455514D01*
X140479638Y-126122180D02*
X140432019Y-126169800D01*
X140479638Y-126217419D01*
X140527257Y-126169800D01*
X140479638Y-126122180D01*
X140479638Y-126217419D01*
X141098685Y-127122180D02*
X141003447Y-127074561D01*
X140955828Y-126979323D01*
X140955828Y-126122180D01*
X141336780Y-126455514D02*
X141717733Y-126455514D01*
X141479638Y-126122180D02*
X141479638Y-126979323D01*
X141527257Y-127074561D01*
X141622495Y-127122180D01*
X141717733Y-127122180D01*
X142432019Y-127074561D02*
X142336780Y-127122180D01*
X142146304Y-127122180D01*
X142051066Y-127074561D01*
X142003447Y-126979323D01*
X142003447Y-126598371D01*
X142051066Y-126503133D01*
X142146304Y-126455514D01*
X142336780Y-126455514D01*
X142432019Y-126503133D01*
X142479638Y-126598371D01*
X142479638Y-126693609D01*
X142003447Y-126788847D01*
X142908209Y-127122180D02*
X142908209Y-126455514D01*
X142908209Y-126645990D02*
X142955828Y-126550752D01*
X143003447Y-126503133D01*
X143098685Y-126455514D01*
X143193923Y-126455514D01*
X143479638Y-127074561D02*
X143574876Y-127122180D01*
X143765352Y-127122180D01*
X143860590Y-127074561D01*
X143908209Y-126979323D01*
X143908209Y-126931704D01*
X143860590Y-126836466D01*
X143765352Y-126788847D01*
X143622495Y-126788847D01*
X143527257Y-126741228D01*
X143479638Y-126645990D01*
X143479638Y-126598371D01*
X143527257Y-126503133D01*
X143622495Y-126455514D01*
X143765352Y-126455514D01*
X143860590Y-126503133D01*
X137214647Y-117578142D02*
X137167028Y-117625761D01*
X137024171Y-117673380D01*
X136928933Y-117673380D01*
X136786076Y-117625761D01*
X136690838Y-117530523D01*
X136643219Y-117435285D01*
X136595600Y-117244809D01*
X136595600Y-117101952D01*
X136643219Y-116911476D01*
X136690838Y-116816238D01*
X136786076Y-116721000D01*
X136928933Y-116673380D01*
X137024171Y-116673380D01*
X137167028Y-116721000D01*
X137214647Y-116768619D01*
X137595600Y-117387666D02*
X138071790Y-117387666D01*
X137500361Y-117673380D02*
X137833695Y-116673380D01*
X138167028Y-117673380D01*
X138500361Y-117673380D02*
X138500361Y-116673380D01*
X139071790Y-117673380D01*
X139071790Y-116673380D01*
X139547980Y-117292428D02*
X140309885Y-117292428D01*
X140643219Y-117006714D02*
X141024171Y-117006714D01*
X140786076Y-116673380D02*
X140786076Y-117530523D01*
X140833695Y-117625761D01*
X140928933Y-117673380D01*
X141024171Y-117673380D01*
X141357504Y-117673380D02*
X141357504Y-117006714D01*
X141357504Y-117197190D02*
X141405123Y-117101952D01*
X141452742Y-117054333D01*
X141547980Y-117006714D01*
X141643219Y-117006714D01*
X142405123Y-117673380D02*
X142405123Y-117149571D01*
X142357504Y-117054333D01*
X142262266Y-117006714D01*
X142071790Y-117006714D01*
X141976552Y-117054333D01*
X142405123Y-117625761D02*
X142309885Y-117673380D01*
X142071790Y-117673380D01*
X141976552Y-117625761D01*
X141928933Y-117530523D01*
X141928933Y-117435285D01*
X141976552Y-117340047D01*
X142071790Y-117292428D01*
X142309885Y-117292428D01*
X142405123Y-117244809D01*
X142881314Y-117006714D02*
X142881314Y-117673380D01*
X142881314Y-117101952D02*
X142928933Y-117054333D01*
X143024171Y-117006714D01*
X143167028Y-117006714D01*
X143262266Y-117054333D01*
X143309885Y-117149571D01*
X143309885Y-117673380D01*
X143738457Y-117625761D02*
X143833695Y-117673380D01*
X144024171Y-117673380D01*
X144119409Y-117625761D01*
X144167028Y-117530523D01*
X144167028Y-117482904D01*
X144119409Y-117387666D01*
X144024171Y-117340047D01*
X143881314Y-117340047D01*
X143786076Y-117292428D01*
X143738457Y-117197190D01*
X143738457Y-117149571D01*
X143786076Y-117054333D01*
X143881314Y-117006714D01*
X144024171Y-117006714D01*
X144119409Y-117054333D01*
X145024171Y-117625761D02*
X144928933Y-117673380D01*
X144738457Y-117673380D01*
X144643219Y-117625761D01*
X144595600Y-117578142D01*
X144547980Y-117482904D01*
X144547980Y-117197190D01*
X144595600Y-117101952D01*
X144643219Y-117054333D01*
X144738457Y-117006714D01*
X144928933Y-117006714D01*
X145024171Y-117054333D01*
X145833695Y-117625761D02*
X145738457Y-117673380D01*
X145547980Y-117673380D01*
X145452742Y-117625761D01*
X145405123Y-117530523D01*
X145405123Y-117149571D01*
X145452742Y-117054333D01*
X145547980Y-117006714D01*
X145738457Y-117006714D01*
X145833695Y-117054333D01*
X145881314Y-117149571D01*
X145881314Y-117244809D01*
X145405123Y-117340047D01*
X146309885Y-117673380D02*
X146309885Y-117006714D01*
X146309885Y-116673380D02*
X146262266Y-116721000D01*
X146309885Y-116768619D01*
X146357504Y-116721000D01*
X146309885Y-116673380D01*
X146309885Y-116768619D01*
X146690838Y-117006714D02*
X146928933Y-117673380D01*
X147167028Y-117006714D01*
X147928933Y-117625761D02*
X147833695Y-117673380D01*
X147643219Y-117673380D01*
X147547980Y-117625761D01*
X147500361Y-117530523D01*
X147500361Y-117149571D01*
X147547980Y-117054333D01*
X147643219Y-117006714D01*
X147833695Y-117006714D01*
X147928933Y-117054333D01*
X147976552Y-117149571D01*
X147976552Y-117244809D01*
X147500361Y-117340047D01*
X148405123Y-117673380D02*
X148405123Y-117006714D01*
X148405123Y-117197190D02*
X148452742Y-117101952D01*
X148500361Y-117054333D01*
X148595600Y-117006714D01*
X148690838Y-117006714D01*
X129876752Y-113526914D02*
X129876752Y-114526914D01*
X129876752Y-113574533D02*
X129971990Y-113526914D01*
X130162466Y-113526914D01*
X130257704Y-113574533D01*
X130305323Y-113622152D01*
X130352942Y-113717390D01*
X130352942Y-114003104D01*
X130305323Y-114098342D01*
X130257704Y-114145961D01*
X130162466Y-114193580D01*
X129971990Y-114193580D01*
X129876752Y-114145961D01*
X131210085Y-114193580D02*
X131210085Y-113669771D01*
X131162466Y-113574533D01*
X131067228Y-113526914D01*
X130876752Y-113526914D01*
X130781514Y-113574533D01*
X131210085Y-114145961D02*
X131114847Y-114193580D01*
X130876752Y-114193580D01*
X130781514Y-114145961D01*
X130733895Y-114050723D01*
X130733895Y-113955485D01*
X130781514Y-113860247D01*
X130876752Y-113812628D01*
X131114847Y-113812628D01*
X131210085Y-113765009D01*
X132210085Y-114193580D02*
X131638657Y-114193580D01*
X131924371Y-114193580D02*
X131924371Y-113193580D01*
X131829133Y-113336438D01*
X131733895Y-113431676D01*
X131638657Y-113479295D01*
X132591038Y-113288819D02*
X132638657Y-113241200D01*
X132733895Y-113193580D01*
X132971990Y-113193580D01*
X133067228Y-113241200D01*
X133114847Y-113288819D01*
X133162466Y-113384057D01*
X133162466Y-113479295D01*
X133114847Y-113622152D01*
X132543419Y-114193580D01*
X133162466Y-114193580D01*
X129749752Y-111418714D02*
X129749752Y-112418714D01*
X129749752Y-111466333D02*
X129844990Y-111418714D01*
X130035466Y-111418714D01*
X130130704Y-111466333D01*
X130178323Y-111513952D01*
X130225942Y-111609190D01*
X130225942Y-111894904D01*
X130178323Y-111990142D01*
X130130704Y-112037761D01*
X130035466Y-112085380D01*
X129844990Y-112085380D01*
X129749752Y-112037761D01*
X131083085Y-112085380D02*
X131083085Y-111561571D01*
X131035466Y-111466333D01*
X130940228Y-111418714D01*
X130749752Y-111418714D01*
X130654514Y-111466333D01*
X131083085Y-112037761D02*
X130987847Y-112085380D01*
X130749752Y-112085380D01*
X130654514Y-112037761D01*
X130606895Y-111942523D01*
X130606895Y-111847285D01*
X130654514Y-111752047D01*
X130749752Y-111704428D01*
X130987847Y-111704428D01*
X131083085Y-111656809D01*
X132083085Y-112085380D02*
X131511657Y-112085380D01*
X131797371Y-112085380D02*
X131797371Y-111085380D01*
X131702133Y-111228238D01*
X131606895Y-111323476D01*
X131511657Y-111371095D01*
X133035466Y-112085380D02*
X132464038Y-112085380D01*
X132749752Y-112085380D02*
X132749752Y-111085380D01*
X132654514Y-111228238D01*
X132559276Y-111323476D01*
X132464038Y-111371095D01*
X131110123Y-116625714D02*
X131110123Y-117435238D01*
X131062504Y-117530476D01*
X131014885Y-117578095D01*
X130919647Y-117625714D01*
X130776790Y-117625714D01*
X130681552Y-117578095D01*
X131110123Y-117244761D02*
X131014885Y-117292380D01*
X130824409Y-117292380D01*
X130729171Y-117244761D01*
X130681552Y-117197142D01*
X130633933Y-117101904D01*
X130633933Y-116816190D01*
X130681552Y-116720952D01*
X130729171Y-116673333D01*
X130824409Y-116625714D01*
X131014885Y-116625714D01*
X131110123Y-116673333D01*
X131586314Y-116625714D02*
X131586314Y-117292380D01*
X131586314Y-116720952D02*
X131633933Y-116673333D01*
X131729171Y-116625714D01*
X131872028Y-116625714D01*
X131967266Y-116673333D01*
X132014885Y-116768571D01*
X132014885Y-117292380D01*
X132919647Y-117292380D02*
X132919647Y-116292380D01*
X132919647Y-117244761D02*
X132824409Y-117292380D01*
X132633933Y-117292380D01*
X132538695Y-117244761D01*
X132491076Y-117197142D01*
X132443457Y-117101904D01*
X132443457Y-116816190D01*
X132491076Y-116720952D01*
X132538695Y-116673333D01*
X132633933Y-116625714D01*
X132824409Y-116625714D01*
X132919647Y-116673333D01*
X131584723Y-108748580D02*
X131108533Y-108748580D01*
X131060914Y-109224771D01*
X131108533Y-109177152D01*
X131203771Y-109129533D01*
X131441866Y-109129533D01*
X131537104Y-109177152D01*
X131584723Y-109224771D01*
X131632342Y-109320009D01*
X131632342Y-109558104D01*
X131584723Y-109653342D01*
X131537104Y-109700961D01*
X131441866Y-109748580D01*
X131203771Y-109748580D01*
X131108533Y-109700961D01*
X131060914Y-109653342D01*
X131918057Y-108748580D02*
X132251390Y-109748580D01*
X132584723Y-108748580D01*
X133488085Y-103459114D02*
X132821419Y-103459114D01*
X133392847Y-103459114D02*
X133440466Y-103506733D01*
X133488085Y-103601971D01*
X133488085Y-103744828D01*
X133440466Y-103840066D01*
X133345228Y-103887685D01*
X132821419Y-103887685D01*
X132821419Y-104363876D02*
X133488085Y-104363876D01*
X133297609Y-104363876D02*
X133392847Y-104411495D01*
X133440466Y-104459114D01*
X133488085Y-104554352D01*
X133488085Y-104649590D01*
X132869038Y-104935304D02*
X132821419Y-105030542D01*
X132821419Y-105221019D01*
X132869038Y-105316257D01*
X132964276Y-105363876D01*
X133011895Y-105363876D01*
X133107133Y-105316257D01*
X133154752Y-105221019D01*
X133154752Y-105078161D01*
X133202371Y-104982923D01*
X133297609Y-104935304D01*
X133345228Y-104935304D01*
X133440466Y-104982923D01*
X133488085Y-105078161D01*
X133488085Y-105221019D01*
X133440466Y-105316257D01*
X133488085Y-105649590D02*
X133488085Y-106030542D01*
X133821419Y-105792447D02*
X132964276Y-105792447D01*
X132869038Y-105840066D01*
X132821419Y-105935304D01*
X132821419Y-106030542D01*
X154956190Y-110237542D02*
X154908571Y-110285161D01*
X154765714Y-110332780D01*
X154670476Y-110332780D01*
X154527619Y-110285161D01*
X154432380Y-110189923D01*
X154384761Y-110094685D01*
X154337142Y-109904209D01*
X154337142Y-109761352D01*
X154384761Y-109570876D01*
X154432380Y-109475638D01*
X154527619Y-109380400D01*
X154670476Y-109332780D01*
X154765714Y-109332780D01*
X154908571Y-109380400D01*
X154956190Y-109428019D01*
X155337142Y-110047066D02*
X155813333Y-110047066D01*
X155241904Y-110332780D02*
X155575238Y-109332780D01*
X155908571Y-110332780D01*
X156241904Y-110332780D02*
X156241904Y-109332780D01*
X156813333Y-110332780D01*
X156813333Y-109332780D01*
X158384761Y-109808971D02*
X158527619Y-109856590D01*
X158575238Y-109904209D01*
X158622857Y-109999447D01*
X158622857Y-110142304D01*
X158575238Y-110237542D01*
X158527619Y-110285161D01*
X158432380Y-110332780D01*
X158051428Y-110332780D01*
X158051428Y-109332780D01*
X158384761Y-109332780D01*
X158480000Y-109380400D01*
X158527619Y-109428019D01*
X158575238Y-109523257D01*
X158575238Y-109618495D01*
X158527619Y-109713733D01*
X158480000Y-109761352D01*
X158384761Y-109808971D01*
X158051428Y-109808971D01*
X159051428Y-109332780D02*
X159051428Y-110142304D01*
X159099047Y-110237542D01*
X159146666Y-110285161D01*
X159241904Y-110332780D01*
X159432380Y-110332780D01*
X159527619Y-110285161D01*
X159575238Y-110237542D01*
X159622857Y-110142304D01*
X159622857Y-109332780D01*
X160051428Y-110285161D02*
X160194285Y-110332780D01*
X160432380Y-110332780D01*
X160527619Y-110285161D01*
X160575238Y-110237542D01*
X160622857Y-110142304D01*
X160622857Y-110047066D01*
X160575238Y-109951828D01*
X160527619Y-109904209D01*
X160432380Y-109856590D01*
X160241904Y-109808971D01*
X160146666Y-109761352D01*
X160099047Y-109713733D01*
X160051428Y-109618495D01*
X160051428Y-109523257D01*
X160099047Y-109428019D01*
X160146666Y-109380400D01*
X160241904Y-109332780D01*
X160480000Y-109332780D01*
X160622857Y-109380400D01*
X159600876Y-131814914D02*
X159600876Y-132481580D01*
X159362780Y-131433961D02*
X159124685Y-132148247D01*
X159743733Y-132148247D01*
X159026266Y-128992380D02*
X159645314Y-128992380D01*
X159311980Y-129373333D01*
X159454838Y-129373333D01*
X159550076Y-129420952D01*
X159597695Y-129468571D01*
X159645314Y-129563809D01*
X159645314Y-129801904D01*
X159597695Y-129897142D01*
X159550076Y-129944761D01*
X159454838Y-129992380D01*
X159169123Y-129992380D01*
X159073885Y-129944761D01*
X159026266Y-129897142D01*
X158997685Y-126547619D02*
X159045304Y-126500000D01*
X159140542Y-126452380D01*
X159378638Y-126452380D01*
X159473876Y-126500000D01*
X159521495Y-126547619D01*
X159569114Y-126642857D01*
X159569114Y-126738095D01*
X159521495Y-126880952D01*
X158950066Y-127452380D01*
X159569114Y-127452380D01*
X159543714Y-124937780D02*
X158972285Y-124937780D01*
X159258000Y-124937780D02*
X159258000Y-123937780D01*
X159162761Y-124080638D01*
X159067523Y-124175876D01*
X158972285Y-124223495D01*
X124810780Y-129844657D02*
X124286971Y-129844657D01*
X124191733Y-129892276D01*
X124144114Y-129987514D01*
X124144114Y-130177990D01*
X124191733Y-130273228D01*
X124763161Y-129844657D02*
X124810780Y-129939895D01*
X124810780Y-130177990D01*
X124763161Y-130273228D01*
X124667923Y-130320847D01*
X124572685Y-130320847D01*
X124477447Y-130273228D01*
X124429828Y-130177990D01*
X124429828Y-129939895D01*
X124382209Y-129844657D01*
X124810780Y-128939895D02*
X123810780Y-128939895D01*
X124763161Y-128939895D02*
X124810780Y-129035133D01*
X124810780Y-129225609D01*
X124763161Y-129320847D01*
X124715542Y-129368466D01*
X124620304Y-129416085D01*
X124334590Y-129416085D01*
X124239352Y-129368466D01*
X124191733Y-129320847D01*
X124144114Y-129225609D01*
X124144114Y-129035133D01*
X124191733Y-128939895D01*
X124763161Y-128035133D02*
X124810780Y-128130371D01*
X124810780Y-128320847D01*
X124763161Y-128416085D01*
X124715542Y-128463704D01*
X124620304Y-128511323D01*
X124334590Y-128511323D01*
X124239352Y-128463704D01*
X124191733Y-128416085D01*
X124144114Y-128320847D01*
X124144114Y-128130371D01*
X124191733Y-128035133D01*
X124144114Y-127177990D02*
X124810780Y-127177990D01*
X123763161Y-127416085D02*
X124477447Y-127654180D01*
X124477447Y-127035133D01*
X122372380Y-129819257D02*
X121848571Y-129819257D01*
X121753333Y-129866876D01*
X121705714Y-129962114D01*
X121705714Y-130152590D01*
X121753333Y-130247828D01*
X122324761Y-129819257D02*
X122372380Y-129914495D01*
X122372380Y-130152590D01*
X122324761Y-130247828D01*
X122229523Y-130295447D01*
X122134285Y-130295447D01*
X122039047Y-130247828D01*
X121991428Y-130152590D01*
X121991428Y-129914495D01*
X121943809Y-129819257D01*
X122372380Y-128914495D02*
X121372380Y-128914495D01*
X122324761Y-128914495D02*
X122372380Y-129009733D01*
X122372380Y-129200209D01*
X122324761Y-129295447D01*
X122277142Y-129343066D01*
X122181904Y-129390685D01*
X121896190Y-129390685D01*
X121800952Y-129343066D01*
X121753333Y-129295447D01*
X121705714Y-129200209D01*
X121705714Y-129009733D01*
X121753333Y-128914495D01*
X122324761Y-128009733D02*
X122372380Y-128104971D01*
X122372380Y-128295447D01*
X122324761Y-128390685D01*
X122277142Y-128438304D01*
X122181904Y-128485923D01*
X121896190Y-128485923D01*
X121800952Y-128438304D01*
X121753333Y-128390685D01*
X121705714Y-128295447D01*
X121705714Y-128104971D01*
X121753333Y-128009733D01*
X121372380Y-127676400D02*
X121372380Y-127057352D01*
X121753333Y-127390685D01*
X121753333Y-127247828D01*
X121800952Y-127152590D01*
X121848571Y-127104971D01*
X121943809Y-127057352D01*
X122181904Y-127057352D01*
X122277142Y-127104971D01*
X122324761Y-127152590D01*
X122372380Y-127247828D01*
X122372380Y-127533542D01*
X122324761Y-127628780D01*
X122277142Y-127676400D01*
X119832380Y-129844657D02*
X119308571Y-129844657D01*
X119213333Y-129892276D01*
X119165714Y-129987514D01*
X119165714Y-130177990D01*
X119213333Y-130273228D01*
X119784761Y-129844657D02*
X119832380Y-129939895D01*
X119832380Y-130177990D01*
X119784761Y-130273228D01*
X119689523Y-130320847D01*
X119594285Y-130320847D01*
X119499047Y-130273228D01*
X119451428Y-130177990D01*
X119451428Y-129939895D01*
X119403809Y-129844657D01*
X119832380Y-128939895D02*
X118832380Y-128939895D01*
X119784761Y-128939895D02*
X119832380Y-129035133D01*
X119832380Y-129225609D01*
X119784761Y-129320847D01*
X119737142Y-129368466D01*
X119641904Y-129416085D01*
X119356190Y-129416085D01*
X119260952Y-129368466D01*
X119213333Y-129320847D01*
X119165714Y-129225609D01*
X119165714Y-129035133D01*
X119213333Y-128939895D01*
X119784761Y-128035133D02*
X119832380Y-128130371D01*
X119832380Y-128320847D01*
X119784761Y-128416085D01*
X119737142Y-128463704D01*
X119641904Y-128511323D01*
X119356190Y-128511323D01*
X119260952Y-128463704D01*
X119213333Y-128416085D01*
X119165714Y-128320847D01*
X119165714Y-128130371D01*
X119213333Y-128035133D01*
X118927619Y-127654180D02*
X118880000Y-127606561D01*
X118832380Y-127511323D01*
X118832380Y-127273228D01*
X118880000Y-127177990D01*
X118927619Y-127130371D01*
X119022857Y-127082752D01*
X119118095Y-127082752D01*
X119260952Y-127130371D01*
X119832380Y-127701800D01*
X119832380Y-127082752D01*
X117292380Y-129793857D02*
X116768571Y-129793857D01*
X116673333Y-129841476D01*
X116625714Y-129936714D01*
X116625714Y-130127190D01*
X116673333Y-130222428D01*
X117244761Y-129793857D02*
X117292380Y-129889095D01*
X117292380Y-130127190D01*
X117244761Y-130222428D01*
X117149523Y-130270047D01*
X117054285Y-130270047D01*
X116959047Y-130222428D01*
X116911428Y-130127190D01*
X116911428Y-129889095D01*
X116863809Y-129793857D01*
X117292380Y-128889095D02*
X116292380Y-128889095D01*
X117244761Y-128889095D02*
X117292380Y-128984333D01*
X117292380Y-129174809D01*
X117244761Y-129270047D01*
X117197142Y-129317666D01*
X117101904Y-129365285D01*
X116816190Y-129365285D01*
X116720952Y-129317666D01*
X116673333Y-129270047D01*
X116625714Y-129174809D01*
X116625714Y-128984333D01*
X116673333Y-128889095D01*
X117244761Y-127984333D02*
X117292380Y-128079571D01*
X117292380Y-128270047D01*
X117244761Y-128365285D01*
X117197142Y-128412904D01*
X117101904Y-128460523D01*
X116816190Y-128460523D01*
X116720952Y-128412904D01*
X116673333Y-128365285D01*
X116625714Y-128270047D01*
X116625714Y-128079571D01*
X116673333Y-127984333D01*
X117292380Y-127031952D02*
X117292380Y-127603380D01*
X117292380Y-127317666D02*
X116292380Y-127317666D01*
X116435238Y-127412904D01*
X116530476Y-127508142D01*
X116578095Y-127603380D01*
X112637914Y-132055952D02*
X113637914Y-132055952D01*
X112685533Y-132055952D02*
X112637914Y-131960714D01*
X112637914Y-131770238D01*
X112685533Y-131675000D01*
X112733152Y-131627380D01*
X112828390Y-131579761D01*
X113114104Y-131579761D01*
X113209342Y-131627380D01*
X113256961Y-131675000D01*
X113304580Y-131770238D01*
X113304580Y-131960714D01*
X113256961Y-132055952D01*
X112637914Y-131246428D02*
X113304580Y-131055952D01*
X112828390Y-130865476D01*
X113304580Y-130675000D01*
X112637914Y-130484523D01*
X113304580Y-130103571D02*
X112637914Y-130103571D01*
X112733152Y-130103571D02*
X112685533Y-130055952D01*
X112637914Y-129960714D01*
X112637914Y-129817857D01*
X112685533Y-129722619D01*
X112780771Y-129675000D01*
X113304580Y-129675000D01*
X112780771Y-129675000D02*
X112685533Y-129627380D01*
X112637914Y-129532142D01*
X112637914Y-129389285D01*
X112685533Y-129294047D01*
X112780771Y-129246428D01*
X113304580Y-129246428D01*
X112637914Y-128341666D02*
X113304580Y-128341666D01*
X112256961Y-128579761D02*
X112971247Y-128817857D01*
X112971247Y-128198809D01*
X110021714Y-130481152D02*
X111021714Y-130481152D01*
X110069333Y-130481152D02*
X110021714Y-130385914D01*
X110021714Y-130195438D01*
X110069333Y-130100200D01*
X110116952Y-130052580D01*
X110212190Y-130004961D01*
X110497904Y-130004961D01*
X110593142Y-130052580D01*
X110640761Y-130100200D01*
X110688380Y-130195438D01*
X110688380Y-130385914D01*
X110640761Y-130481152D01*
X110021714Y-129671628D02*
X110688380Y-129481152D01*
X110212190Y-129290676D01*
X110688380Y-129100200D01*
X110021714Y-128909723D01*
X110688380Y-128528771D02*
X110021714Y-128528771D01*
X110116952Y-128528771D02*
X110069333Y-128481152D01*
X110021714Y-128385914D01*
X110021714Y-128243057D01*
X110069333Y-128147819D01*
X110164571Y-128100200D01*
X110688380Y-128100200D01*
X110164571Y-128100200D02*
X110069333Y-128052580D01*
X110021714Y-127957342D01*
X110021714Y-127814485D01*
X110069333Y-127719247D01*
X110164571Y-127671628D01*
X110688380Y-127671628D01*
X109688380Y-127290676D02*
X109688380Y-126671628D01*
X110069333Y-127004961D01*
X110069333Y-126862104D01*
X110116952Y-126766866D01*
X110164571Y-126719247D01*
X110259809Y-126671628D01*
X110497904Y-126671628D01*
X110593142Y-126719247D01*
X110640761Y-126766866D01*
X110688380Y-126862104D01*
X110688380Y-127147819D01*
X110640761Y-127243057D01*
X110593142Y-127290676D01*
X107634114Y-130481152D02*
X108634114Y-130481152D01*
X107681733Y-130481152D02*
X107634114Y-130385914D01*
X107634114Y-130195438D01*
X107681733Y-130100200D01*
X107729352Y-130052580D01*
X107824590Y-130004961D01*
X108110304Y-130004961D01*
X108205542Y-130052580D01*
X108253161Y-130100200D01*
X108300780Y-130195438D01*
X108300780Y-130385914D01*
X108253161Y-130481152D01*
X107634114Y-129671628D02*
X108300780Y-129481152D01*
X107824590Y-129290676D01*
X108300780Y-129100200D01*
X107634114Y-128909723D01*
X108300780Y-128528771D02*
X107634114Y-128528771D01*
X107729352Y-128528771D02*
X107681733Y-128481152D01*
X107634114Y-128385914D01*
X107634114Y-128243057D01*
X107681733Y-128147819D01*
X107776971Y-128100200D01*
X108300780Y-128100200D01*
X107776971Y-128100200D02*
X107681733Y-128052580D01*
X107634114Y-127957342D01*
X107634114Y-127814485D01*
X107681733Y-127719247D01*
X107776971Y-127671628D01*
X108300780Y-127671628D01*
X107396019Y-127243057D02*
X107348400Y-127195438D01*
X107300780Y-127100200D01*
X107300780Y-126862104D01*
X107348400Y-126766866D01*
X107396019Y-126719247D01*
X107491257Y-126671628D01*
X107586495Y-126671628D01*
X107729352Y-126719247D01*
X108300780Y-127290676D01*
X108300780Y-126671628D01*
X105119514Y-130481152D02*
X106119514Y-130481152D01*
X105167133Y-130481152D02*
X105119514Y-130385914D01*
X105119514Y-130195438D01*
X105167133Y-130100200D01*
X105214752Y-130052580D01*
X105309990Y-130004961D01*
X105595704Y-130004961D01*
X105690942Y-130052580D01*
X105738561Y-130100200D01*
X105786180Y-130195438D01*
X105786180Y-130385914D01*
X105738561Y-130481152D01*
X105119514Y-129671628D02*
X105786180Y-129481152D01*
X105309990Y-129290676D01*
X105786180Y-129100200D01*
X105119514Y-128909723D01*
X105786180Y-128528771D02*
X105119514Y-128528771D01*
X105214752Y-128528771D02*
X105167133Y-128481152D01*
X105119514Y-128385914D01*
X105119514Y-128243057D01*
X105167133Y-128147819D01*
X105262371Y-128100200D01*
X105786180Y-128100200D01*
X105262371Y-128100200D02*
X105167133Y-128052580D01*
X105119514Y-127957342D01*
X105119514Y-127814485D01*
X105167133Y-127719247D01*
X105262371Y-127671628D01*
X105786180Y-127671628D01*
X105786180Y-126671628D02*
X105786180Y-127243057D01*
X105786180Y-126957342D02*
X104786180Y-126957342D01*
X104929038Y-127052580D01*
X105024276Y-127147819D01*
X105071895Y-127243057D01*
X116232561Y-121689761D02*
X116327800Y-121737380D01*
X116518276Y-121737380D01*
X116613514Y-121689761D01*
X116661133Y-121594523D01*
X116661133Y-121546904D01*
X116613514Y-121451666D01*
X116518276Y-121404047D01*
X116375419Y-121404047D01*
X116280180Y-121356428D01*
X116232561Y-121261190D01*
X116232561Y-121213571D01*
X116280180Y-121118333D01*
X116375419Y-121070714D01*
X116518276Y-121070714D01*
X116613514Y-121118333D01*
X116946847Y-121070714D02*
X117327800Y-121070714D01*
X117089704Y-120737380D02*
X117089704Y-121594523D01*
X117137323Y-121689761D01*
X117232561Y-121737380D01*
X117327800Y-121737380D01*
X117661133Y-121737380D02*
X117661133Y-121070714D01*
X117661133Y-121165952D02*
X117708752Y-121118333D01*
X117803990Y-121070714D01*
X117946847Y-121070714D01*
X118042085Y-121118333D01*
X118089704Y-121213571D01*
X118089704Y-121737380D01*
X118089704Y-121213571D02*
X118137323Y-121118333D01*
X118232561Y-121070714D01*
X118375419Y-121070714D01*
X118470657Y-121118333D01*
X118518276Y-121213571D01*
X118518276Y-121737380D01*
X118899228Y-120737380D02*
X119518276Y-120737380D01*
X119184942Y-121118333D01*
X119327800Y-121118333D01*
X119423038Y-121165952D01*
X119470657Y-121213571D01*
X119518276Y-121308809D01*
X119518276Y-121546904D01*
X119470657Y-121642142D01*
X119423038Y-121689761D01*
X119327800Y-121737380D01*
X119042085Y-121737380D01*
X118946847Y-121689761D01*
X118899228Y-121642142D01*
X119899228Y-120832619D02*
X119946847Y-120785000D01*
X120042085Y-120737380D01*
X120280180Y-120737380D01*
X120375419Y-120785000D01*
X120423038Y-120832619D01*
X120470657Y-120927857D01*
X120470657Y-121023095D01*
X120423038Y-121165952D01*
X119851609Y-121737380D01*
X120470657Y-121737380D01*
X120756371Y-121070714D02*
X121137323Y-121070714D01*
X120899228Y-121737380D02*
X120899228Y-120880238D01*
X120946847Y-120785000D01*
X121042085Y-120737380D01*
X121137323Y-120737380D01*
X121661133Y-120737380D02*
X121756371Y-120737380D01*
X121851609Y-120785000D01*
X121899228Y-120832619D01*
X121946847Y-120927857D01*
X121994466Y-121118333D01*
X121994466Y-121356428D01*
X121946847Y-121546904D01*
X121899228Y-121642142D01*
X121851609Y-121689761D01*
X121756371Y-121737380D01*
X121661133Y-121737380D01*
X121565895Y-121689761D01*
X121518276Y-121642142D01*
X121470657Y-121546904D01*
X121423038Y-121356428D01*
X121423038Y-121118333D01*
X121470657Y-120927857D01*
X121518276Y-120832619D01*
X121565895Y-120785000D01*
X121661133Y-120737380D01*
X122851609Y-121070714D02*
X122851609Y-121737380D01*
X122613514Y-120689761D02*
X122375419Y-121404047D01*
X122994466Y-121404047D01*
X123327800Y-120832619D02*
X123375419Y-120785000D01*
X123470657Y-120737380D01*
X123708752Y-120737380D01*
X123803990Y-120785000D01*
X123851609Y-120832619D01*
X123899228Y-120927857D01*
X123899228Y-121023095D01*
X123851609Y-121165952D01*
X123280180Y-121737380D01*
X123899228Y-121737380D01*
X124184942Y-121070714D02*
X124565895Y-121070714D01*
X124327800Y-121737380D02*
X124327800Y-120880238D01*
X124375419Y-120785000D01*
X124470657Y-120737380D01*
X124565895Y-120737380D01*
X125327800Y-120737380D02*
X125137323Y-120737380D01*
X125042085Y-120785000D01*
X124994466Y-120832619D01*
X124899228Y-120975476D01*
X124851609Y-121165952D01*
X124851609Y-121546904D01*
X124899228Y-121642142D01*
X124946847Y-121689761D01*
X125042085Y-121737380D01*
X125232561Y-121737380D01*
X125327800Y-121689761D01*
X125375419Y-121642142D01*
X125423038Y-121546904D01*
X125423038Y-121308809D01*
X125375419Y-121213571D01*
X125327800Y-121165952D01*
X125232561Y-121118333D01*
X125042085Y-121118333D01*
X124946847Y-121165952D01*
X124899228Y-121213571D01*
X124851609Y-121308809D01*
X113720642Y-126855480D02*
X113149214Y-126855480D01*
X113434928Y-126855480D02*
X113434928Y-125855480D01*
X113339690Y-125998338D01*
X113244452Y-126093576D01*
X113149214Y-126141195D01*
X114339690Y-125855480D02*
X114434928Y-125855480D01*
X114530166Y-125903100D01*
X114577785Y-125950719D01*
X114625404Y-126045957D01*
X114673023Y-126236433D01*
X114673023Y-126474528D01*
X114625404Y-126665004D01*
X114577785Y-126760242D01*
X114530166Y-126807861D01*
X114434928Y-126855480D01*
X114339690Y-126855480D01*
X114244452Y-126807861D01*
X114196833Y-126760242D01*
X114149214Y-126665004D01*
X114101595Y-126474528D01*
X114101595Y-126236433D01*
X114149214Y-126045957D01*
X114196833Y-125950719D01*
X114244452Y-125903100D01*
X114339690Y-125855480D01*
X115101595Y-126188814D02*
X115101595Y-126855480D01*
X115101595Y-126284052D02*
X115149214Y-126236433D01*
X115244452Y-126188814D01*
X115387309Y-126188814D01*
X115482547Y-126236433D01*
X115530166Y-126331671D01*
X115530166Y-126855480D01*
X113917433Y-119222780D02*
X113346004Y-119222780D01*
X113631719Y-119222780D02*
X113631719Y-118222780D01*
X113536480Y-118365638D01*
X113441242Y-118460876D01*
X113346004Y-118508495D01*
X114774576Y-118556114D02*
X114774576Y-119222780D01*
X114346004Y-118556114D02*
X114346004Y-119079923D01*
X114393623Y-119175161D01*
X114488861Y-119222780D01*
X114631719Y-119222780D01*
X114726957Y-119175161D01*
X114774576Y-119127542D01*
X114003295Y-108735880D02*
X114622342Y-108735880D01*
X114289009Y-109116833D01*
X114431866Y-109116833D01*
X114527104Y-109164452D01*
X114574723Y-109212071D01*
X114622342Y-109307309D01*
X114622342Y-109545404D01*
X114574723Y-109640642D01*
X114527104Y-109688261D01*
X114431866Y-109735880D01*
X114146152Y-109735880D01*
X114050914Y-109688261D01*
X114003295Y-109640642D01*
X115098533Y-109735880D02*
X115289009Y-109735880D01*
X115384247Y-109688261D01*
X115431866Y-109640642D01*
X115527104Y-109497785D01*
X115574723Y-109307309D01*
X115574723Y-108926357D01*
X115527104Y-108831119D01*
X115479485Y-108783500D01*
X115384247Y-108735880D01*
X115193771Y-108735880D01*
X115098533Y-108783500D01*
X115050914Y-108831119D01*
X115003295Y-108926357D01*
X115003295Y-109164452D01*
X115050914Y-109259690D01*
X115098533Y-109307309D01*
X115193771Y-109354928D01*
X115384247Y-109354928D01*
X115479485Y-109307309D01*
X115527104Y-109259690D01*
X115574723Y-109164452D01*
X116003295Y-109069214D02*
X116003295Y-109735880D01*
X116003295Y-109164452D02*
X116050914Y-109116833D01*
X116146152Y-109069214D01*
X116289009Y-109069214D01*
X116384247Y-109116833D01*
X116431866Y-109212071D01*
X116431866Y-109735880D01*
X120829509Y-109513714D02*
X120829509Y-110180380D01*
X120591414Y-109132761D02*
X120353319Y-109847047D01*
X120972366Y-109847047D01*
X121353319Y-110085142D02*
X121400938Y-110132761D01*
X121353319Y-110180380D01*
X121305700Y-110132761D01*
X121353319Y-110085142D01*
X121353319Y-110180380D01*
X121734271Y-109180380D02*
X122400938Y-109180380D01*
X121972366Y-110180380D01*
X123210461Y-109513714D02*
X123210461Y-110180380D01*
X122781890Y-109513714D02*
X122781890Y-110037523D01*
X122829509Y-110132761D01*
X122924747Y-110180380D01*
X123067604Y-110180380D01*
X123162842Y-110132761D01*
X123210461Y-110085142D01*
X103147904Y-121165880D02*
X103147904Y-120165880D01*
X103386000Y-120165880D01*
X103528857Y-120213500D01*
X103624095Y-120308738D01*
X103671714Y-120403976D01*
X103719333Y-120594452D01*
X103719333Y-120737309D01*
X103671714Y-120927785D01*
X103624095Y-121023023D01*
X103528857Y-121118261D01*
X103386000Y-121165880D01*
X103147904Y-121165880D01*
X104052666Y-120165880D02*
X104671714Y-120165880D01*
X104338380Y-120546833D01*
X104481238Y-120546833D01*
X104576476Y-120594452D01*
X104624095Y-120642071D01*
X104671714Y-120737309D01*
X104671714Y-120975404D01*
X104624095Y-121070642D01*
X104576476Y-121118261D01*
X104481238Y-121165880D01*
X104195523Y-121165880D01*
X104100285Y-121118261D01*
X104052666Y-121070642D01*
X103173304Y-118511580D02*
X103173304Y-117511580D01*
X103411400Y-117511580D01*
X103554257Y-117559200D01*
X103649495Y-117654438D01*
X103697114Y-117749676D01*
X103744733Y-117940152D01*
X103744733Y-118083009D01*
X103697114Y-118273485D01*
X103649495Y-118368723D01*
X103554257Y-118463961D01*
X103411400Y-118511580D01*
X103173304Y-118511580D01*
X104125685Y-117606819D02*
X104173304Y-117559200D01*
X104268542Y-117511580D01*
X104506638Y-117511580D01*
X104601876Y-117559200D01*
X104649495Y-117606819D01*
X104697114Y-117702057D01*
X104697114Y-117797295D01*
X104649495Y-117940152D01*
X104078066Y-118511580D01*
X104697114Y-118511580D01*
X103249504Y-116035080D02*
X103249504Y-115035080D01*
X103487600Y-115035080D01*
X103630457Y-115082700D01*
X103725695Y-115177938D01*
X103773314Y-115273176D01*
X103820933Y-115463652D01*
X103820933Y-115606509D01*
X103773314Y-115796985D01*
X103725695Y-115892223D01*
X103630457Y-115987461D01*
X103487600Y-116035080D01*
X103249504Y-116035080D01*
X104773314Y-116035080D02*
X104201885Y-116035080D01*
X104487600Y-116035080D02*
X104487600Y-115035080D01*
X104392361Y-115177938D01*
X104297123Y-115273176D01*
X104201885Y-115320795D01*
D11*
X124196504Y-101652319D02*
X124672695Y-101652319D01*
X124720314Y-101176128D01*
X124672695Y-101223747D01*
X124577457Y-101271366D01*
X124339361Y-101271366D01*
X124244123Y-101223747D01*
X124196504Y-101176128D01*
X124148885Y-101080890D01*
X124148885Y-100842795D01*
X124196504Y-100747557D01*
X124244123Y-100699938D01*
X124339361Y-100652319D01*
X124577457Y-100652319D01*
X124672695Y-100699938D01*
X124720314Y-100747557D01*
X127931776Y-101458685D02*
X127931776Y-100649161D01*
X127979395Y-100553923D01*
X128027014Y-100506304D01*
X128122252Y-100458685D01*
X128265109Y-100458685D01*
X128360347Y-100506304D01*
X127931776Y-100839638D02*
X128027014Y-100792019D01*
X128217490Y-100792019D01*
X128312728Y-100839638D01*
X128360347Y-100887257D01*
X128407966Y-100982495D01*
X128407966Y-101268209D01*
X128360347Y-101363447D01*
X128312728Y-101411066D01*
X128217490Y-101458685D01*
X128027014Y-101458685D01*
X127931776Y-101411066D01*
X127455585Y-101458685D02*
X127455585Y-100792019D01*
X127455585Y-101363447D02*
X127407966Y-101411066D01*
X127312728Y-101458685D01*
X127169871Y-101458685D01*
X127074633Y-101411066D01*
X127027014Y-101315828D01*
X127027014Y-100792019D01*
X126122252Y-100792019D02*
X126122252Y-101792019D01*
X126122252Y-100839638D02*
X126217490Y-100792019D01*
X126407966Y-100792019D01*
X126503204Y-100839638D01*
X126550823Y-100887257D01*
X126598442Y-100982495D01*
X126598442Y-101268209D01*
X126550823Y-101363447D01*
X126503204Y-101411066D01*
X126407966Y-101458685D01*
X126217490Y-101458685D01*
X126122252Y-101411066D01*
X122661276Y-101395185D02*
X122661276Y-100585661D01*
X122708895Y-100490423D01*
X122756514Y-100442804D01*
X122851752Y-100395185D01*
X122994609Y-100395185D01*
X123089847Y-100442804D01*
X122661276Y-100776138D02*
X122756514Y-100728519D01*
X122946990Y-100728519D01*
X123042228Y-100776138D01*
X123089847Y-100823757D01*
X123137466Y-100918995D01*
X123137466Y-101204709D01*
X123089847Y-101299947D01*
X123042228Y-101347566D01*
X122946990Y-101395185D01*
X122756514Y-101395185D01*
X122661276Y-101347566D01*
X122185085Y-101395185D02*
X122185085Y-100728519D01*
X122185085Y-101299947D02*
X122137466Y-101347566D01*
X122042228Y-101395185D01*
X121899371Y-101395185D01*
X121804133Y-101347566D01*
X121756514Y-101252328D01*
X121756514Y-100728519D01*
X120851752Y-100728519D02*
X120851752Y-101728519D01*
X120851752Y-100776138D02*
X120946990Y-100728519D01*
X121137466Y-100728519D01*
X121232704Y-100776138D01*
X121280323Y-100823757D01*
X121327942Y-100918995D01*
X121327942Y-101204709D01*
X121280323Y-101299947D01*
X121232704Y-101347566D01*
X121137466Y-101395185D01*
X120946990Y-101395185D01*
X120851752Y-101347566D01*
X120440319Y-101652319D02*
X119821271Y-101652319D01*
X120154604Y-101271366D01*
X120011747Y-101271366D01*
X119916509Y-101223747D01*
X119868890Y-101176128D01*
X119821271Y-101080890D01*
X119821271Y-100842795D01*
X119868890Y-100747557D01*
X119916509Y-100699938D01*
X120011747Y-100652319D01*
X120297461Y-100652319D01*
X120392700Y-100699938D01*
X120440319Y-100747557D01*
X119392700Y-100747557D02*
X119345080Y-100699938D01*
X119392700Y-100652319D01*
X119440319Y-100699938D01*
X119392700Y-100747557D01*
X119392700Y-100652319D01*
X119011747Y-101652319D02*
X118392700Y-101652319D01*
X118726033Y-101271366D01*
X118583176Y-101271366D01*
X118487938Y-101223747D01*
X118440319Y-101176128D01*
X118392700Y-101080890D01*
X118392700Y-100842795D01*
X118440319Y-100747557D01*
X118487938Y-100699938D01*
X118583176Y-100652319D01*
X118868890Y-100652319D01*
X118964128Y-100699938D01*
X119011747Y-100747557D01*
D10*
X130875114Y-99877476D02*
X131684638Y-99877476D01*
X131779876Y-99925095D01*
X131827495Y-99972714D01*
X131875114Y-100067952D01*
X131875114Y-100210809D01*
X131827495Y-100306047D01*
X131494161Y-99877476D02*
X131541780Y-99972714D01*
X131541780Y-100163190D01*
X131494161Y-100258428D01*
X131446542Y-100306047D01*
X131351304Y-100353666D01*
X131065590Y-100353666D01*
X130970352Y-100306047D01*
X130922733Y-100258428D01*
X130875114Y-100163190D01*
X130875114Y-99972714D01*
X130922733Y-99877476D01*
X130875114Y-99401285D02*
X131541780Y-99401285D01*
X130970352Y-99401285D02*
X130922733Y-99353666D01*
X130875114Y-99258428D01*
X130875114Y-99115571D01*
X130922733Y-99020333D01*
X131017971Y-98972714D01*
X131541780Y-98972714D01*
X131541780Y-98067952D02*
X130541780Y-98067952D01*
X131494161Y-98067952D02*
X131541780Y-98163190D01*
X131541780Y-98353666D01*
X131494161Y-98448904D01*
X131446542Y-98496523D01*
X131351304Y-98544142D01*
X131065590Y-98544142D01*
X130970352Y-98496523D01*
X130922733Y-98448904D01*
X130875114Y-98353666D01*
X130875114Y-98163190D01*
X130922733Y-98067952D01*
X145269128Y-98766380D02*
X145888176Y-98766380D01*
X145554842Y-99147333D01*
X145697700Y-99147333D01*
X145792938Y-99194952D01*
X145840557Y-99242571D01*
X145888176Y-99337809D01*
X145888176Y-99575904D01*
X145840557Y-99671142D01*
X145792938Y-99718761D01*
X145697700Y-99766380D01*
X145411985Y-99766380D01*
X145316747Y-99718761D01*
X145269128Y-99671142D01*
X146316747Y-99671142D02*
X146364366Y-99718761D01*
X146316747Y-99766380D01*
X146269128Y-99718761D01*
X146316747Y-99671142D01*
X146316747Y-99766380D01*
X146697700Y-98766380D02*
X147316747Y-98766380D01*
X146983414Y-99147333D01*
X147126271Y-99147333D01*
X147221509Y-99194952D01*
X147269128Y-99242571D01*
X147316747Y-99337809D01*
X147316747Y-99575904D01*
X147269128Y-99671142D01*
X147221509Y-99718761D01*
X147126271Y-99766380D01*
X146840557Y-99766380D01*
X146745319Y-99718761D01*
X146697700Y-99671142D01*
X147650080Y-99099714D02*
X147888176Y-99766380D01*
X148126271Y-99099714D01*
X140679538Y-103297266D02*
X140631919Y-103392504D01*
X140631919Y-103582980D01*
X140679538Y-103678219D01*
X140774776Y-103725838D01*
X140822395Y-103725838D01*
X140917633Y-103678219D01*
X140965252Y-103582980D01*
X140965252Y-103440123D01*
X141012871Y-103344885D01*
X141108109Y-103297266D01*
X141155728Y-103297266D01*
X141250966Y-103344885D01*
X141298585Y-103440123D01*
X141298585Y-103582980D01*
X141250966Y-103678219D01*
X141298585Y-104059171D02*
X140631919Y-104249647D01*
X141108109Y-104440123D01*
X140631919Y-104630600D01*
X141298585Y-104821076D01*
X140679538Y-105630600D02*
X140631919Y-105535361D01*
X140631919Y-105344885D01*
X140679538Y-105249647D01*
X140727157Y-105202028D01*
X140822395Y-105154409D01*
X141108109Y-105154409D01*
X141203347Y-105202028D01*
X141250966Y-105249647D01*
X141298585Y-105344885D01*
X141298585Y-105535361D01*
X141250966Y-105630600D01*
X140631919Y-106202028D02*
X140679538Y-106106790D01*
X140774776Y-106059171D01*
X141631919Y-106059171D01*
X140631919Y-106582980D02*
X141631919Y-106582980D01*
X141012871Y-106678219D02*
X140631919Y-106963933D01*
X141298585Y-106963933D02*
X140917633Y-106582980D01*
X143346538Y-103275047D02*
X143298919Y-103370285D01*
X143298919Y-103560761D01*
X143346538Y-103656000D01*
X143441776Y-103703619D01*
X143489395Y-103703619D01*
X143584633Y-103656000D01*
X143632252Y-103560761D01*
X143632252Y-103417904D01*
X143679871Y-103322666D01*
X143775109Y-103275047D01*
X143822728Y-103275047D01*
X143917966Y-103322666D01*
X143965585Y-103417904D01*
X143965585Y-103560761D01*
X143917966Y-103656000D01*
X143965585Y-104036952D02*
X143298919Y-104227428D01*
X143775109Y-104417904D01*
X143298919Y-104608380D01*
X143965585Y-104798857D01*
X143298919Y-105608380D02*
X144298919Y-105608380D01*
X143346538Y-105608380D02*
X143298919Y-105513142D01*
X143298919Y-105322666D01*
X143346538Y-105227428D01*
X143394157Y-105179809D01*
X143489395Y-105132190D01*
X143775109Y-105132190D01*
X143870347Y-105179809D01*
X143917966Y-105227428D01*
X143965585Y-105322666D01*
X143965585Y-105513142D01*
X143917966Y-105608380D01*
X143298919Y-106084571D02*
X143965585Y-106084571D01*
X144298919Y-106084571D02*
X144251300Y-106036952D01*
X144203680Y-106084571D01*
X144251300Y-106132190D01*
X144298919Y-106084571D01*
X144203680Y-106084571D01*
X143298919Y-106703619D02*
X143346538Y-106608380D01*
X143394157Y-106560761D01*
X143489395Y-106513142D01*
X143775109Y-106513142D01*
X143870347Y-106560761D01*
X143917966Y-106608380D01*
X143965585Y-106703619D01*
X143965585Y-106846476D01*
X143917966Y-106941714D01*
X143870347Y-106989333D01*
X143775109Y-107036952D01*
X143489395Y-107036952D01*
X143394157Y-106989333D01*
X143346538Y-106941714D01*
X143298919Y-106846476D01*
X143298919Y-106703619D01*
D12*
X149155233Y-99055180D02*
X148583804Y-99055180D01*
X148869519Y-99055180D02*
X148869519Y-98055180D01*
X148774280Y-98198038D01*
X148679042Y-98293276D01*
X148583804Y-98340895D01*
X149536185Y-98150419D02*
X149583804Y-98102800D01*
X149679042Y-98055180D01*
X149917138Y-98055180D01*
X150012376Y-98102800D01*
X150059995Y-98150419D01*
X150107614Y-98245657D01*
X150107614Y-98340895D01*
X150059995Y-98483752D01*
X149488566Y-99055180D01*
X150107614Y-99055180D01*
X150726661Y-98055180D02*
X150821900Y-98055180D01*
X150917138Y-98102800D01*
X150964757Y-98150419D01*
X151012376Y-98245657D01*
X151059995Y-98436133D01*
X151059995Y-98674228D01*
X151012376Y-98864704D01*
X150964757Y-98959942D01*
X150917138Y-99007561D01*
X150821900Y-99055180D01*
X150726661Y-99055180D01*
X150631423Y-99007561D01*
X150583804Y-98959942D01*
X150536185Y-98864704D01*
X150488566Y-98674228D01*
X150488566Y-98436133D01*
X150536185Y-98245657D01*
X150583804Y-98150419D01*
X150631423Y-98102800D01*
X150726661Y-98055180D01*
D10*
X152696823Y-105875080D02*
X152220633Y-105875080D01*
X152220633Y-104875080D01*
X152076185Y-100833180D02*
X152076185Y-99833180D01*
X152076185Y-100309371D02*
X152647614Y-100309371D01*
X152647614Y-100833180D02*
X152647614Y-99833180D01*
D13*
X118714759Y-103256000D02*
X118714759Y-103886000D01*
X118399759Y-103571000D02*
X119029759Y-103571000D01*
X125141000Y-105008000D02*
X125141000Y-105812000D01*
X125101000Y-104777000D02*
X125101000Y-106043000D01*
X125061000Y-104608000D02*
X125061000Y-106212000D01*
X125021000Y-104470000D02*
X125021000Y-106350000D01*
X124981000Y-104351000D02*
X124981000Y-106469000D01*
X124941000Y-104245000D02*
X124941000Y-106575000D01*
X124901000Y-104148000D02*
X124901000Y-106672000D01*
X124861000Y-104060000D02*
X124861000Y-106760000D01*
X124821000Y-103978000D02*
X124821000Y-106842000D01*
X124781000Y-103901000D02*
X124781000Y-106919000D01*
X124741000Y-103829000D02*
X124741000Y-106991000D01*
X124701000Y-103760000D02*
X124701000Y-107060000D01*
X124661000Y-103696000D02*
X124661000Y-107124000D01*
X124621000Y-103634000D02*
X124621000Y-107186000D01*
X124581000Y-103576000D02*
X124581000Y-107244000D01*
X124541000Y-103520000D02*
X124541000Y-107300000D01*
X124501000Y-103466000D02*
X124501000Y-107354000D01*
X124461000Y-103415000D02*
X124461000Y-107405000D01*
X124421000Y-103366000D02*
X124421000Y-107454000D01*
X124381000Y-103318000D02*
X124381000Y-107502000D01*
X124341000Y-103273000D02*
X124341000Y-107547000D01*
X124301000Y-103228000D02*
X124301000Y-107592000D01*
X124261000Y-103186000D02*
X124261000Y-107634000D01*
X124221000Y-103145000D02*
X124221000Y-107675000D01*
X124181000Y-106450000D02*
X124181000Y-107715000D01*
X124181000Y-103105000D02*
X124181000Y-104370000D01*
X124141000Y-106450000D02*
X124141000Y-107753000D01*
X124141000Y-103067000D02*
X124141000Y-104370000D01*
X124101000Y-106450000D02*
X124101000Y-107790000D01*
X124101000Y-103030000D02*
X124101000Y-104370000D01*
X124061000Y-106450000D02*
X124061000Y-107826000D01*
X124061000Y-102994000D02*
X124061000Y-104370000D01*
X124021000Y-106450000D02*
X124021000Y-107860000D01*
X124021000Y-102960000D02*
X124021000Y-104370000D01*
X123981000Y-106450000D02*
X123981000Y-107894000D01*
X123981000Y-102926000D02*
X123981000Y-104370000D01*
X123941000Y-106450000D02*
X123941000Y-107926000D01*
X123941000Y-102894000D02*
X123941000Y-104370000D01*
X123901000Y-106450000D02*
X123901000Y-107958000D01*
X123901000Y-102862000D02*
X123901000Y-104370000D01*
X123861000Y-106450000D02*
X123861000Y-107988000D01*
X123861000Y-102832000D02*
X123861000Y-104370000D01*
X123821000Y-106450000D02*
X123821000Y-108017000D01*
X123821000Y-102803000D02*
X123821000Y-104370000D01*
X123781000Y-106450000D02*
X123781000Y-108046000D01*
X123781000Y-102774000D02*
X123781000Y-104370000D01*
X123741000Y-106450000D02*
X123741000Y-108074000D01*
X123741000Y-102746000D02*
X123741000Y-104370000D01*
X123701000Y-106450000D02*
X123701000Y-108100000D01*
X123701000Y-102720000D02*
X123701000Y-104370000D01*
X123661000Y-106450000D02*
X123661000Y-108126000D01*
X123661000Y-102694000D02*
X123661000Y-104370000D01*
X123621000Y-106450000D02*
X123621000Y-108152000D01*
X123621000Y-102668000D02*
X123621000Y-104370000D01*
X123581000Y-106450000D02*
X123581000Y-108176000D01*
X123581000Y-102644000D02*
X123581000Y-104370000D01*
X123541000Y-106450000D02*
X123541000Y-108200000D01*
X123541000Y-102620000D02*
X123541000Y-104370000D01*
X123501000Y-106450000D02*
X123501000Y-108222000D01*
X123501000Y-102598000D02*
X123501000Y-104370000D01*
X123461000Y-106450000D02*
X123461000Y-108244000D01*
X123461000Y-102576000D02*
X123461000Y-104370000D01*
X123421000Y-106450000D02*
X123421000Y-108266000D01*
X123421000Y-102554000D02*
X123421000Y-104370000D01*
X123381000Y-106450000D02*
X123381000Y-108286000D01*
X123381000Y-102534000D02*
X123381000Y-104370000D01*
X123341000Y-106450000D02*
X123341000Y-108306000D01*
X123341000Y-102514000D02*
X123341000Y-104370000D01*
X123301000Y-106450000D02*
X123301000Y-108326000D01*
X123301000Y-102494000D02*
X123301000Y-104370000D01*
X123261000Y-106450000D02*
X123261000Y-108344000D01*
X123261000Y-102476000D02*
X123261000Y-104370000D01*
X123221000Y-106450000D02*
X123221000Y-108362000D01*
X123221000Y-102458000D02*
X123221000Y-104370000D01*
X123181000Y-106450000D02*
X123181000Y-108380000D01*
X123181000Y-102440000D02*
X123181000Y-104370000D01*
X123141000Y-106450000D02*
X123141000Y-108396000D01*
X123141000Y-102424000D02*
X123141000Y-104370000D01*
X123101000Y-106450000D02*
X123101000Y-108412000D01*
X123101000Y-102408000D02*
X123101000Y-104370000D01*
X123061000Y-106450000D02*
X123061000Y-108428000D01*
X123061000Y-102392000D02*
X123061000Y-104370000D01*
X123021000Y-106450000D02*
X123021000Y-108443000D01*
X123021000Y-102377000D02*
X123021000Y-104370000D01*
X122981000Y-106450000D02*
X122981000Y-108457000D01*
X122981000Y-102363000D02*
X122981000Y-104370000D01*
X122941000Y-106450000D02*
X122941000Y-108471000D01*
X122941000Y-102349000D02*
X122941000Y-104370000D01*
X122901000Y-106450000D02*
X122901000Y-108484000D01*
X122901000Y-102336000D02*
X122901000Y-104370000D01*
X122861000Y-106450000D02*
X122861000Y-108496000D01*
X122861000Y-102324000D02*
X122861000Y-104370000D01*
X122821000Y-106450000D02*
X122821000Y-108508000D01*
X122821000Y-102312000D02*
X122821000Y-104370000D01*
X122781000Y-106450000D02*
X122781000Y-108520000D01*
X122781000Y-102300000D02*
X122781000Y-104370000D01*
X122741000Y-106450000D02*
X122741000Y-108531000D01*
X122741000Y-102289000D02*
X122741000Y-104370000D01*
X122701000Y-106450000D02*
X122701000Y-108541000D01*
X122701000Y-102279000D02*
X122701000Y-104370000D01*
X122661000Y-106450000D02*
X122661000Y-108551000D01*
X122661000Y-102269000D02*
X122661000Y-104370000D01*
X122621000Y-106450000D02*
X122621000Y-108560000D01*
X122621000Y-102260000D02*
X122621000Y-104370000D01*
X122580000Y-106450000D02*
X122580000Y-108569000D01*
X122580000Y-102251000D02*
X122580000Y-104370000D01*
X122540000Y-106450000D02*
X122540000Y-108577000D01*
X122540000Y-102243000D02*
X122540000Y-104370000D01*
X122500000Y-106450000D02*
X122500000Y-108585000D01*
X122500000Y-102235000D02*
X122500000Y-104370000D01*
X122460000Y-106450000D02*
X122460000Y-108592000D01*
X122460000Y-102228000D02*
X122460000Y-104370000D01*
X122420000Y-106450000D02*
X122420000Y-108599000D01*
X122420000Y-102221000D02*
X122420000Y-104370000D01*
X122380000Y-106450000D02*
X122380000Y-108605000D01*
X122380000Y-102215000D02*
X122380000Y-104370000D01*
X122340000Y-106450000D02*
X122340000Y-108611000D01*
X122340000Y-102209000D02*
X122340000Y-104370000D01*
X122300000Y-106450000D02*
X122300000Y-108616000D01*
X122300000Y-102204000D02*
X122300000Y-104370000D01*
X122260000Y-106450000D02*
X122260000Y-108621000D01*
X122260000Y-102199000D02*
X122260000Y-104370000D01*
X122220000Y-106450000D02*
X122220000Y-108625000D01*
X122220000Y-102195000D02*
X122220000Y-104370000D01*
X122180000Y-106450000D02*
X122180000Y-108628000D01*
X122180000Y-102192000D02*
X122180000Y-104370000D01*
X122140000Y-106450000D02*
X122140000Y-108632000D01*
X122140000Y-102188000D02*
X122140000Y-104370000D01*
X122100000Y-102186000D02*
X122100000Y-108634000D01*
X122060000Y-102183000D02*
X122060000Y-108637000D01*
X122020000Y-102182000D02*
X122020000Y-108638000D01*
X121980000Y-102180000D02*
X121980000Y-108640000D01*
X121940000Y-102180000D02*
X121940000Y-108640000D01*
X121900000Y-102180000D02*
X121900000Y-108640000D01*
X125170000Y-105410000D02*
G75*
G03X125170000Y-105410000I-3270000J0D01*
G01*
X131540000Y-114240000D02*
G75*
G03X131540000Y-114240000I-3270000J0D01*
G01*
X131500000Y-114240000D02*
X125040000Y-114240000D01*
X131500000Y-114280000D02*
X125040000Y-114280000D01*
X131500000Y-114320000D02*
X125040000Y-114320000D01*
X131498000Y-114360000D02*
X125042000Y-114360000D01*
X131497000Y-114400000D02*
X125043000Y-114400000D01*
X131494000Y-114440000D02*
X125046000Y-114440000D01*
X131492000Y-114480000D02*
X129310000Y-114480000D01*
X127230000Y-114480000D02*
X125048000Y-114480000D01*
X131488000Y-114520000D02*
X129310000Y-114520000D01*
X127230000Y-114520000D02*
X125052000Y-114520000D01*
X131485000Y-114560000D02*
X129310000Y-114560000D01*
X127230000Y-114560000D02*
X125055000Y-114560000D01*
X131481000Y-114600000D02*
X129310000Y-114600000D01*
X127230000Y-114600000D02*
X125059000Y-114600000D01*
X131476000Y-114640000D02*
X129310000Y-114640000D01*
X127230000Y-114640000D02*
X125064000Y-114640000D01*
X131471000Y-114680000D02*
X129310000Y-114680000D01*
X127230000Y-114680000D02*
X125069000Y-114680000D01*
X131465000Y-114720000D02*
X129310000Y-114720000D01*
X127230000Y-114720000D02*
X125075000Y-114720000D01*
X131459000Y-114760000D02*
X129310000Y-114760000D01*
X127230000Y-114760000D02*
X125081000Y-114760000D01*
X131452000Y-114800000D02*
X129310000Y-114800000D01*
X127230000Y-114800000D02*
X125088000Y-114800000D01*
X131445000Y-114840000D02*
X129310000Y-114840000D01*
X127230000Y-114840000D02*
X125095000Y-114840000D01*
X131437000Y-114880000D02*
X129310000Y-114880000D01*
X127230000Y-114880000D02*
X125103000Y-114880000D01*
X131429000Y-114920000D02*
X129310000Y-114920000D01*
X127230000Y-114920000D02*
X125111000Y-114920000D01*
X131420000Y-114961000D02*
X129310000Y-114961000D01*
X127230000Y-114961000D02*
X125120000Y-114961000D01*
X131411000Y-115001000D02*
X129310000Y-115001000D01*
X127230000Y-115001000D02*
X125129000Y-115001000D01*
X131401000Y-115041000D02*
X129310000Y-115041000D01*
X127230000Y-115041000D02*
X125139000Y-115041000D01*
X131391000Y-115081000D02*
X129310000Y-115081000D01*
X127230000Y-115081000D02*
X125149000Y-115081000D01*
X131380000Y-115121000D02*
X129310000Y-115121000D01*
X127230000Y-115121000D02*
X125160000Y-115121000D01*
X131368000Y-115161000D02*
X129310000Y-115161000D01*
X127230000Y-115161000D02*
X125172000Y-115161000D01*
X131356000Y-115201000D02*
X129310000Y-115201000D01*
X127230000Y-115201000D02*
X125184000Y-115201000D01*
X131344000Y-115241000D02*
X129310000Y-115241000D01*
X127230000Y-115241000D02*
X125196000Y-115241000D01*
X131331000Y-115281000D02*
X129310000Y-115281000D01*
X127230000Y-115281000D02*
X125209000Y-115281000D01*
X131317000Y-115321000D02*
X129310000Y-115321000D01*
X127230000Y-115321000D02*
X125223000Y-115321000D01*
X131303000Y-115361000D02*
X129310000Y-115361000D01*
X127230000Y-115361000D02*
X125237000Y-115361000D01*
X131288000Y-115401000D02*
X129310000Y-115401000D01*
X127230000Y-115401000D02*
X125252000Y-115401000D01*
X131272000Y-115441000D02*
X129310000Y-115441000D01*
X127230000Y-115441000D02*
X125268000Y-115441000D01*
X131256000Y-115481000D02*
X129310000Y-115481000D01*
X127230000Y-115481000D02*
X125284000Y-115481000D01*
X131240000Y-115521000D02*
X129310000Y-115521000D01*
X127230000Y-115521000D02*
X125300000Y-115521000D01*
X131222000Y-115561000D02*
X129310000Y-115561000D01*
X127230000Y-115561000D02*
X125318000Y-115561000D01*
X131204000Y-115601000D02*
X129310000Y-115601000D01*
X127230000Y-115601000D02*
X125336000Y-115601000D01*
X131186000Y-115641000D02*
X129310000Y-115641000D01*
X127230000Y-115641000D02*
X125354000Y-115641000D01*
X131166000Y-115681000D02*
X129310000Y-115681000D01*
X127230000Y-115681000D02*
X125374000Y-115681000D01*
X131146000Y-115721000D02*
X129310000Y-115721000D01*
X127230000Y-115721000D02*
X125394000Y-115721000D01*
X131126000Y-115761000D02*
X129310000Y-115761000D01*
X127230000Y-115761000D02*
X125414000Y-115761000D01*
X131104000Y-115801000D02*
X129310000Y-115801000D01*
X127230000Y-115801000D02*
X125436000Y-115801000D01*
X131082000Y-115841000D02*
X129310000Y-115841000D01*
X127230000Y-115841000D02*
X125458000Y-115841000D01*
X131060000Y-115881000D02*
X129310000Y-115881000D01*
X127230000Y-115881000D02*
X125480000Y-115881000D01*
X131036000Y-115921000D02*
X129310000Y-115921000D01*
X127230000Y-115921000D02*
X125504000Y-115921000D01*
X131012000Y-115961000D02*
X129310000Y-115961000D01*
X127230000Y-115961000D02*
X125528000Y-115961000D01*
X130986000Y-116001000D02*
X129310000Y-116001000D01*
X127230000Y-116001000D02*
X125554000Y-116001000D01*
X130960000Y-116041000D02*
X129310000Y-116041000D01*
X127230000Y-116041000D02*
X125580000Y-116041000D01*
X130934000Y-116081000D02*
X129310000Y-116081000D01*
X127230000Y-116081000D02*
X125606000Y-116081000D01*
X130906000Y-116121000D02*
X129310000Y-116121000D01*
X127230000Y-116121000D02*
X125634000Y-116121000D01*
X130877000Y-116161000D02*
X129310000Y-116161000D01*
X127230000Y-116161000D02*
X125663000Y-116161000D01*
X130848000Y-116201000D02*
X129310000Y-116201000D01*
X127230000Y-116201000D02*
X125692000Y-116201000D01*
X130818000Y-116241000D02*
X129310000Y-116241000D01*
X127230000Y-116241000D02*
X125722000Y-116241000D01*
X130786000Y-116281000D02*
X129310000Y-116281000D01*
X127230000Y-116281000D02*
X125754000Y-116281000D01*
X130754000Y-116321000D02*
X129310000Y-116321000D01*
X127230000Y-116321000D02*
X125786000Y-116321000D01*
X130720000Y-116361000D02*
X129310000Y-116361000D01*
X127230000Y-116361000D02*
X125820000Y-116361000D01*
X130686000Y-116401000D02*
X129310000Y-116401000D01*
X127230000Y-116401000D02*
X125854000Y-116401000D01*
X130650000Y-116441000D02*
X129310000Y-116441000D01*
X127230000Y-116441000D02*
X125890000Y-116441000D01*
X130613000Y-116481000D02*
X129310000Y-116481000D01*
X127230000Y-116481000D02*
X125927000Y-116481000D01*
X130575000Y-116521000D02*
X129310000Y-116521000D01*
X127230000Y-116521000D02*
X125965000Y-116521000D01*
X130535000Y-116561000D02*
X126005000Y-116561000D01*
X130494000Y-116601000D02*
X126046000Y-116601000D01*
X130452000Y-116641000D02*
X126088000Y-116641000D01*
X130407000Y-116681000D02*
X126133000Y-116681000D01*
X130362000Y-116721000D02*
X126178000Y-116721000D01*
X130314000Y-116761000D02*
X126226000Y-116761000D01*
X130265000Y-116801000D02*
X126275000Y-116801000D01*
X130214000Y-116841000D02*
X126326000Y-116841000D01*
X130160000Y-116881000D02*
X126380000Y-116881000D01*
X130104000Y-116921000D02*
X126436000Y-116921000D01*
X130046000Y-116961000D02*
X126494000Y-116961000D01*
X129984000Y-117001000D02*
X126556000Y-117001000D01*
X129920000Y-117041000D02*
X126620000Y-117041000D01*
X129851000Y-117081000D02*
X126689000Y-117081000D01*
X129779000Y-117121000D02*
X126761000Y-117121000D01*
X129702000Y-117161000D02*
X126838000Y-117161000D01*
X129620000Y-117201000D02*
X126920000Y-117201000D01*
X129532000Y-117241000D02*
X127008000Y-117241000D01*
X129435000Y-117281000D02*
X127105000Y-117281000D01*
X129329000Y-117321000D02*
X127211000Y-117321000D01*
X129210000Y-117361000D02*
X127330000Y-117361000D01*
X129072000Y-117401000D02*
X127468000Y-117401000D01*
X128903000Y-117441000D02*
X127637000Y-117441000D01*
X128672000Y-117481000D02*
X127868000Y-117481000D01*
X130109000Y-110739759D02*
X130109000Y-111369759D01*
X130424000Y-111054759D02*
X129794000Y-111054759D01*
X135264759Y-128656000D02*
X135264759Y-129286000D01*
X134949759Y-128971000D02*
X135579759Y-128971000D01*
X141691000Y-130408000D02*
X141691000Y-131212000D01*
X141651000Y-130177000D02*
X141651000Y-131443000D01*
X141611000Y-130008000D02*
X141611000Y-131612000D01*
X141571000Y-129870000D02*
X141571000Y-131750000D01*
X141531000Y-129751000D02*
X141531000Y-131869000D01*
X141491000Y-129645000D02*
X141491000Y-131975000D01*
X141451000Y-129548000D02*
X141451000Y-132072000D01*
X141411000Y-129460000D02*
X141411000Y-132160000D01*
X141371000Y-129378000D02*
X141371000Y-132242000D01*
X141331000Y-129301000D02*
X141331000Y-132319000D01*
X141291000Y-129229000D02*
X141291000Y-132391000D01*
X141251000Y-129160000D02*
X141251000Y-132460000D01*
X141211000Y-129096000D02*
X141211000Y-132524000D01*
X141171000Y-129034000D02*
X141171000Y-132586000D01*
X141131000Y-128976000D02*
X141131000Y-132644000D01*
X141091000Y-128920000D02*
X141091000Y-132700000D01*
X141051000Y-128866000D02*
X141051000Y-132754000D01*
X141011000Y-128815000D02*
X141011000Y-132805000D01*
X140971000Y-128766000D02*
X140971000Y-132854000D01*
X140931000Y-128718000D02*
X140931000Y-132902000D01*
X140891000Y-128673000D02*
X140891000Y-132947000D01*
X140851000Y-128628000D02*
X140851000Y-132992000D01*
X140811000Y-128586000D02*
X140811000Y-133034000D01*
X140771000Y-128545000D02*
X140771000Y-133075000D01*
X140731000Y-131850000D02*
X140731000Y-133115000D01*
X140731000Y-128505000D02*
X140731000Y-129770000D01*
X140691000Y-131850000D02*
X140691000Y-133153000D01*
X140691000Y-128467000D02*
X140691000Y-129770000D01*
X140651000Y-131850000D02*
X140651000Y-133190000D01*
X140651000Y-128430000D02*
X140651000Y-129770000D01*
X140611000Y-131850000D02*
X140611000Y-133226000D01*
X140611000Y-128394000D02*
X140611000Y-129770000D01*
X140571000Y-131850000D02*
X140571000Y-133260000D01*
X140571000Y-128360000D02*
X140571000Y-129770000D01*
X140531000Y-131850000D02*
X140531000Y-133294000D01*
X140531000Y-128326000D02*
X140531000Y-129770000D01*
X140491000Y-131850000D02*
X140491000Y-133326000D01*
X140491000Y-128294000D02*
X140491000Y-129770000D01*
X140451000Y-131850000D02*
X140451000Y-133358000D01*
X140451000Y-128262000D02*
X140451000Y-129770000D01*
X140411000Y-131850000D02*
X140411000Y-133388000D01*
X140411000Y-128232000D02*
X140411000Y-129770000D01*
X140371000Y-131850000D02*
X140371000Y-133417000D01*
X140371000Y-128203000D02*
X140371000Y-129770000D01*
X140331000Y-131850000D02*
X140331000Y-133446000D01*
X140331000Y-128174000D02*
X140331000Y-129770000D01*
X140291000Y-131850000D02*
X140291000Y-133474000D01*
X140291000Y-128146000D02*
X140291000Y-129770000D01*
X140251000Y-131850000D02*
X140251000Y-133500000D01*
X140251000Y-128120000D02*
X140251000Y-129770000D01*
X140211000Y-131850000D02*
X140211000Y-133526000D01*
X140211000Y-128094000D02*
X140211000Y-129770000D01*
X140171000Y-131850000D02*
X140171000Y-133552000D01*
X140171000Y-128068000D02*
X140171000Y-129770000D01*
X140131000Y-131850000D02*
X140131000Y-133576000D01*
X140131000Y-128044000D02*
X140131000Y-129770000D01*
X140091000Y-131850000D02*
X140091000Y-133600000D01*
X140091000Y-128020000D02*
X140091000Y-129770000D01*
X140051000Y-131850000D02*
X140051000Y-133622000D01*
X140051000Y-127998000D02*
X140051000Y-129770000D01*
X140011000Y-131850000D02*
X140011000Y-133644000D01*
X140011000Y-127976000D02*
X140011000Y-129770000D01*
X139971000Y-131850000D02*
X139971000Y-133666000D01*
X139971000Y-127954000D02*
X139971000Y-129770000D01*
X139931000Y-131850000D02*
X139931000Y-133686000D01*
X139931000Y-127934000D02*
X139931000Y-129770000D01*
X139891000Y-131850000D02*
X139891000Y-133706000D01*
X139891000Y-127914000D02*
X139891000Y-129770000D01*
X139851000Y-131850000D02*
X139851000Y-133726000D01*
X139851000Y-127894000D02*
X139851000Y-129770000D01*
X139811000Y-131850000D02*
X139811000Y-133744000D01*
X139811000Y-127876000D02*
X139811000Y-129770000D01*
X139771000Y-131850000D02*
X139771000Y-133762000D01*
X139771000Y-127858000D02*
X139771000Y-129770000D01*
X139731000Y-131850000D02*
X139731000Y-133780000D01*
X139731000Y-127840000D02*
X139731000Y-129770000D01*
X139691000Y-131850000D02*
X139691000Y-133796000D01*
X139691000Y-127824000D02*
X139691000Y-129770000D01*
X139651000Y-131850000D02*
X139651000Y-133812000D01*
X139651000Y-127808000D02*
X139651000Y-129770000D01*
X139611000Y-131850000D02*
X139611000Y-133828000D01*
X139611000Y-127792000D02*
X139611000Y-129770000D01*
X139571000Y-131850000D02*
X139571000Y-133843000D01*
X139571000Y-127777000D02*
X139571000Y-129770000D01*
X139531000Y-131850000D02*
X139531000Y-133857000D01*
X139531000Y-127763000D02*
X139531000Y-129770000D01*
X139491000Y-131850000D02*
X139491000Y-133871000D01*
X139491000Y-127749000D02*
X139491000Y-129770000D01*
X139451000Y-131850000D02*
X139451000Y-133884000D01*
X139451000Y-127736000D02*
X139451000Y-129770000D01*
X139411000Y-131850000D02*
X139411000Y-133896000D01*
X139411000Y-127724000D02*
X139411000Y-129770000D01*
X139371000Y-131850000D02*
X139371000Y-133908000D01*
X139371000Y-127712000D02*
X139371000Y-129770000D01*
X139331000Y-131850000D02*
X139331000Y-133920000D01*
X139331000Y-127700000D02*
X139331000Y-129770000D01*
X139291000Y-131850000D02*
X139291000Y-133931000D01*
X139291000Y-127689000D02*
X139291000Y-129770000D01*
X139251000Y-131850000D02*
X139251000Y-133941000D01*
X139251000Y-127679000D02*
X139251000Y-129770000D01*
X139211000Y-131850000D02*
X139211000Y-133951000D01*
X139211000Y-127669000D02*
X139211000Y-129770000D01*
X139171000Y-131850000D02*
X139171000Y-133960000D01*
X139171000Y-127660000D02*
X139171000Y-129770000D01*
X139130000Y-131850000D02*
X139130000Y-133969000D01*
X139130000Y-127651000D02*
X139130000Y-129770000D01*
X139090000Y-131850000D02*
X139090000Y-133977000D01*
X139090000Y-127643000D02*
X139090000Y-129770000D01*
X139050000Y-131850000D02*
X139050000Y-133985000D01*
X139050000Y-127635000D02*
X139050000Y-129770000D01*
X139010000Y-131850000D02*
X139010000Y-133992000D01*
X139010000Y-127628000D02*
X139010000Y-129770000D01*
X138970000Y-131850000D02*
X138970000Y-133999000D01*
X138970000Y-127621000D02*
X138970000Y-129770000D01*
X138930000Y-131850000D02*
X138930000Y-134005000D01*
X138930000Y-127615000D02*
X138930000Y-129770000D01*
X138890000Y-131850000D02*
X138890000Y-134011000D01*
X138890000Y-127609000D02*
X138890000Y-129770000D01*
X138850000Y-131850000D02*
X138850000Y-134016000D01*
X138850000Y-127604000D02*
X138850000Y-129770000D01*
X138810000Y-131850000D02*
X138810000Y-134021000D01*
X138810000Y-127599000D02*
X138810000Y-129770000D01*
X138770000Y-131850000D02*
X138770000Y-134025000D01*
X138770000Y-127595000D02*
X138770000Y-129770000D01*
X138730000Y-131850000D02*
X138730000Y-134028000D01*
X138730000Y-127592000D02*
X138730000Y-129770000D01*
X138690000Y-131850000D02*
X138690000Y-134032000D01*
X138690000Y-127588000D02*
X138690000Y-129770000D01*
X138650000Y-127586000D02*
X138650000Y-134034000D01*
X138610000Y-127583000D02*
X138610000Y-134037000D01*
X138570000Y-127582000D02*
X138570000Y-134038000D01*
X138530000Y-127580000D02*
X138530000Y-134040000D01*
X138490000Y-127580000D02*
X138490000Y-134040000D01*
X138450000Y-127580000D02*
X138450000Y-134040000D01*
X141720000Y-130810000D02*
G75*
G03X141720000Y-130810000I-3270000J0D01*
G01*
X134100000Y-129540000D02*
G75*
G03X134100000Y-129540000I-3270000J0D01*
G01*
X130830000Y-126310000D02*
X130830000Y-132770000D01*
X130870000Y-126310000D02*
X130870000Y-132770000D01*
X130910000Y-126310000D02*
X130910000Y-132770000D01*
X130950000Y-126312000D02*
X130950000Y-132768000D01*
X130990000Y-126313000D02*
X130990000Y-132767000D01*
X131030000Y-126316000D02*
X131030000Y-132764000D01*
X131070000Y-126318000D02*
X131070000Y-128500000D01*
X131070000Y-130580000D02*
X131070000Y-132762000D01*
X131110000Y-126322000D02*
X131110000Y-128500000D01*
X131110000Y-130580000D02*
X131110000Y-132758000D01*
X131150000Y-126325000D02*
X131150000Y-128500000D01*
X131150000Y-130580000D02*
X131150000Y-132755000D01*
X131190000Y-126329000D02*
X131190000Y-128500000D01*
X131190000Y-130580000D02*
X131190000Y-132751000D01*
X131230000Y-126334000D02*
X131230000Y-128500000D01*
X131230000Y-130580000D02*
X131230000Y-132746000D01*
X131270000Y-126339000D02*
X131270000Y-128500000D01*
X131270000Y-130580000D02*
X131270000Y-132741000D01*
X131310000Y-126345000D02*
X131310000Y-128500000D01*
X131310000Y-130580000D02*
X131310000Y-132735000D01*
X131350000Y-126351000D02*
X131350000Y-128500000D01*
X131350000Y-130580000D02*
X131350000Y-132729000D01*
X131390000Y-126358000D02*
X131390000Y-128500000D01*
X131390000Y-130580000D02*
X131390000Y-132722000D01*
X131430000Y-126365000D02*
X131430000Y-128500000D01*
X131430000Y-130580000D02*
X131430000Y-132715000D01*
X131470000Y-126373000D02*
X131470000Y-128500000D01*
X131470000Y-130580000D02*
X131470000Y-132707000D01*
X131510000Y-126381000D02*
X131510000Y-128500000D01*
X131510000Y-130580000D02*
X131510000Y-132699000D01*
X131551000Y-126390000D02*
X131551000Y-128500000D01*
X131551000Y-130580000D02*
X131551000Y-132690000D01*
X131591000Y-126399000D02*
X131591000Y-128500000D01*
X131591000Y-130580000D02*
X131591000Y-132681000D01*
X131631000Y-126409000D02*
X131631000Y-128500000D01*
X131631000Y-130580000D02*
X131631000Y-132671000D01*
X131671000Y-126419000D02*
X131671000Y-128500000D01*
X131671000Y-130580000D02*
X131671000Y-132661000D01*
X131711000Y-126430000D02*
X131711000Y-128500000D01*
X131711000Y-130580000D02*
X131711000Y-132650000D01*
X131751000Y-126442000D02*
X131751000Y-128500000D01*
X131751000Y-130580000D02*
X131751000Y-132638000D01*
X131791000Y-126454000D02*
X131791000Y-128500000D01*
X131791000Y-130580000D02*
X131791000Y-132626000D01*
X131831000Y-126466000D02*
X131831000Y-128500000D01*
X131831000Y-130580000D02*
X131831000Y-132614000D01*
X131871000Y-126479000D02*
X131871000Y-128500000D01*
X131871000Y-130580000D02*
X131871000Y-132601000D01*
X131911000Y-126493000D02*
X131911000Y-128500000D01*
X131911000Y-130580000D02*
X131911000Y-132587000D01*
X131951000Y-126507000D02*
X131951000Y-128500000D01*
X131951000Y-130580000D02*
X131951000Y-132573000D01*
X131991000Y-126522000D02*
X131991000Y-128500000D01*
X131991000Y-130580000D02*
X131991000Y-132558000D01*
X132031000Y-126538000D02*
X132031000Y-128500000D01*
X132031000Y-130580000D02*
X132031000Y-132542000D01*
X132071000Y-126554000D02*
X132071000Y-128500000D01*
X132071000Y-130580000D02*
X132071000Y-132526000D01*
X132111000Y-126570000D02*
X132111000Y-128500000D01*
X132111000Y-130580000D02*
X132111000Y-132510000D01*
X132151000Y-126588000D02*
X132151000Y-128500000D01*
X132151000Y-130580000D02*
X132151000Y-132492000D01*
X132191000Y-126606000D02*
X132191000Y-128500000D01*
X132191000Y-130580000D02*
X132191000Y-132474000D01*
X132231000Y-126624000D02*
X132231000Y-128500000D01*
X132231000Y-130580000D02*
X132231000Y-132456000D01*
X132271000Y-126644000D02*
X132271000Y-128500000D01*
X132271000Y-130580000D02*
X132271000Y-132436000D01*
X132311000Y-126664000D02*
X132311000Y-128500000D01*
X132311000Y-130580000D02*
X132311000Y-132416000D01*
X132351000Y-126684000D02*
X132351000Y-128500000D01*
X132351000Y-130580000D02*
X132351000Y-132396000D01*
X132391000Y-126706000D02*
X132391000Y-128500000D01*
X132391000Y-130580000D02*
X132391000Y-132374000D01*
X132431000Y-126728000D02*
X132431000Y-128500000D01*
X132431000Y-130580000D02*
X132431000Y-132352000D01*
X132471000Y-126750000D02*
X132471000Y-128500000D01*
X132471000Y-130580000D02*
X132471000Y-132330000D01*
X132511000Y-126774000D02*
X132511000Y-128500000D01*
X132511000Y-130580000D02*
X132511000Y-132306000D01*
X132551000Y-126798000D02*
X132551000Y-128500000D01*
X132551000Y-130580000D02*
X132551000Y-132282000D01*
X132591000Y-126824000D02*
X132591000Y-128500000D01*
X132591000Y-130580000D02*
X132591000Y-132256000D01*
X132631000Y-126850000D02*
X132631000Y-128500000D01*
X132631000Y-130580000D02*
X132631000Y-132230000D01*
X132671000Y-126876000D02*
X132671000Y-128500000D01*
X132671000Y-130580000D02*
X132671000Y-132204000D01*
X132711000Y-126904000D02*
X132711000Y-128500000D01*
X132711000Y-130580000D02*
X132711000Y-132176000D01*
X132751000Y-126933000D02*
X132751000Y-128500000D01*
X132751000Y-130580000D02*
X132751000Y-132147000D01*
X132791000Y-126962000D02*
X132791000Y-128500000D01*
X132791000Y-130580000D02*
X132791000Y-132118000D01*
X132831000Y-126992000D02*
X132831000Y-128500000D01*
X132831000Y-130580000D02*
X132831000Y-132088000D01*
X132871000Y-127024000D02*
X132871000Y-128500000D01*
X132871000Y-130580000D02*
X132871000Y-132056000D01*
X132911000Y-127056000D02*
X132911000Y-128500000D01*
X132911000Y-130580000D02*
X132911000Y-132024000D01*
X132951000Y-127090000D02*
X132951000Y-128500000D01*
X132951000Y-130580000D02*
X132951000Y-131990000D01*
X132991000Y-127124000D02*
X132991000Y-128500000D01*
X132991000Y-130580000D02*
X132991000Y-131956000D01*
X133031000Y-127160000D02*
X133031000Y-128500000D01*
X133031000Y-130580000D02*
X133031000Y-131920000D01*
X133071000Y-127197000D02*
X133071000Y-128500000D01*
X133071000Y-130580000D02*
X133071000Y-131883000D01*
X133111000Y-127235000D02*
X133111000Y-128500000D01*
X133111000Y-130580000D02*
X133111000Y-131845000D01*
X133151000Y-127275000D02*
X133151000Y-131805000D01*
X133191000Y-127316000D02*
X133191000Y-131764000D01*
X133231000Y-127358000D02*
X133231000Y-131722000D01*
X133271000Y-127403000D02*
X133271000Y-131677000D01*
X133311000Y-127448000D02*
X133311000Y-131632000D01*
X133351000Y-127496000D02*
X133351000Y-131584000D01*
X133391000Y-127545000D02*
X133391000Y-131535000D01*
X133431000Y-127596000D02*
X133431000Y-131484000D01*
X133471000Y-127650000D02*
X133471000Y-131430000D01*
X133511000Y-127706000D02*
X133511000Y-131374000D01*
X133551000Y-127764000D02*
X133551000Y-131316000D01*
X133591000Y-127826000D02*
X133591000Y-131254000D01*
X133631000Y-127890000D02*
X133631000Y-131190000D01*
X133671000Y-127959000D02*
X133671000Y-131121000D01*
X133711000Y-128031000D02*
X133711000Y-131049000D01*
X133751000Y-128108000D02*
X133751000Y-130972000D01*
X133791000Y-128190000D02*
X133791000Y-130890000D01*
X133831000Y-128278000D02*
X133831000Y-130802000D01*
X133871000Y-128375000D02*
X133871000Y-130705000D01*
X133911000Y-128481000D02*
X133911000Y-130599000D01*
X133951000Y-128600000D02*
X133951000Y-130480000D01*
X133991000Y-128738000D02*
X133991000Y-130342000D01*
X134031000Y-128907000D02*
X134031000Y-130173000D01*
X134071000Y-129138000D02*
X134071000Y-129942000D01*
X127329759Y-127701000D02*
X127959759Y-127701000D01*
X127644759Y-127386000D02*
X127644759Y-128016000D01*
X126374759Y-119766000D02*
X126374759Y-120396000D01*
X126059759Y-120081000D02*
X126689759Y-120081000D01*
X132801000Y-121518000D02*
X132801000Y-122322000D01*
X132761000Y-121287000D02*
X132761000Y-122553000D01*
X132721000Y-121118000D02*
X132721000Y-122722000D01*
X132681000Y-120980000D02*
X132681000Y-122860000D01*
X132641000Y-120861000D02*
X132641000Y-122979000D01*
X132601000Y-120755000D02*
X132601000Y-123085000D01*
X132561000Y-120658000D02*
X132561000Y-123182000D01*
X132521000Y-120570000D02*
X132521000Y-123270000D01*
X132481000Y-120488000D02*
X132481000Y-123352000D01*
X132441000Y-120411000D02*
X132441000Y-123429000D01*
X132401000Y-120339000D02*
X132401000Y-123501000D01*
X132361000Y-120270000D02*
X132361000Y-123570000D01*
X132321000Y-120206000D02*
X132321000Y-123634000D01*
X132281000Y-120144000D02*
X132281000Y-123696000D01*
X132241000Y-120086000D02*
X132241000Y-123754000D01*
X132201000Y-120030000D02*
X132201000Y-123810000D01*
X132161000Y-119976000D02*
X132161000Y-123864000D01*
X132121000Y-119925000D02*
X132121000Y-123915000D01*
X132081000Y-119876000D02*
X132081000Y-123964000D01*
X132041000Y-119828000D02*
X132041000Y-124012000D01*
X132001000Y-119783000D02*
X132001000Y-124057000D01*
X131961000Y-119738000D02*
X131961000Y-124102000D01*
X131921000Y-119696000D02*
X131921000Y-124144000D01*
X131881000Y-119655000D02*
X131881000Y-124185000D01*
X131841000Y-122960000D02*
X131841000Y-124225000D01*
X131841000Y-119615000D02*
X131841000Y-120880000D01*
X131801000Y-122960000D02*
X131801000Y-124263000D01*
X131801000Y-119577000D02*
X131801000Y-120880000D01*
X131761000Y-122960000D02*
X131761000Y-124300000D01*
X131761000Y-119540000D02*
X131761000Y-120880000D01*
X131721000Y-122960000D02*
X131721000Y-124336000D01*
X131721000Y-119504000D02*
X131721000Y-120880000D01*
X131681000Y-122960000D02*
X131681000Y-124370000D01*
X131681000Y-119470000D02*
X131681000Y-120880000D01*
X131641000Y-122960000D02*
X131641000Y-124404000D01*
X131641000Y-119436000D02*
X131641000Y-120880000D01*
X131601000Y-122960000D02*
X131601000Y-124436000D01*
X131601000Y-119404000D02*
X131601000Y-120880000D01*
X131561000Y-122960000D02*
X131561000Y-124468000D01*
X131561000Y-119372000D02*
X131561000Y-120880000D01*
X131521000Y-122960000D02*
X131521000Y-124498000D01*
X131521000Y-119342000D02*
X131521000Y-120880000D01*
X131481000Y-122960000D02*
X131481000Y-124527000D01*
X131481000Y-119313000D02*
X131481000Y-120880000D01*
X131441000Y-122960000D02*
X131441000Y-124556000D01*
X131441000Y-119284000D02*
X131441000Y-120880000D01*
X131401000Y-122960000D02*
X131401000Y-124584000D01*
X131401000Y-119256000D02*
X131401000Y-120880000D01*
X131361000Y-122960000D02*
X131361000Y-124610000D01*
X131361000Y-119230000D02*
X131361000Y-120880000D01*
X131321000Y-122960000D02*
X131321000Y-124636000D01*
X131321000Y-119204000D02*
X131321000Y-120880000D01*
X131281000Y-122960000D02*
X131281000Y-124662000D01*
X131281000Y-119178000D02*
X131281000Y-120880000D01*
X131241000Y-122960000D02*
X131241000Y-124686000D01*
X131241000Y-119154000D02*
X131241000Y-120880000D01*
X131201000Y-122960000D02*
X131201000Y-124710000D01*
X131201000Y-119130000D02*
X131201000Y-120880000D01*
X131161000Y-122960000D02*
X131161000Y-124732000D01*
X131161000Y-119108000D02*
X131161000Y-120880000D01*
X131121000Y-122960000D02*
X131121000Y-124754000D01*
X131121000Y-119086000D02*
X131121000Y-120880000D01*
X131081000Y-122960000D02*
X131081000Y-124776000D01*
X131081000Y-119064000D02*
X131081000Y-120880000D01*
X131041000Y-122960000D02*
X131041000Y-124796000D01*
X131041000Y-119044000D02*
X131041000Y-120880000D01*
X131001000Y-122960000D02*
X131001000Y-124816000D01*
X131001000Y-119024000D02*
X131001000Y-120880000D01*
X130961000Y-122960000D02*
X130961000Y-124836000D01*
X130961000Y-119004000D02*
X130961000Y-120880000D01*
X130921000Y-122960000D02*
X130921000Y-124854000D01*
X130921000Y-118986000D02*
X130921000Y-120880000D01*
X130881000Y-122960000D02*
X130881000Y-124872000D01*
X130881000Y-118968000D02*
X130881000Y-120880000D01*
X130841000Y-122960000D02*
X130841000Y-124890000D01*
X130841000Y-118950000D02*
X130841000Y-120880000D01*
X130801000Y-122960000D02*
X130801000Y-124906000D01*
X130801000Y-118934000D02*
X130801000Y-120880000D01*
X130761000Y-122960000D02*
X130761000Y-124922000D01*
X130761000Y-118918000D02*
X130761000Y-120880000D01*
X130721000Y-122960000D02*
X130721000Y-124938000D01*
X130721000Y-118902000D02*
X130721000Y-120880000D01*
X130681000Y-122960000D02*
X130681000Y-124953000D01*
X130681000Y-118887000D02*
X130681000Y-120880000D01*
X130641000Y-122960000D02*
X130641000Y-124967000D01*
X130641000Y-118873000D02*
X130641000Y-120880000D01*
X130601000Y-122960000D02*
X130601000Y-124981000D01*
X130601000Y-118859000D02*
X130601000Y-120880000D01*
X130561000Y-122960000D02*
X130561000Y-124994000D01*
X130561000Y-118846000D02*
X130561000Y-120880000D01*
X130521000Y-122960000D02*
X130521000Y-125006000D01*
X130521000Y-118834000D02*
X130521000Y-120880000D01*
X130481000Y-122960000D02*
X130481000Y-125018000D01*
X130481000Y-118822000D02*
X130481000Y-120880000D01*
X130441000Y-122960000D02*
X130441000Y-125030000D01*
X130441000Y-118810000D02*
X130441000Y-120880000D01*
X130401000Y-122960000D02*
X130401000Y-125041000D01*
X130401000Y-118799000D02*
X130401000Y-120880000D01*
X130361000Y-122960000D02*
X130361000Y-125051000D01*
X130361000Y-118789000D02*
X130361000Y-120880000D01*
X130321000Y-122960000D02*
X130321000Y-125061000D01*
X130321000Y-118779000D02*
X130321000Y-120880000D01*
X130281000Y-122960000D02*
X130281000Y-125070000D01*
X130281000Y-118770000D02*
X130281000Y-120880000D01*
X130240000Y-122960000D02*
X130240000Y-125079000D01*
X130240000Y-118761000D02*
X130240000Y-120880000D01*
X130200000Y-122960000D02*
X130200000Y-125087000D01*
X130200000Y-118753000D02*
X130200000Y-120880000D01*
X130160000Y-122960000D02*
X130160000Y-125095000D01*
X130160000Y-118745000D02*
X130160000Y-120880000D01*
X130120000Y-122960000D02*
X130120000Y-125102000D01*
X130120000Y-118738000D02*
X130120000Y-120880000D01*
X130080000Y-122960000D02*
X130080000Y-125109000D01*
X130080000Y-118731000D02*
X130080000Y-120880000D01*
X130040000Y-122960000D02*
X130040000Y-125115000D01*
X130040000Y-118725000D02*
X130040000Y-120880000D01*
X130000000Y-122960000D02*
X130000000Y-125121000D01*
X130000000Y-118719000D02*
X130000000Y-120880000D01*
X129960000Y-122960000D02*
X129960000Y-125126000D01*
X129960000Y-118714000D02*
X129960000Y-120880000D01*
X129920000Y-122960000D02*
X129920000Y-125131000D01*
X129920000Y-118709000D02*
X129920000Y-120880000D01*
X129880000Y-122960000D02*
X129880000Y-125135000D01*
X129880000Y-118705000D02*
X129880000Y-120880000D01*
X129840000Y-122960000D02*
X129840000Y-125138000D01*
X129840000Y-118702000D02*
X129840000Y-120880000D01*
X129800000Y-122960000D02*
X129800000Y-125142000D01*
X129800000Y-118698000D02*
X129800000Y-120880000D01*
X129760000Y-118696000D02*
X129760000Y-125144000D01*
X129720000Y-118693000D02*
X129720000Y-125147000D01*
X129680000Y-118692000D02*
X129680000Y-125148000D01*
X129640000Y-118690000D02*
X129640000Y-125150000D01*
X129600000Y-118690000D02*
X129600000Y-125150000D01*
X129560000Y-118690000D02*
X129560000Y-125150000D01*
X132830000Y-121920000D02*
G75*
G03X132830000Y-121920000I-3270000J0D01*
G01*
X154400000Y-114280000D02*
G75*
G03X154400000Y-114280000I-3270000J0D01*
G01*
X154360000Y-114280000D02*
X147900000Y-114280000D01*
X154360000Y-114320000D02*
X147900000Y-114320000D01*
X154360000Y-114360000D02*
X147900000Y-114360000D01*
X154358000Y-114400000D02*
X147902000Y-114400000D01*
X154357000Y-114440000D02*
X147903000Y-114440000D01*
X154354000Y-114480000D02*
X147906000Y-114480000D01*
X154352000Y-114520000D02*
X152170000Y-114520000D01*
X150090000Y-114520000D02*
X147908000Y-114520000D01*
X154348000Y-114560000D02*
X152170000Y-114560000D01*
X150090000Y-114560000D02*
X147912000Y-114560000D01*
X154345000Y-114600000D02*
X152170000Y-114600000D01*
X150090000Y-114600000D02*
X147915000Y-114600000D01*
X154341000Y-114640000D02*
X152170000Y-114640000D01*
X150090000Y-114640000D02*
X147919000Y-114640000D01*
X154336000Y-114680000D02*
X152170000Y-114680000D01*
X150090000Y-114680000D02*
X147924000Y-114680000D01*
X154331000Y-114720000D02*
X152170000Y-114720000D01*
X150090000Y-114720000D02*
X147929000Y-114720000D01*
X154325000Y-114760000D02*
X152170000Y-114760000D01*
X150090000Y-114760000D02*
X147935000Y-114760000D01*
X154319000Y-114800000D02*
X152170000Y-114800000D01*
X150090000Y-114800000D02*
X147941000Y-114800000D01*
X154312000Y-114840000D02*
X152170000Y-114840000D01*
X150090000Y-114840000D02*
X147948000Y-114840000D01*
X154305000Y-114880000D02*
X152170000Y-114880000D01*
X150090000Y-114880000D02*
X147955000Y-114880000D01*
X154297000Y-114920000D02*
X152170000Y-114920000D01*
X150090000Y-114920000D02*
X147963000Y-114920000D01*
X154289000Y-114960000D02*
X152170000Y-114960000D01*
X150090000Y-114960000D02*
X147971000Y-114960000D01*
X154280000Y-115001000D02*
X152170000Y-115001000D01*
X150090000Y-115001000D02*
X147980000Y-115001000D01*
X154271000Y-115041000D02*
X152170000Y-115041000D01*
X150090000Y-115041000D02*
X147989000Y-115041000D01*
X154261000Y-115081000D02*
X152170000Y-115081000D01*
X150090000Y-115081000D02*
X147999000Y-115081000D01*
X154251000Y-115121000D02*
X152170000Y-115121000D01*
X150090000Y-115121000D02*
X148009000Y-115121000D01*
X154240000Y-115161000D02*
X152170000Y-115161000D01*
X150090000Y-115161000D02*
X148020000Y-115161000D01*
X154228000Y-115201000D02*
X152170000Y-115201000D01*
X150090000Y-115201000D02*
X148032000Y-115201000D01*
X154216000Y-115241000D02*
X152170000Y-115241000D01*
X150090000Y-115241000D02*
X148044000Y-115241000D01*
X154204000Y-115281000D02*
X152170000Y-115281000D01*
X150090000Y-115281000D02*
X148056000Y-115281000D01*
X154191000Y-115321000D02*
X152170000Y-115321000D01*
X150090000Y-115321000D02*
X148069000Y-115321000D01*
X154177000Y-115361000D02*
X152170000Y-115361000D01*
X150090000Y-115361000D02*
X148083000Y-115361000D01*
X154163000Y-115401000D02*
X152170000Y-115401000D01*
X150090000Y-115401000D02*
X148097000Y-115401000D01*
X154148000Y-115441000D02*
X152170000Y-115441000D01*
X150090000Y-115441000D02*
X148112000Y-115441000D01*
X154132000Y-115481000D02*
X152170000Y-115481000D01*
X150090000Y-115481000D02*
X148128000Y-115481000D01*
X154116000Y-115521000D02*
X152170000Y-115521000D01*
X150090000Y-115521000D02*
X148144000Y-115521000D01*
X154100000Y-115561000D02*
X152170000Y-115561000D01*
X150090000Y-115561000D02*
X148160000Y-115561000D01*
X154082000Y-115601000D02*
X152170000Y-115601000D01*
X150090000Y-115601000D02*
X148178000Y-115601000D01*
X154064000Y-115641000D02*
X152170000Y-115641000D01*
X150090000Y-115641000D02*
X148196000Y-115641000D01*
X154046000Y-115681000D02*
X152170000Y-115681000D01*
X150090000Y-115681000D02*
X148214000Y-115681000D01*
X154026000Y-115721000D02*
X152170000Y-115721000D01*
X150090000Y-115721000D02*
X148234000Y-115721000D01*
X154006000Y-115761000D02*
X152170000Y-115761000D01*
X150090000Y-115761000D02*
X148254000Y-115761000D01*
X153986000Y-115801000D02*
X152170000Y-115801000D01*
X150090000Y-115801000D02*
X148274000Y-115801000D01*
X153964000Y-115841000D02*
X152170000Y-115841000D01*
X150090000Y-115841000D02*
X148296000Y-115841000D01*
X153942000Y-115881000D02*
X152170000Y-115881000D01*
X150090000Y-115881000D02*
X148318000Y-115881000D01*
X153920000Y-115921000D02*
X152170000Y-115921000D01*
X150090000Y-115921000D02*
X148340000Y-115921000D01*
X153896000Y-115961000D02*
X152170000Y-115961000D01*
X150090000Y-115961000D02*
X148364000Y-115961000D01*
X153872000Y-116001000D02*
X152170000Y-116001000D01*
X150090000Y-116001000D02*
X148388000Y-116001000D01*
X153846000Y-116041000D02*
X152170000Y-116041000D01*
X150090000Y-116041000D02*
X148414000Y-116041000D01*
X153820000Y-116081000D02*
X152170000Y-116081000D01*
X150090000Y-116081000D02*
X148440000Y-116081000D01*
X153794000Y-116121000D02*
X152170000Y-116121000D01*
X150090000Y-116121000D02*
X148466000Y-116121000D01*
X153766000Y-116161000D02*
X152170000Y-116161000D01*
X150090000Y-116161000D02*
X148494000Y-116161000D01*
X153737000Y-116201000D02*
X152170000Y-116201000D01*
X150090000Y-116201000D02*
X148523000Y-116201000D01*
X153708000Y-116241000D02*
X152170000Y-116241000D01*
X150090000Y-116241000D02*
X148552000Y-116241000D01*
X153678000Y-116281000D02*
X152170000Y-116281000D01*
X150090000Y-116281000D02*
X148582000Y-116281000D01*
X153646000Y-116321000D02*
X152170000Y-116321000D01*
X150090000Y-116321000D02*
X148614000Y-116321000D01*
X153614000Y-116361000D02*
X152170000Y-116361000D01*
X150090000Y-116361000D02*
X148646000Y-116361000D01*
X153580000Y-116401000D02*
X152170000Y-116401000D01*
X150090000Y-116401000D02*
X148680000Y-116401000D01*
X153546000Y-116441000D02*
X152170000Y-116441000D01*
X150090000Y-116441000D02*
X148714000Y-116441000D01*
X153510000Y-116481000D02*
X152170000Y-116481000D01*
X150090000Y-116481000D02*
X148750000Y-116481000D01*
X153473000Y-116521000D02*
X152170000Y-116521000D01*
X150090000Y-116521000D02*
X148787000Y-116521000D01*
X153435000Y-116561000D02*
X152170000Y-116561000D01*
X150090000Y-116561000D02*
X148825000Y-116561000D01*
X153395000Y-116601000D02*
X148865000Y-116601000D01*
X153354000Y-116641000D02*
X148906000Y-116641000D01*
X153312000Y-116681000D02*
X148948000Y-116681000D01*
X153267000Y-116721000D02*
X148993000Y-116721000D01*
X153222000Y-116761000D02*
X149038000Y-116761000D01*
X153174000Y-116801000D02*
X149086000Y-116801000D01*
X153125000Y-116841000D02*
X149135000Y-116841000D01*
X153074000Y-116881000D02*
X149186000Y-116881000D01*
X153020000Y-116921000D02*
X149240000Y-116921000D01*
X152964000Y-116961000D02*
X149296000Y-116961000D01*
X152906000Y-117001000D02*
X149354000Y-117001000D01*
X152844000Y-117041000D02*
X149416000Y-117041000D01*
X152780000Y-117081000D02*
X149480000Y-117081000D01*
X152711000Y-117121000D02*
X149549000Y-117121000D01*
X152639000Y-117161000D02*
X149621000Y-117161000D01*
X152562000Y-117201000D02*
X149698000Y-117201000D01*
X152480000Y-117241000D02*
X149780000Y-117241000D01*
X152392000Y-117281000D02*
X149868000Y-117281000D01*
X152295000Y-117321000D02*
X149965000Y-117321000D01*
X152189000Y-117361000D02*
X150071000Y-117361000D01*
X152070000Y-117401000D02*
X150190000Y-117401000D01*
X151932000Y-117441000D02*
X150328000Y-117441000D01*
X151763000Y-117481000D02*
X150497000Y-117481000D01*
X151532000Y-117521000D02*
X150728000Y-117521000D01*
X152969000Y-110779759D02*
X152969000Y-111409759D01*
X153284000Y-111094759D02*
X152654000Y-111094759D01*
X116320000Y-124460000D02*
G75*
G03X116320000Y-124460000I-3270000J0D01*
G01*
X113050000Y-127690000D02*
X113050000Y-121230000D01*
X113010000Y-127690000D02*
X113010000Y-121230000D01*
X112970000Y-127690000D02*
X112970000Y-121230000D01*
X112930000Y-127688000D02*
X112930000Y-121232000D01*
X112890000Y-127687000D02*
X112890000Y-121233000D01*
X112850000Y-127684000D02*
X112850000Y-121236000D01*
X112810000Y-127682000D02*
X112810000Y-125500000D01*
X112810000Y-123420000D02*
X112810000Y-121238000D01*
X112770000Y-127678000D02*
X112770000Y-125500000D01*
X112770000Y-123420000D02*
X112770000Y-121242000D01*
X112730000Y-127675000D02*
X112730000Y-125500000D01*
X112730000Y-123420000D02*
X112730000Y-121245000D01*
X112690000Y-127671000D02*
X112690000Y-125500000D01*
X112690000Y-123420000D02*
X112690000Y-121249000D01*
X112650000Y-127666000D02*
X112650000Y-125500000D01*
X112650000Y-123420000D02*
X112650000Y-121254000D01*
X112610000Y-127661000D02*
X112610000Y-125500000D01*
X112610000Y-123420000D02*
X112610000Y-121259000D01*
X112570000Y-127655000D02*
X112570000Y-125500000D01*
X112570000Y-123420000D02*
X112570000Y-121265000D01*
X112530000Y-127649000D02*
X112530000Y-125500000D01*
X112530000Y-123420000D02*
X112530000Y-121271000D01*
X112490000Y-127642000D02*
X112490000Y-125500000D01*
X112490000Y-123420000D02*
X112490000Y-121278000D01*
X112450000Y-127635000D02*
X112450000Y-125500000D01*
X112450000Y-123420000D02*
X112450000Y-121285000D01*
X112410000Y-127627000D02*
X112410000Y-125500000D01*
X112410000Y-123420000D02*
X112410000Y-121293000D01*
X112370000Y-127619000D02*
X112370000Y-125500000D01*
X112370000Y-123420000D02*
X112370000Y-121301000D01*
X112329000Y-127610000D02*
X112329000Y-125500000D01*
X112329000Y-123420000D02*
X112329000Y-121310000D01*
X112289000Y-127601000D02*
X112289000Y-125500000D01*
X112289000Y-123420000D02*
X112289000Y-121319000D01*
X112249000Y-127591000D02*
X112249000Y-125500000D01*
X112249000Y-123420000D02*
X112249000Y-121329000D01*
X112209000Y-127581000D02*
X112209000Y-125500000D01*
X112209000Y-123420000D02*
X112209000Y-121339000D01*
X112169000Y-127570000D02*
X112169000Y-125500000D01*
X112169000Y-123420000D02*
X112169000Y-121350000D01*
X112129000Y-127558000D02*
X112129000Y-125500000D01*
X112129000Y-123420000D02*
X112129000Y-121362000D01*
X112089000Y-127546000D02*
X112089000Y-125500000D01*
X112089000Y-123420000D02*
X112089000Y-121374000D01*
X112049000Y-127534000D02*
X112049000Y-125500000D01*
X112049000Y-123420000D02*
X112049000Y-121386000D01*
X112009000Y-127521000D02*
X112009000Y-125500000D01*
X112009000Y-123420000D02*
X112009000Y-121399000D01*
X111969000Y-127507000D02*
X111969000Y-125500000D01*
X111969000Y-123420000D02*
X111969000Y-121413000D01*
X111929000Y-127493000D02*
X111929000Y-125500000D01*
X111929000Y-123420000D02*
X111929000Y-121427000D01*
X111889000Y-127478000D02*
X111889000Y-125500000D01*
X111889000Y-123420000D02*
X111889000Y-121442000D01*
X111849000Y-127462000D02*
X111849000Y-125500000D01*
X111849000Y-123420000D02*
X111849000Y-121458000D01*
X111809000Y-127446000D02*
X111809000Y-125500000D01*
X111809000Y-123420000D02*
X111809000Y-121474000D01*
X111769000Y-127430000D02*
X111769000Y-125500000D01*
X111769000Y-123420000D02*
X111769000Y-121490000D01*
X111729000Y-127412000D02*
X111729000Y-125500000D01*
X111729000Y-123420000D02*
X111729000Y-121508000D01*
X111689000Y-127394000D02*
X111689000Y-125500000D01*
X111689000Y-123420000D02*
X111689000Y-121526000D01*
X111649000Y-127376000D02*
X111649000Y-125500000D01*
X111649000Y-123420000D02*
X111649000Y-121544000D01*
X111609000Y-127356000D02*
X111609000Y-125500000D01*
X111609000Y-123420000D02*
X111609000Y-121564000D01*
X111569000Y-127336000D02*
X111569000Y-125500000D01*
X111569000Y-123420000D02*
X111569000Y-121584000D01*
X111529000Y-127316000D02*
X111529000Y-125500000D01*
X111529000Y-123420000D02*
X111529000Y-121604000D01*
X111489000Y-127294000D02*
X111489000Y-125500000D01*
X111489000Y-123420000D02*
X111489000Y-121626000D01*
X111449000Y-127272000D02*
X111449000Y-125500000D01*
X111449000Y-123420000D02*
X111449000Y-121648000D01*
X111409000Y-127250000D02*
X111409000Y-125500000D01*
X111409000Y-123420000D02*
X111409000Y-121670000D01*
X111369000Y-127226000D02*
X111369000Y-125500000D01*
X111369000Y-123420000D02*
X111369000Y-121694000D01*
X111329000Y-127202000D02*
X111329000Y-125500000D01*
X111329000Y-123420000D02*
X111329000Y-121718000D01*
X111289000Y-127176000D02*
X111289000Y-125500000D01*
X111289000Y-123420000D02*
X111289000Y-121744000D01*
X111249000Y-127150000D02*
X111249000Y-125500000D01*
X111249000Y-123420000D02*
X111249000Y-121770000D01*
X111209000Y-127124000D02*
X111209000Y-125500000D01*
X111209000Y-123420000D02*
X111209000Y-121796000D01*
X111169000Y-127096000D02*
X111169000Y-125500000D01*
X111169000Y-123420000D02*
X111169000Y-121824000D01*
X111129000Y-127067000D02*
X111129000Y-125500000D01*
X111129000Y-123420000D02*
X111129000Y-121853000D01*
X111089000Y-127038000D02*
X111089000Y-125500000D01*
X111089000Y-123420000D02*
X111089000Y-121882000D01*
X111049000Y-127008000D02*
X111049000Y-125500000D01*
X111049000Y-123420000D02*
X111049000Y-121912000D01*
X111009000Y-126976000D02*
X111009000Y-125500000D01*
X111009000Y-123420000D02*
X111009000Y-121944000D01*
X110969000Y-126944000D02*
X110969000Y-125500000D01*
X110969000Y-123420000D02*
X110969000Y-121976000D01*
X110929000Y-126910000D02*
X110929000Y-125500000D01*
X110929000Y-123420000D02*
X110929000Y-122010000D01*
X110889000Y-126876000D02*
X110889000Y-125500000D01*
X110889000Y-123420000D02*
X110889000Y-122044000D01*
X110849000Y-126840000D02*
X110849000Y-125500000D01*
X110849000Y-123420000D02*
X110849000Y-122080000D01*
X110809000Y-126803000D02*
X110809000Y-125500000D01*
X110809000Y-123420000D02*
X110809000Y-122117000D01*
X110769000Y-126765000D02*
X110769000Y-125500000D01*
X110769000Y-123420000D02*
X110769000Y-122155000D01*
X110729000Y-126725000D02*
X110729000Y-122195000D01*
X110689000Y-126684000D02*
X110689000Y-122236000D01*
X110649000Y-126642000D02*
X110649000Y-122278000D01*
X110609000Y-126597000D02*
X110609000Y-122323000D01*
X110569000Y-126552000D02*
X110569000Y-122368000D01*
X110529000Y-126504000D02*
X110529000Y-122416000D01*
X110489000Y-126455000D02*
X110489000Y-122465000D01*
X110449000Y-126404000D02*
X110449000Y-122516000D01*
X110409000Y-126350000D02*
X110409000Y-122570000D01*
X110369000Y-126294000D02*
X110369000Y-122626000D01*
X110329000Y-126236000D02*
X110329000Y-122684000D01*
X110289000Y-126174000D02*
X110289000Y-122746000D01*
X110249000Y-126110000D02*
X110249000Y-122810000D01*
X110209000Y-126041000D02*
X110209000Y-122879000D01*
X110169000Y-125969000D02*
X110169000Y-122951000D01*
X110129000Y-125892000D02*
X110129000Y-123028000D01*
X110089000Y-125810000D02*
X110089000Y-123110000D01*
X110049000Y-125722000D02*
X110049000Y-123198000D01*
X110009000Y-125625000D02*
X110009000Y-123295000D01*
X109969000Y-125519000D02*
X109969000Y-123401000D01*
X109929000Y-125400000D02*
X109929000Y-123520000D01*
X109889000Y-125262000D02*
X109889000Y-123658000D01*
X109849000Y-125093000D02*
X109849000Y-123827000D01*
X109809000Y-124862000D02*
X109809000Y-124058000D01*
X116550241Y-126299000D02*
X115920241Y-126299000D01*
X116235241Y-126614000D02*
X116235241Y-125984000D01*
X116235241Y-118994000D02*
X116235241Y-118364000D01*
X116550241Y-118679000D02*
X115920241Y-118679000D01*
X109809000Y-117242000D02*
X109809000Y-116438000D01*
X109849000Y-117473000D02*
X109849000Y-116207000D01*
X109889000Y-117642000D02*
X109889000Y-116038000D01*
X109929000Y-117780000D02*
X109929000Y-115900000D01*
X109969000Y-117899000D02*
X109969000Y-115781000D01*
X110009000Y-118005000D02*
X110009000Y-115675000D01*
X110049000Y-118102000D02*
X110049000Y-115578000D01*
X110089000Y-118190000D02*
X110089000Y-115490000D01*
X110129000Y-118272000D02*
X110129000Y-115408000D01*
X110169000Y-118349000D02*
X110169000Y-115331000D01*
X110209000Y-118421000D02*
X110209000Y-115259000D01*
X110249000Y-118490000D02*
X110249000Y-115190000D01*
X110289000Y-118554000D02*
X110289000Y-115126000D01*
X110329000Y-118616000D02*
X110329000Y-115064000D01*
X110369000Y-118674000D02*
X110369000Y-115006000D01*
X110409000Y-118730000D02*
X110409000Y-114950000D01*
X110449000Y-118784000D02*
X110449000Y-114896000D01*
X110489000Y-118835000D02*
X110489000Y-114845000D01*
X110529000Y-118884000D02*
X110529000Y-114796000D01*
X110569000Y-118932000D02*
X110569000Y-114748000D01*
X110609000Y-118977000D02*
X110609000Y-114703000D01*
X110649000Y-119022000D02*
X110649000Y-114658000D01*
X110689000Y-119064000D02*
X110689000Y-114616000D01*
X110729000Y-119105000D02*
X110729000Y-114575000D01*
X110769000Y-115800000D02*
X110769000Y-114535000D01*
X110769000Y-119145000D02*
X110769000Y-117880000D01*
X110809000Y-115800000D02*
X110809000Y-114497000D01*
X110809000Y-119183000D02*
X110809000Y-117880000D01*
X110849000Y-115800000D02*
X110849000Y-114460000D01*
X110849000Y-119220000D02*
X110849000Y-117880000D01*
X110889000Y-115800000D02*
X110889000Y-114424000D01*
X110889000Y-119256000D02*
X110889000Y-117880000D01*
X110929000Y-115800000D02*
X110929000Y-114390000D01*
X110929000Y-119290000D02*
X110929000Y-117880000D01*
X110969000Y-115800000D02*
X110969000Y-114356000D01*
X110969000Y-119324000D02*
X110969000Y-117880000D01*
X111009000Y-115800000D02*
X111009000Y-114324000D01*
X111009000Y-119356000D02*
X111009000Y-117880000D01*
X111049000Y-115800000D02*
X111049000Y-114292000D01*
X111049000Y-119388000D02*
X111049000Y-117880000D01*
X111089000Y-115800000D02*
X111089000Y-114262000D01*
X111089000Y-119418000D02*
X111089000Y-117880000D01*
X111129000Y-115800000D02*
X111129000Y-114233000D01*
X111129000Y-119447000D02*
X111129000Y-117880000D01*
X111169000Y-115800000D02*
X111169000Y-114204000D01*
X111169000Y-119476000D02*
X111169000Y-117880000D01*
X111209000Y-115800000D02*
X111209000Y-114176000D01*
X111209000Y-119504000D02*
X111209000Y-117880000D01*
X111249000Y-115800000D02*
X111249000Y-114150000D01*
X111249000Y-119530000D02*
X111249000Y-117880000D01*
X111289000Y-115800000D02*
X111289000Y-114124000D01*
X111289000Y-119556000D02*
X111289000Y-117880000D01*
X111329000Y-115800000D02*
X111329000Y-114098000D01*
X111329000Y-119582000D02*
X111329000Y-117880000D01*
X111369000Y-115800000D02*
X111369000Y-114074000D01*
X111369000Y-119606000D02*
X111369000Y-117880000D01*
X111409000Y-115800000D02*
X111409000Y-114050000D01*
X111409000Y-119630000D02*
X111409000Y-117880000D01*
X111449000Y-115800000D02*
X111449000Y-114028000D01*
X111449000Y-119652000D02*
X111449000Y-117880000D01*
X111489000Y-115800000D02*
X111489000Y-114006000D01*
X111489000Y-119674000D02*
X111489000Y-117880000D01*
X111529000Y-115800000D02*
X111529000Y-113984000D01*
X111529000Y-119696000D02*
X111529000Y-117880000D01*
X111569000Y-115800000D02*
X111569000Y-113964000D01*
X111569000Y-119716000D02*
X111569000Y-117880000D01*
X111609000Y-115800000D02*
X111609000Y-113944000D01*
X111609000Y-119736000D02*
X111609000Y-117880000D01*
X111649000Y-115800000D02*
X111649000Y-113924000D01*
X111649000Y-119756000D02*
X111649000Y-117880000D01*
X111689000Y-115800000D02*
X111689000Y-113906000D01*
X111689000Y-119774000D02*
X111689000Y-117880000D01*
X111729000Y-115800000D02*
X111729000Y-113888000D01*
X111729000Y-119792000D02*
X111729000Y-117880000D01*
X111769000Y-115800000D02*
X111769000Y-113870000D01*
X111769000Y-119810000D02*
X111769000Y-117880000D01*
X111809000Y-115800000D02*
X111809000Y-113854000D01*
X111809000Y-119826000D02*
X111809000Y-117880000D01*
X111849000Y-115800000D02*
X111849000Y-113838000D01*
X111849000Y-119842000D02*
X111849000Y-117880000D01*
X111889000Y-115800000D02*
X111889000Y-113822000D01*
X111889000Y-119858000D02*
X111889000Y-117880000D01*
X111929000Y-115800000D02*
X111929000Y-113807000D01*
X111929000Y-119873000D02*
X111929000Y-117880000D01*
X111969000Y-115800000D02*
X111969000Y-113793000D01*
X111969000Y-119887000D02*
X111969000Y-117880000D01*
X112009000Y-115800000D02*
X112009000Y-113779000D01*
X112009000Y-119901000D02*
X112009000Y-117880000D01*
X112049000Y-115800000D02*
X112049000Y-113766000D01*
X112049000Y-119914000D02*
X112049000Y-117880000D01*
X112089000Y-115800000D02*
X112089000Y-113754000D01*
X112089000Y-119926000D02*
X112089000Y-117880000D01*
X112129000Y-115800000D02*
X112129000Y-113742000D01*
X112129000Y-119938000D02*
X112129000Y-117880000D01*
X112169000Y-115800000D02*
X112169000Y-113730000D01*
X112169000Y-119950000D02*
X112169000Y-117880000D01*
X112209000Y-115800000D02*
X112209000Y-113719000D01*
X112209000Y-119961000D02*
X112209000Y-117880000D01*
X112249000Y-115800000D02*
X112249000Y-113709000D01*
X112249000Y-119971000D02*
X112249000Y-117880000D01*
X112289000Y-115800000D02*
X112289000Y-113699000D01*
X112289000Y-119981000D02*
X112289000Y-117880000D01*
X112329000Y-115800000D02*
X112329000Y-113690000D01*
X112329000Y-119990000D02*
X112329000Y-117880000D01*
X112370000Y-115800000D02*
X112370000Y-113681000D01*
X112370000Y-119999000D02*
X112370000Y-117880000D01*
X112410000Y-115800000D02*
X112410000Y-113673000D01*
X112410000Y-120007000D02*
X112410000Y-117880000D01*
X112450000Y-115800000D02*
X112450000Y-113665000D01*
X112450000Y-120015000D02*
X112450000Y-117880000D01*
X112490000Y-115800000D02*
X112490000Y-113658000D01*
X112490000Y-120022000D02*
X112490000Y-117880000D01*
X112530000Y-115800000D02*
X112530000Y-113651000D01*
X112530000Y-120029000D02*
X112530000Y-117880000D01*
X112570000Y-115800000D02*
X112570000Y-113645000D01*
X112570000Y-120035000D02*
X112570000Y-117880000D01*
X112610000Y-115800000D02*
X112610000Y-113639000D01*
X112610000Y-120041000D02*
X112610000Y-117880000D01*
X112650000Y-115800000D02*
X112650000Y-113634000D01*
X112650000Y-120046000D02*
X112650000Y-117880000D01*
X112690000Y-115800000D02*
X112690000Y-113629000D01*
X112690000Y-120051000D02*
X112690000Y-117880000D01*
X112730000Y-115800000D02*
X112730000Y-113625000D01*
X112730000Y-120055000D02*
X112730000Y-117880000D01*
X112770000Y-115800000D02*
X112770000Y-113622000D01*
X112770000Y-120058000D02*
X112770000Y-117880000D01*
X112810000Y-115800000D02*
X112810000Y-113618000D01*
X112810000Y-120062000D02*
X112810000Y-117880000D01*
X112850000Y-120064000D02*
X112850000Y-113616000D01*
X112890000Y-120067000D02*
X112890000Y-113613000D01*
X112930000Y-120068000D02*
X112930000Y-113612000D01*
X112970000Y-120070000D02*
X112970000Y-113610000D01*
X113010000Y-120070000D02*
X113010000Y-113610000D01*
X113050000Y-120070000D02*
X113050000Y-113610000D01*
X116320000Y-116840000D02*
G75*
G03X116320000Y-116840000I-3270000J0D01*
G01*
X104542335Y-99251392D02*
G75*
G03X101310000Y-99094484I-1672335J-1078608D01*
G01*
X104542335Y-101408608D02*
G75*
G02X101310000Y-101565516I-1672335J1078608D01*
G01*
X103911130Y-99250163D02*
G75*
G03X101829039Y-99250000I-1041130J-1079837D01*
G01*
X103911130Y-101409837D02*
G75*
G02X101829039Y-101410000I-1041130J1079837D01*
G01*
X101310000Y-99094000D02*
X101310000Y-99250000D01*
X101310000Y-101410000D02*
X101310000Y-101566000D01*
X101310000Y-106490000D02*
X101310000Y-106646000D01*
X101310000Y-104174000D02*
X101310000Y-104330000D01*
X103911130Y-106489837D02*
G75*
G02X101829039Y-106490000I-1041130J1079837D01*
G01*
X103911130Y-104330163D02*
G75*
G03X101829039Y-104330000I-1041130J-1079837D01*
G01*
X104542335Y-106488608D02*
G75*
G02X101310000Y-106645516I-1672335J1078608D01*
G01*
X104542335Y-104331392D02*
G75*
G03X101310000Y-104174484I-1672335J-1078608D01*
G01*
X104542335Y-109411392D02*
G75*
G03X101310000Y-109254484I-1672335J-1078608D01*
G01*
X104542335Y-111568608D02*
G75*
G02X101310000Y-111725516I-1672335J1078608D01*
G01*
X103911130Y-109410163D02*
G75*
G03X101829039Y-109410000I-1041130J-1079837D01*
G01*
X103911130Y-111569837D02*
G75*
G02X101829039Y-111570000I-1041130J1079837D01*
G01*
X101310000Y-109254000D02*
X101310000Y-109410000D01*
X101310000Y-111570000D02*
X101310000Y-111726000D01*
X154940000Y-107950000D02*
X154940000Y-97790000D01*
X153670000Y-107950000D02*
X161290000Y-107950000D01*
X161290000Y-107950000D02*
X161290000Y-97790000D01*
X161290000Y-97790000D02*
X153670000Y-97790000D01*
X153670000Y-97790000D02*
X153670000Y-107950000D01*
X128330000Y-97730000D02*
X128330000Y-99060000D01*
X127000000Y-97730000D02*
X128330000Y-97730000D01*
X125730000Y-97730000D02*
X125730000Y-100390000D01*
X125730000Y-100390000D02*
X118050000Y-100390000D01*
X125730000Y-97730000D02*
X118050000Y-97730000D01*
X118050000Y-97730000D02*
X118050000Y-100390000D01*
X132020000Y-97730000D02*
X132020000Y-102930000D01*
X142240000Y-97730000D02*
X132020000Y-97730000D01*
X144840000Y-102930000D02*
X132020000Y-102930000D01*
X142240000Y-97730000D02*
X142240000Y-100330000D01*
X142240000Y-100330000D02*
X144840000Y-100330000D01*
X144840000Y-100330000D02*
X144840000Y-102930000D01*
X143510000Y-97730000D02*
X144840000Y-97730000D01*
X144840000Y-97730000D02*
X144840000Y-99060000D01*
X125790000Y-130750000D02*
X125790000Y-132080000D01*
X124460000Y-130750000D02*
X125790000Y-130750000D01*
X123190000Y-130750000D02*
X123190000Y-133410000D01*
X123190000Y-133410000D02*
X115510000Y-133410000D01*
X123190000Y-130750000D02*
X115510000Y-130750000D01*
X115510000Y-130750000D02*
X115510000Y-133410000D01*
X159960000Y-133410000D02*
X162620000Y-133410000D01*
X159960000Y-125730000D02*
X159960000Y-133410000D01*
X162620000Y-125730000D02*
X162620000Y-133410000D01*
X159960000Y-125730000D02*
X162620000Y-125730000D01*
X159960000Y-124460000D02*
X159960000Y-123130000D01*
X159960000Y-123130000D02*
X161290000Y-123130000D01*
X100270000Y-124520000D02*
X102930000Y-124520000D01*
X100270000Y-116840000D02*
X100270000Y-124520000D01*
X102930000Y-116840000D02*
X102930000Y-124520000D01*
X100270000Y-116840000D02*
X102930000Y-116840000D01*
X100270000Y-115570000D02*
X100270000Y-114240000D01*
X100270000Y-114240000D02*
X101600000Y-114240000D01*
X104080000Y-130750000D02*
X104080000Y-133410000D01*
X111760000Y-130750000D02*
X104080000Y-130750000D01*
X111760000Y-133410000D02*
X104080000Y-133410000D01*
X111760000Y-130750000D02*
X111760000Y-133410000D01*
X113030000Y-130750000D02*
X114360000Y-130750000D01*
X114360000Y-130750000D02*
X114360000Y-132080000D01*
X135950000Y-118170000D02*
X134620000Y-118170000D01*
X135950000Y-116840000D02*
X135950000Y-118170000D01*
X135950000Y-115570000D02*
X133290000Y-115570000D01*
X133290000Y-115570000D02*
X133290000Y-107890000D01*
X135950000Y-115570000D02*
X135950000Y-107890000D01*
X135950000Y-107890000D02*
X133290000Y-107890000D01*
X116319572Y-106695535D02*
G75*
G02X116586000Y-111506000I-2019572J-2524465D01*
G01*
X111999932Y-111520068D02*
G75*
G02X112268000Y-106680000I2300068J2300068D01*
G01*
X113030000Y-106172000D02*
G75*
G02X115570000Y-106172000I1270000J-508000D01*
G01*
X115570000Y-112268000D02*
G75*
G02X113030000Y-112268000I-1270000J508000D01*
G01*
X150368000Y-129540000D02*
G75*
G02X150368000Y-132080000I-508000J-1270000D01*
G01*
X144272000Y-132080000D02*
G75*
G02X144272000Y-129540000I508000J1270000D01*
G01*
X149620068Y-133110068D02*
G75*
G02X144780000Y-132842000I-2300068J2300068D01*
G01*
X144795535Y-128790428D02*
G75*
G02X149606000Y-128524000I2524465J-2019572D01*
G01*
X143525535Y-119900428D02*
G75*
G02X148336000Y-119634000I2524465J-2019572D01*
G01*
X148350068Y-124220068D02*
G75*
G02X143510000Y-123952000I-2300068J2300068D01*
G01*
X143002000Y-123190000D02*
G75*
G02X143002000Y-120650000I508000J1270000D01*
G01*
X149098000Y-120650000D02*
G75*
G02X149098000Y-123190000I-508000J-1270000D01*
G01*
X140246100Y-120777000D02*
G75*
G02X140246100Y-123317000I-508000J-1270000D01*
G01*
X134150100Y-123317000D02*
G75*
G02X134150100Y-120777000I508000J1270000D01*
G01*
X139498168Y-124347068D02*
G75*
G02X134658100Y-124079000I-2300068J2300068D01*
G01*
X134673635Y-120027428D02*
G75*
G02X139484100Y-119761000I2524465J-2019572D01*
G01*
X159499572Y-115585535D02*
G75*
G02X159766000Y-120396000I-2019572J-2524465D01*
G01*
X155179932Y-120410068D02*
G75*
G02X155448000Y-115570000I2300068J2300068D01*
G01*
X156210000Y-115062000D02*
G75*
G02X158750000Y-115062000I1270000J-508000D01*
G01*
X158750000Y-121158000D02*
G75*
G02X156210000Y-121158000I-1270000J508000D01*
G01*
D10*
X118425000Y-119905000D02*
X122875000Y-119905000D01*
X116900000Y-113005000D02*
X122875000Y-113005000D01*
D13*
X150780000Y-100330000D02*
G75*
G03X150780000Y-100330000I-920000J0D01*
G01*
X149860000Y-101250000D02*
X149860000Y-104410000D01*
X156560000Y-132080000D02*
X153400000Y-132080000D01*
X158400000Y-132080000D02*
G75*
G03X158400000Y-132080000I-920000J0D01*
G01*
X158400000Y-129540000D02*
G75*
G03X158400000Y-129540000I-920000J0D01*
G01*
X156560000Y-129540000D02*
X153400000Y-129540000D01*
X158400000Y-127000000D02*
G75*
G03X158400000Y-127000000I-920000J0D01*
G01*
X156560000Y-127000000D02*
X153400000Y-127000000D01*
X156560000Y-124460000D02*
X153400000Y-124460000D01*
X158400000Y-124460000D02*
G75*
G03X158400000Y-124460000I-920000J0D01*
G01*
X112110000Y-99060000D02*
X108950000Y-99060000D01*
X113950000Y-99060000D02*
G75*
G03X113950000Y-99060000I-920000J0D01*
G01*
X113950000Y-101600000D02*
G75*
G03X113950000Y-101600000I-920000J0D01*
G01*
X112110000Y-101600000D02*
X108950000Y-101600000D01*
X112110000Y-104140000D02*
X108950000Y-104140000D01*
X113950000Y-104140000D02*
G75*
G03X113950000Y-104140000I-920000J0D01*
G01*
D14*
X140205000Y-116190000D02*
X144105000Y-116190000D01*
X140205000Y-111140000D02*
X144105000Y-111140000D01*
D15*
X137900000Y-111160000D02*
G75*
G03X137900000Y-111160000I-100000J0D01*
G01*
D10*
X120661133Y-103785942D02*
X120613514Y-103833561D01*
X120470657Y-103881180D01*
X120375419Y-103881180D01*
X120232561Y-103833561D01*
X120137323Y-103738323D01*
X120089704Y-103643085D01*
X120042085Y-103452609D01*
X120042085Y-103309752D01*
X120089704Y-103119276D01*
X120137323Y-103024038D01*
X120232561Y-102928800D01*
X120375419Y-102881180D01*
X120470657Y-102881180D01*
X120613514Y-102928800D01*
X120661133Y-102976419D01*
X121280180Y-102881180D02*
X121375419Y-102881180D01*
X121470657Y-102928800D01*
X121518276Y-102976419D01*
X121565895Y-103071657D01*
X121613514Y-103262133D01*
X121613514Y-103500228D01*
X121565895Y-103690704D01*
X121518276Y-103785942D01*
X121470657Y-103833561D01*
X121375419Y-103881180D01*
X121280180Y-103881180D01*
X121184942Y-103833561D01*
X121137323Y-103785942D01*
X121089704Y-103690704D01*
X121042085Y-103500228D01*
X121042085Y-103262133D01*
X121089704Y-103071657D01*
X121137323Y-102976419D01*
X121184942Y-102928800D01*
X121280180Y-102881180D01*
X126569742Y-113450666D02*
X126617361Y-113498285D01*
X126664980Y-113641142D01*
X126664980Y-113736380D01*
X126617361Y-113879238D01*
X126522123Y-113974476D01*
X126426885Y-114022095D01*
X126236409Y-114069714D01*
X126093552Y-114069714D01*
X125903076Y-114022095D01*
X125807838Y-113974476D01*
X125712600Y-113879238D01*
X125664980Y-113736380D01*
X125664980Y-113641142D01*
X125712600Y-113498285D01*
X125760219Y-113450666D01*
X126664980Y-112498285D02*
X126664980Y-113069714D01*
X126664980Y-112784000D02*
X125664980Y-112784000D01*
X125807838Y-112879238D01*
X125903076Y-112974476D01*
X125950695Y-113069714D01*
X137044133Y-129160542D02*
X136996514Y-129208161D01*
X136853657Y-129255780D01*
X136758419Y-129255780D01*
X136615561Y-129208161D01*
X136520323Y-129112923D01*
X136472704Y-129017685D01*
X136425085Y-128827209D01*
X136425085Y-128684352D01*
X136472704Y-128493876D01*
X136520323Y-128398638D01*
X136615561Y-128303400D01*
X136758419Y-128255780D01*
X136853657Y-128255780D01*
X136996514Y-128303400D01*
X137044133Y-128351019D01*
X137425085Y-128351019D02*
X137472704Y-128303400D01*
X137567942Y-128255780D01*
X137806038Y-128255780D01*
X137901276Y-128303400D01*
X137948895Y-128351019D01*
X137996514Y-128446257D01*
X137996514Y-128541495D01*
X137948895Y-128684352D01*
X137377466Y-129255780D01*
X137996514Y-129255780D01*
X129614633Y-127966742D02*
X129567014Y-128014361D01*
X129424157Y-128061980D01*
X129328919Y-128061980D01*
X129186061Y-128014361D01*
X129090823Y-127919123D01*
X129043204Y-127823885D01*
X128995585Y-127633409D01*
X128995585Y-127490552D01*
X129043204Y-127300076D01*
X129090823Y-127204838D01*
X129186061Y-127109600D01*
X129328919Y-127061980D01*
X129424157Y-127061980D01*
X129567014Y-127109600D01*
X129614633Y-127157219D01*
X129947966Y-127061980D02*
X130567014Y-127061980D01*
X130233680Y-127442933D01*
X130376538Y-127442933D01*
X130471776Y-127490552D01*
X130519395Y-127538171D01*
X130567014Y-127633409D01*
X130567014Y-127871504D01*
X130519395Y-127966742D01*
X130471776Y-128014361D01*
X130376538Y-128061980D01*
X130090823Y-128061980D01*
X129995585Y-128014361D01*
X129947966Y-127966742D01*
X128141433Y-120334042D02*
X128093814Y-120381661D01*
X127950957Y-120429280D01*
X127855719Y-120429280D01*
X127712861Y-120381661D01*
X127617623Y-120286423D01*
X127570004Y-120191185D01*
X127522385Y-120000709D01*
X127522385Y-119857852D01*
X127570004Y-119667376D01*
X127617623Y-119572138D01*
X127712861Y-119476900D01*
X127855719Y-119429280D01*
X127950957Y-119429280D01*
X128093814Y-119476900D01*
X128141433Y-119524519D01*
X128998576Y-119762614D02*
X128998576Y-120429280D01*
X128760480Y-119381661D02*
X128522385Y-120095947D01*
X129141433Y-120095947D01*
X149607542Y-113437966D02*
X149655161Y-113485585D01*
X149702780Y-113628442D01*
X149702780Y-113723680D01*
X149655161Y-113866538D01*
X149559923Y-113961776D01*
X149464685Y-114009395D01*
X149274209Y-114057014D01*
X149131352Y-114057014D01*
X148940876Y-114009395D01*
X148845638Y-113961776D01*
X148750400Y-113866538D01*
X148702780Y-113723680D01*
X148702780Y-113628442D01*
X148750400Y-113485585D01*
X148798019Y-113437966D01*
X148702780Y-112533204D02*
X148702780Y-113009395D01*
X149178971Y-113057014D01*
X149131352Y-113009395D01*
X149083733Y-112914157D01*
X149083733Y-112676061D01*
X149131352Y-112580823D01*
X149178971Y-112533204D01*
X149274209Y-112485585D01*
X149512304Y-112485585D01*
X149607542Y-112533204D01*
X149655161Y-112580823D01*
X149702780Y-112676061D01*
X149702780Y-112914157D01*
X149655161Y-113009395D01*
X149607542Y-113057014D01*
X113815833Y-122797842D02*
X113768214Y-122845461D01*
X113625357Y-122893080D01*
X113530119Y-122893080D01*
X113387261Y-122845461D01*
X113292023Y-122750223D01*
X113244404Y-122654985D01*
X113196785Y-122464509D01*
X113196785Y-122321652D01*
X113244404Y-122131176D01*
X113292023Y-122035938D01*
X113387261Y-121940700D01*
X113530119Y-121893080D01*
X113625357Y-121893080D01*
X113768214Y-121940700D01*
X113815833Y-121988319D01*
X114672976Y-121893080D02*
X114482500Y-121893080D01*
X114387261Y-121940700D01*
X114339642Y-121988319D01*
X114244404Y-122131176D01*
X114196785Y-122321652D01*
X114196785Y-122702604D01*
X114244404Y-122797842D01*
X114292023Y-122845461D01*
X114387261Y-122893080D01*
X114577738Y-122893080D01*
X114672976Y-122845461D01*
X114720595Y-122797842D01*
X114768214Y-122702604D01*
X114768214Y-122464509D01*
X114720595Y-122369271D01*
X114672976Y-122321652D01*
X114577738Y-122274033D01*
X114387261Y-122274033D01*
X114292023Y-122321652D01*
X114244404Y-122369271D01*
X114196785Y-122464509D01*
X114019033Y-115317542D02*
X113971414Y-115365161D01*
X113828557Y-115412780D01*
X113733319Y-115412780D01*
X113590461Y-115365161D01*
X113495223Y-115269923D01*
X113447604Y-115174685D01*
X113399985Y-114984209D01*
X113399985Y-114841352D01*
X113447604Y-114650876D01*
X113495223Y-114555638D01*
X113590461Y-114460400D01*
X113733319Y-114412780D01*
X113828557Y-114412780D01*
X113971414Y-114460400D01*
X114019033Y-114508019D01*
X114352366Y-114412780D02*
X115019033Y-114412780D01*
X114590461Y-115412780D01*
X100125304Y-98521780D02*
X100125304Y-97521780D01*
X100363400Y-97521780D01*
X100506257Y-97569400D01*
X100601495Y-97664638D01*
X100649114Y-97759876D01*
X100696733Y-97950352D01*
X100696733Y-98093209D01*
X100649114Y-98283685D01*
X100601495Y-98378923D01*
X100506257Y-98474161D01*
X100363400Y-98521780D01*
X100125304Y-98521780D01*
X101649114Y-98521780D02*
X101077685Y-98521780D01*
X101363400Y-98521780D02*
X101363400Y-97521780D01*
X101268161Y-97664638D01*
X101172923Y-97759876D01*
X101077685Y-97807495D01*
X100112604Y-103423980D02*
X100112604Y-102423980D01*
X100350700Y-102423980D01*
X100493557Y-102471600D01*
X100588795Y-102566838D01*
X100636414Y-102662076D01*
X100684033Y-102852552D01*
X100684033Y-102995409D01*
X100636414Y-103185885D01*
X100588795Y-103281123D01*
X100493557Y-103376361D01*
X100350700Y-103423980D01*
X100112604Y-103423980D01*
X101064985Y-102519219D02*
X101112604Y-102471600D01*
X101207842Y-102423980D01*
X101445938Y-102423980D01*
X101541176Y-102471600D01*
X101588795Y-102519219D01*
X101636414Y-102614457D01*
X101636414Y-102709695D01*
X101588795Y-102852552D01*
X101017366Y-103423980D01*
X101636414Y-103423980D01*
X100036404Y-108224580D02*
X100036404Y-107224580D01*
X100274500Y-107224580D01*
X100417357Y-107272200D01*
X100512595Y-107367438D01*
X100560214Y-107462676D01*
X100607833Y-107653152D01*
X100607833Y-107796009D01*
X100560214Y-107986485D01*
X100512595Y-108081723D01*
X100417357Y-108176961D01*
X100274500Y-108224580D01*
X100036404Y-108224580D01*
X100941166Y-107224580D02*
X101560214Y-107224580D01*
X101226880Y-107605533D01*
X101369738Y-107605533D01*
X101464976Y-107653152D01*
X101512595Y-107700771D01*
X101560214Y-107796009D01*
X101560214Y-108034104D01*
X101512595Y-108129342D01*
X101464976Y-108176961D01*
X101369738Y-108224580D01*
X101084023Y-108224580D01*
X100988785Y-108176961D01*
X100941166Y-108129342D01*
X159523180Y-103177933D02*
X160237466Y-103177933D01*
X160380323Y-103225552D01*
X160475561Y-103320790D01*
X160523180Y-103463647D01*
X160523180Y-103558885D01*
X160523180Y-102177933D02*
X160523180Y-102749361D01*
X160523180Y-102463647D02*
X159523180Y-102463647D01*
X159666038Y-102558885D01*
X159761276Y-102654123D01*
X159808895Y-102749361D01*
X128782380Y-99393333D02*
X129496666Y-99393333D01*
X129639523Y-99440952D01*
X129734761Y-99536190D01*
X129782380Y-99679047D01*
X129782380Y-99774285D01*
X128877619Y-98964761D02*
X128830000Y-98917142D01*
X128782380Y-98821904D01*
X128782380Y-98583809D01*
X128830000Y-98488571D01*
X128877619Y-98440952D01*
X128972857Y-98393333D01*
X129068095Y-98393333D01*
X129210952Y-98440952D01*
X129782380Y-99012380D01*
X129782380Y-98393333D01*
X130389380Y-102263533D02*
X131103666Y-102263533D01*
X131246523Y-102311152D01*
X131341761Y-102406390D01*
X131389380Y-102549247D01*
X131389380Y-102644485D01*
X130389380Y-101882580D02*
X130389380Y-101263533D01*
X130770333Y-101596866D01*
X130770333Y-101454009D01*
X130817952Y-101358771D01*
X130865571Y-101311152D01*
X130960809Y-101263533D01*
X131198904Y-101263533D01*
X131294142Y-101311152D01*
X131341761Y-101358771D01*
X131389380Y-101454009D01*
X131389380Y-101739723D01*
X131341761Y-101834961D01*
X131294142Y-101882580D01*
X126242380Y-132413333D02*
X126956666Y-132413333D01*
X127099523Y-132460952D01*
X127194761Y-132556190D01*
X127242380Y-132699047D01*
X127242380Y-132794285D01*
X126575714Y-131508571D02*
X127242380Y-131508571D01*
X126194761Y-131746666D02*
X126909047Y-131984761D01*
X126909047Y-131365714D01*
X160956666Y-121582380D02*
X160956666Y-122296666D01*
X160909047Y-122439523D01*
X160813809Y-122534761D01*
X160670952Y-122582380D01*
X160575714Y-122582380D01*
X161909047Y-121582380D02*
X161432857Y-121582380D01*
X161385238Y-122058571D01*
X161432857Y-122010952D01*
X161528095Y-121963333D01*
X161766190Y-121963333D01*
X161861428Y-122010952D01*
X161909047Y-122058571D01*
X161956666Y-122153809D01*
X161956666Y-122391904D01*
X161909047Y-122487142D01*
X161861428Y-122534761D01*
X161766190Y-122582380D01*
X161528095Y-122582380D01*
X161432857Y-122534761D01*
X161385238Y-122487142D01*
X101266666Y-112692380D02*
X101266666Y-113406666D01*
X101219047Y-113549523D01*
X101123809Y-113644761D01*
X100980952Y-113692380D01*
X100885714Y-113692380D01*
X102171428Y-112692380D02*
X101980952Y-112692380D01*
X101885714Y-112740000D01*
X101838095Y-112787619D01*
X101742857Y-112930476D01*
X101695238Y-113120952D01*
X101695238Y-113501904D01*
X101742857Y-113597142D01*
X101790476Y-113644761D01*
X101885714Y-113692380D01*
X102076190Y-113692380D01*
X102171428Y-113644761D01*
X102219047Y-113597142D01*
X102266666Y-113501904D01*
X102266666Y-113263809D01*
X102219047Y-113168571D01*
X102171428Y-113120952D01*
X102076190Y-113073333D01*
X101885714Y-113073333D01*
X101790476Y-113120952D01*
X101742857Y-113168571D01*
X101695238Y-113263809D01*
X114812380Y-132413333D02*
X115526666Y-132413333D01*
X115669523Y-132460952D01*
X115764761Y-132556190D01*
X115812380Y-132699047D01*
X115812380Y-132794285D01*
X114812380Y-132032380D02*
X114812380Y-131365714D01*
X115812380Y-131794285D01*
X134286666Y-118622380D02*
X134286666Y-119336666D01*
X134239047Y-119479523D01*
X134143809Y-119574761D01*
X134000952Y-119622380D01*
X133905714Y-119622380D01*
X134905714Y-119050952D02*
X134810476Y-119003333D01*
X134762857Y-118955714D01*
X134715238Y-118860476D01*
X134715238Y-118812857D01*
X134762857Y-118717619D01*
X134810476Y-118670000D01*
X134905714Y-118622380D01*
X135096190Y-118622380D01*
X135191428Y-118670000D01*
X135239047Y-118717619D01*
X135286666Y-118812857D01*
X135286666Y-118860476D01*
X135239047Y-118955714D01*
X135191428Y-119003333D01*
X135096190Y-119050952D01*
X134905714Y-119050952D01*
X134810476Y-119098571D01*
X134762857Y-119146190D01*
X134715238Y-119241428D01*
X134715238Y-119431904D01*
X134762857Y-119527142D01*
X134810476Y-119574761D01*
X134905714Y-119622380D01*
X135096190Y-119622380D01*
X135191428Y-119574761D01*
X135239047Y-119527142D01*
X135286666Y-119431904D01*
X135286666Y-119241428D01*
X135239047Y-119146190D01*
X135191428Y-119098571D01*
X135096190Y-119050952D01*
X112834680Y-109246966D02*
X112834680Y-109723157D01*
X111834680Y-109723157D01*
X112834680Y-108389823D02*
X112834680Y-108961252D01*
X112834680Y-108675538D02*
X111834680Y-108675538D01*
X111977538Y-108770776D01*
X112072776Y-108866014D01*
X112120395Y-108961252D01*
X147115233Y-129458980D02*
X146639042Y-129458980D01*
X146639042Y-128458980D01*
X147400947Y-128554219D02*
X147448566Y-128506600D01*
X147543804Y-128458980D01*
X147781900Y-128458980D01*
X147877138Y-128506600D01*
X147924757Y-128554219D01*
X147972376Y-128649457D01*
X147972376Y-128744695D01*
X147924757Y-128887552D01*
X147353328Y-129458980D01*
X147972376Y-129458980D01*
X145857933Y-120378480D02*
X145381742Y-120378480D01*
X145381742Y-119378480D01*
X146096028Y-119378480D02*
X146715076Y-119378480D01*
X146381742Y-119759433D01*
X146524600Y-119759433D01*
X146619838Y-119807052D01*
X146667457Y-119854671D01*
X146715076Y-119949909D01*
X146715076Y-120188004D01*
X146667457Y-120283242D01*
X146619838Y-120330861D01*
X146524600Y-120378480D01*
X146238885Y-120378480D01*
X146143647Y-120330861D01*
X146096028Y-120283242D01*
X137006033Y-120708680D02*
X136529842Y-120708680D01*
X136529842Y-119708680D01*
X137767938Y-120042014D02*
X137767938Y-120708680D01*
X137529842Y-119661061D02*
X137291747Y-120375347D01*
X137910795Y-120375347D01*
X155697180Y-118048066D02*
X155697180Y-118524257D01*
X154697180Y-118524257D01*
X154697180Y-117238542D02*
X154697180Y-117714733D01*
X155173371Y-117762352D01*
X155125752Y-117714733D01*
X155078133Y-117619495D01*
X155078133Y-117381400D01*
X155125752Y-117286161D01*
X155173371Y-117238542D01*
X155268609Y-117190923D01*
X155506704Y-117190923D01*
X155601942Y-117238542D01*
X155649561Y-117286161D01*
X155697180Y-117381400D01*
X155697180Y-117619495D01*
X155649561Y-117714733D01*
X155601942Y-117762352D01*
X118816666Y-112607380D02*
X118816666Y-111607380D01*
X119150000Y-112321666D01*
X119483333Y-111607380D01*
X119483333Y-112607380D01*
X120530952Y-112512142D02*
X120483333Y-112559761D01*
X120340476Y-112607380D01*
X120245238Y-112607380D01*
X120102380Y-112559761D01*
X120007142Y-112464523D01*
X119959523Y-112369285D01*
X119911904Y-112178809D01*
X119911904Y-112035952D01*
X119959523Y-111845476D01*
X120007142Y-111750238D01*
X120102380Y-111655000D01*
X120245238Y-111607380D01*
X120340476Y-111607380D01*
X120483333Y-111655000D01*
X120530952Y-111702619D01*
X120959523Y-111607380D02*
X120959523Y-112416904D01*
X121007142Y-112512142D01*
X121054761Y-112559761D01*
X121150000Y-112607380D01*
X121340476Y-112607380D01*
X121435714Y-112559761D01*
X121483333Y-112512142D01*
X121530952Y-112416904D01*
X121530952Y-111607380D01*
X122530952Y-112607380D02*
X121959523Y-112607380D01*
X122245238Y-112607380D02*
X122245238Y-111607380D01*
X122150000Y-111750238D01*
X122054761Y-111845476D01*
X121959523Y-111893095D01*
X150325080Y-103036666D02*
X149848890Y-103370000D01*
X150325080Y-103608095D02*
X149325080Y-103608095D01*
X149325080Y-103227142D01*
X149372700Y-103131904D01*
X149420319Y-103084285D01*
X149515557Y-103036666D01*
X149658414Y-103036666D01*
X149753652Y-103084285D01*
X149801271Y-103131904D01*
X149848890Y-103227142D01*
X149848890Y-103608095D01*
X150325080Y-102084285D02*
X150325080Y-102655714D01*
X150325080Y-102370000D02*
X149325080Y-102370000D01*
X149467938Y-102465238D01*
X149563176Y-102560476D01*
X149610795Y-102655714D01*
X154786033Y-132545080D02*
X154452700Y-132068890D01*
X154214604Y-132545080D02*
X154214604Y-131545080D01*
X154595557Y-131545080D01*
X154690795Y-131592700D01*
X154738414Y-131640319D01*
X154786033Y-131735557D01*
X154786033Y-131878414D01*
X154738414Y-131973652D01*
X154690795Y-132021271D01*
X154595557Y-132068890D01*
X154214604Y-132068890D01*
X155166985Y-131640319D02*
X155214604Y-131592700D01*
X155309842Y-131545080D01*
X155547938Y-131545080D01*
X155643176Y-131592700D01*
X155690795Y-131640319D01*
X155738414Y-131735557D01*
X155738414Y-131830795D01*
X155690795Y-131973652D01*
X155119366Y-132545080D01*
X155738414Y-132545080D01*
X154747933Y-130055880D02*
X154414600Y-129579690D01*
X154176504Y-130055880D02*
X154176504Y-129055880D01*
X154557457Y-129055880D01*
X154652695Y-129103500D01*
X154700314Y-129151119D01*
X154747933Y-129246357D01*
X154747933Y-129389214D01*
X154700314Y-129484452D01*
X154652695Y-129532071D01*
X154557457Y-129579690D01*
X154176504Y-129579690D01*
X155081266Y-129055880D02*
X155700314Y-129055880D01*
X155366980Y-129436833D01*
X155509838Y-129436833D01*
X155605076Y-129484452D01*
X155652695Y-129532071D01*
X155700314Y-129627309D01*
X155700314Y-129865404D01*
X155652695Y-129960642D01*
X155605076Y-130008261D01*
X155509838Y-130055880D01*
X155224123Y-130055880D01*
X155128885Y-130008261D01*
X155081266Y-129960642D01*
X154773333Y-127617480D02*
X154440000Y-127141290D01*
X154201904Y-127617480D02*
X154201904Y-126617480D01*
X154582857Y-126617480D01*
X154678095Y-126665100D01*
X154725714Y-126712719D01*
X154773333Y-126807957D01*
X154773333Y-126950814D01*
X154725714Y-127046052D01*
X154678095Y-127093671D01*
X154582857Y-127141290D01*
X154201904Y-127141290D01*
X155630476Y-126950814D02*
X155630476Y-127617480D01*
X155392380Y-126569861D02*
X155154285Y-127284147D01*
X155773333Y-127284147D01*
X154773333Y-124975880D02*
X154440000Y-124499690D01*
X154201904Y-124975880D02*
X154201904Y-123975880D01*
X154582857Y-123975880D01*
X154678095Y-124023500D01*
X154725714Y-124071119D01*
X154773333Y-124166357D01*
X154773333Y-124309214D01*
X154725714Y-124404452D01*
X154678095Y-124452071D01*
X154582857Y-124499690D01*
X154201904Y-124499690D01*
X155678095Y-123975880D02*
X155201904Y-123975880D01*
X155154285Y-124452071D01*
X155201904Y-124404452D01*
X155297142Y-124356833D01*
X155535238Y-124356833D01*
X155630476Y-124404452D01*
X155678095Y-124452071D01*
X155725714Y-124547309D01*
X155725714Y-124785404D01*
X155678095Y-124880642D01*
X155630476Y-124928261D01*
X155535238Y-124975880D01*
X155297142Y-124975880D01*
X155201904Y-124928261D01*
X155154285Y-124880642D01*
X110386833Y-99474280D02*
X110053500Y-98998090D01*
X109815404Y-99474280D02*
X109815404Y-98474280D01*
X110196357Y-98474280D01*
X110291595Y-98521900D01*
X110339214Y-98569519D01*
X110386833Y-98664757D01*
X110386833Y-98807614D01*
X110339214Y-98902852D01*
X110291595Y-98950471D01*
X110196357Y-98998090D01*
X109815404Y-98998090D01*
X111243976Y-98474280D02*
X111053500Y-98474280D01*
X110958261Y-98521900D01*
X110910642Y-98569519D01*
X110815404Y-98712376D01*
X110767785Y-98902852D01*
X110767785Y-99283804D01*
X110815404Y-99379042D01*
X110863023Y-99426661D01*
X110958261Y-99474280D01*
X111148738Y-99474280D01*
X111243976Y-99426661D01*
X111291595Y-99379042D01*
X111339214Y-99283804D01*
X111339214Y-99045709D01*
X111291595Y-98950471D01*
X111243976Y-98902852D01*
X111148738Y-98855233D01*
X110958261Y-98855233D01*
X110863023Y-98902852D01*
X110815404Y-98950471D01*
X110767785Y-99045709D01*
X114736666Y-99512380D02*
X114165238Y-99512380D01*
X114450952Y-99512380D02*
X114450952Y-98512380D01*
X114355714Y-98655238D01*
X114260476Y-98750476D01*
X114165238Y-98798095D01*
X115165238Y-99417142D02*
X115212857Y-99464761D01*
X115165238Y-99512380D01*
X115117619Y-99464761D01*
X115165238Y-99417142D01*
X115165238Y-99512380D01*
X116165238Y-99512380D02*
X115593809Y-99512380D01*
X115879523Y-99512380D02*
X115879523Y-98512380D01*
X115784285Y-98655238D01*
X115689047Y-98750476D01*
X115593809Y-98798095D01*
X116593809Y-99512380D02*
X116593809Y-98512380D01*
X116689047Y-99131428D02*
X116974761Y-99512380D01*
X116974761Y-98845714D02*
X116593809Y-99226666D01*
X110412233Y-102014280D02*
X110078900Y-101538090D01*
X109840804Y-102014280D02*
X109840804Y-101014280D01*
X110221757Y-101014280D01*
X110316995Y-101061900D01*
X110364614Y-101109519D01*
X110412233Y-101204757D01*
X110412233Y-101347614D01*
X110364614Y-101442852D01*
X110316995Y-101490471D01*
X110221757Y-101538090D01*
X109840804Y-101538090D01*
X110745566Y-101014280D02*
X111412233Y-101014280D01*
X110983661Y-102014280D01*
X114736666Y-102052380D02*
X114165238Y-102052380D01*
X114450952Y-102052380D02*
X114450952Y-101052380D01*
X114355714Y-101195238D01*
X114260476Y-101290476D01*
X114165238Y-101338095D01*
X115165238Y-101957142D02*
X115212857Y-102004761D01*
X115165238Y-102052380D01*
X115117619Y-102004761D01*
X115165238Y-101957142D01*
X115165238Y-102052380D01*
X116165238Y-102052380D02*
X115593809Y-102052380D01*
X115879523Y-102052380D02*
X115879523Y-101052380D01*
X115784285Y-101195238D01*
X115689047Y-101290476D01*
X115593809Y-101338095D01*
X116593809Y-102052380D02*
X116593809Y-101052380D01*
X116689047Y-101671428D02*
X116974761Y-102052380D01*
X116974761Y-101385714D02*
X116593809Y-101766666D01*
X110323333Y-104592380D02*
X109990000Y-104116190D01*
X109751904Y-104592380D02*
X109751904Y-103592380D01*
X110132857Y-103592380D01*
X110228095Y-103640000D01*
X110275714Y-103687619D01*
X110323333Y-103782857D01*
X110323333Y-103925714D01*
X110275714Y-104020952D01*
X110228095Y-104068571D01*
X110132857Y-104116190D01*
X109751904Y-104116190D01*
X110894761Y-104020952D02*
X110799523Y-103973333D01*
X110751904Y-103925714D01*
X110704285Y-103830476D01*
X110704285Y-103782857D01*
X110751904Y-103687619D01*
X110799523Y-103640000D01*
X110894761Y-103592380D01*
X111085238Y-103592380D01*
X111180476Y-103640000D01*
X111228095Y-103687619D01*
X111275714Y-103782857D01*
X111275714Y-103830476D01*
X111228095Y-103925714D01*
X111180476Y-103973333D01*
X111085238Y-104020952D01*
X110894761Y-104020952D01*
X110799523Y-104068571D01*
X110751904Y-104116190D01*
X110704285Y-104211428D01*
X110704285Y-104401904D01*
X110751904Y-104497142D01*
X110799523Y-104544761D01*
X110894761Y-104592380D01*
X111085238Y-104592380D01*
X111180476Y-104544761D01*
X111228095Y-104497142D01*
X111275714Y-104401904D01*
X111275714Y-104211428D01*
X111228095Y-104116190D01*
X111180476Y-104068571D01*
X111085238Y-104020952D01*
X114736666Y-104592380D02*
X114165238Y-104592380D01*
X114450952Y-104592380D02*
X114450952Y-103592380D01*
X114355714Y-103735238D01*
X114260476Y-103830476D01*
X114165238Y-103878095D01*
X115165238Y-104497142D02*
X115212857Y-104544761D01*
X115165238Y-104592380D01*
X115117619Y-104544761D01*
X115165238Y-104497142D01*
X115165238Y-104592380D01*
X116165238Y-104592380D02*
X115593809Y-104592380D01*
X115879523Y-104592380D02*
X115879523Y-103592380D01*
X115784285Y-103735238D01*
X115689047Y-103830476D01*
X115593809Y-103878095D01*
X116593809Y-104592380D02*
X116593809Y-103592380D01*
X116689047Y-104211428D02*
X116974761Y-104592380D01*
X116974761Y-103925714D02*
X116593809Y-104306666D01*
X140718095Y-109780380D02*
X140718095Y-110589904D01*
X140765714Y-110685142D01*
X140813333Y-110732761D01*
X140908571Y-110780380D01*
X141099047Y-110780380D01*
X141194285Y-110732761D01*
X141241904Y-110685142D01*
X141289523Y-110589904D01*
X141289523Y-109780380D01*
X141718095Y-109875619D02*
X141765714Y-109828000D01*
X141860952Y-109780380D01*
X142099047Y-109780380D01*
X142194285Y-109828000D01*
X142241904Y-109875619D01*
X142289523Y-109970857D01*
X142289523Y-110066095D01*
X142241904Y-110208952D01*
X141670476Y-110780380D01*
X142289523Y-110780380D01*
M02*
