G04 #@! TF.GenerationSoftware,KiCad,Pcbnew,5.1.5+dfsg1-2build2*
G04 #@! TF.CreationDate,2020-12-30T20:24:06+01:00*
G04 #@! TF.ProjectId,stm32f0can,73746d33-3266-4306-9361-6e2e6b696361,rev?*
G04 #@! TF.SameCoordinates,Original*
G04 #@! TF.FileFunction,Legend,Bot*
G04 #@! TF.FilePolarity,Positive*
%FSLAX46Y46*%
G04 Gerber Fmt 4.6, Leading zero omitted, Abs format (unit mm)*
G04 Created by KiCad (PCBNEW 5.1.5+dfsg1-2build2) date 2020-12-30 20:24:06*
%MOMM*%
%LPD*%
G04 APERTURE LIST*
%ADD10C,0.150000*%
%ADD11C,0.300000*%
G04 APERTURE END LIST*
D10*
X149556047Y-127299980D02*
X149556047Y-126299980D01*
X149127476Y-127299980D02*
X149127476Y-126776171D01*
X149175095Y-126680933D01*
X149270333Y-126633314D01*
X149413190Y-126633314D01*
X149508428Y-126680933D01*
X149556047Y-126728552D01*
X148794142Y-126633314D02*
X148413190Y-126633314D01*
X148651285Y-126299980D02*
X148651285Y-127157123D01*
X148603666Y-127252361D01*
X148508428Y-127299980D01*
X148413190Y-127299980D01*
X148222714Y-126633314D02*
X147841761Y-126633314D01*
X148079857Y-126299980D02*
X148079857Y-127157123D01*
X148032238Y-127252361D01*
X147937000Y-127299980D01*
X147841761Y-127299980D01*
X147508428Y-126633314D02*
X147508428Y-127633314D01*
X147508428Y-126680933D02*
X147413190Y-126633314D01*
X147222714Y-126633314D01*
X147127476Y-126680933D01*
X147079857Y-126728552D01*
X147032238Y-126823790D01*
X147032238Y-127109504D01*
X147079857Y-127204742D01*
X147127476Y-127252361D01*
X147222714Y-127299980D01*
X147413190Y-127299980D01*
X147508428Y-127252361D01*
X146651285Y-127252361D02*
X146556047Y-127299980D01*
X146365571Y-127299980D01*
X146270333Y-127252361D01*
X146222714Y-127157123D01*
X146222714Y-127109504D01*
X146270333Y-127014266D01*
X146365571Y-126966647D01*
X146508428Y-126966647D01*
X146603666Y-126919028D01*
X146651285Y-126823790D01*
X146651285Y-126776171D01*
X146603666Y-126680933D01*
X146508428Y-126633314D01*
X146365571Y-126633314D01*
X146270333Y-126680933D01*
X145794142Y-127204742D02*
X145746523Y-127252361D01*
X145794142Y-127299980D01*
X145841761Y-127252361D01*
X145794142Y-127204742D01*
X145794142Y-127299980D01*
X145794142Y-126680933D02*
X145746523Y-126728552D01*
X145794142Y-126776171D01*
X145841761Y-126728552D01*
X145794142Y-126680933D01*
X145794142Y-126776171D01*
X144603666Y-126252361D02*
X145460809Y-127538076D01*
X143556047Y-126252361D02*
X144413190Y-127538076D01*
X142794142Y-126633314D02*
X142794142Y-127442838D01*
X142841761Y-127538076D01*
X142889380Y-127585695D01*
X142984619Y-127633314D01*
X143127476Y-127633314D01*
X143222714Y-127585695D01*
X142794142Y-127252361D02*
X142889380Y-127299980D01*
X143079857Y-127299980D01*
X143175095Y-127252361D01*
X143222714Y-127204742D01*
X143270333Y-127109504D01*
X143270333Y-126823790D01*
X143222714Y-126728552D01*
X143175095Y-126680933D01*
X143079857Y-126633314D01*
X142889380Y-126633314D01*
X142794142Y-126680933D01*
X142317952Y-127299980D02*
X142317952Y-126633314D01*
X142317952Y-126299980D02*
X142365571Y-126347600D01*
X142317952Y-126395219D01*
X142270333Y-126347600D01*
X142317952Y-126299980D01*
X142317952Y-126395219D01*
X141984619Y-126633314D02*
X141603666Y-126633314D01*
X141841761Y-126299980D02*
X141841761Y-127157123D01*
X141794142Y-127252361D01*
X141698904Y-127299980D01*
X141603666Y-127299980D01*
X141270333Y-127299980D02*
X141270333Y-126299980D01*
X140841761Y-127299980D02*
X140841761Y-126776171D01*
X140889380Y-126680933D01*
X140984619Y-126633314D01*
X141127476Y-126633314D01*
X141222714Y-126680933D01*
X141270333Y-126728552D01*
X139937000Y-126633314D02*
X139937000Y-127299980D01*
X140365571Y-126633314D02*
X140365571Y-127157123D01*
X140317952Y-127252361D01*
X140222714Y-127299980D01*
X140079857Y-127299980D01*
X139984619Y-127252361D01*
X139937000Y-127204742D01*
X139460809Y-127299980D02*
X139460809Y-126299980D01*
X139460809Y-126680933D02*
X139365571Y-126633314D01*
X139175095Y-126633314D01*
X139079857Y-126680933D01*
X139032238Y-126728552D01*
X138984619Y-126823790D01*
X138984619Y-127109504D01*
X139032238Y-127204742D01*
X139079857Y-127252361D01*
X139175095Y-127299980D01*
X139365571Y-127299980D01*
X139460809Y-127252361D01*
X138556047Y-127204742D02*
X138508428Y-127252361D01*
X138556047Y-127299980D01*
X138603666Y-127252361D01*
X138556047Y-127204742D01*
X138556047Y-127299980D01*
X137651285Y-127252361D02*
X137746523Y-127299980D01*
X137937000Y-127299980D01*
X138032238Y-127252361D01*
X138079857Y-127204742D01*
X138127476Y-127109504D01*
X138127476Y-126823790D01*
X138079857Y-126728552D01*
X138032238Y-126680933D01*
X137937000Y-126633314D01*
X137746523Y-126633314D01*
X137651285Y-126680933D01*
X137079857Y-127299980D02*
X137175095Y-127252361D01*
X137222714Y-127204742D01*
X137270333Y-127109504D01*
X137270333Y-126823790D01*
X137222714Y-126728552D01*
X137175095Y-126680933D01*
X137079857Y-126633314D01*
X136937000Y-126633314D01*
X136841761Y-126680933D01*
X136794142Y-126728552D01*
X136746523Y-126823790D01*
X136746523Y-127109504D01*
X136794142Y-127204742D01*
X136841761Y-127252361D01*
X136937000Y-127299980D01*
X137079857Y-127299980D01*
X136317952Y-127299980D02*
X136317952Y-126633314D01*
X136317952Y-126728552D02*
X136270333Y-126680933D01*
X136175095Y-126633314D01*
X136032238Y-126633314D01*
X135937000Y-126680933D01*
X135889380Y-126776171D01*
X135889380Y-127299980D01*
X135889380Y-126776171D02*
X135841761Y-126680933D01*
X135746523Y-126633314D01*
X135603666Y-126633314D01*
X135508428Y-126680933D01*
X135460809Y-126776171D01*
X135460809Y-127299980D01*
X134270333Y-126252361D02*
X135127476Y-127538076D01*
X133365571Y-127204742D02*
X133413190Y-127252361D01*
X133556047Y-127299980D01*
X133651285Y-127299980D01*
X133794142Y-127252361D01*
X133889380Y-127157123D01*
X133937000Y-127061885D01*
X133984619Y-126871409D01*
X133984619Y-126728552D01*
X133937000Y-126538076D01*
X133889380Y-126442838D01*
X133794142Y-126347600D01*
X133651285Y-126299980D01*
X133556047Y-126299980D01*
X133413190Y-126347600D01*
X133365571Y-126395219D01*
X132746523Y-126299980D02*
X132556047Y-126299980D01*
X132460809Y-126347600D01*
X132365571Y-126442838D01*
X132317952Y-126633314D01*
X132317952Y-126966647D01*
X132365571Y-127157123D01*
X132460809Y-127252361D01*
X132556047Y-127299980D01*
X132746523Y-127299980D01*
X132841761Y-127252361D01*
X132937000Y-127157123D01*
X132984619Y-126966647D01*
X132984619Y-126633314D01*
X132937000Y-126442838D01*
X132841761Y-126347600D01*
X132746523Y-126299980D01*
X131413190Y-127299980D02*
X131889380Y-127299980D01*
X131889380Y-126299980D01*
X131222714Y-126299980D02*
X130889380Y-127299980D01*
X130556047Y-126299980D01*
X130222714Y-126776171D02*
X129889380Y-126776171D01*
X129746523Y-127299980D02*
X130222714Y-127299980D01*
X130222714Y-126299980D01*
X129746523Y-126299980D01*
X128746523Y-127299980D02*
X129079857Y-126823790D01*
X129317952Y-127299980D02*
X129317952Y-126299980D01*
X128937000Y-126299980D01*
X128841761Y-126347600D01*
X128794142Y-126395219D01*
X128746523Y-126490457D01*
X128746523Y-126633314D01*
X128794142Y-126728552D01*
X128841761Y-126776171D01*
X128937000Y-126823790D01*
X129317952Y-126823790D01*
X128460809Y-126299980D02*
X127889380Y-126299980D01*
X128175095Y-127299980D02*
X128175095Y-126299980D01*
X127365571Y-126823790D02*
X127365571Y-127299980D01*
X127698904Y-126299980D02*
X127365571Y-126823790D01*
X127032238Y-126299980D01*
X126698904Y-126776171D02*
X126365571Y-126776171D01*
X126222714Y-127299980D02*
X126698904Y-127299980D01*
X126698904Y-126299980D01*
X126222714Y-126299980D01*
X125937000Y-126299980D02*
X125365571Y-126299980D01*
X125651285Y-127299980D02*
X125651285Y-126299980D01*
X124841761Y-126823790D02*
X124841761Y-127299980D01*
X125175095Y-126299980D02*
X124841761Y-126823790D01*
X124508428Y-126299980D01*
X123460809Y-126252361D02*
X124317952Y-127538076D01*
X123175095Y-127252361D02*
X123079857Y-127299980D01*
X122889380Y-127299980D01*
X122794142Y-127252361D01*
X122746523Y-127157123D01*
X122746523Y-127109504D01*
X122794142Y-127014266D01*
X122889380Y-126966647D01*
X123032238Y-126966647D01*
X123127476Y-126919028D01*
X123175095Y-126823790D01*
X123175095Y-126776171D01*
X123127476Y-126680933D01*
X123032238Y-126633314D01*
X122889380Y-126633314D01*
X122794142Y-126680933D01*
X122460809Y-126633314D02*
X122079857Y-126633314D01*
X122317952Y-126299980D02*
X122317952Y-127157123D01*
X122270333Y-127252361D01*
X122175095Y-127299980D01*
X122079857Y-127299980D01*
X121746523Y-127299980D02*
X121746523Y-126633314D01*
X121746523Y-126728552D02*
X121698904Y-126680933D01*
X121603666Y-126633314D01*
X121460809Y-126633314D01*
X121365571Y-126680933D01*
X121317952Y-126776171D01*
X121317952Y-127299980D01*
X121317952Y-126776171D02*
X121270333Y-126680933D01*
X121175095Y-126633314D01*
X121032238Y-126633314D01*
X120937000Y-126680933D01*
X120889380Y-126776171D01*
X120889380Y-127299980D01*
X120508428Y-126299980D02*
X119889380Y-126299980D01*
X120222714Y-126680933D01*
X120079857Y-126680933D01*
X119984619Y-126728552D01*
X119937000Y-126776171D01*
X119889380Y-126871409D01*
X119889380Y-127109504D01*
X119937000Y-127204742D01*
X119984619Y-127252361D01*
X120079857Y-127299980D01*
X120365571Y-127299980D01*
X120460809Y-127252361D01*
X120508428Y-127204742D01*
X119508428Y-126395219D02*
X119460809Y-126347600D01*
X119365571Y-126299980D01*
X119127476Y-126299980D01*
X119032238Y-126347600D01*
X118984619Y-126395219D01*
X118937000Y-126490457D01*
X118937000Y-126585695D01*
X118984619Y-126728552D01*
X119556047Y-127299980D01*
X118937000Y-127299980D01*
X118079857Y-127252361D02*
X118175095Y-127299980D01*
X118365571Y-127299980D01*
X118460809Y-127252361D01*
X118508428Y-127204742D01*
X118556047Y-127109504D01*
X118556047Y-126823790D01*
X118508428Y-126728552D01*
X118460809Y-126680933D01*
X118365571Y-126633314D01*
X118175095Y-126633314D01*
X118079857Y-126680933D01*
X117222714Y-127299980D02*
X117222714Y-126776171D01*
X117270333Y-126680933D01*
X117365571Y-126633314D01*
X117556047Y-126633314D01*
X117651285Y-126680933D01*
X117222714Y-127252361D02*
X117317952Y-127299980D01*
X117556047Y-127299980D01*
X117651285Y-127252361D01*
X117698904Y-127157123D01*
X117698904Y-127061885D01*
X117651285Y-126966647D01*
X117556047Y-126919028D01*
X117317952Y-126919028D01*
X117222714Y-126871409D01*
X116746523Y-126633314D02*
X116746523Y-127299980D01*
X116746523Y-126728552D02*
X116698904Y-126680933D01*
X116603666Y-126633314D01*
X116460809Y-126633314D01*
X116365571Y-126680933D01*
X116317952Y-126776171D01*
X116317952Y-127299980D01*
X115841761Y-127299980D02*
X115841761Y-126299980D01*
X115460809Y-126299980D01*
X115365571Y-126347600D01*
X115317952Y-126395219D01*
X115270333Y-126490457D01*
X115270333Y-126633314D01*
X115317952Y-126728552D01*
X115365571Y-126776171D01*
X115460809Y-126823790D01*
X115841761Y-126823790D01*
X114841761Y-127299980D02*
X114841761Y-126633314D01*
X114841761Y-126823790D02*
X114794142Y-126728552D01*
X114746523Y-126680933D01*
X114651285Y-126633314D01*
X114556047Y-126633314D01*
X114079857Y-127299980D02*
X114175095Y-127252361D01*
X114222714Y-127204742D01*
X114270333Y-127109504D01*
X114270333Y-126823790D01*
X114222714Y-126728552D01*
X114175095Y-126680933D01*
X114079857Y-126633314D01*
X113937000Y-126633314D01*
X113841761Y-126680933D01*
X113794142Y-126728552D01*
X113746523Y-126823790D01*
X113746523Y-127109504D01*
X113794142Y-127204742D01*
X113841761Y-127252361D01*
X113937000Y-127299980D01*
X114079857Y-127299980D01*
X113460809Y-126633314D02*
X113079857Y-126633314D01*
X113317952Y-126299980D02*
X113317952Y-127157123D01*
X113270333Y-127252361D01*
X113175095Y-127299980D01*
X113079857Y-127299980D01*
X112603666Y-127299980D02*
X112698904Y-127252361D01*
X112746523Y-127204742D01*
X112794142Y-127109504D01*
X112794142Y-126823790D01*
X112746523Y-126728552D01*
X112698904Y-126680933D01*
X112603666Y-126633314D01*
X112460809Y-126633314D01*
X112365571Y-126680933D01*
X112317952Y-126728552D01*
X112270333Y-126823790D01*
X112270333Y-127109504D01*
X112317952Y-127204742D01*
X112365571Y-127252361D01*
X112460809Y-127299980D01*
X112603666Y-127299980D01*
D11*
X147730380Y-106351523D02*
X147444666Y-106446761D01*
X146968476Y-106446761D01*
X146778000Y-106351523D01*
X146682761Y-106256285D01*
X146587523Y-106065809D01*
X146587523Y-105875333D01*
X146682761Y-105684857D01*
X146778000Y-105589619D01*
X146968476Y-105494380D01*
X147349428Y-105399142D01*
X147539904Y-105303904D01*
X147635142Y-105208666D01*
X147730380Y-105018190D01*
X147730380Y-104827714D01*
X147635142Y-104637238D01*
X147539904Y-104542000D01*
X147349428Y-104446761D01*
X146873238Y-104446761D01*
X146587523Y-104542000D01*
X146016095Y-104446761D02*
X144873238Y-104446761D01*
X145444666Y-106446761D02*
X145444666Y-104446761D01*
X144301809Y-105875333D02*
X143349428Y-105875333D01*
X144492285Y-106446761D02*
X143825619Y-104446761D01*
X143158952Y-106446761D01*
X142587523Y-106351523D02*
X142301809Y-106446761D01*
X141825619Y-106446761D01*
X141635142Y-106351523D01*
X141539904Y-106256285D01*
X141444666Y-106065809D01*
X141444666Y-105875333D01*
X141539904Y-105684857D01*
X141635142Y-105589619D01*
X141825619Y-105494380D01*
X142206571Y-105399142D01*
X142397047Y-105303904D01*
X142492285Y-105208666D01*
X142587523Y-105018190D01*
X142587523Y-104827714D01*
X142492285Y-104637238D01*
X142397047Y-104542000D01*
X142206571Y-104446761D01*
X141730380Y-104446761D01*
X141444666Y-104542000D01*
X139063714Y-106446761D02*
X139063714Y-104446761D01*
X137920857Y-106446761D01*
X137920857Y-104446761D01*
X136968476Y-106446761D02*
X136968476Y-105113428D01*
X136968476Y-104446761D02*
X137063714Y-104542000D01*
X136968476Y-104637238D01*
X136873238Y-104542000D01*
X136968476Y-104446761D01*
X136968476Y-104637238D01*
X135158952Y-106351523D02*
X135349428Y-106446761D01*
X135730380Y-106446761D01*
X135920857Y-106351523D01*
X136016095Y-106256285D01*
X136111333Y-106065809D01*
X136111333Y-105494380D01*
X136016095Y-105303904D01*
X135920857Y-105208666D01*
X135730380Y-105113428D01*
X135349428Y-105113428D01*
X135158952Y-105208666D01*
X134016095Y-106446761D02*
X134206571Y-106351523D01*
X134301809Y-106256285D01*
X134397047Y-106065809D01*
X134397047Y-105494380D01*
X134301809Y-105303904D01*
X134206571Y-105208666D01*
X134016095Y-105113428D01*
X133730380Y-105113428D01*
X133539904Y-105208666D01*
X133444666Y-105303904D01*
X133349428Y-105494380D01*
X133349428Y-106065809D01*
X133444666Y-106256285D01*
X133539904Y-106351523D01*
X133730380Y-106446761D01*
X134016095Y-106446761D01*
X132206571Y-106446761D02*
X132397047Y-106351523D01*
X132492285Y-106161047D01*
X132492285Y-104446761D01*
X130587523Y-106446761D02*
X130587523Y-105399142D01*
X130682761Y-105208666D01*
X130873238Y-105113428D01*
X131254190Y-105113428D01*
X131444666Y-105208666D01*
X130587523Y-106351523D02*
X130778000Y-106446761D01*
X131254190Y-106446761D01*
X131444666Y-106351523D01*
X131539904Y-106161047D01*
X131539904Y-105970571D01*
X131444666Y-105780095D01*
X131254190Y-105684857D01*
X130778000Y-105684857D01*
X130587523Y-105589619D01*
X129730380Y-106351523D02*
X129539904Y-106446761D01*
X129158952Y-106446761D01*
X128968476Y-106351523D01*
X128873238Y-106161047D01*
X128873238Y-106065809D01*
X128968476Y-105875333D01*
X129158952Y-105780095D01*
X129444666Y-105780095D01*
X129635142Y-105684857D01*
X129730380Y-105494380D01*
X129730380Y-105399142D01*
X129635142Y-105208666D01*
X129444666Y-105113428D01*
X129158952Y-105113428D01*
X128968476Y-105208666D01*
X126492285Y-105684857D02*
X124968476Y-105684857D01*
X122111333Y-104446761D02*
X121920857Y-104446761D01*
X121730380Y-104542000D01*
X121635142Y-104637238D01*
X121539904Y-104827714D01*
X121444666Y-105208666D01*
X121444666Y-105684857D01*
X121539904Y-106065809D01*
X121635142Y-106256285D01*
X121730380Y-106351523D01*
X121920857Y-106446761D01*
X122111333Y-106446761D01*
X122301809Y-106351523D01*
X122397047Y-106256285D01*
X122492285Y-106065809D01*
X122587523Y-105684857D01*
X122587523Y-105208666D01*
X122492285Y-104827714D01*
X122397047Y-104637238D01*
X122301809Y-104542000D01*
X122111333Y-104446761D01*
X119539904Y-106446761D02*
X120682761Y-106446761D01*
X120111333Y-106446761D02*
X120111333Y-104446761D01*
X120301809Y-104732476D01*
X120492285Y-104922952D01*
X120682761Y-105018190D01*
X117254190Y-104351523D02*
X118968476Y-106922952D01*
X116682761Y-104637238D02*
X116587523Y-104542000D01*
X116397047Y-104446761D01*
X115920857Y-104446761D01*
X115730380Y-104542000D01*
X115635142Y-104637238D01*
X115539904Y-104827714D01*
X115539904Y-105018190D01*
X115635142Y-105303904D01*
X116778000Y-106446761D01*
X115539904Y-106446761D01*
X114301809Y-104446761D02*
X114111333Y-104446761D01*
X113920857Y-104542000D01*
X113825619Y-104637238D01*
X113730380Y-104827714D01*
X113635142Y-105208666D01*
X113635142Y-105684857D01*
X113730380Y-106065809D01*
X113825619Y-106256285D01*
X113920857Y-106351523D01*
X114111333Y-106446761D01*
X114301809Y-106446761D01*
X114492285Y-106351523D01*
X114587523Y-106256285D01*
X114682761Y-106065809D01*
X114778000Y-105684857D01*
X114778000Y-105208666D01*
X114682761Y-104827714D01*
X114587523Y-104637238D01*
X114492285Y-104542000D01*
X114301809Y-104446761D01*
X112873238Y-104637238D02*
X112778000Y-104542000D01*
X112587523Y-104446761D01*
X112111333Y-104446761D01*
X111920857Y-104542000D01*
X111825619Y-104637238D01*
X111730380Y-104827714D01*
X111730380Y-105018190D01*
X111825619Y-105303904D01*
X112968476Y-106446761D01*
X111730380Y-106446761D01*
X109825619Y-106446761D02*
X110968476Y-106446761D01*
X110397047Y-106446761D02*
X110397047Y-104446761D01*
X110587523Y-104732476D01*
X110778000Y-104922952D01*
X110968476Y-105018190D01*
X152635142Y-112951523D02*
X152825619Y-113046761D01*
X153206571Y-113046761D01*
X153397047Y-112951523D01*
X153492285Y-112856285D01*
X153587523Y-112665809D01*
X153587523Y-112094380D01*
X153492285Y-111903904D01*
X153397047Y-111808666D01*
X153206571Y-111713428D01*
X152825619Y-111713428D01*
X152635142Y-111808666D01*
X150920857Y-113046761D02*
X150920857Y-111999142D01*
X151016095Y-111808666D01*
X151206571Y-111713428D01*
X151587523Y-111713428D01*
X151778000Y-111808666D01*
X150920857Y-112951523D02*
X151111333Y-113046761D01*
X151587523Y-113046761D01*
X151778000Y-112951523D01*
X151873238Y-112761047D01*
X151873238Y-112570571D01*
X151778000Y-112380095D01*
X151587523Y-112284857D01*
X151111333Y-112284857D01*
X150920857Y-112189619D01*
X149968476Y-113046761D02*
X149968476Y-111713428D01*
X149968476Y-112094380D02*
X149873238Y-111903904D01*
X149778000Y-111808666D01*
X149587523Y-111713428D01*
X149397047Y-111713428D01*
X149016095Y-111713428D02*
X148254190Y-111713428D01*
X148730380Y-111046761D02*
X148730380Y-112761047D01*
X148635142Y-112951523D01*
X148444666Y-113046761D01*
X148254190Y-113046761D01*
X146825619Y-112951523D02*
X147016095Y-113046761D01*
X147397047Y-113046761D01*
X147587523Y-112951523D01*
X147682761Y-112761047D01*
X147682761Y-111999142D01*
X147587523Y-111808666D01*
X147397047Y-111713428D01*
X147016095Y-111713428D01*
X146825619Y-111808666D01*
X146730380Y-111999142D01*
X146730380Y-112189619D01*
X147682761Y-112380095D01*
X143492285Y-113046761D02*
X143492285Y-111046761D01*
X143492285Y-112951523D02*
X143682761Y-113046761D01*
X144063714Y-113046761D01*
X144254190Y-112951523D01*
X144349428Y-112856285D01*
X144444666Y-112665809D01*
X144444666Y-112094380D01*
X144349428Y-111903904D01*
X144254190Y-111808666D01*
X144063714Y-111713428D01*
X143682761Y-111713428D01*
X143492285Y-111808666D01*
X141778000Y-112951523D02*
X141968476Y-113046761D01*
X142349428Y-113046761D01*
X142539904Y-112951523D01*
X142635142Y-112761047D01*
X142635142Y-111999142D01*
X142539904Y-111808666D01*
X142349428Y-111713428D01*
X141968476Y-111713428D01*
X141778000Y-111808666D01*
X141682761Y-111999142D01*
X141682761Y-112189619D01*
X142635142Y-112380095D01*
X139301809Y-111713428D02*
X139301809Y-113713428D01*
X139301809Y-111808666D02*
X139111333Y-111713428D01*
X138730380Y-111713428D01*
X138539904Y-111808666D01*
X138444666Y-111903904D01*
X138349428Y-112094380D01*
X138349428Y-112665809D01*
X138444666Y-112856285D01*
X138539904Y-112951523D01*
X138730380Y-113046761D01*
X139111333Y-113046761D01*
X139301809Y-112951523D01*
X137492285Y-113046761D02*
X137492285Y-111713428D01*
X137492285Y-112094380D02*
X137397047Y-111903904D01*
X137301809Y-111808666D01*
X137111333Y-111713428D01*
X136920857Y-111713428D01*
X135968476Y-113046761D02*
X136158952Y-112951523D01*
X136254190Y-112856285D01*
X136349428Y-112665809D01*
X136349428Y-112094380D01*
X136254190Y-111903904D01*
X136158952Y-111808666D01*
X135968476Y-111713428D01*
X135682761Y-111713428D01*
X135492285Y-111808666D01*
X135397047Y-111903904D01*
X135301809Y-112094380D01*
X135301809Y-112665809D01*
X135397047Y-112856285D01*
X135492285Y-112951523D01*
X135682761Y-113046761D01*
X135968476Y-113046761D01*
X134730380Y-111713428D02*
X133968476Y-111713428D01*
X134444666Y-111046761D02*
X134444666Y-112761047D01*
X134349428Y-112951523D01*
X134158952Y-113046761D01*
X133968476Y-113046761D01*
X133016095Y-113046761D02*
X133206571Y-112951523D01*
X133301809Y-112856285D01*
X133397047Y-112665809D01*
X133397047Y-112094380D01*
X133301809Y-111903904D01*
X133206571Y-111808666D01*
X133016095Y-111713428D01*
X132730380Y-111713428D01*
X132539904Y-111808666D01*
X132444666Y-111903904D01*
X132349428Y-112094380D01*
X132349428Y-112665809D01*
X132444666Y-112856285D01*
X132539904Y-112951523D01*
X132730380Y-113046761D01*
X133016095Y-113046761D01*
X131778000Y-111713428D02*
X131016095Y-111713428D01*
X131492285Y-111046761D02*
X131492285Y-112761047D01*
X131397047Y-112951523D01*
X131206571Y-113046761D01*
X131016095Y-113046761D01*
X130539904Y-111713428D02*
X130063714Y-113046761D01*
X129587523Y-111713428D02*
X130063714Y-113046761D01*
X130254190Y-113522952D01*
X130349428Y-113618190D01*
X130539904Y-113713428D01*
X128825619Y-111713428D02*
X128825619Y-113713428D01*
X128825619Y-111808666D02*
X128635142Y-111713428D01*
X128254190Y-111713428D01*
X128063714Y-111808666D01*
X127968476Y-111903904D01*
X127873238Y-112094380D01*
X127873238Y-112665809D01*
X127968476Y-112856285D01*
X128063714Y-112951523D01*
X128254190Y-113046761D01*
X128635142Y-113046761D01*
X128825619Y-112951523D01*
X126254190Y-112951523D02*
X126444666Y-113046761D01*
X126825619Y-113046761D01*
X127016095Y-112951523D01*
X127111333Y-112761047D01*
X127111333Y-111999142D01*
X127016095Y-111808666D01*
X126825619Y-111713428D01*
X126444666Y-111713428D01*
X126254190Y-111808666D01*
X126158952Y-111999142D01*
X126158952Y-112189619D01*
X127111333Y-112380095D01*
X123873238Y-112951523D02*
X123682761Y-113046761D01*
X123301809Y-113046761D01*
X123111333Y-112951523D01*
X123016095Y-112761047D01*
X123016095Y-112665809D01*
X123111333Y-112475333D01*
X123301809Y-112380095D01*
X123587523Y-112380095D01*
X123778000Y-112284857D01*
X123873238Y-112094380D01*
X123873238Y-111999142D01*
X123778000Y-111808666D01*
X123587523Y-111713428D01*
X123301809Y-111713428D01*
X123111333Y-111808666D01*
X122444666Y-111713428D02*
X121682761Y-111713428D01*
X122158952Y-111046761D02*
X122158952Y-112761047D01*
X122063714Y-112951523D01*
X121873238Y-113046761D01*
X121682761Y-113046761D01*
X121016095Y-113046761D02*
X121016095Y-111713428D01*
X121016095Y-111903904D02*
X120920857Y-111808666D01*
X120730380Y-111713428D01*
X120444666Y-111713428D01*
X120254190Y-111808666D01*
X120158952Y-111999142D01*
X120158952Y-113046761D01*
X120158952Y-111999142D02*
X120063714Y-111808666D01*
X119873238Y-111713428D01*
X119587523Y-111713428D01*
X119397047Y-111808666D01*
X119301809Y-111999142D01*
X119301809Y-113046761D01*
X118539904Y-111046761D02*
X117301809Y-111046761D01*
X117968476Y-111808666D01*
X117682761Y-111808666D01*
X117492285Y-111903904D01*
X117397047Y-111999142D01*
X117301809Y-112189619D01*
X117301809Y-112665809D01*
X117397047Y-112856285D01*
X117492285Y-112951523D01*
X117682761Y-113046761D01*
X118254190Y-113046761D01*
X118444666Y-112951523D01*
X118539904Y-112856285D01*
X116539904Y-111237238D02*
X116444666Y-111142000D01*
X116254190Y-111046761D01*
X115778000Y-111046761D01*
X115587523Y-111142000D01*
X115492285Y-111237238D01*
X115397047Y-111427714D01*
X115397047Y-111618190D01*
X115492285Y-111903904D01*
X116635142Y-113046761D01*
X115397047Y-113046761D01*
X114825619Y-111713428D02*
X114063714Y-111713428D01*
X114539904Y-113046761D02*
X114539904Y-111332476D01*
X114444666Y-111142000D01*
X114254190Y-111046761D01*
X114063714Y-111046761D01*
X113016095Y-111046761D02*
X112825619Y-111046761D01*
X112635142Y-111142000D01*
X112539904Y-111237238D01*
X112444666Y-111427714D01*
X112349428Y-111808666D01*
X112349428Y-112284857D01*
X112444666Y-112665809D01*
X112539904Y-112856285D01*
X112635142Y-112951523D01*
X112825619Y-113046761D01*
X113016095Y-113046761D01*
X113206571Y-112951523D01*
X113301809Y-112856285D01*
X113397047Y-112665809D01*
X113492285Y-112284857D01*
X113492285Y-111808666D01*
X113397047Y-111427714D01*
X113301809Y-111237238D01*
X113206571Y-111142000D01*
X113016095Y-111046761D01*
X110635142Y-111713428D02*
X110635142Y-113046761D01*
X111111333Y-110951523D02*
X111587523Y-112380095D01*
X110349428Y-112380095D01*
X109682761Y-111237238D02*
X109587523Y-111142000D01*
X109397047Y-111046761D01*
X108920857Y-111046761D01*
X108730380Y-111142000D01*
X108635142Y-111237238D01*
X108539904Y-111427714D01*
X108539904Y-111618190D01*
X108635142Y-111903904D01*
X109778000Y-113046761D01*
X108539904Y-113046761D01*
X107968476Y-111713428D02*
X107206571Y-111713428D01*
X107682761Y-113046761D02*
X107682761Y-111332476D01*
X107587523Y-111142000D01*
X107397047Y-111046761D01*
X107206571Y-111046761D01*
X105682761Y-111046761D02*
X106063714Y-111046761D01*
X106254190Y-111142000D01*
X106349428Y-111237238D01*
X106539904Y-111522952D01*
X106635142Y-111903904D01*
X106635142Y-112665809D01*
X106539904Y-112856285D01*
X106444666Y-112951523D01*
X106254190Y-113046761D01*
X105873238Y-113046761D01*
X105682761Y-112951523D01*
X105587523Y-112856285D01*
X105492285Y-112665809D01*
X105492285Y-112189619D01*
X105587523Y-111999142D01*
X105682761Y-111903904D01*
X105873238Y-111808666D01*
X106254190Y-111808666D01*
X106444666Y-111903904D01*
X106539904Y-111999142D01*
X106635142Y-112189619D01*
X142444666Y-115584857D02*
X140920857Y-115584857D01*
X139968476Y-115584857D02*
X138444666Y-115584857D01*
X136254190Y-115013428D02*
X135492285Y-115013428D01*
X135968476Y-114346761D02*
X135968476Y-116061047D01*
X135873238Y-116251523D01*
X135682761Y-116346761D01*
X135492285Y-116346761D01*
X134825619Y-116346761D02*
X134825619Y-115013428D01*
X134825619Y-115394380D02*
X134730380Y-115203904D01*
X134635142Y-115108666D01*
X134444666Y-115013428D01*
X134254190Y-115013428D01*
X132730380Y-116346761D02*
X132730380Y-115299142D01*
X132825619Y-115108666D01*
X133016095Y-115013428D01*
X133397047Y-115013428D01*
X133587523Y-115108666D01*
X132730380Y-116251523D02*
X132920857Y-116346761D01*
X133397047Y-116346761D01*
X133587523Y-116251523D01*
X133682761Y-116061047D01*
X133682761Y-115870571D01*
X133587523Y-115680095D01*
X133397047Y-115584857D01*
X132920857Y-115584857D01*
X132730380Y-115489619D01*
X131778000Y-115013428D02*
X131778000Y-116346761D01*
X131778000Y-115203904D02*
X131682761Y-115108666D01*
X131492285Y-115013428D01*
X131206571Y-115013428D01*
X131016095Y-115108666D01*
X130920857Y-115299142D01*
X130920857Y-116346761D01*
X130063714Y-116251523D02*
X129873238Y-116346761D01*
X129492285Y-116346761D01*
X129301809Y-116251523D01*
X129206571Y-116061047D01*
X129206571Y-115965809D01*
X129301809Y-115775333D01*
X129492285Y-115680095D01*
X129778000Y-115680095D01*
X129968476Y-115584857D01*
X130063714Y-115394380D01*
X130063714Y-115299142D01*
X129968476Y-115108666D01*
X129778000Y-115013428D01*
X129492285Y-115013428D01*
X129301809Y-115108666D01*
X127492285Y-116251523D02*
X127682761Y-116346761D01*
X128063714Y-116346761D01*
X128254190Y-116251523D01*
X128349428Y-116156285D01*
X128444666Y-115965809D01*
X128444666Y-115394380D01*
X128349428Y-115203904D01*
X128254190Y-115108666D01*
X128063714Y-115013428D01*
X127682761Y-115013428D01*
X127492285Y-115108666D01*
X126635142Y-116346761D02*
X126635142Y-115013428D01*
X126635142Y-114346761D02*
X126730380Y-114442000D01*
X126635142Y-114537238D01*
X126539904Y-114442000D01*
X126635142Y-114346761D01*
X126635142Y-114537238D01*
X124920857Y-116251523D02*
X125111333Y-116346761D01*
X125492285Y-116346761D01*
X125682761Y-116251523D01*
X125778000Y-116061047D01*
X125778000Y-115299142D01*
X125682761Y-115108666D01*
X125492285Y-115013428D01*
X125111333Y-115013428D01*
X124920857Y-115108666D01*
X124825619Y-115299142D01*
X124825619Y-115489619D01*
X125778000Y-115680095D01*
X124158952Y-115013428D02*
X123682761Y-116346761D01*
X123206571Y-115013428D01*
X121682761Y-116251523D02*
X121873238Y-116346761D01*
X122254190Y-116346761D01*
X122444666Y-116251523D01*
X122539904Y-116061047D01*
X122539904Y-115299142D01*
X122444666Y-115108666D01*
X122254190Y-115013428D01*
X121873238Y-115013428D01*
X121682761Y-115108666D01*
X121587523Y-115299142D01*
X121587523Y-115489619D01*
X122539904Y-115680095D01*
X120730380Y-116346761D02*
X120730380Y-115013428D01*
X120730380Y-115394380D02*
X120635142Y-115203904D01*
X120539904Y-115108666D01*
X120349428Y-115013428D01*
X120158952Y-115013428D01*
X117111333Y-116251523D02*
X117301809Y-116346761D01*
X117682761Y-116346761D01*
X117873238Y-116251523D01*
X117968476Y-116156285D01*
X118063714Y-115965809D01*
X118063714Y-115394380D01*
X117968476Y-115203904D01*
X117873238Y-115108666D01*
X117682761Y-115013428D01*
X117301809Y-115013428D01*
X117111333Y-115108666D01*
X115397047Y-116346761D02*
X115397047Y-115299142D01*
X115492285Y-115108666D01*
X115682761Y-115013428D01*
X116063714Y-115013428D01*
X116254190Y-115108666D01*
X115397047Y-116251523D02*
X115587523Y-116346761D01*
X116063714Y-116346761D01*
X116254190Y-116251523D01*
X116349428Y-116061047D01*
X116349428Y-115870571D01*
X116254190Y-115680095D01*
X116063714Y-115584857D01*
X115587523Y-115584857D01*
X115397047Y-115489619D01*
X114444666Y-115013428D02*
X114444666Y-116346761D01*
X114444666Y-115203904D02*
X114349428Y-115108666D01*
X114158952Y-115013428D01*
X113873238Y-115013428D01*
X113682761Y-115108666D01*
X113587523Y-115299142D01*
X113587523Y-116346761D01*
X139301809Y-118884857D02*
X137778000Y-118884857D01*
X136825619Y-118884857D02*
X135301809Y-118884857D01*
X132539904Y-119646761D02*
X132730380Y-119551523D01*
X132825619Y-119361047D01*
X132825619Y-117646761D01*
X131016095Y-119551523D02*
X131206571Y-119646761D01*
X131587523Y-119646761D01*
X131778000Y-119551523D01*
X131873238Y-119361047D01*
X131873238Y-118599142D01*
X131778000Y-118408666D01*
X131587523Y-118313428D01*
X131206571Y-118313428D01*
X131016095Y-118408666D01*
X130920857Y-118599142D01*
X130920857Y-118789619D01*
X131873238Y-118980095D01*
X129206571Y-119646761D02*
X129206571Y-117646761D01*
X129206571Y-119551523D02*
X129397047Y-119646761D01*
X129778000Y-119646761D01*
X129968476Y-119551523D01*
X130063714Y-119456285D01*
X130158952Y-119265809D01*
X130158952Y-118694380D01*
X130063714Y-118503904D01*
X129968476Y-118408666D01*
X129778000Y-118313428D01*
X129397047Y-118313428D01*
X129206571Y-118408666D01*
X125873238Y-119646761D02*
X125873238Y-117646761D01*
X125873238Y-119551523D02*
X126063714Y-119646761D01*
X126444666Y-119646761D01*
X126635142Y-119551523D01*
X126730380Y-119456285D01*
X126825619Y-119265809D01*
X126825619Y-118694380D01*
X126730380Y-118503904D01*
X126635142Y-118408666D01*
X126444666Y-118313428D01*
X126063714Y-118313428D01*
X125873238Y-118408666D01*
X124158952Y-119551523D02*
X124349428Y-119646761D01*
X124730380Y-119646761D01*
X124920857Y-119551523D01*
X125016095Y-119361047D01*
X125016095Y-118599142D01*
X124920857Y-118408666D01*
X124730380Y-118313428D01*
X124349428Y-118313428D01*
X124158952Y-118408666D01*
X124063714Y-118599142D01*
X124063714Y-118789619D01*
X125016095Y-118980095D01*
X121873238Y-118313428D02*
X121397047Y-119646761D01*
X120920857Y-118313428D01*
X120158952Y-119646761D02*
X120158952Y-118313428D01*
X120158952Y-117646761D02*
X120254190Y-117742000D01*
X120158952Y-117837238D01*
X120063714Y-117742000D01*
X120158952Y-117646761D01*
X120158952Y-117837238D01*
X119301809Y-119551523D02*
X119111333Y-119646761D01*
X118730380Y-119646761D01*
X118539904Y-119551523D01*
X118444666Y-119361047D01*
X118444666Y-119265809D01*
X118539904Y-119075333D01*
X118730380Y-118980095D01*
X119016095Y-118980095D01*
X119206571Y-118884857D01*
X119301809Y-118694380D01*
X119301809Y-118599142D01*
X119206571Y-118408666D01*
X119016095Y-118313428D01*
X118730380Y-118313428D01*
X118539904Y-118408666D01*
X116730380Y-118313428D02*
X116730380Y-119646761D01*
X117587523Y-118313428D02*
X117587523Y-119361047D01*
X117492285Y-119551523D01*
X117301809Y-119646761D01*
X117016095Y-119646761D01*
X116825619Y-119551523D01*
X116730380Y-119456285D01*
X141920857Y-122184857D02*
X140397047Y-122184857D01*
X139444666Y-122184857D02*
X137920857Y-122184857D01*
X135730380Y-121613428D02*
X134968476Y-121613428D01*
X135444666Y-122946761D02*
X135444666Y-121232476D01*
X135349428Y-121042000D01*
X135158952Y-120946761D01*
X134968476Y-120946761D01*
X134301809Y-122946761D02*
X134301809Y-121613428D01*
X134301809Y-120946761D02*
X134397047Y-121042000D01*
X134301809Y-121137238D01*
X134206571Y-121042000D01*
X134301809Y-120946761D01*
X134301809Y-121137238D01*
X133063714Y-122946761D02*
X133254190Y-122851523D01*
X133349428Y-122661047D01*
X133349428Y-120946761D01*
X132587523Y-121613428D02*
X131825619Y-121613428D01*
X132301809Y-120946761D02*
X132301809Y-122661047D01*
X132206571Y-122851523D01*
X132016095Y-122946761D01*
X131825619Y-122946761D01*
X131158952Y-122946761D02*
X131158952Y-121613428D01*
X131158952Y-121994380D02*
X131063714Y-121803904D01*
X130968476Y-121708666D01*
X130778000Y-121613428D01*
X130587523Y-121613428D01*
X129158952Y-122851523D02*
X129349428Y-122946761D01*
X129730380Y-122946761D01*
X129920857Y-122851523D01*
X130016095Y-122661047D01*
X130016095Y-121899142D01*
X129920857Y-121708666D01*
X129730380Y-121613428D01*
X129349428Y-121613428D01*
X129158952Y-121708666D01*
X129063714Y-121899142D01*
X129063714Y-122089619D01*
X130016095Y-122280095D01*
X126682761Y-121613428D02*
X126682761Y-123613428D01*
X126682761Y-121708666D02*
X126492285Y-121613428D01*
X126111333Y-121613428D01*
X125920857Y-121708666D01*
X125825619Y-121803904D01*
X125730380Y-121994380D01*
X125730380Y-122565809D01*
X125825619Y-122756285D01*
X125920857Y-122851523D01*
X126111333Y-122946761D01*
X126492285Y-122946761D01*
X126682761Y-122851523D01*
X124587523Y-122946761D02*
X124778000Y-122851523D01*
X124873238Y-122756285D01*
X124968476Y-122565809D01*
X124968476Y-121994380D01*
X124873238Y-121803904D01*
X124778000Y-121708666D01*
X124587523Y-121613428D01*
X124301809Y-121613428D01*
X124111333Y-121708666D01*
X124016095Y-121803904D01*
X123920857Y-121994380D01*
X123920857Y-122565809D01*
X124016095Y-122756285D01*
X124111333Y-122851523D01*
X124301809Y-122946761D01*
X124587523Y-122946761D01*
X122206571Y-121613428D02*
X122206571Y-122946761D01*
X123063714Y-121613428D02*
X123063714Y-122661047D01*
X122968476Y-122851523D01*
X122778000Y-122946761D01*
X122492285Y-122946761D01*
X122301809Y-122851523D01*
X122206571Y-122756285D01*
X121254190Y-122946761D02*
X121254190Y-121613428D01*
X121254190Y-121994380D02*
X121158952Y-121803904D01*
X121063714Y-121708666D01*
X120873238Y-121613428D01*
X120682761Y-121613428D01*
X117635142Y-122946761D02*
X117635142Y-121899142D01*
X117730380Y-121708666D01*
X117920857Y-121613428D01*
X118301809Y-121613428D01*
X118492285Y-121708666D01*
X117635142Y-122851523D02*
X117825619Y-122946761D01*
X118301809Y-122946761D01*
X118492285Y-122851523D01*
X118587523Y-122661047D01*
X118587523Y-122470571D01*
X118492285Y-122280095D01*
X118301809Y-122184857D01*
X117825619Y-122184857D01*
X117635142Y-122089619D01*
X115825619Y-122946761D02*
X115825619Y-120946761D01*
X115825619Y-122851523D02*
X116016095Y-122946761D01*
X116397047Y-122946761D01*
X116587523Y-122851523D01*
X116682761Y-122756285D01*
X116778000Y-122565809D01*
X116778000Y-121994380D01*
X116682761Y-121803904D01*
X116587523Y-121708666D01*
X116397047Y-121613428D01*
X116016095Y-121613428D01*
X115825619Y-121708666D01*
X114016095Y-122851523D02*
X114206571Y-122946761D01*
X114587523Y-122946761D01*
X114778000Y-122851523D01*
X114873238Y-122756285D01*
X114968476Y-122565809D01*
X114968476Y-121994380D01*
X114873238Y-121803904D01*
X114778000Y-121708666D01*
X114587523Y-121613428D01*
X114206571Y-121613428D01*
X114016095Y-121708666D01*
M02*
